G04 #@! TF.GenerationSoftware,KiCad,Pcbnew,5.1.4*
G04 #@! TF.CreationDate,2019-09-20T20:02:23+02:00*
G04 #@! TF.ProjectId,PolivoksVCF,506f6c69-766f-46b7-9356-43462e6b6963,rev?*
G04 #@! TF.SameCoordinates,Original*
G04 #@! TF.FileFunction,Soldermask,Bot*
G04 #@! TF.FilePolarity,Negative*
%FSLAX46Y46*%
G04 Gerber Fmt 4.6, Leading zero omitted, Abs format (unit mm)*
G04 Created by KiCad (PCBNEW 5.1.4) date 2019-09-20 20:02:23*
%MOMM*%
%LPD*%
G04 APERTURE LIST*
%ADD10C,0.100000*%
G04 APERTURE END LIST*
D10*
G36*
X273806083Y-118366581D02*
G01*
X273876420Y-118380572D01*
X274075188Y-118462905D01*
X274254074Y-118582433D01*
X274406204Y-118734563D01*
X274525732Y-118913449D01*
X274608065Y-119112217D01*
X274650037Y-119323228D01*
X274650037Y-119538372D01*
X274608065Y-119749383D01*
X274525732Y-119948151D01*
X274406204Y-120127037D01*
X274254074Y-120279167D01*
X274075188Y-120398695D01*
X273876420Y-120481028D01*
X273807906Y-120494656D01*
X273707123Y-120514703D01*
X273683674Y-120521816D01*
X273662063Y-120533367D01*
X273643121Y-120548912D01*
X273627576Y-120567854D01*
X273616025Y-120589465D01*
X273608912Y-120612914D01*
X273606510Y-120637300D01*
X273608912Y-120661686D01*
X273616025Y-120685135D01*
X273627576Y-120706746D01*
X273643121Y-120725688D01*
X273662063Y-120741233D01*
X273683674Y-120752784D01*
X273707123Y-120759897D01*
X273807906Y-120779944D01*
X273876420Y-120793572D01*
X274075188Y-120875905D01*
X274254074Y-120995433D01*
X274406204Y-121147563D01*
X274525732Y-121326449D01*
X274608065Y-121525217D01*
X274650037Y-121736228D01*
X274650037Y-121951372D01*
X274608065Y-122162383D01*
X274525732Y-122361151D01*
X274406204Y-122540037D01*
X274254074Y-122692167D01*
X274075188Y-122811695D01*
X273876420Y-122894028D01*
X273806083Y-122908019D01*
X273665411Y-122936000D01*
X273450263Y-122936000D01*
X273309591Y-122908019D01*
X273239254Y-122894028D01*
X273040486Y-122811695D01*
X272861600Y-122692167D01*
X272709470Y-122540037D01*
X272589942Y-122361151D01*
X272507609Y-122162383D01*
X272465637Y-121951372D01*
X272465637Y-121736228D01*
X272507609Y-121525217D01*
X272589942Y-121326449D01*
X272709470Y-121147563D01*
X272861600Y-120995433D01*
X273040486Y-120875905D01*
X273239254Y-120793572D01*
X273307768Y-120779944D01*
X273408551Y-120759897D01*
X273432000Y-120752784D01*
X273453611Y-120741233D01*
X273472553Y-120725688D01*
X273488098Y-120706746D01*
X273499649Y-120685135D01*
X273506762Y-120661686D01*
X273509164Y-120637300D01*
X273506762Y-120612914D01*
X273499649Y-120589465D01*
X273488098Y-120567854D01*
X273472553Y-120548912D01*
X273453611Y-120533367D01*
X273432000Y-120521816D01*
X273408551Y-120514703D01*
X273307768Y-120494656D01*
X273239254Y-120481028D01*
X273040486Y-120398695D01*
X272861600Y-120279167D01*
X272709470Y-120127037D01*
X272589942Y-119948151D01*
X272507609Y-119749383D01*
X272465637Y-119538372D01*
X272465637Y-119323228D01*
X272507609Y-119112217D01*
X272589942Y-118913449D01*
X272709470Y-118734563D01*
X272861600Y-118582433D01*
X273040486Y-118462905D01*
X273239254Y-118380572D01*
X273309591Y-118366581D01*
X273450263Y-118338600D01*
X273665411Y-118338600D01*
X273806083Y-118366581D01*
X273806083Y-118366581D01*
G37*
G36*
X258058083Y-118366581D02*
G01*
X258128420Y-118380572D01*
X258327188Y-118462905D01*
X258506074Y-118582433D01*
X258658204Y-118734563D01*
X258777732Y-118913449D01*
X258860065Y-119112217D01*
X258902037Y-119323228D01*
X258902037Y-119538372D01*
X258860065Y-119749383D01*
X258777732Y-119948151D01*
X258658204Y-120127037D01*
X258506074Y-120279167D01*
X258327188Y-120398695D01*
X258128420Y-120481028D01*
X258059906Y-120494656D01*
X257959123Y-120514703D01*
X257935674Y-120521816D01*
X257914063Y-120533367D01*
X257895121Y-120548912D01*
X257879576Y-120567854D01*
X257868025Y-120589465D01*
X257860912Y-120612914D01*
X257858510Y-120637300D01*
X257860912Y-120661686D01*
X257868025Y-120685135D01*
X257879576Y-120706746D01*
X257895121Y-120725688D01*
X257914063Y-120741233D01*
X257935674Y-120752784D01*
X257959123Y-120759897D01*
X258059906Y-120779944D01*
X258128420Y-120793572D01*
X258327188Y-120875905D01*
X258506074Y-120995433D01*
X258658204Y-121147563D01*
X258777732Y-121326449D01*
X258860065Y-121525217D01*
X258902037Y-121736228D01*
X258902037Y-121951372D01*
X258860065Y-122162383D01*
X258777732Y-122361151D01*
X258658204Y-122540037D01*
X258506074Y-122692167D01*
X258327188Y-122811695D01*
X258128420Y-122894028D01*
X258058083Y-122908019D01*
X257917411Y-122936000D01*
X257702263Y-122936000D01*
X257561591Y-122908019D01*
X257491254Y-122894028D01*
X257292486Y-122811695D01*
X257113600Y-122692167D01*
X256961470Y-122540037D01*
X256841942Y-122361151D01*
X256759609Y-122162383D01*
X256717637Y-121951372D01*
X256717637Y-121736228D01*
X256759609Y-121525217D01*
X256841942Y-121326449D01*
X256961470Y-121147563D01*
X257113600Y-120995433D01*
X257292486Y-120875905D01*
X257491254Y-120793572D01*
X257559768Y-120779944D01*
X257660551Y-120759897D01*
X257684000Y-120752784D01*
X257705611Y-120741233D01*
X257724553Y-120725688D01*
X257740098Y-120706746D01*
X257751649Y-120685135D01*
X257758762Y-120661686D01*
X257761164Y-120637300D01*
X257758762Y-120612914D01*
X257751649Y-120589465D01*
X257740098Y-120567854D01*
X257724553Y-120548912D01*
X257705611Y-120533367D01*
X257684000Y-120521816D01*
X257660551Y-120514703D01*
X257559768Y-120494656D01*
X257491254Y-120481028D01*
X257292486Y-120398695D01*
X257113600Y-120279167D01*
X256961470Y-120127037D01*
X256841942Y-119948151D01*
X256759609Y-119749383D01*
X256717637Y-119538372D01*
X256717637Y-119323228D01*
X256759609Y-119112217D01*
X256841942Y-118913449D01*
X256961470Y-118734563D01*
X257113600Y-118582433D01*
X257292486Y-118462905D01*
X257491254Y-118380572D01*
X257561591Y-118366581D01*
X257702263Y-118338600D01*
X257917411Y-118338600D01*
X258058083Y-118366581D01*
X258058083Y-118366581D01*
G37*
G36*
X273981078Y-114682760D02*
G01*
X274245142Y-114792139D01*
X274482795Y-114950934D01*
X274684903Y-115153042D01*
X274843698Y-115390695D01*
X274953077Y-115654759D01*
X275008837Y-115935088D01*
X275008837Y-116220912D01*
X274953077Y-116501241D01*
X274843698Y-116765305D01*
X274684903Y-117002958D01*
X274482795Y-117205066D01*
X274245142Y-117363861D01*
X273981078Y-117473240D01*
X273700749Y-117529000D01*
X273414925Y-117529000D01*
X273134596Y-117473240D01*
X272870532Y-117363861D01*
X272632879Y-117205066D01*
X272430771Y-117002958D01*
X272271976Y-116765305D01*
X272162597Y-116501241D01*
X272106837Y-116220912D01*
X272106837Y-115935088D01*
X272162597Y-115654759D01*
X272271976Y-115390695D01*
X272430771Y-115153042D01*
X272632879Y-114950934D01*
X272870532Y-114792139D01*
X273134596Y-114682760D01*
X273414925Y-114627000D01*
X273700749Y-114627000D01*
X273981078Y-114682760D01*
X273981078Y-114682760D01*
G37*
G36*
X258233078Y-114682760D02*
G01*
X258497142Y-114792139D01*
X258734795Y-114950934D01*
X258936903Y-115153042D01*
X259095698Y-115390695D01*
X259205077Y-115654759D01*
X259260837Y-115935088D01*
X259260837Y-116220912D01*
X259205077Y-116501241D01*
X259095698Y-116765305D01*
X258936903Y-117002958D01*
X258734795Y-117205066D01*
X258497142Y-117363861D01*
X258233078Y-117473240D01*
X257952749Y-117529000D01*
X257666925Y-117529000D01*
X257386596Y-117473240D01*
X257122532Y-117363861D01*
X256884879Y-117205066D01*
X256682771Y-117002958D01*
X256523976Y-116765305D01*
X256414597Y-116501241D01*
X256358837Y-116220912D01*
X256358837Y-115935088D01*
X256414597Y-115654759D01*
X256523976Y-115390695D01*
X256682771Y-115153042D01*
X256884879Y-114950934D01*
X257122532Y-114792139D01*
X257386596Y-114682760D01*
X257666925Y-114627000D01*
X257952749Y-114627000D01*
X258233078Y-114682760D01*
X258233078Y-114682760D01*
G37*
G36*
X258058083Y-109806781D02*
G01*
X258128420Y-109820772D01*
X258327188Y-109903105D01*
X258506074Y-110022633D01*
X258658204Y-110174763D01*
X258777732Y-110353649D01*
X258860065Y-110552417D01*
X258902037Y-110763428D01*
X258902037Y-110978572D01*
X258860065Y-111189583D01*
X258777732Y-111388351D01*
X258658204Y-111567237D01*
X258506074Y-111719367D01*
X258327188Y-111838895D01*
X258128420Y-111921228D01*
X258058083Y-111935219D01*
X257917411Y-111963200D01*
X257702263Y-111963200D01*
X257561591Y-111935219D01*
X257491254Y-111921228D01*
X257292486Y-111838895D01*
X257113600Y-111719367D01*
X256961470Y-111567237D01*
X256841942Y-111388351D01*
X256759609Y-111189583D01*
X256717637Y-110978572D01*
X256717637Y-110763428D01*
X256759609Y-110552417D01*
X256841942Y-110353649D01*
X256961470Y-110174763D01*
X257113600Y-110022633D01*
X257292486Y-109903105D01*
X257491254Y-109820772D01*
X257561591Y-109806781D01*
X257702263Y-109778800D01*
X257917411Y-109778800D01*
X258058083Y-109806781D01*
X258058083Y-109806781D01*
G37*
G36*
X273806083Y-109806781D02*
G01*
X273876420Y-109820772D01*
X274075188Y-109903105D01*
X274254074Y-110022633D01*
X274406204Y-110174763D01*
X274525732Y-110353649D01*
X274608065Y-110552417D01*
X274650037Y-110763428D01*
X274650037Y-110978572D01*
X274608065Y-111189583D01*
X274525732Y-111388351D01*
X274406204Y-111567237D01*
X274254074Y-111719367D01*
X274075188Y-111838895D01*
X273876420Y-111921228D01*
X273806083Y-111935219D01*
X273665411Y-111963200D01*
X273450263Y-111963200D01*
X273309591Y-111935219D01*
X273239254Y-111921228D01*
X273040486Y-111838895D01*
X272861600Y-111719367D01*
X272709470Y-111567237D01*
X272589942Y-111388351D01*
X272507609Y-111189583D01*
X272465637Y-110978572D01*
X272465637Y-110763428D01*
X272507609Y-110552417D01*
X272589942Y-110353649D01*
X272709470Y-110174763D01*
X272861600Y-110022633D01*
X273040486Y-109903105D01*
X273239254Y-109820772D01*
X273309591Y-109806781D01*
X273450263Y-109778800D01*
X273665411Y-109778800D01*
X273806083Y-109806781D01*
X273806083Y-109806781D01*
G37*
G36*
X273806083Y-104396581D02*
G01*
X273876420Y-104410572D01*
X274075188Y-104492905D01*
X274254074Y-104612433D01*
X274406204Y-104764563D01*
X274525732Y-104943449D01*
X274608065Y-105142217D01*
X274650037Y-105353228D01*
X274650037Y-105568372D01*
X274608065Y-105779383D01*
X274525732Y-105978151D01*
X274406204Y-106157037D01*
X274254074Y-106309167D01*
X274075188Y-106428695D01*
X273876420Y-106511028D01*
X273807906Y-106524656D01*
X273707123Y-106544703D01*
X273683674Y-106551816D01*
X273662063Y-106563367D01*
X273643121Y-106578912D01*
X273627576Y-106597854D01*
X273616025Y-106619465D01*
X273608912Y-106642914D01*
X273606510Y-106667300D01*
X273608912Y-106691686D01*
X273616025Y-106715135D01*
X273627576Y-106736746D01*
X273643121Y-106755688D01*
X273662063Y-106771233D01*
X273683674Y-106782784D01*
X273707123Y-106789897D01*
X273807906Y-106809944D01*
X273876420Y-106823572D01*
X274075188Y-106905905D01*
X274254074Y-107025433D01*
X274406204Y-107177563D01*
X274525732Y-107356449D01*
X274608065Y-107555217D01*
X274650037Y-107766228D01*
X274650037Y-107981372D01*
X274608065Y-108192383D01*
X274525732Y-108391151D01*
X274406204Y-108570037D01*
X274254074Y-108722167D01*
X274075188Y-108841695D01*
X273876420Y-108924028D01*
X273806083Y-108938019D01*
X273665411Y-108966000D01*
X273450263Y-108966000D01*
X273309591Y-108938019D01*
X273239254Y-108924028D01*
X273040486Y-108841695D01*
X272861600Y-108722167D01*
X272709470Y-108570037D01*
X272589942Y-108391151D01*
X272507609Y-108192383D01*
X272465637Y-107981372D01*
X272465637Y-107766228D01*
X272507609Y-107555217D01*
X272589942Y-107356449D01*
X272709470Y-107177563D01*
X272861600Y-107025433D01*
X273040486Y-106905905D01*
X273239254Y-106823572D01*
X273307768Y-106809944D01*
X273408551Y-106789897D01*
X273432000Y-106782784D01*
X273453611Y-106771233D01*
X273472553Y-106755688D01*
X273488098Y-106736746D01*
X273499649Y-106715135D01*
X273506762Y-106691686D01*
X273509164Y-106667300D01*
X273506762Y-106642914D01*
X273499649Y-106619465D01*
X273488098Y-106597854D01*
X273472553Y-106578912D01*
X273453611Y-106563367D01*
X273432000Y-106551816D01*
X273408551Y-106544703D01*
X273307768Y-106524656D01*
X273239254Y-106511028D01*
X273040486Y-106428695D01*
X272861600Y-106309167D01*
X272709470Y-106157037D01*
X272589942Y-105978151D01*
X272507609Y-105779383D01*
X272465637Y-105568372D01*
X272465637Y-105353228D01*
X272507609Y-105142217D01*
X272589942Y-104943449D01*
X272709470Y-104764563D01*
X272861600Y-104612433D01*
X273040486Y-104492905D01*
X273239254Y-104410572D01*
X273309591Y-104396581D01*
X273450263Y-104368600D01*
X273665411Y-104368600D01*
X273806083Y-104396581D01*
X273806083Y-104396581D01*
G37*
G36*
X258058083Y-104396581D02*
G01*
X258128420Y-104410572D01*
X258327188Y-104492905D01*
X258506074Y-104612433D01*
X258658204Y-104764563D01*
X258777732Y-104943449D01*
X258860065Y-105142217D01*
X258902037Y-105353228D01*
X258902037Y-105568372D01*
X258860065Y-105779383D01*
X258777732Y-105978151D01*
X258658204Y-106157037D01*
X258506074Y-106309167D01*
X258327188Y-106428695D01*
X258128420Y-106511028D01*
X258059906Y-106524656D01*
X257959123Y-106544703D01*
X257935674Y-106551816D01*
X257914063Y-106563367D01*
X257895121Y-106578912D01*
X257879576Y-106597854D01*
X257868025Y-106619465D01*
X257860912Y-106642914D01*
X257858510Y-106667300D01*
X257860912Y-106691686D01*
X257868025Y-106715135D01*
X257879576Y-106736746D01*
X257895121Y-106755688D01*
X257914063Y-106771233D01*
X257935674Y-106782784D01*
X257959123Y-106789897D01*
X258059906Y-106809944D01*
X258128420Y-106823572D01*
X258327188Y-106905905D01*
X258506074Y-107025433D01*
X258658204Y-107177563D01*
X258777732Y-107356449D01*
X258860065Y-107555217D01*
X258902037Y-107766228D01*
X258902037Y-107981372D01*
X258860065Y-108192383D01*
X258777732Y-108391151D01*
X258658204Y-108570037D01*
X258506074Y-108722167D01*
X258327188Y-108841695D01*
X258128420Y-108924028D01*
X258058083Y-108938019D01*
X257917411Y-108966000D01*
X257702263Y-108966000D01*
X257561591Y-108938019D01*
X257491254Y-108924028D01*
X257292486Y-108841695D01*
X257113600Y-108722167D01*
X256961470Y-108570037D01*
X256841942Y-108391151D01*
X256759609Y-108192383D01*
X256717637Y-107981372D01*
X256717637Y-107766228D01*
X256759609Y-107555217D01*
X256841942Y-107356449D01*
X256961470Y-107177563D01*
X257113600Y-107025433D01*
X257292486Y-106905905D01*
X257491254Y-106823572D01*
X257559768Y-106809944D01*
X257660551Y-106789897D01*
X257684000Y-106782784D01*
X257705611Y-106771233D01*
X257724553Y-106755688D01*
X257740098Y-106736746D01*
X257751649Y-106715135D01*
X257758762Y-106691686D01*
X257761164Y-106667300D01*
X257758762Y-106642914D01*
X257751649Y-106619465D01*
X257740098Y-106597854D01*
X257724553Y-106578912D01*
X257705611Y-106563367D01*
X257684000Y-106551816D01*
X257660551Y-106544703D01*
X257559768Y-106524656D01*
X257491254Y-106511028D01*
X257292486Y-106428695D01*
X257113600Y-106309167D01*
X256961470Y-106157037D01*
X256841942Y-105978151D01*
X256759609Y-105779383D01*
X256717637Y-105568372D01*
X256717637Y-105353228D01*
X256759609Y-105142217D01*
X256841942Y-104943449D01*
X256961470Y-104764563D01*
X257113600Y-104612433D01*
X257292486Y-104492905D01*
X257491254Y-104410572D01*
X257561591Y-104396581D01*
X257702263Y-104368600D01*
X257917411Y-104368600D01*
X258058083Y-104396581D01*
X258058083Y-104396581D01*
G37*
G36*
X258233078Y-100712760D02*
G01*
X258497142Y-100822139D01*
X258734795Y-100980934D01*
X258936903Y-101183042D01*
X259095698Y-101420695D01*
X259205077Y-101684759D01*
X259260837Y-101965088D01*
X259260837Y-102250912D01*
X259205077Y-102531241D01*
X259095698Y-102795305D01*
X258936903Y-103032958D01*
X258734795Y-103235066D01*
X258497142Y-103393861D01*
X258233078Y-103503240D01*
X257952749Y-103559000D01*
X257666925Y-103559000D01*
X257386596Y-103503240D01*
X257122532Y-103393861D01*
X256884879Y-103235066D01*
X256682771Y-103032958D01*
X256523976Y-102795305D01*
X256414597Y-102531241D01*
X256358837Y-102250912D01*
X256358837Y-101965088D01*
X256414597Y-101684759D01*
X256523976Y-101420695D01*
X256682771Y-101183042D01*
X256884879Y-100980934D01*
X257122532Y-100822139D01*
X257386596Y-100712760D01*
X257666925Y-100657000D01*
X257952749Y-100657000D01*
X258233078Y-100712760D01*
X258233078Y-100712760D01*
G37*
G36*
X273981078Y-100712760D02*
G01*
X274245142Y-100822139D01*
X274482795Y-100980934D01*
X274684903Y-101183042D01*
X274843698Y-101420695D01*
X274953077Y-101684759D01*
X275008837Y-101965088D01*
X275008837Y-102250912D01*
X274953077Y-102531241D01*
X274843698Y-102795305D01*
X274684903Y-103032958D01*
X274482795Y-103235066D01*
X274245142Y-103393861D01*
X273981078Y-103503240D01*
X273700749Y-103559000D01*
X273414925Y-103559000D01*
X273134596Y-103503240D01*
X272870532Y-103393861D01*
X272632879Y-103235066D01*
X272430771Y-103032958D01*
X272271976Y-102795305D01*
X272162597Y-102531241D01*
X272106837Y-102250912D01*
X272106837Y-101965088D01*
X272162597Y-101684759D01*
X272271976Y-101420695D01*
X272430771Y-101183042D01*
X272632879Y-100980934D01*
X272870532Y-100822139D01*
X273134596Y-100712760D01*
X273414925Y-100657000D01*
X273700749Y-100657000D01*
X273981078Y-100712760D01*
X273981078Y-100712760D01*
G37*
G36*
X273806083Y-95836781D02*
G01*
X273876420Y-95850772D01*
X274075188Y-95933105D01*
X274254074Y-96052633D01*
X274406204Y-96204763D01*
X274525732Y-96383649D01*
X274608065Y-96582417D01*
X274650037Y-96793428D01*
X274650037Y-97008572D01*
X274608065Y-97219583D01*
X274525732Y-97418351D01*
X274406204Y-97597237D01*
X274254074Y-97749367D01*
X274075188Y-97868895D01*
X273876420Y-97951228D01*
X273806083Y-97965219D01*
X273665411Y-97993200D01*
X273450263Y-97993200D01*
X273309591Y-97965219D01*
X273239254Y-97951228D01*
X273040486Y-97868895D01*
X272861600Y-97749367D01*
X272709470Y-97597237D01*
X272589942Y-97418351D01*
X272507609Y-97219583D01*
X272465637Y-97008572D01*
X272465637Y-96793428D01*
X272507609Y-96582417D01*
X272589942Y-96383649D01*
X272709470Y-96204763D01*
X272861600Y-96052633D01*
X273040486Y-95933105D01*
X273239254Y-95850772D01*
X273309591Y-95836781D01*
X273450263Y-95808800D01*
X273665411Y-95808800D01*
X273806083Y-95836781D01*
X273806083Y-95836781D01*
G37*
G36*
X258058083Y-95836781D02*
G01*
X258128420Y-95850772D01*
X258327188Y-95933105D01*
X258506074Y-96052633D01*
X258658204Y-96204763D01*
X258777732Y-96383649D01*
X258860065Y-96582417D01*
X258902037Y-96793428D01*
X258902037Y-97008572D01*
X258860065Y-97219583D01*
X258777732Y-97418351D01*
X258658204Y-97597237D01*
X258506074Y-97749367D01*
X258327188Y-97868895D01*
X258128420Y-97951228D01*
X258058083Y-97965219D01*
X257917411Y-97993200D01*
X257702263Y-97993200D01*
X257561591Y-97965219D01*
X257491254Y-97951228D01*
X257292486Y-97868895D01*
X257113600Y-97749367D01*
X256961470Y-97597237D01*
X256841942Y-97418351D01*
X256759609Y-97219583D01*
X256717637Y-97008572D01*
X256717637Y-96793428D01*
X256759609Y-96582417D01*
X256841942Y-96383649D01*
X256961470Y-96204763D01*
X257113600Y-96052633D01*
X257292486Y-95933105D01*
X257491254Y-95850772D01*
X257561591Y-95836781D01*
X257702263Y-95808800D01*
X257917411Y-95808800D01*
X258058083Y-95836781D01*
X258058083Y-95836781D01*
G37*
G36*
X276375729Y-91694154D02*
G01*
X276549110Y-91765971D01*
X276705148Y-91870232D01*
X276837848Y-92002932D01*
X276942109Y-92158970D01*
X277013926Y-92332351D01*
X277050537Y-92516410D01*
X277050537Y-92704076D01*
X277013926Y-92888135D01*
X276942109Y-93061516D01*
X276837848Y-93217554D01*
X276705148Y-93350254D01*
X276549110Y-93454515D01*
X276549109Y-93454516D01*
X276549108Y-93454516D01*
X276375729Y-93526332D01*
X276191671Y-93562943D01*
X276004003Y-93562943D01*
X275819945Y-93526332D01*
X275646566Y-93454516D01*
X275646565Y-93454516D01*
X275646564Y-93454515D01*
X275490526Y-93350254D01*
X275357826Y-93217554D01*
X275253565Y-93061516D01*
X275181748Y-92888135D01*
X275145137Y-92704076D01*
X275145137Y-92516410D01*
X275181748Y-92332351D01*
X275253565Y-92158970D01*
X275357826Y-92002932D01*
X275490526Y-91870232D01*
X275646564Y-91765971D01*
X275819945Y-91694154D01*
X276004003Y-91657543D01*
X276191671Y-91657543D01*
X276375729Y-91694154D01*
X276375729Y-91694154D01*
G37*
G36*
X260627729Y-91694154D02*
G01*
X260801110Y-91765971D01*
X260957148Y-91870232D01*
X261089848Y-92002932D01*
X261194109Y-92158970D01*
X261265926Y-92332351D01*
X261302537Y-92516410D01*
X261302537Y-92704076D01*
X261265926Y-92888135D01*
X261194109Y-93061516D01*
X261089848Y-93217554D01*
X260957148Y-93350254D01*
X260801110Y-93454515D01*
X260801109Y-93454516D01*
X260801108Y-93454516D01*
X260627729Y-93526332D01*
X260443671Y-93562943D01*
X260256003Y-93562943D01*
X260071945Y-93526332D01*
X259898566Y-93454516D01*
X259898565Y-93454516D01*
X259898564Y-93454515D01*
X259742526Y-93350254D01*
X259609826Y-93217554D01*
X259505565Y-93061516D01*
X259433748Y-92888135D01*
X259397137Y-92704076D01*
X259397137Y-92516410D01*
X259433748Y-92332351D01*
X259505565Y-92158970D01*
X259609826Y-92002932D01*
X259742526Y-91870232D01*
X259898564Y-91765971D01*
X260071945Y-91694154D01*
X260256003Y-91657543D01*
X260443671Y-91657543D01*
X260627729Y-91694154D01*
X260627729Y-91694154D01*
G37*
G36*
X258087729Y-91694154D02*
G01*
X258261110Y-91765971D01*
X258417148Y-91870232D01*
X258549848Y-92002932D01*
X258654109Y-92158970D01*
X258725926Y-92332351D01*
X258762537Y-92516410D01*
X258762537Y-92704076D01*
X258725926Y-92888135D01*
X258654109Y-93061516D01*
X258549848Y-93217554D01*
X258417148Y-93350254D01*
X258261110Y-93454515D01*
X258261109Y-93454516D01*
X258261108Y-93454516D01*
X258087729Y-93526332D01*
X257903671Y-93562943D01*
X257716003Y-93562943D01*
X257531945Y-93526332D01*
X257358566Y-93454516D01*
X257358565Y-93454516D01*
X257358564Y-93454515D01*
X257202526Y-93350254D01*
X257069826Y-93217554D01*
X256965565Y-93061516D01*
X256893748Y-92888135D01*
X256857137Y-92704076D01*
X256857137Y-92516410D01*
X256893748Y-92332351D01*
X256965565Y-92158970D01*
X257069826Y-92002932D01*
X257202526Y-91870232D01*
X257358564Y-91765971D01*
X257531945Y-91694154D01*
X257716003Y-91657543D01*
X257903671Y-91657543D01*
X258087729Y-91694154D01*
X258087729Y-91694154D01*
G37*
G36*
X255547729Y-91694154D02*
G01*
X255721110Y-91765971D01*
X255877148Y-91870232D01*
X256009848Y-92002932D01*
X256114109Y-92158970D01*
X256185926Y-92332351D01*
X256222537Y-92516410D01*
X256222537Y-92704076D01*
X256185926Y-92888135D01*
X256114109Y-93061516D01*
X256009848Y-93217554D01*
X255877148Y-93350254D01*
X255721110Y-93454515D01*
X255721109Y-93454516D01*
X255721108Y-93454516D01*
X255547729Y-93526332D01*
X255363671Y-93562943D01*
X255176003Y-93562943D01*
X254991945Y-93526332D01*
X254818566Y-93454516D01*
X254818565Y-93454516D01*
X254818564Y-93454515D01*
X254662526Y-93350254D01*
X254529826Y-93217554D01*
X254425565Y-93061516D01*
X254353748Y-92888135D01*
X254317137Y-92704076D01*
X254317137Y-92516410D01*
X254353748Y-92332351D01*
X254425565Y-92158970D01*
X254529826Y-92002932D01*
X254662526Y-91870232D01*
X254818564Y-91765971D01*
X254991945Y-91694154D01*
X255176003Y-91657543D01*
X255363671Y-91657543D01*
X255547729Y-91694154D01*
X255547729Y-91694154D01*
G37*
G36*
X273835729Y-91694154D02*
G01*
X274009110Y-91765971D01*
X274165148Y-91870232D01*
X274297848Y-92002932D01*
X274402109Y-92158970D01*
X274473926Y-92332351D01*
X274510537Y-92516410D01*
X274510537Y-92704076D01*
X274473926Y-92888135D01*
X274402109Y-93061516D01*
X274297848Y-93217554D01*
X274165148Y-93350254D01*
X274009110Y-93454515D01*
X274009109Y-93454516D01*
X274009108Y-93454516D01*
X273835729Y-93526332D01*
X273651671Y-93562943D01*
X273464003Y-93562943D01*
X273279945Y-93526332D01*
X273106566Y-93454516D01*
X273106565Y-93454516D01*
X273106564Y-93454515D01*
X272950526Y-93350254D01*
X272817826Y-93217554D01*
X272713565Y-93061516D01*
X272641748Y-92888135D01*
X272605137Y-92704076D01*
X272605137Y-92516410D01*
X272641748Y-92332351D01*
X272713565Y-92158970D01*
X272817826Y-92002932D01*
X272950526Y-91870232D01*
X273106564Y-91765971D01*
X273279945Y-91694154D01*
X273464003Y-91657543D01*
X273651671Y-91657543D01*
X273835729Y-91694154D01*
X273835729Y-91694154D01*
G37*
G36*
X271295729Y-91694154D02*
G01*
X271469110Y-91765971D01*
X271625148Y-91870232D01*
X271757848Y-92002932D01*
X271862109Y-92158970D01*
X271933926Y-92332351D01*
X271970537Y-92516410D01*
X271970537Y-92704076D01*
X271933926Y-92888135D01*
X271862109Y-93061516D01*
X271757848Y-93217554D01*
X271625148Y-93350254D01*
X271469110Y-93454515D01*
X271469109Y-93454516D01*
X271469108Y-93454516D01*
X271295729Y-93526332D01*
X271111671Y-93562943D01*
X270924003Y-93562943D01*
X270739945Y-93526332D01*
X270566566Y-93454516D01*
X270566565Y-93454516D01*
X270566564Y-93454515D01*
X270410526Y-93350254D01*
X270277826Y-93217554D01*
X270173565Y-93061516D01*
X270101748Y-92888135D01*
X270065137Y-92704076D01*
X270065137Y-92516410D01*
X270101748Y-92332351D01*
X270173565Y-92158970D01*
X270277826Y-92002932D01*
X270410526Y-91870232D01*
X270566564Y-91765971D01*
X270739945Y-91694154D01*
X270924003Y-91657543D01*
X271111671Y-91657543D01*
X271295729Y-91694154D01*
X271295729Y-91694154D01*
G37*
G36*
X278355880Y-84268548D02*
G01*
X278607842Y-84372914D01*
X278607844Y-84372915D01*
X278664918Y-84411051D01*
X278834604Y-84524431D01*
X279027449Y-84717276D01*
X279178966Y-84944038D01*
X279283332Y-85196000D01*
X279336537Y-85463480D01*
X279336537Y-85736206D01*
X279283332Y-86003686D01*
X279178966Y-86255648D01*
X279027449Y-86482410D01*
X278834604Y-86675255D01*
X278664918Y-86788635D01*
X278607844Y-86826771D01*
X278607843Y-86826772D01*
X278607842Y-86826772D01*
X278355880Y-86931138D01*
X278088400Y-86984343D01*
X277815674Y-86984343D01*
X277548194Y-86931138D01*
X277296232Y-86826772D01*
X277296231Y-86826772D01*
X277296230Y-86826771D01*
X277239156Y-86788635D01*
X277069470Y-86675255D01*
X276876625Y-86482410D01*
X276725108Y-86255648D01*
X276620742Y-86003686D01*
X276567537Y-85736206D01*
X276567537Y-85463480D01*
X276620742Y-85196000D01*
X276725108Y-84944038D01*
X276876625Y-84717276D01*
X277069470Y-84524431D01*
X277239156Y-84411051D01*
X277296230Y-84372915D01*
X277296232Y-84372914D01*
X277548194Y-84268548D01*
X277815674Y-84215343D01*
X278088400Y-84215343D01*
X278355880Y-84268548D01*
X278355880Y-84268548D01*
G37*
G36*
X269567480Y-84268548D02*
G01*
X269819442Y-84372914D01*
X269819444Y-84372915D01*
X269876518Y-84411051D01*
X270046204Y-84524431D01*
X270239049Y-84717276D01*
X270390566Y-84944038D01*
X270494932Y-85196000D01*
X270548137Y-85463480D01*
X270548137Y-85736206D01*
X270494932Y-86003686D01*
X270390566Y-86255648D01*
X270239049Y-86482410D01*
X270046204Y-86675255D01*
X269876518Y-86788635D01*
X269819444Y-86826771D01*
X269819443Y-86826772D01*
X269819442Y-86826772D01*
X269567480Y-86931138D01*
X269300000Y-86984343D01*
X269027274Y-86984343D01*
X268759794Y-86931138D01*
X268507832Y-86826772D01*
X268507831Y-86826772D01*
X268507830Y-86826771D01*
X268450756Y-86788635D01*
X268281070Y-86675255D01*
X268088225Y-86482410D01*
X267936708Y-86255648D01*
X267832342Y-86003686D01*
X267779137Y-85736206D01*
X267779137Y-85463480D01*
X267832342Y-85196000D01*
X267936708Y-84944038D01*
X268088225Y-84717276D01*
X268281070Y-84524431D01*
X268450756Y-84411051D01*
X268507830Y-84372915D01*
X268507832Y-84372914D01*
X268759794Y-84268548D01*
X269027274Y-84215343D01*
X269300000Y-84215343D01*
X269567480Y-84268548D01*
X269567480Y-84268548D01*
G37*
G36*
X262607880Y-84268548D02*
G01*
X262859842Y-84372914D01*
X262859844Y-84372915D01*
X262916918Y-84411051D01*
X263086604Y-84524431D01*
X263279449Y-84717276D01*
X263430966Y-84944038D01*
X263535332Y-85196000D01*
X263588537Y-85463480D01*
X263588537Y-85736206D01*
X263535332Y-86003686D01*
X263430966Y-86255648D01*
X263279449Y-86482410D01*
X263086604Y-86675255D01*
X262916918Y-86788635D01*
X262859844Y-86826771D01*
X262859843Y-86826772D01*
X262859842Y-86826772D01*
X262607880Y-86931138D01*
X262340400Y-86984343D01*
X262067674Y-86984343D01*
X261800194Y-86931138D01*
X261548232Y-86826772D01*
X261548231Y-86826772D01*
X261548230Y-86826771D01*
X261491156Y-86788635D01*
X261321470Y-86675255D01*
X261128625Y-86482410D01*
X260977108Y-86255648D01*
X260872742Y-86003686D01*
X260819537Y-85736206D01*
X260819537Y-85463480D01*
X260872742Y-85196000D01*
X260977108Y-84944038D01*
X261128625Y-84717276D01*
X261321470Y-84524431D01*
X261491156Y-84411051D01*
X261548230Y-84372915D01*
X261548232Y-84372914D01*
X261800194Y-84268548D01*
X262067674Y-84215343D01*
X262340400Y-84215343D01*
X262607880Y-84268548D01*
X262607880Y-84268548D01*
G37*
G36*
X253819480Y-84268548D02*
G01*
X254071442Y-84372914D01*
X254071444Y-84372915D01*
X254128518Y-84411051D01*
X254298204Y-84524431D01*
X254491049Y-84717276D01*
X254642566Y-84944038D01*
X254746932Y-85196000D01*
X254800137Y-85463480D01*
X254800137Y-85736206D01*
X254746932Y-86003686D01*
X254642566Y-86255648D01*
X254491049Y-86482410D01*
X254298204Y-86675255D01*
X254128518Y-86788635D01*
X254071444Y-86826771D01*
X254071443Y-86826772D01*
X254071442Y-86826772D01*
X253819480Y-86931138D01*
X253552000Y-86984343D01*
X253279274Y-86984343D01*
X253011794Y-86931138D01*
X252759832Y-86826772D01*
X252759831Y-86826772D01*
X252759830Y-86826771D01*
X252702756Y-86788635D01*
X252533070Y-86675255D01*
X252340225Y-86482410D01*
X252188708Y-86255648D01*
X252084342Y-86003686D01*
X252031137Y-85736206D01*
X252031137Y-85463480D01*
X252084342Y-85196000D01*
X252188708Y-84944038D01*
X252340225Y-84717276D01*
X252533070Y-84524431D01*
X252702756Y-84411051D01*
X252759830Y-84372915D01*
X252759832Y-84372914D01*
X253011794Y-84268548D01*
X253279274Y-84215343D01*
X253552000Y-84215343D01*
X253819480Y-84268548D01*
X253819480Y-84268548D01*
G37*
G36*
X273124228Y-76905703D02*
G01*
X273279100Y-76969853D01*
X273418481Y-77062985D01*
X273537015Y-77181519D01*
X273630147Y-77320900D01*
X273694297Y-77475772D01*
X273727000Y-77640184D01*
X273727000Y-77807816D01*
X273694297Y-77972228D01*
X273630147Y-78127100D01*
X273537015Y-78266481D01*
X273418481Y-78385015D01*
X273279100Y-78478147D01*
X273124228Y-78542297D01*
X272959816Y-78575000D01*
X272792184Y-78575000D01*
X272627772Y-78542297D01*
X272472900Y-78478147D01*
X272333519Y-78385015D01*
X272214985Y-78266481D01*
X272121853Y-78127100D01*
X272057703Y-77972228D01*
X272025000Y-77807816D01*
X272025000Y-77640184D01*
X272057703Y-77475772D01*
X272121853Y-77320900D01*
X272214985Y-77181519D01*
X272333519Y-77062985D01*
X272472900Y-76969853D01*
X272627772Y-76905703D01*
X272792184Y-76873000D01*
X272959816Y-76873000D01*
X273124228Y-76905703D01*
X273124228Y-76905703D01*
G37*
G36*
X278124228Y-76905703D02*
G01*
X278279100Y-76969853D01*
X278418481Y-77062985D01*
X278537015Y-77181519D01*
X278630147Y-77320900D01*
X278694297Y-77475772D01*
X278727000Y-77640184D01*
X278727000Y-77807816D01*
X278694297Y-77972228D01*
X278630147Y-78127100D01*
X278537015Y-78266481D01*
X278418481Y-78385015D01*
X278279100Y-78478147D01*
X278124228Y-78542297D01*
X277959816Y-78575000D01*
X277792184Y-78575000D01*
X277627772Y-78542297D01*
X277472900Y-78478147D01*
X277333519Y-78385015D01*
X277214985Y-78266481D01*
X277121853Y-78127100D01*
X277057703Y-77972228D01*
X277025000Y-77807816D01*
X277025000Y-77640184D01*
X277057703Y-77475772D01*
X277121853Y-77320900D01*
X277214985Y-77181519D01*
X277333519Y-77062985D01*
X277472900Y-76969853D01*
X277627772Y-76905703D01*
X277792184Y-76873000D01*
X277959816Y-76873000D01*
X278124228Y-76905703D01*
X278124228Y-76905703D01*
G37*
G36*
X278124228Y-73349703D02*
G01*
X278279100Y-73413853D01*
X278418481Y-73506985D01*
X278537015Y-73625519D01*
X278630147Y-73764900D01*
X278694297Y-73919772D01*
X278727000Y-74084184D01*
X278727000Y-74251816D01*
X278694297Y-74416228D01*
X278630147Y-74571100D01*
X278537015Y-74710481D01*
X278418481Y-74829015D01*
X278279100Y-74922147D01*
X278124228Y-74986297D01*
X277959816Y-75019000D01*
X277792184Y-75019000D01*
X277627772Y-74986297D01*
X277472900Y-74922147D01*
X277333519Y-74829015D01*
X277214985Y-74710481D01*
X277121853Y-74571100D01*
X277057703Y-74416228D01*
X277025000Y-74251816D01*
X277025000Y-74084184D01*
X277057703Y-73919772D01*
X277121853Y-73764900D01*
X277214985Y-73625519D01*
X277333519Y-73506985D01*
X277472900Y-73413853D01*
X277627772Y-73349703D01*
X277792184Y-73317000D01*
X277959816Y-73317000D01*
X278124228Y-73349703D01*
X278124228Y-73349703D01*
G37*
G36*
X273124228Y-73349703D02*
G01*
X273279100Y-73413853D01*
X273418481Y-73506985D01*
X273537015Y-73625519D01*
X273630147Y-73764900D01*
X273694297Y-73919772D01*
X273727000Y-74084184D01*
X273727000Y-74251816D01*
X273694297Y-74416228D01*
X273630147Y-74571100D01*
X273537015Y-74710481D01*
X273418481Y-74829015D01*
X273279100Y-74922147D01*
X273124228Y-74986297D01*
X272959816Y-75019000D01*
X272792184Y-75019000D01*
X272627772Y-74986297D01*
X272472900Y-74922147D01*
X272333519Y-74829015D01*
X272214985Y-74710481D01*
X272121853Y-74571100D01*
X272057703Y-74416228D01*
X272025000Y-74251816D01*
X272025000Y-74084184D01*
X272057703Y-73919772D01*
X272121853Y-73764900D01*
X272214985Y-73625519D01*
X272333519Y-73506985D01*
X272472900Y-73413853D01*
X272627772Y-73349703D01*
X272792184Y-73317000D01*
X272959816Y-73317000D01*
X273124228Y-73349703D01*
X273124228Y-73349703D01*
G37*
G36*
X263548395Y-72999546D02*
G01*
X263721466Y-73071234D01*
X263721467Y-73071235D01*
X263877227Y-73175310D01*
X264009690Y-73307773D01*
X264037708Y-73349705D01*
X264113766Y-73463534D01*
X264185454Y-73636605D01*
X264222000Y-73820333D01*
X264222000Y-74007667D01*
X264185454Y-74191395D01*
X264113766Y-74364466D01*
X264113765Y-74364467D01*
X264009690Y-74520227D01*
X263877227Y-74652690D01*
X263798818Y-74705081D01*
X263721466Y-74756766D01*
X263548395Y-74828454D01*
X263364667Y-74865000D01*
X263177333Y-74865000D01*
X262993605Y-74828454D01*
X262820534Y-74756766D01*
X262743182Y-74705081D01*
X262664773Y-74652690D01*
X262532310Y-74520227D01*
X262428235Y-74364467D01*
X262428234Y-74364466D01*
X262356546Y-74191395D01*
X262320000Y-74007667D01*
X262320000Y-73820333D01*
X262356546Y-73636605D01*
X262428234Y-73463534D01*
X262504292Y-73349705D01*
X262532310Y-73307773D01*
X262664773Y-73175310D01*
X262820533Y-73071235D01*
X262820534Y-73071234D01*
X262993605Y-72999546D01*
X263177333Y-72963000D01*
X263364667Y-72963000D01*
X263548395Y-72999546D01*
X263548395Y-72999546D01*
G37*
G36*
X266088395Y-72999546D02*
G01*
X266261466Y-73071234D01*
X266261467Y-73071235D01*
X266417227Y-73175310D01*
X266549690Y-73307773D01*
X266577708Y-73349705D01*
X266653766Y-73463534D01*
X266725454Y-73636605D01*
X266762000Y-73820333D01*
X266762000Y-74007667D01*
X266725454Y-74191395D01*
X266653766Y-74364466D01*
X266653765Y-74364467D01*
X266549690Y-74520227D01*
X266417227Y-74652690D01*
X266338818Y-74705081D01*
X266261466Y-74756766D01*
X266088395Y-74828454D01*
X265904667Y-74865000D01*
X265717333Y-74865000D01*
X265533605Y-74828454D01*
X265360534Y-74756766D01*
X265283182Y-74705081D01*
X265204773Y-74652690D01*
X265072310Y-74520227D01*
X264968235Y-74364467D01*
X264968234Y-74364466D01*
X264896546Y-74191395D01*
X264860000Y-74007667D01*
X264860000Y-73820333D01*
X264896546Y-73636605D01*
X264968234Y-73463534D01*
X265044292Y-73349705D01*
X265072310Y-73307773D01*
X265204773Y-73175310D01*
X265360533Y-73071235D01*
X265360534Y-73071234D01*
X265533605Y-72999546D01*
X265717333Y-72963000D01*
X265904667Y-72963000D01*
X266088395Y-72999546D01*
X266088395Y-72999546D01*
G37*
G36*
X268628395Y-72999546D02*
G01*
X268801466Y-73071234D01*
X268801467Y-73071235D01*
X268957227Y-73175310D01*
X269089690Y-73307773D01*
X269117708Y-73349705D01*
X269193766Y-73463534D01*
X269265454Y-73636605D01*
X269302000Y-73820333D01*
X269302000Y-74007667D01*
X269265454Y-74191395D01*
X269193766Y-74364466D01*
X269193765Y-74364467D01*
X269089690Y-74520227D01*
X268957227Y-74652690D01*
X268878818Y-74705081D01*
X268801466Y-74756766D01*
X268628395Y-74828454D01*
X268444667Y-74865000D01*
X268257333Y-74865000D01*
X268073605Y-74828454D01*
X267900534Y-74756766D01*
X267823182Y-74705081D01*
X267744773Y-74652690D01*
X267612310Y-74520227D01*
X267508235Y-74364467D01*
X267508234Y-74364466D01*
X267436546Y-74191395D01*
X267400000Y-74007667D01*
X267400000Y-73820333D01*
X267436546Y-73636605D01*
X267508234Y-73463534D01*
X267584292Y-73349705D01*
X267612310Y-73307773D01*
X267744773Y-73175310D01*
X267900533Y-73071235D01*
X267900534Y-73071234D01*
X268073605Y-72999546D01*
X268257333Y-72963000D01*
X268444667Y-72963000D01*
X268628395Y-72999546D01*
X268628395Y-72999546D01*
G37*
G36*
X268628892Y-61214154D02*
G01*
X268802273Y-61285971D01*
X268958311Y-61390232D01*
X269091011Y-61522932D01*
X269195272Y-61678970D01*
X269267089Y-61852351D01*
X269303700Y-62036410D01*
X269303700Y-62224076D01*
X269267089Y-62408135D01*
X269195272Y-62581516D01*
X269091011Y-62737554D01*
X268958311Y-62870254D01*
X268802273Y-62974515D01*
X268802272Y-62974516D01*
X268802271Y-62974516D01*
X268628892Y-63046332D01*
X268444834Y-63082943D01*
X268257166Y-63082943D01*
X268073108Y-63046332D01*
X267899729Y-62974516D01*
X267899728Y-62974516D01*
X267899727Y-62974515D01*
X267743689Y-62870254D01*
X267610989Y-62737554D01*
X267506728Y-62581516D01*
X267434911Y-62408135D01*
X267398300Y-62224076D01*
X267398300Y-62036410D01*
X267434911Y-61852351D01*
X267506728Y-61678970D01*
X267610989Y-61522932D01*
X267743689Y-61390232D01*
X267899727Y-61285971D01*
X268073108Y-61214154D01*
X268257166Y-61177543D01*
X268444834Y-61177543D01*
X268628892Y-61214154D01*
X268628892Y-61214154D01*
G37*
G36*
X266088892Y-61214154D02*
G01*
X266262273Y-61285971D01*
X266418311Y-61390232D01*
X266551011Y-61522932D01*
X266655272Y-61678970D01*
X266727089Y-61852351D01*
X266763700Y-62036410D01*
X266763700Y-62224076D01*
X266727089Y-62408135D01*
X266655272Y-62581516D01*
X266551011Y-62737554D01*
X266418311Y-62870254D01*
X266262273Y-62974515D01*
X266262272Y-62974516D01*
X266262271Y-62974516D01*
X266088892Y-63046332D01*
X265904834Y-63082943D01*
X265717166Y-63082943D01*
X265533108Y-63046332D01*
X265359729Y-62974516D01*
X265359728Y-62974516D01*
X265359727Y-62974515D01*
X265203689Y-62870254D01*
X265070989Y-62737554D01*
X264966728Y-62581516D01*
X264894911Y-62408135D01*
X264858300Y-62224076D01*
X264858300Y-62036410D01*
X264894911Y-61852351D01*
X264966728Y-61678970D01*
X265070989Y-61522932D01*
X265203689Y-61390232D01*
X265359727Y-61285971D01*
X265533108Y-61214154D01*
X265717166Y-61177543D01*
X265904834Y-61177543D01*
X266088892Y-61214154D01*
X266088892Y-61214154D01*
G37*
G36*
X263548892Y-61214154D02*
G01*
X263722273Y-61285971D01*
X263878311Y-61390232D01*
X264011011Y-61522932D01*
X264115272Y-61678970D01*
X264187089Y-61852351D01*
X264223700Y-62036410D01*
X264223700Y-62224076D01*
X264187089Y-62408135D01*
X264115272Y-62581516D01*
X264011011Y-62737554D01*
X263878311Y-62870254D01*
X263722273Y-62974515D01*
X263722272Y-62974516D01*
X263722271Y-62974516D01*
X263548892Y-63046332D01*
X263364834Y-63082943D01*
X263177166Y-63082943D01*
X262993108Y-63046332D01*
X262819729Y-62974516D01*
X262819728Y-62974516D01*
X262819727Y-62974515D01*
X262663689Y-62870254D01*
X262530989Y-62737554D01*
X262426728Y-62581516D01*
X262354911Y-62408135D01*
X262318300Y-62224076D01*
X262318300Y-62036410D01*
X262354911Y-61852351D01*
X262426728Y-61678970D01*
X262530989Y-61522932D01*
X262663689Y-61390232D01*
X262819727Y-61285971D01*
X262993108Y-61214154D01*
X263177166Y-61177543D01*
X263364834Y-61177543D01*
X263548892Y-61214154D01*
X263548892Y-61214154D01*
G37*
G36*
X261820643Y-53788548D02*
G01*
X262072605Y-53892914D01*
X262072607Y-53892915D01*
X262129681Y-53931051D01*
X262299367Y-54044431D01*
X262492212Y-54237276D01*
X262643729Y-54464038D01*
X262748095Y-54716000D01*
X262801300Y-54983480D01*
X262801300Y-55256206D01*
X262748095Y-55523686D01*
X262643729Y-55775648D01*
X262492212Y-56002410D01*
X262299367Y-56195255D01*
X262129681Y-56308635D01*
X262072607Y-56346771D01*
X262072606Y-56346772D01*
X262072605Y-56346772D01*
X261820643Y-56451138D01*
X261553163Y-56504343D01*
X261280437Y-56504343D01*
X261012957Y-56451138D01*
X260760995Y-56346772D01*
X260760994Y-56346772D01*
X260760993Y-56346771D01*
X260703919Y-56308635D01*
X260534233Y-56195255D01*
X260341388Y-56002410D01*
X260189871Y-55775648D01*
X260085505Y-55523686D01*
X260032300Y-55256206D01*
X260032300Y-54983480D01*
X260085505Y-54716000D01*
X260189871Y-54464038D01*
X260341388Y-54237276D01*
X260534233Y-54044431D01*
X260703919Y-53931051D01*
X260760993Y-53892915D01*
X260760995Y-53892914D01*
X261012957Y-53788548D01*
X261280437Y-53735343D01*
X261553163Y-53735343D01*
X261820643Y-53788548D01*
X261820643Y-53788548D01*
G37*
G36*
X270609043Y-53788548D02*
G01*
X270861005Y-53892914D01*
X270861007Y-53892915D01*
X270918081Y-53931051D01*
X271087767Y-54044431D01*
X271280612Y-54237276D01*
X271432129Y-54464038D01*
X271536495Y-54716000D01*
X271589700Y-54983480D01*
X271589700Y-55256206D01*
X271536495Y-55523686D01*
X271432129Y-55775648D01*
X271280612Y-56002410D01*
X271087767Y-56195255D01*
X270918081Y-56308635D01*
X270861007Y-56346771D01*
X270861006Y-56346772D01*
X270861005Y-56346772D01*
X270609043Y-56451138D01*
X270341563Y-56504343D01*
X270068837Y-56504343D01*
X269801357Y-56451138D01*
X269549395Y-56346772D01*
X269549394Y-56346772D01*
X269549393Y-56346771D01*
X269492319Y-56308635D01*
X269322633Y-56195255D01*
X269129788Y-56002410D01*
X268978271Y-55775648D01*
X268873905Y-55523686D01*
X268820700Y-55256206D01*
X268820700Y-54983480D01*
X268873905Y-54716000D01*
X268978271Y-54464038D01*
X269129788Y-54237276D01*
X269322633Y-54044431D01*
X269492319Y-53931051D01*
X269549393Y-53892915D01*
X269549395Y-53892914D01*
X269801357Y-53788548D01*
X270068837Y-53735343D01*
X270341563Y-53735343D01*
X270609043Y-53788548D01*
X270609043Y-53788548D01*
G37*
G36*
X268879643Y-42144242D02*
G01*
X269027602Y-42205529D01*
X269160756Y-42294499D01*
X269274002Y-42407745D01*
X269362972Y-42540899D01*
X269424259Y-42688858D01*
X269455501Y-42845925D01*
X269455501Y-43006075D01*
X269424259Y-43163142D01*
X269362972Y-43311101D01*
X269274002Y-43444255D01*
X269160756Y-43557501D01*
X269027602Y-43646471D01*
X268879643Y-43707758D01*
X268722576Y-43739000D01*
X268562426Y-43739000D01*
X268405359Y-43707758D01*
X268257400Y-43646471D01*
X268124246Y-43557501D01*
X268011000Y-43444255D01*
X267922030Y-43311101D01*
X267860743Y-43163142D01*
X267829501Y-43006075D01*
X267829501Y-42845925D01*
X267860743Y-42688858D01*
X267922030Y-42540899D01*
X268011000Y-42407745D01*
X268124246Y-42294499D01*
X268257400Y-42205529D01*
X268405359Y-42144242D01*
X268562426Y-42113000D01*
X268722576Y-42113000D01*
X268879643Y-42144242D01*
X268879643Y-42144242D01*
G37*
G36*
X266339643Y-42144242D02*
G01*
X266487602Y-42205529D01*
X266620756Y-42294499D01*
X266734002Y-42407745D01*
X266822972Y-42540899D01*
X266884259Y-42688858D01*
X266915501Y-42845925D01*
X266915501Y-43006075D01*
X266884259Y-43163142D01*
X266822972Y-43311101D01*
X266734002Y-43444255D01*
X266620756Y-43557501D01*
X266487602Y-43646471D01*
X266339643Y-43707758D01*
X266182576Y-43739000D01*
X266022426Y-43739000D01*
X265865359Y-43707758D01*
X265717400Y-43646471D01*
X265584246Y-43557501D01*
X265471000Y-43444255D01*
X265382030Y-43311101D01*
X265320743Y-43163142D01*
X265289501Y-43006075D01*
X265289501Y-42845925D01*
X265320743Y-42688858D01*
X265382030Y-42540899D01*
X265471000Y-42407745D01*
X265584246Y-42294499D01*
X265717400Y-42205529D01*
X265865359Y-42144242D01*
X266022426Y-42113000D01*
X266182576Y-42113000D01*
X266339643Y-42144242D01*
X266339643Y-42144242D01*
G37*
G36*
X271419643Y-42144242D02*
G01*
X271567602Y-42205529D01*
X271700756Y-42294499D01*
X271814002Y-42407745D01*
X271902972Y-42540899D01*
X271964259Y-42688858D01*
X271995501Y-42845925D01*
X271995501Y-43006075D01*
X271964259Y-43163142D01*
X271902972Y-43311101D01*
X271814002Y-43444255D01*
X271700756Y-43557501D01*
X271567602Y-43646471D01*
X271419643Y-43707758D01*
X271262576Y-43739000D01*
X271102426Y-43739000D01*
X270945359Y-43707758D01*
X270797400Y-43646471D01*
X270664246Y-43557501D01*
X270551000Y-43444255D01*
X270462030Y-43311101D01*
X270400743Y-43163142D01*
X270369501Y-43006075D01*
X270369501Y-42845925D01*
X270400743Y-42688858D01*
X270462030Y-42540899D01*
X270551000Y-42407745D01*
X270664246Y-42294499D01*
X270797400Y-42205529D01*
X270945359Y-42144242D01*
X271102426Y-42113000D01*
X271262576Y-42113000D01*
X271419643Y-42144242D01*
X271419643Y-42144242D01*
G37*
G36*
X261835501Y-43739000D02*
G01*
X260209501Y-43739000D01*
X260209501Y-42113000D01*
X261835501Y-42113000D01*
X261835501Y-43739000D01*
X261835501Y-43739000D01*
G37*
G36*
X263799643Y-42144242D02*
G01*
X263947602Y-42205529D01*
X264080756Y-42294499D01*
X264194002Y-42407745D01*
X264282972Y-42540899D01*
X264344259Y-42688858D01*
X264375501Y-42845925D01*
X264375501Y-43006075D01*
X264344259Y-43163142D01*
X264282972Y-43311101D01*
X264194002Y-43444255D01*
X264080756Y-43557501D01*
X263947602Y-43646471D01*
X263799643Y-43707758D01*
X263642576Y-43739000D01*
X263482426Y-43739000D01*
X263325359Y-43707758D01*
X263177400Y-43646471D01*
X263044246Y-43557501D01*
X262931000Y-43444255D01*
X262842030Y-43311101D01*
X262780743Y-43163142D01*
X262749501Y-43006075D01*
X262749501Y-42845925D01*
X262780743Y-42688858D01*
X262842030Y-42540899D01*
X262931000Y-42407745D01*
X263044246Y-42294499D01*
X263177400Y-42205529D01*
X263325359Y-42144242D01*
X263482426Y-42113000D01*
X263642576Y-42113000D01*
X263799643Y-42144242D01*
X263799643Y-42144242D01*
G37*
G36*
X271419643Y-39604242D02*
G01*
X271567602Y-39665529D01*
X271700756Y-39754499D01*
X271814002Y-39867745D01*
X271902972Y-40000899D01*
X271964259Y-40148858D01*
X271995501Y-40305925D01*
X271995501Y-40466075D01*
X271964259Y-40623142D01*
X271902972Y-40771101D01*
X271814002Y-40904255D01*
X271700756Y-41017501D01*
X271567602Y-41106471D01*
X271419643Y-41167758D01*
X271262576Y-41199000D01*
X271102426Y-41199000D01*
X270945359Y-41167758D01*
X270797400Y-41106471D01*
X270664246Y-41017501D01*
X270551000Y-40904255D01*
X270462030Y-40771101D01*
X270400743Y-40623142D01*
X270369501Y-40466075D01*
X270369501Y-40305925D01*
X270400743Y-40148858D01*
X270462030Y-40000899D01*
X270551000Y-39867745D01*
X270664246Y-39754499D01*
X270797400Y-39665529D01*
X270945359Y-39604242D01*
X271102426Y-39573000D01*
X271262576Y-39573000D01*
X271419643Y-39604242D01*
X271419643Y-39604242D01*
G37*
G36*
X261259643Y-39604242D02*
G01*
X261407602Y-39665529D01*
X261540756Y-39754499D01*
X261654002Y-39867745D01*
X261742972Y-40000899D01*
X261804259Y-40148858D01*
X261835501Y-40305925D01*
X261835501Y-40466075D01*
X261804259Y-40623142D01*
X261742972Y-40771101D01*
X261654002Y-40904255D01*
X261540756Y-41017501D01*
X261407602Y-41106471D01*
X261259643Y-41167758D01*
X261102576Y-41199000D01*
X260942426Y-41199000D01*
X260785359Y-41167758D01*
X260637400Y-41106471D01*
X260504246Y-41017501D01*
X260391000Y-40904255D01*
X260302030Y-40771101D01*
X260240743Y-40623142D01*
X260209501Y-40466075D01*
X260209501Y-40305925D01*
X260240743Y-40148858D01*
X260302030Y-40000899D01*
X260391000Y-39867745D01*
X260504246Y-39754499D01*
X260637400Y-39665529D01*
X260785359Y-39604242D01*
X260942426Y-39573000D01*
X261102576Y-39573000D01*
X261259643Y-39604242D01*
X261259643Y-39604242D01*
G37*
G36*
X263799643Y-39604242D02*
G01*
X263947602Y-39665529D01*
X264080756Y-39754499D01*
X264194002Y-39867745D01*
X264282972Y-40000899D01*
X264344259Y-40148858D01*
X264375501Y-40305925D01*
X264375501Y-40466075D01*
X264344259Y-40623142D01*
X264282972Y-40771101D01*
X264194002Y-40904255D01*
X264080756Y-41017501D01*
X263947602Y-41106471D01*
X263799643Y-41167758D01*
X263642576Y-41199000D01*
X263482426Y-41199000D01*
X263325359Y-41167758D01*
X263177400Y-41106471D01*
X263044246Y-41017501D01*
X262931000Y-40904255D01*
X262842030Y-40771101D01*
X262780743Y-40623142D01*
X262749501Y-40466075D01*
X262749501Y-40305925D01*
X262780743Y-40148858D01*
X262842030Y-40000899D01*
X262931000Y-39867745D01*
X263044246Y-39754499D01*
X263177400Y-39665529D01*
X263325359Y-39604242D01*
X263482426Y-39573000D01*
X263642576Y-39573000D01*
X263799643Y-39604242D01*
X263799643Y-39604242D01*
G37*
G36*
X268879643Y-39604242D02*
G01*
X269027602Y-39665529D01*
X269160756Y-39754499D01*
X269274002Y-39867745D01*
X269362972Y-40000899D01*
X269424259Y-40148858D01*
X269455501Y-40305925D01*
X269455501Y-40466075D01*
X269424259Y-40623142D01*
X269362972Y-40771101D01*
X269274002Y-40904255D01*
X269160756Y-41017501D01*
X269027602Y-41106471D01*
X268879643Y-41167758D01*
X268722576Y-41199000D01*
X268562426Y-41199000D01*
X268405359Y-41167758D01*
X268257400Y-41106471D01*
X268124246Y-41017501D01*
X268011000Y-40904255D01*
X267922030Y-40771101D01*
X267860743Y-40623142D01*
X267829501Y-40466075D01*
X267829501Y-40305925D01*
X267860743Y-40148858D01*
X267922030Y-40000899D01*
X268011000Y-39867745D01*
X268124246Y-39754499D01*
X268257400Y-39665529D01*
X268405359Y-39604242D01*
X268562426Y-39573000D01*
X268722576Y-39573000D01*
X268879643Y-39604242D01*
X268879643Y-39604242D01*
G37*
G36*
X266339643Y-39604242D02*
G01*
X266487602Y-39665529D01*
X266620756Y-39754499D01*
X266734002Y-39867745D01*
X266822972Y-40000899D01*
X266884259Y-40148858D01*
X266915501Y-40305925D01*
X266915501Y-40466075D01*
X266884259Y-40623142D01*
X266822972Y-40771101D01*
X266734002Y-40904255D01*
X266620756Y-41017501D01*
X266487602Y-41106471D01*
X266339643Y-41167758D01*
X266182576Y-41199000D01*
X266022426Y-41199000D01*
X265865359Y-41167758D01*
X265717400Y-41106471D01*
X265584246Y-41017501D01*
X265471000Y-40904255D01*
X265382030Y-40771101D01*
X265320743Y-40623142D01*
X265289501Y-40466075D01*
X265289501Y-40305925D01*
X265320743Y-40148858D01*
X265382030Y-40000899D01*
X265471000Y-39867745D01*
X265584246Y-39754499D01*
X265717400Y-39665529D01*
X265865359Y-39604242D01*
X266022426Y-39573000D01*
X266182576Y-39573000D01*
X266339643Y-39604242D01*
X266339643Y-39604242D01*
G37*
G36*
X263548892Y-34544154D02*
G01*
X263722273Y-34615971D01*
X263878311Y-34720232D01*
X264011011Y-34852932D01*
X264115272Y-35008970D01*
X264187089Y-35182351D01*
X264223700Y-35366410D01*
X264223700Y-35554076D01*
X264187089Y-35738135D01*
X264115272Y-35911516D01*
X264011011Y-36067554D01*
X263878311Y-36200254D01*
X263722273Y-36304515D01*
X263722272Y-36304516D01*
X263722271Y-36304516D01*
X263548892Y-36376332D01*
X263364834Y-36412943D01*
X263177166Y-36412943D01*
X262993108Y-36376332D01*
X262819729Y-36304516D01*
X262819728Y-36304516D01*
X262819727Y-36304515D01*
X262663689Y-36200254D01*
X262530989Y-36067554D01*
X262426728Y-35911516D01*
X262354911Y-35738135D01*
X262318300Y-35554076D01*
X262318300Y-35366410D01*
X262354911Y-35182351D01*
X262426728Y-35008970D01*
X262530989Y-34852932D01*
X262663689Y-34720232D01*
X262819727Y-34615971D01*
X262993108Y-34544154D01*
X263177166Y-34507543D01*
X263364834Y-34507543D01*
X263548892Y-34544154D01*
X263548892Y-34544154D01*
G37*
G36*
X266088892Y-34544154D02*
G01*
X266262273Y-34615971D01*
X266418311Y-34720232D01*
X266551011Y-34852932D01*
X266655272Y-35008970D01*
X266727089Y-35182351D01*
X266763700Y-35366410D01*
X266763700Y-35554076D01*
X266727089Y-35738135D01*
X266655272Y-35911516D01*
X266551011Y-36067554D01*
X266418311Y-36200254D01*
X266262273Y-36304515D01*
X266262272Y-36304516D01*
X266262271Y-36304516D01*
X266088892Y-36376332D01*
X265904834Y-36412943D01*
X265717166Y-36412943D01*
X265533108Y-36376332D01*
X265359729Y-36304516D01*
X265359728Y-36304516D01*
X265359727Y-36304515D01*
X265203689Y-36200254D01*
X265070989Y-36067554D01*
X264966728Y-35911516D01*
X264894911Y-35738135D01*
X264858300Y-35554076D01*
X264858300Y-35366410D01*
X264894911Y-35182351D01*
X264966728Y-35008970D01*
X265070989Y-34852932D01*
X265203689Y-34720232D01*
X265359727Y-34615971D01*
X265533108Y-34544154D01*
X265717166Y-34507543D01*
X265904834Y-34507543D01*
X266088892Y-34544154D01*
X266088892Y-34544154D01*
G37*
G36*
X268628892Y-34544154D02*
G01*
X268802273Y-34615971D01*
X268958311Y-34720232D01*
X269091011Y-34852932D01*
X269195272Y-35008970D01*
X269267089Y-35182351D01*
X269303700Y-35366410D01*
X269303700Y-35554076D01*
X269267089Y-35738135D01*
X269195272Y-35911516D01*
X269091011Y-36067554D01*
X268958311Y-36200254D01*
X268802273Y-36304515D01*
X268802272Y-36304516D01*
X268802271Y-36304516D01*
X268628892Y-36376332D01*
X268444834Y-36412943D01*
X268257166Y-36412943D01*
X268073108Y-36376332D01*
X267899729Y-36304516D01*
X267899728Y-36304516D01*
X267899727Y-36304515D01*
X267743689Y-36200254D01*
X267610989Y-36067554D01*
X267506728Y-35911516D01*
X267434911Y-35738135D01*
X267398300Y-35554076D01*
X267398300Y-35366410D01*
X267434911Y-35182351D01*
X267506728Y-35008970D01*
X267610989Y-34852932D01*
X267743689Y-34720232D01*
X267899727Y-34615971D01*
X268073108Y-34544154D01*
X268257166Y-34507543D01*
X268444834Y-34507543D01*
X268628892Y-34544154D01*
X268628892Y-34544154D01*
G37*
G36*
X270609043Y-27118548D02*
G01*
X270861005Y-27222914D01*
X270861007Y-27222915D01*
X270918081Y-27261051D01*
X271087767Y-27374431D01*
X271280612Y-27567276D01*
X271432129Y-27794038D01*
X271536495Y-28046000D01*
X271589700Y-28313480D01*
X271589700Y-28586206D01*
X271536495Y-28853686D01*
X271432129Y-29105648D01*
X271280612Y-29332410D01*
X271087767Y-29525255D01*
X270918081Y-29638635D01*
X270861007Y-29676771D01*
X270861006Y-29676772D01*
X270861005Y-29676772D01*
X270609043Y-29781138D01*
X270341563Y-29834343D01*
X270068837Y-29834343D01*
X269801357Y-29781138D01*
X269549395Y-29676772D01*
X269549394Y-29676772D01*
X269549393Y-29676771D01*
X269492319Y-29638635D01*
X269322633Y-29525255D01*
X269129788Y-29332410D01*
X268978271Y-29105648D01*
X268873905Y-28853686D01*
X268820700Y-28586206D01*
X268820700Y-28313480D01*
X268873905Y-28046000D01*
X268978271Y-27794038D01*
X269129788Y-27567276D01*
X269322633Y-27374431D01*
X269492319Y-27261051D01*
X269549393Y-27222915D01*
X269549395Y-27222914D01*
X269801357Y-27118548D01*
X270068837Y-27065343D01*
X270341563Y-27065343D01*
X270609043Y-27118548D01*
X270609043Y-27118548D01*
G37*
G36*
X261820643Y-27118548D02*
G01*
X262072605Y-27222914D01*
X262072607Y-27222915D01*
X262129681Y-27261051D01*
X262299367Y-27374431D01*
X262492212Y-27567276D01*
X262643729Y-27794038D01*
X262748095Y-28046000D01*
X262801300Y-28313480D01*
X262801300Y-28586206D01*
X262748095Y-28853686D01*
X262643729Y-29105648D01*
X262492212Y-29332410D01*
X262299367Y-29525255D01*
X262129681Y-29638635D01*
X262072607Y-29676771D01*
X262072606Y-29676772D01*
X262072605Y-29676772D01*
X261820643Y-29781138D01*
X261553163Y-29834343D01*
X261280437Y-29834343D01*
X261012957Y-29781138D01*
X260760995Y-29676772D01*
X260760994Y-29676772D01*
X260760993Y-29676771D01*
X260703919Y-29638635D01*
X260534233Y-29525255D01*
X260341388Y-29332410D01*
X260189871Y-29105648D01*
X260085505Y-28853686D01*
X260032300Y-28586206D01*
X260032300Y-28313480D01*
X260085505Y-28046000D01*
X260189871Y-27794038D01*
X260341388Y-27567276D01*
X260534233Y-27374431D01*
X260703919Y-27261051D01*
X260760993Y-27222915D01*
X260760995Y-27222914D01*
X261012957Y-27118548D01*
X261280437Y-27065343D01*
X261553163Y-27065343D01*
X261820643Y-27118548D01*
X261820643Y-27118548D01*
G37*
M02*
