G04 #@! TF.GenerationSoftware,KiCad,Pcbnew,5.1.4*
G04 #@! TF.CreationDate,2019-09-20T20:02:23+02:00*
G04 #@! TF.ProjectId,PolivoksVCF,506f6c69-766f-46b7-9356-43462e6b6963,rev?*
G04 #@! TF.SameCoordinates,Original*
G04 #@! TF.FileFunction,Paste,Top*
G04 #@! TF.FilePolarity,Positive*
%FSLAX46Y46*%
G04 Gerber Fmt 4.6, Leading zero omitted, Abs format (unit mm)*
G04 Created by KiCad (PCBNEW 5.1.4) date 2019-09-20 20:02:23*
%MOMM*%
%LPD*%
G04 APERTURE LIST*
%ADD10C,0.100000*%
%ADD11C,0.950000*%
%ADD12C,1.900000*%
%ADD13R,0.800000X0.900000*%
%ADD14C,0.600000*%
%ADD15R,0.900000X1.200000*%
G04 APERTURE END LIST*
D10*
G36*
X256850779Y-64804144D02*
G01*
X256873834Y-64807563D01*
X256896443Y-64813227D01*
X256918387Y-64821079D01*
X256939457Y-64831044D01*
X256959448Y-64843026D01*
X256978168Y-64856910D01*
X256995438Y-64872562D01*
X257011090Y-64889832D01*
X257024974Y-64908552D01*
X257036956Y-64928543D01*
X257046921Y-64949613D01*
X257054773Y-64971557D01*
X257060437Y-64994166D01*
X257063856Y-65017221D01*
X257065000Y-65040500D01*
X257065000Y-65515500D01*
X257063856Y-65538779D01*
X257060437Y-65561834D01*
X257054773Y-65584443D01*
X257046921Y-65606387D01*
X257036956Y-65627457D01*
X257024974Y-65647448D01*
X257011090Y-65666168D01*
X256995438Y-65683438D01*
X256978168Y-65699090D01*
X256959448Y-65712974D01*
X256939457Y-65724956D01*
X256918387Y-65734921D01*
X256896443Y-65742773D01*
X256873834Y-65748437D01*
X256850779Y-65751856D01*
X256827500Y-65753000D01*
X256252500Y-65753000D01*
X256229221Y-65751856D01*
X256206166Y-65748437D01*
X256183557Y-65742773D01*
X256161613Y-65734921D01*
X256140543Y-65724956D01*
X256120552Y-65712974D01*
X256101832Y-65699090D01*
X256084562Y-65683438D01*
X256068910Y-65666168D01*
X256055026Y-65647448D01*
X256043044Y-65627457D01*
X256033079Y-65606387D01*
X256025227Y-65584443D01*
X256019563Y-65561834D01*
X256016144Y-65538779D01*
X256015000Y-65515500D01*
X256015000Y-65040500D01*
X256016144Y-65017221D01*
X256019563Y-64994166D01*
X256025227Y-64971557D01*
X256033079Y-64949613D01*
X256043044Y-64928543D01*
X256055026Y-64908552D01*
X256068910Y-64889832D01*
X256084562Y-64872562D01*
X256101832Y-64856910D01*
X256120552Y-64843026D01*
X256140543Y-64831044D01*
X256161613Y-64821079D01*
X256183557Y-64813227D01*
X256206166Y-64807563D01*
X256229221Y-64804144D01*
X256252500Y-64803000D01*
X256827500Y-64803000D01*
X256850779Y-64804144D01*
X256850779Y-64804144D01*
G37*
D11*
X256540000Y-65278000D03*
D10*
G36*
X258600779Y-64804144D02*
G01*
X258623834Y-64807563D01*
X258646443Y-64813227D01*
X258668387Y-64821079D01*
X258689457Y-64831044D01*
X258709448Y-64843026D01*
X258728168Y-64856910D01*
X258745438Y-64872562D01*
X258761090Y-64889832D01*
X258774974Y-64908552D01*
X258786956Y-64928543D01*
X258796921Y-64949613D01*
X258804773Y-64971557D01*
X258810437Y-64994166D01*
X258813856Y-65017221D01*
X258815000Y-65040500D01*
X258815000Y-65515500D01*
X258813856Y-65538779D01*
X258810437Y-65561834D01*
X258804773Y-65584443D01*
X258796921Y-65606387D01*
X258786956Y-65627457D01*
X258774974Y-65647448D01*
X258761090Y-65666168D01*
X258745438Y-65683438D01*
X258728168Y-65699090D01*
X258709448Y-65712974D01*
X258689457Y-65724956D01*
X258668387Y-65734921D01*
X258646443Y-65742773D01*
X258623834Y-65748437D01*
X258600779Y-65751856D01*
X258577500Y-65753000D01*
X258002500Y-65753000D01*
X257979221Y-65751856D01*
X257956166Y-65748437D01*
X257933557Y-65742773D01*
X257911613Y-65734921D01*
X257890543Y-65724956D01*
X257870552Y-65712974D01*
X257851832Y-65699090D01*
X257834562Y-65683438D01*
X257818910Y-65666168D01*
X257805026Y-65647448D01*
X257793044Y-65627457D01*
X257783079Y-65606387D01*
X257775227Y-65584443D01*
X257769563Y-65561834D01*
X257766144Y-65538779D01*
X257765000Y-65515500D01*
X257765000Y-65040500D01*
X257766144Y-65017221D01*
X257769563Y-64994166D01*
X257775227Y-64971557D01*
X257783079Y-64949613D01*
X257793044Y-64928543D01*
X257805026Y-64908552D01*
X257818910Y-64889832D01*
X257834562Y-64872562D01*
X257851832Y-64856910D01*
X257870552Y-64843026D01*
X257890543Y-64831044D01*
X257911613Y-64821079D01*
X257933557Y-64813227D01*
X257956166Y-64807563D01*
X257979221Y-64804144D01*
X258002500Y-64803000D01*
X258577500Y-64803000D01*
X258600779Y-64804144D01*
X258600779Y-64804144D01*
G37*
D11*
X258290000Y-65278000D03*
D10*
G36*
X256850779Y-49056144D02*
G01*
X256873834Y-49059563D01*
X256896443Y-49065227D01*
X256918387Y-49073079D01*
X256939457Y-49083044D01*
X256959448Y-49095026D01*
X256978168Y-49108910D01*
X256995438Y-49124562D01*
X257011090Y-49141832D01*
X257024974Y-49160552D01*
X257036956Y-49180543D01*
X257046921Y-49201613D01*
X257054773Y-49223557D01*
X257060437Y-49246166D01*
X257063856Y-49269221D01*
X257065000Y-49292500D01*
X257065000Y-49767500D01*
X257063856Y-49790779D01*
X257060437Y-49813834D01*
X257054773Y-49836443D01*
X257046921Y-49858387D01*
X257036956Y-49879457D01*
X257024974Y-49899448D01*
X257011090Y-49918168D01*
X256995438Y-49935438D01*
X256978168Y-49951090D01*
X256959448Y-49964974D01*
X256939457Y-49976956D01*
X256918387Y-49986921D01*
X256896443Y-49994773D01*
X256873834Y-50000437D01*
X256850779Y-50003856D01*
X256827500Y-50005000D01*
X256252500Y-50005000D01*
X256229221Y-50003856D01*
X256206166Y-50000437D01*
X256183557Y-49994773D01*
X256161613Y-49986921D01*
X256140543Y-49976956D01*
X256120552Y-49964974D01*
X256101832Y-49951090D01*
X256084562Y-49935438D01*
X256068910Y-49918168D01*
X256055026Y-49899448D01*
X256043044Y-49879457D01*
X256033079Y-49858387D01*
X256025227Y-49836443D01*
X256019563Y-49813834D01*
X256016144Y-49790779D01*
X256015000Y-49767500D01*
X256015000Y-49292500D01*
X256016144Y-49269221D01*
X256019563Y-49246166D01*
X256025227Y-49223557D01*
X256033079Y-49201613D01*
X256043044Y-49180543D01*
X256055026Y-49160552D01*
X256068910Y-49141832D01*
X256084562Y-49124562D01*
X256101832Y-49108910D01*
X256120552Y-49095026D01*
X256140543Y-49083044D01*
X256161613Y-49073079D01*
X256183557Y-49065227D01*
X256206166Y-49059563D01*
X256229221Y-49056144D01*
X256252500Y-49055000D01*
X256827500Y-49055000D01*
X256850779Y-49056144D01*
X256850779Y-49056144D01*
G37*
D11*
X256540000Y-49530000D03*
D10*
G36*
X258600779Y-49056144D02*
G01*
X258623834Y-49059563D01*
X258646443Y-49065227D01*
X258668387Y-49073079D01*
X258689457Y-49083044D01*
X258709448Y-49095026D01*
X258728168Y-49108910D01*
X258745438Y-49124562D01*
X258761090Y-49141832D01*
X258774974Y-49160552D01*
X258786956Y-49180543D01*
X258796921Y-49201613D01*
X258804773Y-49223557D01*
X258810437Y-49246166D01*
X258813856Y-49269221D01*
X258815000Y-49292500D01*
X258815000Y-49767500D01*
X258813856Y-49790779D01*
X258810437Y-49813834D01*
X258804773Y-49836443D01*
X258796921Y-49858387D01*
X258786956Y-49879457D01*
X258774974Y-49899448D01*
X258761090Y-49918168D01*
X258745438Y-49935438D01*
X258728168Y-49951090D01*
X258709448Y-49964974D01*
X258689457Y-49976956D01*
X258668387Y-49986921D01*
X258646443Y-49994773D01*
X258623834Y-50000437D01*
X258600779Y-50003856D01*
X258577500Y-50005000D01*
X258002500Y-50005000D01*
X257979221Y-50003856D01*
X257956166Y-50000437D01*
X257933557Y-49994773D01*
X257911613Y-49986921D01*
X257890543Y-49976956D01*
X257870552Y-49964974D01*
X257851832Y-49951090D01*
X257834562Y-49935438D01*
X257818910Y-49918168D01*
X257805026Y-49899448D01*
X257793044Y-49879457D01*
X257783079Y-49858387D01*
X257775227Y-49836443D01*
X257769563Y-49813834D01*
X257766144Y-49790779D01*
X257765000Y-49767500D01*
X257765000Y-49292500D01*
X257766144Y-49269221D01*
X257769563Y-49246166D01*
X257775227Y-49223557D01*
X257783079Y-49201613D01*
X257793044Y-49180543D01*
X257805026Y-49160552D01*
X257818910Y-49141832D01*
X257834562Y-49124562D01*
X257851832Y-49108910D01*
X257870552Y-49095026D01*
X257890543Y-49083044D01*
X257911613Y-49073079D01*
X257933557Y-49065227D01*
X257956166Y-49059563D01*
X257979221Y-49056144D01*
X258002500Y-49055000D01*
X258577500Y-49055000D01*
X258600779Y-49056144D01*
X258600779Y-49056144D01*
G37*
D11*
X258290000Y-49530000D03*
D10*
G36*
X273642779Y-66836144D02*
G01*
X273665834Y-66839563D01*
X273688443Y-66845227D01*
X273710387Y-66853079D01*
X273731457Y-66863044D01*
X273751448Y-66875026D01*
X273770168Y-66888910D01*
X273787438Y-66904562D01*
X273803090Y-66921832D01*
X273816974Y-66940552D01*
X273828956Y-66960543D01*
X273838921Y-66981613D01*
X273846773Y-67003557D01*
X273852437Y-67026166D01*
X273855856Y-67049221D01*
X273857000Y-67072500D01*
X273857000Y-67547500D01*
X273855856Y-67570779D01*
X273852437Y-67593834D01*
X273846773Y-67616443D01*
X273838921Y-67638387D01*
X273828956Y-67659457D01*
X273816974Y-67679448D01*
X273803090Y-67698168D01*
X273787438Y-67715438D01*
X273770168Y-67731090D01*
X273751448Y-67744974D01*
X273731457Y-67756956D01*
X273710387Y-67766921D01*
X273688443Y-67774773D01*
X273665834Y-67780437D01*
X273642779Y-67783856D01*
X273619500Y-67785000D01*
X273044500Y-67785000D01*
X273021221Y-67783856D01*
X272998166Y-67780437D01*
X272975557Y-67774773D01*
X272953613Y-67766921D01*
X272932543Y-67756956D01*
X272912552Y-67744974D01*
X272893832Y-67731090D01*
X272876562Y-67715438D01*
X272860910Y-67698168D01*
X272847026Y-67679448D01*
X272835044Y-67659457D01*
X272825079Y-67638387D01*
X272817227Y-67616443D01*
X272811563Y-67593834D01*
X272808144Y-67570779D01*
X272807000Y-67547500D01*
X272807000Y-67072500D01*
X272808144Y-67049221D01*
X272811563Y-67026166D01*
X272817227Y-67003557D01*
X272825079Y-66981613D01*
X272835044Y-66960543D01*
X272847026Y-66940552D01*
X272860910Y-66921832D01*
X272876562Y-66904562D01*
X272893832Y-66888910D01*
X272912552Y-66875026D01*
X272932543Y-66863044D01*
X272953613Y-66853079D01*
X272975557Y-66845227D01*
X272998166Y-66839563D01*
X273021221Y-66836144D01*
X273044500Y-66835000D01*
X273619500Y-66835000D01*
X273642779Y-66836144D01*
X273642779Y-66836144D01*
G37*
D11*
X273332000Y-67310000D03*
D10*
G36*
X275392779Y-66836144D02*
G01*
X275415834Y-66839563D01*
X275438443Y-66845227D01*
X275460387Y-66853079D01*
X275481457Y-66863044D01*
X275501448Y-66875026D01*
X275520168Y-66888910D01*
X275537438Y-66904562D01*
X275553090Y-66921832D01*
X275566974Y-66940552D01*
X275578956Y-66960543D01*
X275588921Y-66981613D01*
X275596773Y-67003557D01*
X275602437Y-67026166D01*
X275605856Y-67049221D01*
X275607000Y-67072500D01*
X275607000Y-67547500D01*
X275605856Y-67570779D01*
X275602437Y-67593834D01*
X275596773Y-67616443D01*
X275588921Y-67638387D01*
X275578956Y-67659457D01*
X275566974Y-67679448D01*
X275553090Y-67698168D01*
X275537438Y-67715438D01*
X275520168Y-67731090D01*
X275501448Y-67744974D01*
X275481457Y-67756956D01*
X275460387Y-67766921D01*
X275438443Y-67774773D01*
X275415834Y-67780437D01*
X275392779Y-67783856D01*
X275369500Y-67785000D01*
X274794500Y-67785000D01*
X274771221Y-67783856D01*
X274748166Y-67780437D01*
X274725557Y-67774773D01*
X274703613Y-67766921D01*
X274682543Y-67756956D01*
X274662552Y-67744974D01*
X274643832Y-67731090D01*
X274626562Y-67715438D01*
X274610910Y-67698168D01*
X274597026Y-67679448D01*
X274585044Y-67659457D01*
X274575079Y-67638387D01*
X274567227Y-67616443D01*
X274561563Y-67593834D01*
X274558144Y-67570779D01*
X274557000Y-67547500D01*
X274557000Y-67072500D01*
X274558144Y-67049221D01*
X274561563Y-67026166D01*
X274567227Y-67003557D01*
X274575079Y-66981613D01*
X274585044Y-66960543D01*
X274597026Y-66940552D01*
X274610910Y-66921832D01*
X274626562Y-66904562D01*
X274643832Y-66888910D01*
X274662552Y-66875026D01*
X274682543Y-66863044D01*
X274703613Y-66853079D01*
X274725557Y-66845227D01*
X274748166Y-66839563D01*
X274771221Y-66836144D01*
X274794500Y-66835000D01*
X275369500Y-66835000D01*
X275392779Y-66836144D01*
X275392779Y-66836144D01*
G37*
D11*
X275082000Y-67310000D03*
D10*
G36*
X265373779Y-53120144D02*
G01*
X265396834Y-53123563D01*
X265419443Y-53129227D01*
X265441387Y-53137079D01*
X265462457Y-53147044D01*
X265482448Y-53159026D01*
X265501168Y-53172910D01*
X265518438Y-53188562D01*
X265534090Y-53205832D01*
X265547974Y-53224552D01*
X265559956Y-53244543D01*
X265569921Y-53265613D01*
X265577773Y-53287557D01*
X265583437Y-53310166D01*
X265586856Y-53333221D01*
X265588000Y-53356500D01*
X265588000Y-53831500D01*
X265586856Y-53854779D01*
X265583437Y-53877834D01*
X265577773Y-53900443D01*
X265569921Y-53922387D01*
X265559956Y-53943457D01*
X265547974Y-53963448D01*
X265534090Y-53982168D01*
X265518438Y-53999438D01*
X265501168Y-54015090D01*
X265482448Y-54028974D01*
X265462457Y-54040956D01*
X265441387Y-54050921D01*
X265419443Y-54058773D01*
X265396834Y-54064437D01*
X265373779Y-54067856D01*
X265350500Y-54069000D01*
X264775500Y-54069000D01*
X264752221Y-54067856D01*
X264729166Y-54064437D01*
X264706557Y-54058773D01*
X264684613Y-54050921D01*
X264663543Y-54040956D01*
X264643552Y-54028974D01*
X264624832Y-54015090D01*
X264607562Y-53999438D01*
X264591910Y-53982168D01*
X264578026Y-53963448D01*
X264566044Y-53943457D01*
X264556079Y-53922387D01*
X264548227Y-53900443D01*
X264542563Y-53877834D01*
X264539144Y-53854779D01*
X264538000Y-53831500D01*
X264538000Y-53356500D01*
X264539144Y-53333221D01*
X264542563Y-53310166D01*
X264548227Y-53287557D01*
X264556079Y-53265613D01*
X264566044Y-53244543D01*
X264578026Y-53224552D01*
X264591910Y-53205832D01*
X264607562Y-53188562D01*
X264624832Y-53172910D01*
X264643552Y-53159026D01*
X264663543Y-53147044D01*
X264684613Y-53137079D01*
X264706557Y-53129227D01*
X264729166Y-53123563D01*
X264752221Y-53120144D01*
X264775500Y-53119000D01*
X265350500Y-53119000D01*
X265373779Y-53120144D01*
X265373779Y-53120144D01*
G37*
D11*
X265063000Y-53594000D03*
D10*
G36*
X267123779Y-53120144D02*
G01*
X267146834Y-53123563D01*
X267169443Y-53129227D01*
X267191387Y-53137079D01*
X267212457Y-53147044D01*
X267232448Y-53159026D01*
X267251168Y-53172910D01*
X267268438Y-53188562D01*
X267284090Y-53205832D01*
X267297974Y-53224552D01*
X267309956Y-53244543D01*
X267319921Y-53265613D01*
X267327773Y-53287557D01*
X267333437Y-53310166D01*
X267336856Y-53333221D01*
X267338000Y-53356500D01*
X267338000Y-53831500D01*
X267336856Y-53854779D01*
X267333437Y-53877834D01*
X267327773Y-53900443D01*
X267319921Y-53922387D01*
X267309956Y-53943457D01*
X267297974Y-53963448D01*
X267284090Y-53982168D01*
X267268438Y-53999438D01*
X267251168Y-54015090D01*
X267232448Y-54028974D01*
X267212457Y-54040956D01*
X267191387Y-54050921D01*
X267169443Y-54058773D01*
X267146834Y-54064437D01*
X267123779Y-54067856D01*
X267100500Y-54069000D01*
X266525500Y-54069000D01*
X266502221Y-54067856D01*
X266479166Y-54064437D01*
X266456557Y-54058773D01*
X266434613Y-54050921D01*
X266413543Y-54040956D01*
X266393552Y-54028974D01*
X266374832Y-54015090D01*
X266357562Y-53999438D01*
X266341910Y-53982168D01*
X266328026Y-53963448D01*
X266316044Y-53943457D01*
X266306079Y-53922387D01*
X266298227Y-53900443D01*
X266292563Y-53877834D01*
X266289144Y-53854779D01*
X266288000Y-53831500D01*
X266288000Y-53356500D01*
X266289144Y-53333221D01*
X266292563Y-53310166D01*
X266298227Y-53287557D01*
X266306079Y-53265613D01*
X266316044Y-53244543D01*
X266328026Y-53224552D01*
X266341910Y-53205832D01*
X266357562Y-53188562D01*
X266374832Y-53172910D01*
X266393552Y-53159026D01*
X266413543Y-53147044D01*
X266434613Y-53137079D01*
X266456557Y-53129227D01*
X266479166Y-53123563D01*
X266502221Y-53120144D01*
X266525500Y-53119000D01*
X267100500Y-53119000D01*
X267123779Y-53120144D01*
X267123779Y-53120144D01*
G37*
D11*
X266813000Y-53594000D03*
D10*
G36*
X273642779Y-49056144D02*
G01*
X273665834Y-49059563D01*
X273688443Y-49065227D01*
X273710387Y-49073079D01*
X273731457Y-49083044D01*
X273751448Y-49095026D01*
X273770168Y-49108910D01*
X273787438Y-49124562D01*
X273803090Y-49141832D01*
X273816974Y-49160552D01*
X273828956Y-49180543D01*
X273838921Y-49201613D01*
X273846773Y-49223557D01*
X273852437Y-49246166D01*
X273855856Y-49269221D01*
X273857000Y-49292500D01*
X273857000Y-49767500D01*
X273855856Y-49790779D01*
X273852437Y-49813834D01*
X273846773Y-49836443D01*
X273838921Y-49858387D01*
X273828956Y-49879457D01*
X273816974Y-49899448D01*
X273803090Y-49918168D01*
X273787438Y-49935438D01*
X273770168Y-49951090D01*
X273751448Y-49964974D01*
X273731457Y-49976956D01*
X273710387Y-49986921D01*
X273688443Y-49994773D01*
X273665834Y-50000437D01*
X273642779Y-50003856D01*
X273619500Y-50005000D01*
X273044500Y-50005000D01*
X273021221Y-50003856D01*
X272998166Y-50000437D01*
X272975557Y-49994773D01*
X272953613Y-49986921D01*
X272932543Y-49976956D01*
X272912552Y-49964974D01*
X272893832Y-49951090D01*
X272876562Y-49935438D01*
X272860910Y-49918168D01*
X272847026Y-49899448D01*
X272835044Y-49879457D01*
X272825079Y-49858387D01*
X272817227Y-49836443D01*
X272811563Y-49813834D01*
X272808144Y-49790779D01*
X272807000Y-49767500D01*
X272807000Y-49292500D01*
X272808144Y-49269221D01*
X272811563Y-49246166D01*
X272817227Y-49223557D01*
X272825079Y-49201613D01*
X272835044Y-49180543D01*
X272847026Y-49160552D01*
X272860910Y-49141832D01*
X272876562Y-49124562D01*
X272893832Y-49108910D01*
X272912552Y-49095026D01*
X272932543Y-49083044D01*
X272953613Y-49073079D01*
X272975557Y-49065227D01*
X272998166Y-49059563D01*
X273021221Y-49056144D01*
X273044500Y-49055000D01*
X273619500Y-49055000D01*
X273642779Y-49056144D01*
X273642779Y-49056144D01*
G37*
D11*
X273332000Y-49530000D03*
D10*
G36*
X275392779Y-49056144D02*
G01*
X275415834Y-49059563D01*
X275438443Y-49065227D01*
X275460387Y-49073079D01*
X275481457Y-49083044D01*
X275501448Y-49095026D01*
X275520168Y-49108910D01*
X275537438Y-49124562D01*
X275553090Y-49141832D01*
X275566974Y-49160552D01*
X275578956Y-49180543D01*
X275588921Y-49201613D01*
X275596773Y-49223557D01*
X275602437Y-49246166D01*
X275605856Y-49269221D01*
X275607000Y-49292500D01*
X275607000Y-49767500D01*
X275605856Y-49790779D01*
X275602437Y-49813834D01*
X275596773Y-49836443D01*
X275588921Y-49858387D01*
X275578956Y-49879457D01*
X275566974Y-49899448D01*
X275553090Y-49918168D01*
X275537438Y-49935438D01*
X275520168Y-49951090D01*
X275501448Y-49964974D01*
X275481457Y-49976956D01*
X275460387Y-49986921D01*
X275438443Y-49994773D01*
X275415834Y-50000437D01*
X275392779Y-50003856D01*
X275369500Y-50005000D01*
X274794500Y-50005000D01*
X274771221Y-50003856D01*
X274748166Y-50000437D01*
X274725557Y-49994773D01*
X274703613Y-49986921D01*
X274682543Y-49976956D01*
X274662552Y-49964974D01*
X274643832Y-49951090D01*
X274626562Y-49935438D01*
X274610910Y-49918168D01*
X274597026Y-49899448D01*
X274585044Y-49879457D01*
X274575079Y-49858387D01*
X274567227Y-49836443D01*
X274561563Y-49813834D01*
X274558144Y-49790779D01*
X274557000Y-49767500D01*
X274557000Y-49292500D01*
X274558144Y-49269221D01*
X274561563Y-49246166D01*
X274567227Y-49223557D01*
X274575079Y-49201613D01*
X274585044Y-49180543D01*
X274597026Y-49160552D01*
X274610910Y-49141832D01*
X274626562Y-49124562D01*
X274643832Y-49108910D01*
X274662552Y-49095026D01*
X274682543Y-49083044D01*
X274703613Y-49073079D01*
X274725557Y-49065227D01*
X274748166Y-49059563D01*
X274771221Y-49056144D01*
X274794500Y-49055000D01*
X275369500Y-49055000D01*
X275392779Y-49056144D01*
X275392779Y-49056144D01*
G37*
D11*
X275082000Y-49530000D03*
D10*
G36*
X256756504Y-25023204D02*
G01*
X256780773Y-25026804D01*
X256804571Y-25032765D01*
X256827671Y-25041030D01*
X256849849Y-25051520D01*
X256870893Y-25064133D01*
X256890598Y-25078747D01*
X256908777Y-25095223D01*
X256925253Y-25113402D01*
X256939867Y-25133107D01*
X256952480Y-25154151D01*
X256962970Y-25176329D01*
X256971235Y-25199429D01*
X256977196Y-25223227D01*
X256980796Y-25247496D01*
X256982000Y-25272000D01*
X256982000Y-28922000D01*
X256980796Y-28946504D01*
X256977196Y-28970773D01*
X256971235Y-28994571D01*
X256962970Y-29017671D01*
X256952480Y-29039849D01*
X256939867Y-29060893D01*
X256925253Y-29080598D01*
X256908777Y-29098777D01*
X256890598Y-29115253D01*
X256870893Y-29129867D01*
X256849849Y-29142480D01*
X256827671Y-29152970D01*
X256804571Y-29161235D01*
X256780773Y-29167196D01*
X256756504Y-29170796D01*
X256732000Y-29172000D01*
X255332000Y-29172000D01*
X255307496Y-29170796D01*
X255283227Y-29167196D01*
X255259429Y-29161235D01*
X255236329Y-29152970D01*
X255214151Y-29142480D01*
X255193107Y-29129867D01*
X255173402Y-29115253D01*
X255155223Y-29098777D01*
X255138747Y-29080598D01*
X255124133Y-29060893D01*
X255111520Y-29039849D01*
X255101030Y-29017671D01*
X255092765Y-28994571D01*
X255086804Y-28970773D01*
X255083204Y-28946504D01*
X255082000Y-28922000D01*
X255082000Y-25272000D01*
X255083204Y-25247496D01*
X255086804Y-25223227D01*
X255092765Y-25199429D01*
X255101030Y-25176329D01*
X255111520Y-25154151D01*
X255124133Y-25133107D01*
X255138747Y-25113402D01*
X255155223Y-25095223D01*
X255173402Y-25078747D01*
X255193107Y-25064133D01*
X255214151Y-25051520D01*
X255236329Y-25041030D01*
X255259429Y-25032765D01*
X255283227Y-25026804D01*
X255307496Y-25023204D01*
X255332000Y-25022000D01*
X256732000Y-25022000D01*
X256756504Y-25023204D01*
X256756504Y-25023204D01*
G37*
D12*
X256032000Y-27097000D03*
D10*
G36*
X256756504Y-18073204D02*
G01*
X256780773Y-18076804D01*
X256804571Y-18082765D01*
X256827671Y-18091030D01*
X256849849Y-18101520D01*
X256870893Y-18114133D01*
X256890598Y-18128747D01*
X256908777Y-18145223D01*
X256925253Y-18163402D01*
X256939867Y-18183107D01*
X256952480Y-18204151D01*
X256962970Y-18226329D01*
X256971235Y-18249429D01*
X256977196Y-18273227D01*
X256980796Y-18297496D01*
X256982000Y-18322000D01*
X256982000Y-21972000D01*
X256980796Y-21996504D01*
X256977196Y-22020773D01*
X256971235Y-22044571D01*
X256962970Y-22067671D01*
X256952480Y-22089849D01*
X256939867Y-22110893D01*
X256925253Y-22130598D01*
X256908777Y-22148777D01*
X256890598Y-22165253D01*
X256870893Y-22179867D01*
X256849849Y-22192480D01*
X256827671Y-22202970D01*
X256804571Y-22211235D01*
X256780773Y-22217196D01*
X256756504Y-22220796D01*
X256732000Y-22222000D01*
X255332000Y-22222000D01*
X255307496Y-22220796D01*
X255283227Y-22217196D01*
X255259429Y-22211235D01*
X255236329Y-22202970D01*
X255214151Y-22192480D01*
X255193107Y-22179867D01*
X255173402Y-22165253D01*
X255155223Y-22148777D01*
X255138747Y-22130598D01*
X255124133Y-22110893D01*
X255111520Y-22089849D01*
X255101030Y-22067671D01*
X255092765Y-22044571D01*
X255086804Y-22020773D01*
X255083204Y-21996504D01*
X255082000Y-21972000D01*
X255082000Y-18322000D01*
X255083204Y-18297496D01*
X255086804Y-18273227D01*
X255092765Y-18249429D01*
X255101030Y-18226329D01*
X255111520Y-18204151D01*
X255124133Y-18183107D01*
X255138747Y-18163402D01*
X255155223Y-18145223D01*
X255173402Y-18128747D01*
X255193107Y-18114133D01*
X255214151Y-18101520D01*
X255236329Y-18091030D01*
X255259429Y-18082765D01*
X255283227Y-18076804D01*
X255307496Y-18073204D01*
X255332000Y-18072000D01*
X256732000Y-18072000D01*
X256756504Y-18073204D01*
X256756504Y-18073204D01*
G37*
D12*
X256032000Y-20147000D03*
D10*
G36*
X276314504Y-18073204D02*
G01*
X276338773Y-18076804D01*
X276362571Y-18082765D01*
X276385671Y-18091030D01*
X276407849Y-18101520D01*
X276428893Y-18114133D01*
X276448598Y-18128747D01*
X276466777Y-18145223D01*
X276483253Y-18163402D01*
X276497867Y-18183107D01*
X276510480Y-18204151D01*
X276520970Y-18226329D01*
X276529235Y-18249429D01*
X276535196Y-18273227D01*
X276538796Y-18297496D01*
X276540000Y-18322000D01*
X276540000Y-21972000D01*
X276538796Y-21996504D01*
X276535196Y-22020773D01*
X276529235Y-22044571D01*
X276520970Y-22067671D01*
X276510480Y-22089849D01*
X276497867Y-22110893D01*
X276483253Y-22130598D01*
X276466777Y-22148777D01*
X276448598Y-22165253D01*
X276428893Y-22179867D01*
X276407849Y-22192480D01*
X276385671Y-22202970D01*
X276362571Y-22211235D01*
X276338773Y-22217196D01*
X276314504Y-22220796D01*
X276290000Y-22222000D01*
X274890000Y-22222000D01*
X274865496Y-22220796D01*
X274841227Y-22217196D01*
X274817429Y-22211235D01*
X274794329Y-22202970D01*
X274772151Y-22192480D01*
X274751107Y-22179867D01*
X274731402Y-22165253D01*
X274713223Y-22148777D01*
X274696747Y-22130598D01*
X274682133Y-22110893D01*
X274669520Y-22089849D01*
X274659030Y-22067671D01*
X274650765Y-22044571D01*
X274644804Y-22020773D01*
X274641204Y-21996504D01*
X274640000Y-21972000D01*
X274640000Y-18322000D01*
X274641204Y-18297496D01*
X274644804Y-18273227D01*
X274650765Y-18249429D01*
X274659030Y-18226329D01*
X274669520Y-18204151D01*
X274682133Y-18183107D01*
X274696747Y-18163402D01*
X274713223Y-18145223D01*
X274731402Y-18128747D01*
X274751107Y-18114133D01*
X274772151Y-18101520D01*
X274794329Y-18091030D01*
X274817429Y-18082765D01*
X274841227Y-18076804D01*
X274865496Y-18073204D01*
X274890000Y-18072000D01*
X276290000Y-18072000D01*
X276314504Y-18073204D01*
X276314504Y-18073204D01*
G37*
D12*
X275590000Y-20147000D03*
D10*
G36*
X276314504Y-25023204D02*
G01*
X276338773Y-25026804D01*
X276362571Y-25032765D01*
X276385671Y-25041030D01*
X276407849Y-25051520D01*
X276428893Y-25064133D01*
X276448598Y-25078747D01*
X276466777Y-25095223D01*
X276483253Y-25113402D01*
X276497867Y-25133107D01*
X276510480Y-25154151D01*
X276520970Y-25176329D01*
X276529235Y-25199429D01*
X276535196Y-25223227D01*
X276538796Y-25247496D01*
X276540000Y-25272000D01*
X276540000Y-28922000D01*
X276538796Y-28946504D01*
X276535196Y-28970773D01*
X276529235Y-28994571D01*
X276520970Y-29017671D01*
X276510480Y-29039849D01*
X276497867Y-29060893D01*
X276483253Y-29080598D01*
X276466777Y-29098777D01*
X276448598Y-29115253D01*
X276428893Y-29129867D01*
X276407849Y-29142480D01*
X276385671Y-29152970D01*
X276362571Y-29161235D01*
X276338773Y-29167196D01*
X276314504Y-29170796D01*
X276290000Y-29172000D01*
X274890000Y-29172000D01*
X274865496Y-29170796D01*
X274841227Y-29167196D01*
X274817429Y-29161235D01*
X274794329Y-29152970D01*
X274772151Y-29142480D01*
X274751107Y-29129867D01*
X274731402Y-29115253D01*
X274713223Y-29098777D01*
X274696747Y-29080598D01*
X274682133Y-29060893D01*
X274669520Y-29039849D01*
X274659030Y-29017671D01*
X274650765Y-28994571D01*
X274644804Y-28970773D01*
X274641204Y-28946504D01*
X274640000Y-28922000D01*
X274640000Y-25272000D01*
X274641204Y-25247496D01*
X274644804Y-25223227D01*
X274650765Y-25199429D01*
X274659030Y-25176329D01*
X274669520Y-25154151D01*
X274682133Y-25133107D01*
X274696747Y-25113402D01*
X274713223Y-25095223D01*
X274731402Y-25078747D01*
X274751107Y-25064133D01*
X274772151Y-25051520D01*
X274794329Y-25041030D01*
X274817429Y-25032765D01*
X274841227Y-25026804D01*
X274865496Y-25023204D01*
X274890000Y-25022000D01*
X276290000Y-25022000D01*
X276314504Y-25023204D01*
X276314504Y-25023204D01*
G37*
D12*
X275590000Y-27097000D03*
D10*
G36*
X258600779Y-68868144D02*
G01*
X258623834Y-68871563D01*
X258646443Y-68877227D01*
X258668387Y-68885079D01*
X258689457Y-68895044D01*
X258709448Y-68907026D01*
X258728168Y-68920910D01*
X258745438Y-68936562D01*
X258761090Y-68953832D01*
X258774974Y-68972552D01*
X258786956Y-68992543D01*
X258796921Y-69013613D01*
X258804773Y-69035557D01*
X258810437Y-69058166D01*
X258813856Y-69081221D01*
X258815000Y-69104500D01*
X258815000Y-69579500D01*
X258813856Y-69602779D01*
X258810437Y-69625834D01*
X258804773Y-69648443D01*
X258796921Y-69670387D01*
X258786956Y-69691457D01*
X258774974Y-69711448D01*
X258761090Y-69730168D01*
X258745438Y-69747438D01*
X258728168Y-69763090D01*
X258709448Y-69776974D01*
X258689457Y-69788956D01*
X258668387Y-69798921D01*
X258646443Y-69806773D01*
X258623834Y-69812437D01*
X258600779Y-69815856D01*
X258577500Y-69817000D01*
X258002500Y-69817000D01*
X257979221Y-69815856D01*
X257956166Y-69812437D01*
X257933557Y-69806773D01*
X257911613Y-69798921D01*
X257890543Y-69788956D01*
X257870552Y-69776974D01*
X257851832Y-69763090D01*
X257834562Y-69747438D01*
X257818910Y-69730168D01*
X257805026Y-69711448D01*
X257793044Y-69691457D01*
X257783079Y-69670387D01*
X257775227Y-69648443D01*
X257769563Y-69625834D01*
X257766144Y-69602779D01*
X257765000Y-69579500D01*
X257765000Y-69104500D01*
X257766144Y-69081221D01*
X257769563Y-69058166D01*
X257775227Y-69035557D01*
X257783079Y-69013613D01*
X257793044Y-68992543D01*
X257805026Y-68972552D01*
X257818910Y-68953832D01*
X257834562Y-68936562D01*
X257851832Y-68920910D01*
X257870552Y-68907026D01*
X257890543Y-68895044D01*
X257911613Y-68885079D01*
X257933557Y-68877227D01*
X257956166Y-68871563D01*
X257979221Y-68868144D01*
X258002500Y-68867000D01*
X258577500Y-68867000D01*
X258600779Y-68868144D01*
X258600779Y-68868144D01*
G37*
D11*
X258290000Y-69342000D03*
D10*
G36*
X256850779Y-68868144D02*
G01*
X256873834Y-68871563D01*
X256896443Y-68877227D01*
X256918387Y-68885079D01*
X256939457Y-68895044D01*
X256959448Y-68907026D01*
X256978168Y-68920910D01*
X256995438Y-68936562D01*
X257011090Y-68953832D01*
X257024974Y-68972552D01*
X257036956Y-68992543D01*
X257046921Y-69013613D01*
X257054773Y-69035557D01*
X257060437Y-69058166D01*
X257063856Y-69081221D01*
X257065000Y-69104500D01*
X257065000Y-69579500D01*
X257063856Y-69602779D01*
X257060437Y-69625834D01*
X257054773Y-69648443D01*
X257046921Y-69670387D01*
X257036956Y-69691457D01*
X257024974Y-69711448D01*
X257011090Y-69730168D01*
X256995438Y-69747438D01*
X256978168Y-69763090D01*
X256959448Y-69776974D01*
X256939457Y-69788956D01*
X256918387Y-69798921D01*
X256896443Y-69806773D01*
X256873834Y-69812437D01*
X256850779Y-69815856D01*
X256827500Y-69817000D01*
X256252500Y-69817000D01*
X256229221Y-69815856D01*
X256206166Y-69812437D01*
X256183557Y-69806773D01*
X256161613Y-69798921D01*
X256140543Y-69788956D01*
X256120552Y-69776974D01*
X256101832Y-69763090D01*
X256084562Y-69747438D01*
X256068910Y-69730168D01*
X256055026Y-69711448D01*
X256043044Y-69691457D01*
X256033079Y-69670387D01*
X256025227Y-69648443D01*
X256019563Y-69625834D01*
X256016144Y-69602779D01*
X256015000Y-69579500D01*
X256015000Y-69104500D01*
X256016144Y-69081221D01*
X256019563Y-69058166D01*
X256025227Y-69035557D01*
X256033079Y-69013613D01*
X256043044Y-68992543D01*
X256055026Y-68972552D01*
X256068910Y-68953832D01*
X256084562Y-68936562D01*
X256101832Y-68920910D01*
X256120552Y-68907026D01*
X256140543Y-68895044D01*
X256161613Y-68885079D01*
X256183557Y-68877227D01*
X256206166Y-68871563D01*
X256229221Y-68868144D01*
X256252500Y-68867000D01*
X256827500Y-68867000D01*
X256850779Y-68868144D01*
X256850779Y-68868144D01*
G37*
D11*
X256540000Y-69342000D03*
D10*
G36*
X273642779Y-62772144D02*
G01*
X273665834Y-62775563D01*
X273688443Y-62781227D01*
X273710387Y-62789079D01*
X273731457Y-62799044D01*
X273751448Y-62811026D01*
X273770168Y-62824910D01*
X273787438Y-62840562D01*
X273803090Y-62857832D01*
X273816974Y-62876552D01*
X273828956Y-62896543D01*
X273838921Y-62917613D01*
X273846773Y-62939557D01*
X273852437Y-62962166D01*
X273855856Y-62985221D01*
X273857000Y-63008500D01*
X273857000Y-63483500D01*
X273855856Y-63506779D01*
X273852437Y-63529834D01*
X273846773Y-63552443D01*
X273838921Y-63574387D01*
X273828956Y-63595457D01*
X273816974Y-63615448D01*
X273803090Y-63634168D01*
X273787438Y-63651438D01*
X273770168Y-63667090D01*
X273751448Y-63680974D01*
X273731457Y-63692956D01*
X273710387Y-63702921D01*
X273688443Y-63710773D01*
X273665834Y-63716437D01*
X273642779Y-63719856D01*
X273619500Y-63721000D01*
X273044500Y-63721000D01*
X273021221Y-63719856D01*
X272998166Y-63716437D01*
X272975557Y-63710773D01*
X272953613Y-63702921D01*
X272932543Y-63692956D01*
X272912552Y-63680974D01*
X272893832Y-63667090D01*
X272876562Y-63651438D01*
X272860910Y-63634168D01*
X272847026Y-63615448D01*
X272835044Y-63595457D01*
X272825079Y-63574387D01*
X272817227Y-63552443D01*
X272811563Y-63529834D01*
X272808144Y-63506779D01*
X272807000Y-63483500D01*
X272807000Y-63008500D01*
X272808144Y-62985221D01*
X272811563Y-62962166D01*
X272817227Y-62939557D01*
X272825079Y-62917613D01*
X272835044Y-62896543D01*
X272847026Y-62876552D01*
X272860910Y-62857832D01*
X272876562Y-62840562D01*
X272893832Y-62824910D01*
X272912552Y-62811026D01*
X272932543Y-62799044D01*
X272953613Y-62789079D01*
X272975557Y-62781227D01*
X272998166Y-62775563D01*
X273021221Y-62772144D01*
X273044500Y-62771000D01*
X273619500Y-62771000D01*
X273642779Y-62772144D01*
X273642779Y-62772144D01*
G37*
D11*
X273332000Y-63246000D03*
D10*
G36*
X275392779Y-62772144D02*
G01*
X275415834Y-62775563D01*
X275438443Y-62781227D01*
X275460387Y-62789079D01*
X275481457Y-62799044D01*
X275501448Y-62811026D01*
X275520168Y-62824910D01*
X275537438Y-62840562D01*
X275553090Y-62857832D01*
X275566974Y-62876552D01*
X275578956Y-62896543D01*
X275588921Y-62917613D01*
X275596773Y-62939557D01*
X275602437Y-62962166D01*
X275605856Y-62985221D01*
X275607000Y-63008500D01*
X275607000Y-63483500D01*
X275605856Y-63506779D01*
X275602437Y-63529834D01*
X275596773Y-63552443D01*
X275588921Y-63574387D01*
X275578956Y-63595457D01*
X275566974Y-63615448D01*
X275553090Y-63634168D01*
X275537438Y-63651438D01*
X275520168Y-63667090D01*
X275501448Y-63680974D01*
X275481457Y-63692956D01*
X275460387Y-63702921D01*
X275438443Y-63710773D01*
X275415834Y-63716437D01*
X275392779Y-63719856D01*
X275369500Y-63721000D01*
X274794500Y-63721000D01*
X274771221Y-63719856D01*
X274748166Y-63716437D01*
X274725557Y-63710773D01*
X274703613Y-63702921D01*
X274682543Y-63692956D01*
X274662552Y-63680974D01*
X274643832Y-63667090D01*
X274626562Y-63651438D01*
X274610910Y-63634168D01*
X274597026Y-63615448D01*
X274585044Y-63595457D01*
X274575079Y-63574387D01*
X274567227Y-63552443D01*
X274561563Y-63529834D01*
X274558144Y-63506779D01*
X274557000Y-63483500D01*
X274557000Y-63008500D01*
X274558144Y-62985221D01*
X274561563Y-62962166D01*
X274567227Y-62939557D01*
X274575079Y-62917613D01*
X274585044Y-62896543D01*
X274597026Y-62876552D01*
X274610910Y-62857832D01*
X274626562Y-62840562D01*
X274643832Y-62824910D01*
X274662552Y-62811026D01*
X274682543Y-62799044D01*
X274703613Y-62789079D01*
X274725557Y-62781227D01*
X274748166Y-62775563D01*
X274771221Y-62772144D01*
X274794500Y-62771000D01*
X275369500Y-62771000D01*
X275392779Y-62772144D01*
X275392779Y-62772144D01*
G37*
D11*
X275082000Y-63246000D03*
D10*
G36*
X258346779Y-82330144D02*
G01*
X258369834Y-82333563D01*
X258392443Y-82339227D01*
X258414387Y-82347079D01*
X258435457Y-82357044D01*
X258455448Y-82369026D01*
X258474168Y-82382910D01*
X258491438Y-82398562D01*
X258507090Y-82415832D01*
X258520974Y-82434552D01*
X258532956Y-82454543D01*
X258542921Y-82475613D01*
X258550773Y-82497557D01*
X258556437Y-82520166D01*
X258559856Y-82543221D01*
X258561000Y-82566500D01*
X258561000Y-83041500D01*
X258559856Y-83064779D01*
X258556437Y-83087834D01*
X258550773Y-83110443D01*
X258542921Y-83132387D01*
X258532956Y-83153457D01*
X258520974Y-83173448D01*
X258507090Y-83192168D01*
X258491438Y-83209438D01*
X258474168Y-83225090D01*
X258455448Y-83238974D01*
X258435457Y-83250956D01*
X258414387Y-83260921D01*
X258392443Y-83268773D01*
X258369834Y-83274437D01*
X258346779Y-83277856D01*
X258323500Y-83279000D01*
X257748500Y-83279000D01*
X257725221Y-83277856D01*
X257702166Y-83274437D01*
X257679557Y-83268773D01*
X257657613Y-83260921D01*
X257636543Y-83250956D01*
X257616552Y-83238974D01*
X257597832Y-83225090D01*
X257580562Y-83209438D01*
X257564910Y-83192168D01*
X257551026Y-83173448D01*
X257539044Y-83153457D01*
X257529079Y-83132387D01*
X257521227Y-83110443D01*
X257515563Y-83087834D01*
X257512144Y-83064779D01*
X257511000Y-83041500D01*
X257511000Y-82566500D01*
X257512144Y-82543221D01*
X257515563Y-82520166D01*
X257521227Y-82497557D01*
X257529079Y-82475613D01*
X257539044Y-82454543D01*
X257551026Y-82434552D01*
X257564910Y-82415832D01*
X257580562Y-82398562D01*
X257597832Y-82382910D01*
X257616552Y-82369026D01*
X257636543Y-82357044D01*
X257657613Y-82347079D01*
X257679557Y-82339227D01*
X257702166Y-82333563D01*
X257725221Y-82330144D01*
X257748500Y-82329000D01*
X258323500Y-82329000D01*
X258346779Y-82330144D01*
X258346779Y-82330144D01*
G37*
D11*
X258036000Y-82804000D03*
D10*
G36*
X256596779Y-82330144D02*
G01*
X256619834Y-82333563D01*
X256642443Y-82339227D01*
X256664387Y-82347079D01*
X256685457Y-82357044D01*
X256705448Y-82369026D01*
X256724168Y-82382910D01*
X256741438Y-82398562D01*
X256757090Y-82415832D01*
X256770974Y-82434552D01*
X256782956Y-82454543D01*
X256792921Y-82475613D01*
X256800773Y-82497557D01*
X256806437Y-82520166D01*
X256809856Y-82543221D01*
X256811000Y-82566500D01*
X256811000Y-83041500D01*
X256809856Y-83064779D01*
X256806437Y-83087834D01*
X256800773Y-83110443D01*
X256792921Y-83132387D01*
X256782956Y-83153457D01*
X256770974Y-83173448D01*
X256757090Y-83192168D01*
X256741438Y-83209438D01*
X256724168Y-83225090D01*
X256705448Y-83238974D01*
X256685457Y-83250956D01*
X256664387Y-83260921D01*
X256642443Y-83268773D01*
X256619834Y-83274437D01*
X256596779Y-83277856D01*
X256573500Y-83279000D01*
X255998500Y-83279000D01*
X255975221Y-83277856D01*
X255952166Y-83274437D01*
X255929557Y-83268773D01*
X255907613Y-83260921D01*
X255886543Y-83250956D01*
X255866552Y-83238974D01*
X255847832Y-83225090D01*
X255830562Y-83209438D01*
X255814910Y-83192168D01*
X255801026Y-83173448D01*
X255789044Y-83153457D01*
X255779079Y-83132387D01*
X255771227Y-83110443D01*
X255765563Y-83087834D01*
X255762144Y-83064779D01*
X255761000Y-83041500D01*
X255761000Y-82566500D01*
X255762144Y-82543221D01*
X255765563Y-82520166D01*
X255771227Y-82497557D01*
X255779079Y-82475613D01*
X255789044Y-82454543D01*
X255801026Y-82434552D01*
X255814910Y-82415832D01*
X255830562Y-82398562D01*
X255847832Y-82382910D01*
X255866552Y-82369026D01*
X255886543Y-82357044D01*
X255907613Y-82347079D01*
X255929557Y-82339227D01*
X255952166Y-82333563D01*
X255975221Y-82330144D01*
X255998500Y-82329000D01*
X256573500Y-82329000D01*
X256596779Y-82330144D01*
X256596779Y-82330144D01*
G37*
D11*
X256286000Y-82804000D03*
D10*
G36*
X273642779Y-80044144D02*
G01*
X273665834Y-80047563D01*
X273688443Y-80053227D01*
X273710387Y-80061079D01*
X273731457Y-80071044D01*
X273751448Y-80083026D01*
X273770168Y-80096910D01*
X273787438Y-80112562D01*
X273803090Y-80129832D01*
X273816974Y-80148552D01*
X273828956Y-80168543D01*
X273838921Y-80189613D01*
X273846773Y-80211557D01*
X273852437Y-80234166D01*
X273855856Y-80257221D01*
X273857000Y-80280500D01*
X273857000Y-80755500D01*
X273855856Y-80778779D01*
X273852437Y-80801834D01*
X273846773Y-80824443D01*
X273838921Y-80846387D01*
X273828956Y-80867457D01*
X273816974Y-80887448D01*
X273803090Y-80906168D01*
X273787438Y-80923438D01*
X273770168Y-80939090D01*
X273751448Y-80952974D01*
X273731457Y-80964956D01*
X273710387Y-80974921D01*
X273688443Y-80982773D01*
X273665834Y-80988437D01*
X273642779Y-80991856D01*
X273619500Y-80993000D01*
X273044500Y-80993000D01*
X273021221Y-80991856D01*
X272998166Y-80988437D01*
X272975557Y-80982773D01*
X272953613Y-80974921D01*
X272932543Y-80964956D01*
X272912552Y-80952974D01*
X272893832Y-80939090D01*
X272876562Y-80923438D01*
X272860910Y-80906168D01*
X272847026Y-80887448D01*
X272835044Y-80867457D01*
X272825079Y-80846387D01*
X272817227Y-80824443D01*
X272811563Y-80801834D01*
X272808144Y-80778779D01*
X272807000Y-80755500D01*
X272807000Y-80280500D01*
X272808144Y-80257221D01*
X272811563Y-80234166D01*
X272817227Y-80211557D01*
X272825079Y-80189613D01*
X272835044Y-80168543D01*
X272847026Y-80148552D01*
X272860910Y-80129832D01*
X272876562Y-80112562D01*
X272893832Y-80096910D01*
X272912552Y-80083026D01*
X272932543Y-80071044D01*
X272953613Y-80061079D01*
X272975557Y-80053227D01*
X272998166Y-80047563D01*
X273021221Y-80044144D01*
X273044500Y-80043000D01*
X273619500Y-80043000D01*
X273642779Y-80044144D01*
X273642779Y-80044144D01*
G37*
D11*
X273332000Y-80518000D03*
D10*
G36*
X275392779Y-80044144D02*
G01*
X275415834Y-80047563D01*
X275438443Y-80053227D01*
X275460387Y-80061079D01*
X275481457Y-80071044D01*
X275501448Y-80083026D01*
X275520168Y-80096910D01*
X275537438Y-80112562D01*
X275553090Y-80129832D01*
X275566974Y-80148552D01*
X275578956Y-80168543D01*
X275588921Y-80189613D01*
X275596773Y-80211557D01*
X275602437Y-80234166D01*
X275605856Y-80257221D01*
X275607000Y-80280500D01*
X275607000Y-80755500D01*
X275605856Y-80778779D01*
X275602437Y-80801834D01*
X275596773Y-80824443D01*
X275588921Y-80846387D01*
X275578956Y-80867457D01*
X275566974Y-80887448D01*
X275553090Y-80906168D01*
X275537438Y-80923438D01*
X275520168Y-80939090D01*
X275501448Y-80952974D01*
X275481457Y-80964956D01*
X275460387Y-80974921D01*
X275438443Y-80982773D01*
X275415834Y-80988437D01*
X275392779Y-80991856D01*
X275369500Y-80993000D01*
X274794500Y-80993000D01*
X274771221Y-80991856D01*
X274748166Y-80988437D01*
X274725557Y-80982773D01*
X274703613Y-80974921D01*
X274682543Y-80964956D01*
X274662552Y-80952974D01*
X274643832Y-80939090D01*
X274626562Y-80923438D01*
X274610910Y-80906168D01*
X274597026Y-80887448D01*
X274585044Y-80867457D01*
X274575079Y-80846387D01*
X274567227Y-80824443D01*
X274561563Y-80801834D01*
X274558144Y-80778779D01*
X274557000Y-80755500D01*
X274557000Y-80280500D01*
X274558144Y-80257221D01*
X274561563Y-80234166D01*
X274567227Y-80211557D01*
X274575079Y-80189613D01*
X274585044Y-80168543D01*
X274597026Y-80148552D01*
X274610910Y-80129832D01*
X274626562Y-80112562D01*
X274643832Y-80096910D01*
X274662552Y-80083026D01*
X274682543Y-80071044D01*
X274703613Y-80061079D01*
X274725557Y-80053227D01*
X274748166Y-80047563D01*
X274771221Y-80044144D01*
X274794500Y-80043000D01*
X275369500Y-80043000D01*
X275392779Y-80044144D01*
X275392779Y-80044144D01*
G37*
D11*
X275082000Y-80518000D03*
D10*
G36*
X253943779Y-34832144D02*
G01*
X253966834Y-34835563D01*
X253989443Y-34841227D01*
X254011387Y-34849079D01*
X254032457Y-34859044D01*
X254052448Y-34871026D01*
X254071168Y-34884910D01*
X254088438Y-34900562D01*
X254104090Y-34917832D01*
X254117974Y-34936552D01*
X254129956Y-34956543D01*
X254139921Y-34977613D01*
X254147773Y-34999557D01*
X254153437Y-35022166D01*
X254156856Y-35045221D01*
X254158000Y-35068500D01*
X254158000Y-35543500D01*
X254156856Y-35566779D01*
X254153437Y-35589834D01*
X254147773Y-35612443D01*
X254139921Y-35634387D01*
X254129956Y-35655457D01*
X254117974Y-35675448D01*
X254104090Y-35694168D01*
X254088438Y-35711438D01*
X254071168Y-35727090D01*
X254052448Y-35740974D01*
X254032457Y-35752956D01*
X254011387Y-35762921D01*
X253989443Y-35770773D01*
X253966834Y-35776437D01*
X253943779Y-35779856D01*
X253920500Y-35781000D01*
X253345500Y-35781000D01*
X253322221Y-35779856D01*
X253299166Y-35776437D01*
X253276557Y-35770773D01*
X253254613Y-35762921D01*
X253233543Y-35752956D01*
X253213552Y-35740974D01*
X253194832Y-35727090D01*
X253177562Y-35711438D01*
X253161910Y-35694168D01*
X253148026Y-35675448D01*
X253136044Y-35655457D01*
X253126079Y-35634387D01*
X253118227Y-35612443D01*
X253112563Y-35589834D01*
X253109144Y-35566779D01*
X253108000Y-35543500D01*
X253108000Y-35068500D01*
X253109144Y-35045221D01*
X253112563Y-35022166D01*
X253118227Y-34999557D01*
X253126079Y-34977613D01*
X253136044Y-34956543D01*
X253148026Y-34936552D01*
X253161910Y-34917832D01*
X253177562Y-34900562D01*
X253194832Y-34884910D01*
X253213552Y-34871026D01*
X253233543Y-34859044D01*
X253254613Y-34849079D01*
X253276557Y-34841227D01*
X253299166Y-34835563D01*
X253322221Y-34832144D01*
X253345500Y-34831000D01*
X253920500Y-34831000D01*
X253943779Y-34832144D01*
X253943779Y-34832144D01*
G37*
D11*
X253633000Y-35306000D03*
D10*
G36*
X255693779Y-34832144D02*
G01*
X255716834Y-34835563D01*
X255739443Y-34841227D01*
X255761387Y-34849079D01*
X255782457Y-34859044D01*
X255802448Y-34871026D01*
X255821168Y-34884910D01*
X255838438Y-34900562D01*
X255854090Y-34917832D01*
X255867974Y-34936552D01*
X255879956Y-34956543D01*
X255889921Y-34977613D01*
X255897773Y-34999557D01*
X255903437Y-35022166D01*
X255906856Y-35045221D01*
X255908000Y-35068500D01*
X255908000Y-35543500D01*
X255906856Y-35566779D01*
X255903437Y-35589834D01*
X255897773Y-35612443D01*
X255889921Y-35634387D01*
X255879956Y-35655457D01*
X255867974Y-35675448D01*
X255854090Y-35694168D01*
X255838438Y-35711438D01*
X255821168Y-35727090D01*
X255802448Y-35740974D01*
X255782457Y-35752956D01*
X255761387Y-35762921D01*
X255739443Y-35770773D01*
X255716834Y-35776437D01*
X255693779Y-35779856D01*
X255670500Y-35781000D01*
X255095500Y-35781000D01*
X255072221Y-35779856D01*
X255049166Y-35776437D01*
X255026557Y-35770773D01*
X255004613Y-35762921D01*
X254983543Y-35752956D01*
X254963552Y-35740974D01*
X254944832Y-35727090D01*
X254927562Y-35711438D01*
X254911910Y-35694168D01*
X254898026Y-35675448D01*
X254886044Y-35655457D01*
X254876079Y-35634387D01*
X254868227Y-35612443D01*
X254862563Y-35589834D01*
X254859144Y-35566779D01*
X254858000Y-35543500D01*
X254858000Y-35068500D01*
X254859144Y-35045221D01*
X254862563Y-35022166D01*
X254868227Y-34999557D01*
X254876079Y-34977613D01*
X254886044Y-34956543D01*
X254898026Y-34936552D01*
X254911910Y-34917832D01*
X254927562Y-34900562D01*
X254944832Y-34884910D01*
X254963552Y-34871026D01*
X254983543Y-34859044D01*
X255004613Y-34849079D01*
X255026557Y-34841227D01*
X255049166Y-34835563D01*
X255072221Y-34832144D01*
X255095500Y-34831000D01*
X255670500Y-34831000D01*
X255693779Y-34832144D01*
X255693779Y-34832144D01*
G37*
D11*
X255383000Y-35306000D03*
D10*
G36*
X277904779Y-34832144D02*
G01*
X277927834Y-34835563D01*
X277950443Y-34841227D01*
X277972387Y-34849079D01*
X277993457Y-34859044D01*
X278013448Y-34871026D01*
X278032168Y-34884910D01*
X278049438Y-34900562D01*
X278065090Y-34917832D01*
X278078974Y-34936552D01*
X278090956Y-34956543D01*
X278100921Y-34977613D01*
X278108773Y-34999557D01*
X278114437Y-35022166D01*
X278117856Y-35045221D01*
X278119000Y-35068500D01*
X278119000Y-35543500D01*
X278117856Y-35566779D01*
X278114437Y-35589834D01*
X278108773Y-35612443D01*
X278100921Y-35634387D01*
X278090956Y-35655457D01*
X278078974Y-35675448D01*
X278065090Y-35694168D01*
X278049438Y-35711438D01*
X278032168Y-35727090D01*
X278013448Y-35740974D01*
X277993457Y-35752956D01*
X277972387Y-35762921D01*
X277950443Y-35770773D01*
X277927834Y-35776437D01*
X277904779Y-35779856D01*
X277881500Y-35781000D01*
X277306500Y-35781000D01*
X277283221Y-35779856D01*
X277260166Y-35776437D01*
X277237557Y-35770773D01*
X277215613Y-35762921D01*
X277194543Y-35752956D01*
X277174552Y-35740974D01*
X277155832Y-35727090D01*
X277138562Y-35711438D01*
X277122910Y-35694168D01*
X277109026Y-35675448D01*
X277097044Y-35655457D01*
X277087079Y-35634387D01*
X277079227Y-35612443D01*
X277073563Y-35589834D01*
X277070144Y-35566779D01*
X277069000Y-35543500D01*
X277069000Y-35068500D01*
X277070144Y-35045221D01*
X277073563Y-35022166D01*
X277079227Y-34999557D01*
X277087079Y-34977613D01*
X277097044Y-34956543D01*
X277109026Y-34936552D01*
X277122910Y-34917832D01*
X277138562Y-34900562D01*
X277155832Y-34884910D01*
X277174552Y-34871026D01*
X277194543Y-34859044D01*
X277215613Y-34849079D01*
X277237557Y-34841227D01*
X277260166Y-34835563D01*
X277283221Y-34832144D01*
X277306500Y-34831000D01*
X277881500Y-34831000D01*
X277904779Y-34832144D01*
X277904779Y-34832144D01*
G37*
D11*
X277594000Y-35306000D03*
D10*
G36*
X276154779Y-34832144D02*
G01*
X276177834Y-34835563D01*
X276200443Y-34841227D01*
X276222387Y-34849079D01*
X276243457Y-34859044D01*
X276263448Y-34871026D01*
X276282168Y-34884910D01*
X276299438Y-34900562D01*
X276315090Y-34917832D01*
X276328974Y-34936552D01*
X276340956Y-34956543D01*
X276350921Y-34977613D01*
X276358773Y-34999557D01*
X276364437Y-35022166D01*
X276367856Y-35045221D01*
X276369000Y-35068500D01*
X276369000Y-35543500D01*
X276367856Y-35566779D01*
X276364437Y-35589834D01*
X276358773Y-35612443D01*
X276350921Y-35634387D01*
X276340956Y-35655457D01*
X276328974Y-35675448D01*
X276315090Y-35694168D01*
X276299438Y-35711438D01*
X276282168Y-35727090D01*
X276263448Y-35740974D01*
X276243457Y-35752956D01*
X276222387Y-35762921D01*
X276200443Y-35770773D01*
X276177834Y-35776437D01*
X276154779Y-35779856D01*
X276131500Y-35781000D01*
X275556500Y-35781000D01*
X275533221Y-35779856D01*
X275510166Y-35776437D01*
X275487557Y-35770773D01*
X275465613Y-35762921D01*
X275444543Y-35752956D01*
X275424552Y-35740974D01*
X275405832Y-35727090D01*
X275388562Y-35711438D01*
X275372910Y-35694168D01*
X275359026Y-35675448D01*
X275347044Y-35655457D01*
X275337079Y-35634387D01*
X275329227Y-35612443D01*
X275323563Y-35589834D01*
X275320144Y-35566779D01*
X275319000Y-35543500D01*
X275319000Y-35068500D01*
X275320144Y-35045221D01*
X275323563Y-35022166D01*
X275329227Y-34999557D01*
X275337079Y-34977613D01*
X275347044Y-34956543D01*
X275359026Y-34936552D01*
X275372910Y-34917832D01*
X275388562Y-34900562D01*
X275405832Y-34884910D01*
X275424552Y-34871026D01*
X275444543Y-34859044D01*
X275465613Y-34849079D01*
X275487557Y-34841227D01*
X275510166Y-34835563D01*
X275533221Y-34832144D01*
X275556500Y-34831000D01*
X276131500Y-34831000D01*
X276154779Y-34832144D01*
X276154779Y-34832144D01*
G37*
D11*
X275844000Y-35306000D03*
D13*
X254828000Y-60182000D03*
X256728000Y-60182000D03*
X255778000Y-58182000D03*
D10*
G36*
X258346779Y-76234144D02*
G01*
X258369834Y-76237563D01*
X258392443Y-76243227D01*
X258414387Y-76251079D01*
X258435457Y-76261044D01*
X258455448Y-76273026D01*
X258474168Y-76286910D01*
X258491438Y-76302562D01*
X258507090Y-76319832D01*
X258520974Y-76338552D01*
X258532956Y-76358543D01*
X258542921Y-76379613D01*
X258550773Y-76401557D01*
X258556437Y-76424166D01*
X258559856Y-76447221D01*
X258561000Y-76470500D01*
X258561000Y-76945500D01*
X258559856Y-76968779D01*
X258556437Y-76991834D01*
X258550773Y-77014443D01*
X258542921Y-77036387D01*
X258532956Y-77057457D01*
X258520974Y-77077448D01*
X258507090Y-77096168D01*
X258491438Y-77113438D01*
X258474168Y-77129090D01*
X258455448Y-77142974D01*
X258435457Y-77154956D01*
X258414387Y-77164921D01*
X258392443Y-77172773D01*
X258369834Y-77178437D01*
X258346779Y-77181856D01*
X258323500Y-77183000D01*
X257748500Y-77183000D01*
X257725221Y-77181856D01*
X257702166Y-77178437D01*
X257679557Y-77172773D01*
X257657613Y-77164921D01*
X257636543Y-77154956D01*
X257616552Y-77142974D01*
X257597832Y-77129090D01*
X257580562Y-77113438D01*
X257564910Y-77096168D01*
X257551026Y-77077448D01*
X257539044Y-77057457D01*
X257529079Y-77036387D01*
X257521227Y-77014443D01*
X257515563Y-76991834D01*
X257512144Y-76968779D01*
X257511000Y-76945500D01*
X257511000Y-76470500D01*
X257512144Y-76447221D01*
X257515563Y-76424166D01*
X257521227Y-76401557D01*
X257529079Y-76379613D01*
X257539044Y-76358543D01*
X257551026Y-76338552D01*
X257564910Y-76319832D01*
X257580562Y-76302562D01*
X257597832Y-76286910D01*
X257616552Y-76273026D01*
X257636543Y-76261044D01*
X257657613Y-76251079D01*
X257679557Y-76243227D01*
X257702166Y-76237563D01*
X257725221Y-76234144D01*
X257748500Y-76233000D01*
X258323500Y-76233000D01*
X258346779Y-76234144D01*
X258346779Y-76234144D01*
G37*
D11*
X258036000Y-76708000D03*
D10*
G36*
X256596779Y-76234144D02*
G01*
X256619834Y-76237563D01*
X256642443Y-76243227D01*
X256664387Y-76251079D01*
X256685457Y-76261044D01*
X256705448Y-76273026D01*
X256724168Y-76286910D01*
X256741438Y-76302562D01*
X256757090Y-76319832D01*
X256770974Y-76338552D01*
X256782956Y-76358543D01*
X256792921Y-76379613D01*
X256800773Y-76401557D01*
X256806437Y-76424166D01*
X256809856Y-76447221D01*
X256811000Y-76470500D01*
X256811000Y-76945500D01*
X256809856Y-76968779D01*
X256806437Y-76991834D01*
X256800773Y-77014443D01*
X256792921Y-77036387D01*
X256782956Y-77057457D01*
X256770974Y-77077448D01*
X256757090Y-77096168D01*
X256741438Y-77113438D01*
X256724168Y-77129090D01*
X256705448Y-77142974D01*
X256685457Y-77154956D01*
X256664387Y-77164921D01*
X256642443Y-77172773D01*
X256619834Y-77178437D01*
X256596779Y-77181856D01*
X256573500Y-77183000D01*
X255998500Y-77183000D01*
X255975221Y-77181856D01*
X255952166Y-77178437D01*
X255929557Y-77172773D01*
X255907613Y-77164921D01*
X255886543Y-77154956D01*
X255866552Y-77142974D01*
X255847832Y-77129090D01*
X255830562Y-77113438D01*
X255814910Y-77096168D01*
X255801026Y-77077448D01*
X255789044Y-77057457D01*
X255779079Y-77036387D01*
X255771227Y-77014443D01*
X255765563Y-76991834D01*
X255762144Y-76968779D01*
X255761000Y-76945500D01*
X255761000Y-76470500D01*
X255762144Y-76447221D01*
X255765563Y-76424166D01*
X255771227Y-76401557D01*
X255779079Y-76379613D01*
X255789044Y-76358543D01*
X255801026Y-76338552D01*
X255814910Y-76319832D01*
X255830562Y-76302562D01*
X255847832Y-76286910D01*
X255866552Y-76273026D01*
X255886543Y-76261044D01*
X255907613Y-76251079D01*
X255929557Y-76243227D01*
X255952166Y-76237563D01*
X255975221Y-76234144D01*
X255998500Y-76233000D01*
X256573500Y-76233000D01*
X256596779Y-76234144D01*
X256596779Y-76234144D01*
G37*
D11*
X256286000Y-76708000D03*
D10*
G36*
X256596779Y-84362144D02*
G01*
X256619834Y-84365563D01*
X256642443Y-84371227D01*
X256664387Y-84379079D01*
X256685457Y-84389044D01*
X256705448Y-84401026D01*
X256724168Y-84414910D01*
X256741438Y-84430562D01*
X256757090Y-84447832D01*
X256770974Y-84466552D01*
X256782956Y-84486543D01*
X256792921Y-84507613D01*
X256800773Y-84529557D01*
X256806437Y-84552166D01*
X256809856Y-84575221D01*
X256811000Y-84598500D01*
X256811000Y-85073500D01*
X256809856Y-85096779D01*
X256806437Y-85119834D01*
X256800773Y-85142443D01*
X256792921Y-85164387D01*
X256782956Y-85185457D01*
X256770974Y-85205448D01*
X256757090Y-85224168D01*
X256741438Y-85241438D01*
X256724168Y-85257090D01*
X256705448Y-85270974D01*
X256685457Y-85282956D01*
X256664387Y-85292921D01*
X256642443Y-85300773D01*
X256619834Y-85306437D01*
X256596779Y-85309856D01*
X256573500Y-85311000D01*
X255998500Y-85311000D01*
X255975221Y-85309856D01*
X255952166Y-85306437D01*
X255929557Y-85300773D01*
X255907613Y-85292921D01*
X255886543Y-85282956D01*
X255866552Y-85270974D01*
X255847832Y-85257090D01*
X255830562Y-85241438D01*
X255814910Y-85224168D01*
X255801026Y-85205448D01*
X255789044Y-85185457D01*
X255779079Y-85164387D01*
X255771227Y-85142443D01*
X255765563Y-85119834D01*
X255762144Y-85096779D01*
X255761000Y-85073500D01*
X255761000Y-84598500D01*
X255762144Y-84575221D01*
X255765563Y-84552166D01*
X255771227Y-84529557D01*
X255779079Y-84507613D01*
X255789044Y-84486543D01*
X255801026Y-84466552D01*
X255814910Y-84447832D01*
X255830562Y-84430562D01*
X255847832Y-84414910D01*
X255866552Y-84401026D01*
X255886543Y-84389044D01*
X255907613Y-84379079D01*
X255929557Y-84371227D01*
X255952166Y-84365563D01*
X255975221Y-84362144D01*
X255998500Y-84361000D01*
X256573500Y-84361000D01*
X256596779Y-84362144D01*
X256596779Y-84362144D01*
G37*
D11*
X256286000Y-84836000D03*
D10*
G36*
X258346779Y-84362144D02*
G01*
X258369834Y-84365563D01*
X258392443Y-84371227D01*
X258414387Y-84379079D01*
X258435457Y-84389044D01*
X258455448Y-84401026D01*
X258474168Y-84414910D01*
X258491438Y-84430562D01*
X258507090Y-84447832D01*
X258520974Y-84466552D01*
X258532956Y-84486543D01*
X258542921Y-84507613D01*
X258550773Y-84529557D01*
X258556437Y-84552166D01*
X258559856Y-84575221D01*
X258561000Y-84598500D01*
X258561000Y-85073500D01*
X258559856Y-85096779D01*
X258556437Y-85119834D01*
X258550773Y-85142443D01*
X258542921Y-85164387D01*
X258532956Y-85185457D01*
X258520974Y-85205448D01*
X258507090Y-85224168D01*
X258491438Y-85241438D01*
X258474168Y-85257090D01*
X258455448Y-85270974D01*
X258435457Y-85282956D01*
X258414387Y-85292921D01*
X258392443Y-85300773D01*
X258369834Y-85306437D01*
X258346779Y-85309856D01*
X258323500Y-85311000D01*
X257748500Y-85311000D01*
X257725221Y-85309856D01*
X257702166Y-85306437D01*
X257679557Y-85300773D01*
X257657613Y-85292921D01*
X257636543Y-85282956D01*
X257616552Y-85270974D01*
X257597832Y-85257090D01*
X257580562Y-85241438D01*
X257564910Y-85224168D01*
X257551026Y-85205448D01*
X257539044Y-85185457D01*
X257529079Y-85164387D01*
X257521227Y-85142443D01*
X257515563Y-85119834D01*
X257512144Y-85096779D01*
X257511000Y-85073500D01*
X257511000Y-84598500D01*
X257512144Y-84575221D01*
X257515563Y-84552166D01*
X257521227Y-84529557D01*
X257529079Y-84507613D01*
X257539044Y-84486543D01*
X257551026Y-84466552D01*
X257564910Y-84447832D01*
X257580562Y-84430562D01*
X257597832Y-84414910D01*
X257616552Y-84401026D01*
X257636543Y-84389044D01*
X257657613Y-84379079D01*
X257679557Y-84371227D01*
X257702166Y-84365563D01*
X257725221Y-84362144D01*
X257748500Y-84361000D01*
X258323500Y-84361000D01*
X258346779Y-84362144D01*
X258346779Y-84362144D01*
G37*
D11*
X258036000Y-84836000D03*
D10*
G36*
X258346779Y-73948144D02*
G01*
X258369834Y-73951563D01*
X258392443Y-73957227D01*
X258414387Y-73965079D01*
X258435457Y-73975044D01*
X258455448Y-73987026D01*
X258474168Y-74000910D01*
X258491438Y-74016562D01*
X258507090Y-74033832D01*
X258520974Y-74052552D01*
X258532956Y-74072543D01*
X258542921Y-74093613D01*
X258550773Y-74115557D01*
X258556437Y-74138166D01*
X258559856Y-74161221D01*
X258561000Y-74184500D01*
X258561000Y-74659500D01*
X258559856Y-74682779D01*
X258556437Y-74705834D01*
X258550773Y-74728443D01*
X258542921Y-74750387D01*
X258532956Y-74771457D01*
X258520974Y-74791448D01*
X258507090Y-74810168D01*
X258491438Y-74827438D01*
X258474168Y-74843090D01*
X258455448Y-74856974D01*
X258435457Y-74868956D01*
X258414387Y-74878921D01*
X258392443Y-74886773D01*
X258369834Y-74892437D01*
X258346779Y-74895856D01*
X258323500Y-74897000D01*
X257748500Y-74897000D01*
X257725221Y-74895856D01*
X257702166Y-74892437D01*
X257679557Y-74886773D01*
X257657613Y-74878921D01*
X257636543Y-74868956D01*
X257616552Y-74856974D01*
X257597832Y-74843090D01*
X257580562Y-74827438D01*
X257564910Y-74810168D01*
X257551026Y-74791448D01*
X257539044Y-74771457D01*
X257529079Y-74750387D01*
X257521227Y-74728443D01*
X257515563Y-74705834D01*
X257512144Y-74682779D01*
X257511000Y-74659500D01*
X257511000Y-74184500D01*
X257512144Y-74161221D01*
X257515563Y-74138166D01*
X257521227Y-74115557D01*
X257529079Y-74093613D01*
X257539044Y-74072543D01*
X257551026Y-74052552D01*
X257564910Y-74033832D01*
X257580562Y-74016562D01*
X257597832Y-74000910D01*
X257616552Y-73987026D01*
X257636543Y-73975044D01*
X257657613Y-73965079D01*
X257679557Y-73957227D01*
X257702166Y-73951563D01*
X257725221Y-73948144D01*
X257748500Y-73947000D01*
X258323500Y-73947000D01*
X258346779Y-73948144D01*
X258346779Y-73948144D01*
G37*
D11*
X258036000Y-74422000D03*
D10*
G36*
X256596779Y-73948144D02*
G01*
X256619834Y-73951563D01*
X256642443Y-73957227D01*
X256664387Y-73965079D01*
X256685457Y-73975044D01*
X256705448Y-73987026D01*
X256724168Y-74000910D01*
X256741438Y-74016562D01*
X256757090Y-74033832D01*
X256770974Y-74052552D01*
X256782956Y-74072543D01*
X256792921Y-74093613D01*
X256800773Y-74115557D01*
X256806437Y-74138166D01*
X256809856Y-74161221D01*
X256811000Y-74184500D01*
X256811000Y-74659500D01*
X256809856Y-74682779D01*
X256806437Y-74705834D01*
X256800773Y-74728443D01*
X256792921Y-74750387D01*
X256782956Y-74771457D01*
X256770974Y-74791448D01*
X256757090Y-74810168D01*
X256741438Y-74827438D01*
X256724168Y-74843090D01*
X256705448Y-74856974D01*
X256685457Y-74868956D01*
X256664387Y-74878921D01*
X256642443Y-74886773D01*
X256619834Y-74892437D01*
X256596779Y-74895856D01*
X256573500Y-74897000D01*
X255998500Y-74897000D01*
X255975221Y-74895856D01*
X255952166Y-74892437D01*
X255929557Y-74886773D01*
X255907613Y-74878921D01*
X255886543Y-74868956D01*
X255866552Y-74856974D01*
X255847832Y-74843090D01*
X255830562Y-74827438D01*
X255814910Y-74810168D01*
X255801026Y-74791448D01*
X255789044Y-74771457D01*
X255779079Y-74750387D01*
X255771227Y-74728443D01*
X255765563Y-74705834D01*
X255762144Y-74682779D01*
X255761000Y-74659500D01*
X255761000Y-74184500D01*
X255762144Y-74161221D01*
X255765563Y-74138166D01*
X255771227Y-74115557D01*
X255779079Y-74093613D01*
X255789044Y-74072543D01*
X255801026Y-74052552D01*
X255814910Y-74033832D01*
X255830562Y-74016562D01*
X255847832Y-74000910D01*
X255866552Y-73987026D01*
X255886543Y-73975044D01*
X255907613Y-73965079D01*
X255929557Y-73957227D01*
X255952166Y-73951563D01*
X255975221Y-73948144D01*
X255998500Y-73947000D01*
X256573500Y-73947000D01*
X256596779Y-73948144D01*
X256596779Y-73948144D01*
G37*
D11*
X256286000Y-74422000D03*
D10*
G36*
X268788779Y-30514144D02*
G01*
X268811834Y-30517563D01*
X268834443Y-30523227D01*
X268856387Y-30531079D01*
X268877457Y-30541044D01*
X268897448Y-30553026D01*
X268916168Y-30566910D01*
X268933438Y-30582562D01*
X268949090Y-30599832D01*
X268962974Y-30618552D01*
X268974956Y-30638543D01*
X268984921Y-30659613D01*
X268992773Y-30681557D01*
X268998437Y-30704166D01*
X269001856Y-30727221D01*
X269003000Y-30750500D01*
X269003000Y-31225500D01*
X269001856Y-31248779D01*
X268998437Y-31271834D01*
X268992773Y-31294443D01*
X268984921Y-31316387D01*
X268974956Y-31337457D01*
X268962974Y-31357448D01*
X268949090Y-31376168D01*
X268933438Y-31393438D01*
X268916168Y-31409090D01*
X268897448Y-31422974D01*
X268877457Y-31434956D01*
X268856387Y-31444921D01*
X268834443Y-31452773D01*
X268811834Y-31458437D01*
X268788779Y-31461856D01*
X268765500Y-31463000D01*
X268190500Y-31463000D01*
X268167221Y-31461856D01*
X268144166Y-31458437D01*
X268121557Y-31452773D01*
X268099613Y-31444921D01*
X268078543Y-31434956D01*
X268058552Y-31422974D01*
X268039832Y-31409090D01*
X268022562Y-31393438D01*
X268006910Y-31376168D01*
X267993026Y-31357448D01*
X267981044Y-31337457D01*
X267971079Y-31316387D01*
X267963227Y-31294443D01*
X267957563Y-31271834D01*
X267954144Y-31248779D01*
X267953000Y-31225500D01*
X267953000Y-30750500D01*
X267954144Y-30727221D01*
X267957563Y-30704166D01*
X267963227Y-30681557D01*
X267971079Y-30659613D01*
X267981044Y-30638543D01*
X267993026Y-30618552D01*
X268006910Y-30599832D01*
X268022562Y-30582562D01*
X268039832Y-30566910D01*
X268058552Y-30553026D01*
X268078543Y-30541044D01*
X268099613Y-30531079D01*
X268121557Y-30523227D01*
X268144166Y-30517563D01*
X268167221Y-30514144D01*
X268190500Y-30513000D01*
X268765500Y-30513000D01*
X268788779Y-30514144D01*
X268788779Y-30514144D01*
G37*
D11*
X268478000Y-30988000D03*
D10*
G36*
X270538779Y-30514144D02*
G01*
X270561834Y-30517563D01*
X270584443Y-30523227D01*
X270606387Y-30531079D01*
X270627457Y-30541044D01*
X270647448Y-30553026D01*
X270666168Y-30566910D01*
X270683438Y-30582562D01*
X270699090Y-30599832D01*
X270712974Y-30618552D01*
X270724956Y-30638543D01*
X270734921Y-30659613D01*
X270742773Y-30681557D01*
X270748437Y-30704166D01*
X270751856Y-30727221D01*
X270753000Y-30750500D01*
X270753000Y-31225500D01*
X270751856Y-31248779D01*
X270748437Y-31271834D01*
X270742773Y-31294443D01*
X270734921Y-31316387D01*
X270724956Y-31337457D01*
X270712974Y-31357448D01*
X270699090Y-31376168D01*
X270683438Y-31393438D01*
X270666168Y-31409090D01*
X270647448Y-31422974D01*
X270627457Y-31434956D01*
X270606387Y-31444921D01*
X270584443Y-31452773D01*
X270561834Y-31458437D01*
X270538779Y-31461856D01*
X270515500Y-31463000D01*
X269940500Y-31463000D01*
X269917221Y-31461856D01*
X269894166Y-31458437D01*
X269871557Y-31452773D01*
X269849613Y-31444921D01*
X269828543Y-31434956D01*
X269808552Y-31422974D01*
X269789832Y-31409090D01*
X269772562Y-31393438D01*
X269756910Y-31376168D01*
X269743026Y-31357448D01*
X269731044Y-31337457D01*
X269721079Y-31316387D01*
X269713227Y-31294443D01*
X269707563Y-31271834D01*
X269704144Y-31248779D01*
X269703000Y-31225500D01*
X269703000Y-30750500D01*
X269704144Y-30727221D01*
X269707563Y-30704166D01*
X269713227Y-30681557D01*
X269721079Y-30659613D01*
X269731044Y-30638543D01*
X269743026Y-30618552D01*
X269756910Y-30599832D01*
X269772562Y-30582562D01*
X269789832Y-30566910D01*
X269808552Y-30553026D01*
X269828543Y-30541044D01*
X269849613Y-30531079D01*
X269871557Y-30523227D01*
X269894166Y-30517563D01*
X269917221Y-30514144D01*
X269940500Y-30513000D01*
X270515500Y-30513000D01*
X270538779Y-30514144D01*
X270538779Y-30514144D01*
G37*
D11*
X270228000Y-30988000D03*
D10*
G36*
X263426779Y-30514144D02*
G01*
X263449834Y-30517563D01*
X263472443Y-30523227D01*
X263494387Y-30531079D01*
X263515457Y-30541044D01*
X263535448Y-30553026D01*
X263554168Y-30566910D01*
X263571438Y-30582562D01*
X263587090Y-30599832D01*
X263600974Y-30618552D01*
X263612956Y-30638543D01*
X263622921Y-30659613D01*
X263630773Y-30681557D01*
X263636437Y-30704166D01*
X263639856Y-30727221D01*
X263641000Y-30750500D01*
X263641000Y-31225500D01*
X263639856Y-31248779D01*
X263636437Y-31271834D01*
X263630773Y-31294443D01*
X263622921Y-31316387D01*
X263612956Y-31337457D01*
X263600974Y-31357448D01*
X263587090Y-31376168D01*
X263571438Y-31393438D01*
X263554168Y-31409090D01*
X263535448Y-31422974D01*
X263515457Y-31434956D01*
X263494387Y-31444921D01*
X263472443Y-31452773D01*
X263449834Y-31458437D01*
X263426779Y-31461856D01*
X263403500Y-31463000D01*
X262828500Y-31463000D01*
X262805221Y-31461856D01*
X262782166Y-31458437D01*
X262759557Y-31452773D01*
X262737613Y-31444921D01*
X262716543Y-31434956D01*
X262696552Y-31422974D01*
X262677832Y-31409090D01*
X262660562Y-31393438D01*
X262644910Y-31376168D01*
X262631026Y-31357448D01*
X262619044Y-31337457D01*
X262609079Y-31316387D01*
X262601227Y-31294443D01*
X262595563Y-31271834D01*
X262592144Y-31248779D01*
X262591000Y-31225500D01*
X262591000Y-30750500D01*
X262592144Y-30727221D01*
X262595563Y-30704166D01*
X262601227Y-30681557D01*
X262609079Y-30659613D01*
X262619044Y-30638543D01*
X262631026Y-30618552D01*
X262644910Y-30599832D01*
X262660562Y-30582562D01*
X262677832Y-30566910D01*
X262696552Y-30553026D01*
X262716543Y-30541044D01*
X262737613Y-30531079D01*
X262759557Y-30523227D01*
X262782166Y-30517563D01*
X262805221Y-30514144D01*
X262828500Y-30513000D01*
X263403500Y-30513000D01*
X263426779Y-30514144D01*
X263426779Y-30514144D01*
G37*
D11*
X263116000Y-30988000D03*
D10*
G36*
X261676779Y-30514144D02*
G01*
X261699834Y-30517563D01*
X261722443Y-30523227D01*
X261744387Y-30531079D01*
X261765457Y-30541044D01*
X261785448Y-30553026D01*
X261804168Y-30566910D01*
X261821438Y-30582562D01*
X261837090Y-30599832D01*
X261850974Y-30618552D01*
X261862956Y-30638543D01*
X261872921Y-30659613D01*
X261880773Y-30681557D01*
X261886437Y-30704166D01*
X261889856Y-30727221D01*
X261891000Y-30750500D01*
X261891000Y-31225500D01*
X261889856Y-31248779D01*
X261886437Y-31271834D01*
X261880773Y-31294443D01*
X261872921Y-31316387D01*
X261862956Y-31337457D01*
X261850974Y-31357448D01*
X261837090Y-31376168D01*
X261821438Y-31393438D01*
X261804168Y-31409090D01*
X261785448Y-31422974D01*
X261765457Y-31434956D01*
X261744387Y-31444921D01*
X261722443Y-31452773D01*
X261699834Y-31458437D01*
X261676779Y-31461856D01*
X261653500Y-31463000D01*
X261078500Y-31463000D01*
X261055221Y-31461856D01*
X261032166Y-31458437D01*
X261009557Y-31452773D01*
X260987613Y-31444921D01*
X260966543Y-31434956D01*
X260946552Y-31422974D01*
X260927832Y-31409090D01*
X260910562Y-31393438D01*
X260894910Y-31376168D01*
X260881026Y-31357448D01*
X260869044Y-31337457D01*
X260859079Y-31316387D01*
X260851227Y-31294443D01*
X260845563Y-31271834D01*
X260842144Y-31248779D01*
X260841000Y-31225500D01*
X260841000Y-30750500D01*
X260842144Y-30727221D01*
X260845563Y-30704166D01*
X260851227Y-30681557D01*
X260859079Y-30659613D01*
X260869044Y-30638543D01*
X260881026Y-30618552D01*
X260894910Y-30599832D01*
X260910562Y-30582562D01*
X260927832Y-30566910D01*
X260946552Y-30553026D01*
X260966543Y-30541044D01*
X260987613Y-30531079D01*
X261009557Y-30523227D01*
X261032166Y-30517563D01*
X261055221Y-30514144D01*
X261078500Y-30513000D01*
X261653500Y-30513000D01*
X261676779Y-30514144D01*
X261676779Y-30514144D01*
G37*
D11*
X261366000Y-30988000D03*
D10*
G36*
X256850779Y-66836144D02*
G01*
X256873834Y-66839563D01*
X256896443Y-66845227D01*
X256918387Y-66853079D01*
X256939457Y-66863044D01*
X256959448Y-66875026D01*
X256978168Y-66888910D01*
X256995438Y-66904562D01*
X257011090Y-66921832D01*
X257024974Y-66940552D01*
X257036956Y-66960543D01*
X257046921Y-66981613D01*
X257054773Y-67003557D01*
X257060437Y-67026166D01*
X257063856Y-67049221D01*
X257065000Y-67072500D01*
X257065000Y-67547500D01*
X257063856Y-67570779D01*
X257060437Y-67593834D01*
X257054773Y-67616443D01*
X257046921Y-67638387D01*
X257036956Y-67659457D01*
X257024974Y-67679448D01*
X257011090Y-67698168D01*
X256995438Y-67715438D01*
X256978168Y-67731090D01*
X256959448Y-67744974D01*
X256939457Y-67756956D01*
X256918387Y-67766921D01*
X256896443Y-67774773D01*
X256873834Y-67780437D01*
X256850779Y-67783856D01*
X256827500Y-67785000D01*
X256252500Y-67785000D01*
X256229221Y-67783856D01*
X256206166Y-67780437D01*
X256183557Y-67774773D01*
X256161613Y-67766921D01*
X256140543Y-67756956D01*
X256120552Y-67744974D01*
X256101832Y-67731090D01*
X256084562Y-67715438D01*
X256068910Y-67698168D01*
X256055026Y-67679448D01*
X256043044Y-67659457D01*
X256033079Y-67638387D01*
X256025227Y-67616443D01*
X256019563Y-67593834D01*
X256016144Y-67570779D01*
X256015000Y-67547500D01*
X256015000Y-67072500D01*
X256016144Y-67049221D01*
X256019563Y-67026166D01*
X256025227Y-67003557D01*
X256033079Y-66981613D01*
X256043044Y-66960543D01*
X256055026Y-66940552D01*
X256068910Y-66921832D01*
X256084562Y-66904562D01*
X256101832Y-66888910D01*
X256120552Y-66875026D01*
X256140543Y-66863044D01*
X256161613Y-66853079D01*
X256183557Y-66845227D01*
X256206166Y-66839563D01*
X256229221Y-66836144D01*
X256252500Y-66835000D01*
X256827500Y-66835000D01*
X256850779Y-66836144D01*
X256850779Y-66836144D01*
G37*
D11*
X256540000Y-67310000D03*
D10*
G36*
X258600779Y-66836144D02*
G01*
X258623834Y-66839563D01*
X258646443Y-66845227D01*
X258668387Y-66853079D01*
X258689457Y-66863044D01*
X258709448Y-66875026D01*
X258728168Y-66888910D01*
X258745438Y-66904562D01*
X258761090Y-66921832D01*
X258774974Y-66940552D01*
X258786956Y-66960543D01*
X258796921Y-66981613D01*
X258804773Y-67003557D01*
X258810437Y-67026166D01*
X258813856Y-67049221D01*
X258815000Y-67072500D01*
X258815000Y-67547500D01*
X258813856Y-67570779D01*
X258810437Y-67593834D01*
X258804773Y-67616443D01*
X258796921Y-67638387D01*
X258786956Y-67659457D01*
X258774974Y-67679448D01*
X258761090Y-67698168D01*
X258745438Y-67715438D01*
X258728168Y-67731090D01*
X258709448Y-67744974D01*
X258689457Y-67756956D01*
X258668387Y-67766921D01*
X258646443Y-67774773D01*
X258623834Y-67780437D01*
X258600779Y-67783856D01*
X258577500Y-67785000D01*
X258002500Y-67785000D01*
X257979221Y-67783856D01*
X257956166Y-67780437D01*
X257933557Y-67774773D01*
X257911613Y-67766921D01*
X257890543Y-67756956D01*
X257870552Y-67744974D01*
X257851832Y-67731090D01*
X257834562Y-67715438D01*
X257818910Y-67698168D01*
X257805026Y-67679448D01*
X257793044Y-67659457D01*
X257783079Y-67638387D01*
X257775227Y-67616443D01*
X257769563Y-67593834D01*
X257766144Y-67570779D01*
X257765000Y-67547500D01*
X257765000Y-67072500D01*
X257766144Y-67049221D01*
X257769563Y-67026166D01*
X257775227Y-67003557D01*
X257783079Y-66981613D01*
X257793044Y-66960543D01*
X257805026Y-66940552D01*
X257818910Y-66921832D01*
X257834562Y-66904562D01*
X257851832Y-66888910D01*
X257870552Y-66875026D01*
X257890543Y-66863044D01*
X257911613Y-66853079D01*
X257933557Y-66845227D01*
X257956166Y-66839563D01*
X257979221Y-66836144D01*
X258002500Y-66835000D01*
X258577500Y-66835000D01*
X258600779Y-66836144D01*
X258600779Y-66836144D01*
G37*
D11*
X258290000Y-67310000D03*
D10*
G36*
X256850779Y-62772144D02*
G01*
X256873834Y-62775563D01*
X256896443Y-62781227D01*
X256918387Y-62789079D01*
X256939457Y-62799044D01*
X256959448Y-62811026D01*
X256978168Y-62824910D01*
X256995438Y-62840562D01*
X257011090Y-62857832D01*
X257024974Y-62876552D01*
X257036956Y-62896543D01*
X257046921Y-62917613D01*
X257054773Y-62939557D01*
X257060437Y-62962166D01*
X257063856Y-62985221D01*
X257065000Y-63008500D01*
X257065000Y-63483500D01*
X257063856Y-63506779D01*
X257060437Y-63529834D01*
X257054773Y-63552443D01*
X257046921Y-63574387D01*
X257036956Y-63595457D01*
X257024974Y-63615448D01*
X257011090Y-63634168D01*
X256995438Y-63651438D01*
X256978168Y-63667090D01*
X256959448Y-63680974D01*
X256939457Y-63692956D01*
X256918387Y-63702921D01*
X256896443Y-63710773D01*
X256873834Y-63716437D01*
X256850779Y-63719856D01*
X256827500Y-63721000D01*
X256252500Y-63721000D01*
X256229221Y-63719856D01*
X256206166Y-63716437D01*
X256183557Y-63710773D01*
X256161613Y-63702921D01*
X256140543Y-63692956D01*
X256120552Y-63680974D01*
X256101832Y-63667090D01*
X256084562Y-63651438D01*
X256068910Y-63634168D01*
X256055026Y-63615448D01*
X256043044Y-63595457D01*
X256033079Y-63574387D01*
X256025227Y-63552443D01*
X256019563Y-63529834D01*
X256016144Y-63506779D01*
X256015000Y-63483500D01*
X256015000Y-63008500D01*
X256016144Y-62985221D01*
X256019563Y-62962166D01*
X256025227Y-62939557D01*
X256033079Y-62917613D01*
X256043044Y-62896543D01*
X256055026Y-62876552D01*
X256068910Y-62857832D01*
X256084562Y-62840562D01*
X256101832Y-62824910D01*
X256120552Y-62811026D01*
X256140543Y-62799044D01*
X256161613Y-62789079D01*
X256183557Y-62781227D01*
X256206166Y-62775563D01*
X256229221Y-62772144D01*
X256252500Y-62771000D01*
X256827500Y-62771000D01*
X256850779Y-62772144D01*
X256850779Y-62772144D01*
G37*
D11*
X256540000Y-63246000D03*
D10*
G36*
X258600779Y-62772144D02*
G01*
X258623834Y-62775563D01*
X258646443Y-62781227D01*
X258668387Y-62789079D01*
X258689457Y-62799044D01*
X258709448Y-62811026D01*
X258728168Y-62824910D01*
X258745438Y-62840562D01*
X258761090Y-62857832D01*
X258774974Y-62876552D01*
X258786956Y-62896543D01*
X258796921Y-62917613D01*
X258804773Y-62939557D01*
X258810437Y-62962166D01*
X258813856Y-62985221D01*
X258815000Y-63008500D01*
X258815000Y-63483500D01*
X258813856Y-63506779D01*
X258810437Y-63529834D01*
X258804773Y-63552443D01*
X258796921Y-63574387D01*
X258786956Y-63595457D01*
X258774974Y-63615448D01*
X258761090Y-63634168D01*
X258745438Y-63651438D01*
X258728168Y-63667090D01*
X258709448Y-63680974D01*
X258689457Y-63692956D01*
X258668387Y-63702921D01*
X258646443Y-63710773D01*
X258623834Y-63716437D01*
X258600779Y-63719856D01*
X258577500Y-63721000D01*
X258002500Y-63721000D01*
X257979221Y-63719856D01*
X257956166Y-63716437D01*
X257933557Y-63710773D01*
X257911613Y-63702921D01*
X257890543Y-63692956D01*
X257870552Y-63680974D01*
X257851832Y-63667090D01*
X257834562Y-63651438D01*
X257818910Y-63634168D01*
X257805026Y-63615448D01*
X257793044Y-63595457D01*
X257783079Y-63574387D01*
X257775227Y-63552443D01*
X257769563Y-63529834D01*
X257766144Y-63506779D01*
X257765000Y-63483500D01*
X257765000Y-63008500D01*
X257766144Y-62985221D01*
X257769563Y-62962166D01*
X257775227Y-62939557D01*
X257783079Y-62917613D01*
X257793044Y-62896543D01*
X257805026Y-62876552D01*
X257818910Y-62857832D01*
X257834562Y-62840562D01*
X257851832Y-62824910D01*
X257870552Y-62811026D01*
X257890543Y-62799044D01*
X257911613Y-62789079D01*
X257933557Y-62781227D01*
X257956166Y-62775563D01*
X257979221Y-62772144D01*
X258002500Y-62771000D01*
X258577500Y-62771000D01*
X258600779Y-62772144D01*
X258600779Y-62772144D01*
G37*
D11*
X258290000Y-63246000D03*
D10*
G36*
X256850779Y-47024144D02*
G01*
X256873834Y-47027563D01*
X256896443Y-47033227D01*
X256918387Y-47041079D01*
X256939457Y-47051044D01*
X256959448Y-47063026D01*
X256978168Y-47076910D01*
X256995438Y-47092562D01*
X257011090Y-47109832D01*
X257024974Y-47128552D01*
X257036956Y-47148543D01*
X257046921Y-47169613D01*
X257054773Y-47191557D01*
X257060437Y-47214166D01*
X257063856Y-47237221D01*
X257065000Y-47260500D01*
X257065000Y-47735500D01*
X257063856Y-47758779D01*
X257060437Y-47781834D01*
X257054773Y-47804443D01*
X257046921Y-47826387D01*
X257036956Y-47847457D01*
X257024974Y-47867448D01*
X257011090Y-47886168D01*
X256995438Y-47903438D01*
X256978168Y-47919090D01*
X256959448Y-47932974D01*
X256939457Y-47944956D01*
X256918387Y-47954921D01*
X256896443Y-47962773D01*
X256873834Y-47968437D01*
X256850779Y-47971856D01*
X256827500Y-47973000D01*
X256252500Y-47973000D01*
X256229221Y-47971856D01*
X256206166Y-47968437D01*
X256183557Y-47962773D01*
X256161613Y-47954921D01*
X256140543Y-47944956D01*
X256120552Y-47932974D01*
X256101832Y-47919090D01*
X256084562Y-47903438D01*
X256068910Y-47886168D01*
X256055026Y-47867448D01*
X256043044Y-47847457D01*
X256033079Y-47826387D01*
X256025227Y-47804443D01*
X256019563Y-47781834D01*
X256016144Y-47758779D01*
X256015000Y-47735500D01*
X256015000Y-47260500D01*
X256016144Y-47237221D01*
X256019563Y-47214166D01*
X256025227Y-47191557D01*
X256033079Y-47169613D01*
X256043044Y-47148543D01*
X256055026Y-47128552D01*
X256068910Y-47109832D01*
X256084562Y-47092562D01*
X256101832Y-47076910D01*
X256120552Y-47063026D01*
X256140543Y-47051044D01*
X256161613Y-47041079D01*
X256183557Y-47033227D01*
X256206166Y-47027563D01*
X256229221Y-47024144D01*
X256252500Y-47023000D01*
X256827500Y-47023000D01*
X256850779Y-47024144D01*
X256850779Y-47024144D01*
G37*
D11*
X256540000Y-47498000D03*
D10*
G36*
X258600779Y-47024144D02*
G01*
X258623834Y-47027563D01*
X258646443Y-47033227D01*
X258668387Y-47041079D01*
X258689457Y-47051044D01*
X258709448Y-47063026D01*
X258728168Y-47076910D01*
X258745438Y-47092562D01*
X258761090Y-47109832D01*
X258774974Y-47128552D01*
X258786956Y-47148543D01*
X258796921Y-47169613D01*
X258804773Y-47191557D01*
X258810437Y-47214166D01*
X258813856Y-47237221D01*
X258815000Y-47260500D01*
X258815000Y-47735500D01*
X258813856Y-47758779D01*
X258810437Y-47781834D01*
X258804773Y-47804443D01*
X258796921Y-47826387D01*
X258786956Y-47847457D01*
X258774974Y-47867448D01*
X258761090Y-47886168D01*
X258745438Y-47903438D01*
X258728168Y-47919090D01*
X258709448Y-47932974D01*
X258689457Y-47944956D01*
X258668387Y-47954921D01*
X258646443Y-47962773D01*
X258623834Y-47968437D01*
X258600779Y-47971856D01*
X258577500Y-47973000D01*
X258002500Y-47973000D01*
X257979221Y-47971856D01*
X257956166Y-47968437D01*
X257933557Y-47962773D01*
X257911613Y-47954921D01*
X257890543Y-47944956D01*
X257870552Y-47932974D01*
X257851832Y-47919090D01*
X257834562Y-47903438D01*
X257818910Y-47886168D01*
X257805026Y-47867448D01*
X257793044Y-47847457D01*
X257783079Y-47826387D01*
X257775227Y-47804443D01*
X257769563Y-47781834D01*
X257766144Y-47758779D01*
X257765000Y-47735500D01*
X257765000Y-47260500D01*
X257766144Y-47237221D01*
X257769563Y-47214166D01*
X257775227Y-47191557D01*
X257783079Y-47169613D01*
X257793044Y-47148543D01*
X257805026Y-47128552D01*
X257818910Y-47109832D01*
X257834562Y-47092562D01*
X257851832Y-47076910D01*
X257870552Y-47063026D01*
X257890543Y-47051044D01*
X257911613Y-47041079D01*
X257933557Y-47033227D01*
X257956166Y-47027563D01*
X257979221Y-47024144D01*
X258002500Y-47023000D01*
X258577500Y-47023000D01*
X258600779Y-47024144D01*
X258600779Y-47024144D01*
G37*
D11*
X258290000Y-47498000D03*
D10*
G36*
X258346779Y-78266144D02*
G01*
X258369834Y-78269563D01*
X258392443Y-78275227D01*
X258414387Y-78283079D01*
X258435457Y-78293044D01*
X258455448Y-78305026D01*
X258474168Y-78318910D01*
X258491438Y-78334562D01*
X258507090Y-78351832D01*
X258520974Y-78370552D01*
X258532956Y-78390543D01*
X258542921Y-78411613D01*
X258550773Y-78433557D01*
X258556437Y-78456166D01*
X258559856Y-78479221D01*
X258561000Y-78502500D01*
X258561000Y-78977500D01*
X258559856Y-79000779D01*
X258556437Y-79023834D01*
X258550773Y-79046443D01*
X258542921Y-79068387D01*
X258532956Y-79089457D01*
X258520974Y-79109448D01*
X258507090Y-79128168D01*
X258491438Y-79145438D01*
X258474168Y-79161090D01*
X258455448Y-79174974D01*
X258435457Y-79186956D01*
X258414387Y-79196921D01*
X258392443Y-79204773D01*
X258369834Y-79210437D01*
X258346779Y-79213856D01*
X258323500Y-79215000D01*
X257748500Y-79215000D01*
X257725221Y-79213856D01*
X257702166Y-79210437D01*
X257679557Y-79204773D01*
X257657613Y-79196921D01*
X257636543Y-79186956D01*
X257616552Y-79174974D01*
X257597832Y-79161090D01*
X257580562Y-79145438D01*
X257564910Y-79128168D01*
X257551026Y-79109448D01*
X257539044Y-79089457D01*
X257529079Y-79068387D01*
X257521227Y-79046443D01*
X257515563Y-79023834D01*
X257512144Y-79000779D01*
X257511000Y-78977500D01*
X257511000Y-78502500D01*
X257512144Y-78479221D01*
X257515563Y-78456166D01*
X257521227Y-78433557D01*
X257529079Y-78411613D01*
X257539044Y-78390543D01*
X257551026Y-78370552D01*
X257564910Y-78351832D01*
X257580562Y-78334562D01*
X257597832Y-78318910D01*
X257616552Y-78305026D01*
X257636543Y-78293044D01*
X257657613Y-78283079D01*
X257679557Y-78275227D01*
X257702166Y-78269563D01*
X257725221Y-78266144D01*
X257748500Y-78265000D01*
X258323500Y-78265000D01*
X258346779Y-78266144D01*
X258346779Y-78266144D01*
G37*
D11*
X258036000Y-78740000D03*
D10*
G36*
X256596779Y-78266144D02*
G01*
X256619834Y-78269563D01*
X256642443Y-78275227D01*
X256664387Y-78283079D01*
X256685457Y-78293044D01*
X256705448Y-78305026D01*
X256724168Y-78318910D01*
X256741438Y-78334562D01*
X256757090Y-78351832D01*
X256770974Y-78370552D01*
X256782956Y-78390543D01*
X256792921Y-78411613D01*
X256800773Y-78433557D01*
X256806437Y-78456166D01*
X256809856Y-78479221D01*
X256811000Y-78502500D01*
X256811000Y-78977500D01*
X256809856Y-79000779D01*
X256806437Y-79023834D01*
X256800773Y-79046443D01*
X256792921Y-79068387D01*
X256782956Y-79089457D01*
X256770974Y-79109448D01*
X256757090Y-79128168D01*
X256741438Y-79145438D01*
X256724168Y-79161090D01*
X256705448Y-79174974D01*
X256685457Y-79186956D01*
X256664387Y-79196921D01*
X256642443Y-79204773D01*
X256619834Y-79210437D01*
X256596779Y-79213856D01*
X256573500Y-79215000D01*
X255998500Y-79215000D01*
X255975221Y-79213856D01*
X255952166Y-79210437D01*
X255929557Y-79204773D01*
X255907613Y-79196921D01*
X255886543Y-79186956D01*
X255866552Y-79174974D01*
X255847832Y-79161090D01*
X255830562Y-79145438D01*
X255814910Y-79128168D01*
X255801026Y-79109448D01*
X255789044Y-79089457D01*
X255779079Y-79068387D01*
X255771227Y-79046443D01*
X255765563Y-79023834D01*
X255762144Y-79000779D01*
X255761000Y-78977500D01*
X255761000Y-78502500D01*
X255762144Y-78479221D01*
X255765563Y-78456166D01*
X255771227Y-78433557D01*
X255779079Y-78411613D01*
X255789044Y-78390543D01*
X255801026Y-78370552D01*
X255814910Y-78351832D01*
X255830562Y-78334562D01*
X255847832Y-78318910D01*
X255866552Y-78305026D01*
X255886543Y-78293044D01*
X255907613Y-78283079D01*
X255929557Y-78275227D01*
X255952166Y-78269563D01*
X255975221Y-78266144D01*
X255998500Y-78265000D01*
X256573500Y-78265000D01*
X256596779Y-78266144D01*
X256596779Y-78266144D01*
G37*
D11*
X256286000Y-78740000D03*
D10*
G36*
X258346779Y-80298144D02*
G01*
X258369834Y-80301563D01*
X258392443Y-80307227D01*
X258414387Y-80315079D01*
X258435457Y-80325044D01*
X258455448Y-80337026D01*
X258474168Y-80350910D01*
X258491438Y-80366562D01*
X258507090Y-80383832D01*
X258520974Y-80402552D01*
X258532956Y-80422543D01*
X258542921Y-80443613D01*
X258550773Y-80465557D01*
X258556437Y-80488166D01*
X258559856Y-80511221D01*
X258561000Y-80534500D01*
X258561000Y-81009500D01*
X258559856Y-81032779D01*
X258556437Y-81055834D01*
X258550773Y-81078443D01*
X258542921Y-81100387D01*
X258532956Y-81121457D01*
X258520974Y-81141448D01*
X258507090Y-81160168D01*
X258491438Y-81177438D01*
X258474168Y-81193090D01*
X258455448Y-81206974D01*
X258435457Y-81218956D01*
X258414387Y-81228921D01*
X258392443Y-81236773D01*
X258369834Y-81242437D01*
X258346779Y-81245856D01*
X258323500Y-81247000D01*
X257748500Y-81247000D01*
X257725221Y-81245856D01*
X257702166Y-81242437D01*
X257679557Y-81236773D01*
X257657613Y-81228921D01*
X257636543Y-81218956D01*
X257616552Y-81206974D01*
X257597832Y-81193090D01*
X257580562Y-81177438D01*
X257564910Y-81160168D01*
X257551026Y-81141448D01*
X257539044Y-81121457D01*
X257529079Y-81100387D01*
X257521227Y-81078443D01*
X257515563Y-81055834D01*
X257512144Y-81032779D01*
X257511000Y-81009500D01*
X257511000Y-80534500D01*
X257512144Y-80511221D01*
X257515563Y-80488166D01*
X257521227Y-80465557D01*
X257529079Y-80443613D01*
X257539044Y-80422543D01*
X257551026Y-80402552D01*
X257564910Y-80383832D01*
X257580562Y-80366562D01*
X257597832Y-80350910D01*
X257616552Y-80337026D01*
X257636543Y-80325044D01*
X257657613Y-80315079D01*
X257679557Y-80307227D01*
X257702166Y-80301563D01*
X257725221Y-80298144D01*
X257748500Y-80297000D01*
X258323500Y-80297000D01*
X258346779Y-80298144D01*
X258346779Y-80298144D01*
G37*
D11*
X258036000Y-80772000D03*
D10*
G36*
X256596779Y-80298144D02*
G01*
X256619834Y-80301563D01*
X256642443Y-80307227D01*
X256664387Y-80315079D01*
X256685457Y-80325044D01*
X256705448Y-80337026D01*
X256724168Y-80350910D01*
X256741438Y-80366562D01*
X256757090Y-80383832D01*
X256770974Y-80402552D01*
X256782956Y-80422543D01*
X256792921Y-80443613D01*
X256800773Y-80465557D01*
X256806437Y-80488166D01*
X256809856Y-80511221D01*
X256811000Y-80534500D01*
X256811000Y-81009500D01*
X256809856Y-81032779D01*
X256806437Y-81055834D01*
X256800773Y-81078443D01*
X256792921Y-81100387D01*
X256782956Y-81121457D01*
X256770974Y-81141448D01*
X256757090Y-81160168D01*
X256741438Y-81177438D01*
X256724168Y-81193090D01*
X256705448Y-81206974D01*
X256685457Y-81218956D01*
X256664387Y-81228921D01*
X256642443Y-81236773D01*
X256619834Y-81242437D01*
X256596779Y-81245856D01*
X256573500Y-81247000D01*
X255998500Y-81247000D01*
X255975221Y-81245856D01*
X255952166Y-81242437D01*
X255929557Y-81236773D01*
X255907613Y-81228921D01*
X255886543Y-81218956D01*
X255866552Y-81206974D01*
X255847832Y-81193090D01*
X255830562Y-81177438D01*
X255814910Y-81160168D01*
X255801026Y-81141448D01*
X255789044Y-81121457D01*
X255779079Y-81100387D01*
X255771227Y-81078443D01*
X255765563Y-81055834D01*
X255762144Y-81032779D01*
X255761000Y-81009500D01*
X255761000Y-80534500D01*
X255762144Y-80511221D01*
X255765563Y-80488166D01*
X255771227Y-80465557D01*
X255779079Y-80443613D01*
X255789044Y-80422543D01*
X255801026Y-80402552D01*
X255814910Y-80383832D01*
X255830562Y-80366562D01*
X255847832Y-80350910D01*
X255866552Y-80337026D01*
X255886543Y-80325044D01*
X255907613Y-80315079D01*
X255929557Y-80307227D01*
X255952166Y-80301563D01*
X255975221Y-80298144D01*
X255998500Y-80297000D01*
X256573500Y-80297000D01*
X256596779Y-80298144D01*
X256596779Y-80298144D01*
G37*
D11*
X256286000Y-80772000D03*
D10*
G36*
X258600779Y-53120144D02*
G01*
X258623834Y-53123563D01*
X258646443Y-53129227D01*
X258668387Y-53137079D01*
X258689457Y-53147044D01*
X258709448Y-53159026D01*
X258728168Y-53172910D01*
X258745438Y-53188562D01*
X258761090Y-53205832D01*
X258774974Y-53224552D01*
X258786956Y-53244543D01*
X258796921Y-53265613D01*
X258804773Y-53287557D01*
X258810437Y-53310166D01*
X258813856Y-53333221D01*
X258815000Y-53356500D01*
X258815000Y-53831500D01*
X258813856Y-53854779D01*
X258810437Y-53877834D01*
X258804773Y-53900443D01*
X258796921Y-53922387D01*
X258786956Y-53943457D01*
X258774974Y-53963448D01*
X258761090Y-53982168D01*
X258745438Y-53999438D01*
X258728168Y-54015090D01*
X258709448Y-54028974D01*
X258689457Y-54040956D01*
X258668387Y-54050921D01*
X258646443Y-54058773D01*
X258623834Y-54064437D01*
X258600779Y-54067856D01*
X258577500Y-54069000D01*
X258002500Y-54069000D01*
X257979221Y-54067856D01*
X257956166Y-54064437D01*
X257933557Y-54058773D01*
X257911613Y-54050921D01*
X257890543Y-54040956D01*
X257870552Y-54028974D01*
X257851832Y-54015090D01*
X257834562Y-53999438D01*
X257818910Y-53982168D01*
X257805026Y-53963448D01*
X257793044Y-53943457D01*
X257783079Y-53922387D01*
X257775227Y-53900443D01*
X257769563Y-53877834D01*
X257766144Y-53854779D01*
X257765000Y-53831500D01*
X257765000Y-53356500D01*
X257766144Y-53333221D01*
X257769563Y-53310166D01*
X257775227Y-53287557D01*
X257783079Y-53265613D01*
X257793044Y-53244543D01*
X257805026Y-53224552D01*
X257818910Y-53205832D01*
X257834562Y-53188562D01*
X257851832Y-53172910D01*
X257870552Y-53159026D01*
X257890543Y-53147044D01*
X257911613Y-53137079D01*
X257933557Y-53129227D01*
X257956166Y-53123563D01*
X257979221Y-53120144D01*
X258002500Y-53119000D01*
X258577500Y-53119000D01*
X258600779Y-53120144D01*
X258600779Y-53120144D01*
G37*
D11*
X258290000Y-53594000D03*
D10*
G36*
X256850779Y-53120144D02*
G01*
X256873834Y-53123563D01*
X256896443Y-53129227D01*
X256918387Y-53137079D01*
X256939457Y-53147044D01*
X256959448Y-53159026D01*
X256978168Y-53172910D01*
X256995438Y-53188562D01*
X257011090Y-53205832D01*
X257024974Y-53224552D01*
X257036956Y-53244543D01*
X257046921Y-53265613D01*
X257054773Y-53287557D01*
X257060437Y-53310166D01*
X257063856Y-53333221D01*
X257065000Y-53356500D01*
X257065000Y-53831500D01*
X257063856Y-53854779D01*
X257060437Y-53877834D01*
X257054773Y-53900443D01*
X257046921Y-53922387D01*
X257036956Y-53943457D01*
X257024974Y-53963448D01*
X257011090Y-53982168D01*
X256995438Y-53999438D01*
X256978168Y-54015090D01*
X256959448Y-54028974D01*
X256939457Y-54040956D01*
X256918387Y-54050921D01*
X256896443Y-54058773D01*
X256873834Y-54064437D01*
X256850779Y-54067856D01*
X256827500Y-54069000D01*
X256252500Y-54069000D01*
X256229221Y-54067856D01*
X256206166Y-54064437D01*
X256183557Y-54058773D01*
X256161613Y-54050921D01*
X256140543Y-54040956D01*
X256120552Y-54028974D01*
X256101832Y-54015090D01*
X256084562Y-53999438D01*
X256068910Y-53982168D01*
X256055026Y-53963448D01*
X256043044Y-53943457D01*
X256033079Y-53922387D01*
X256025227Y-53900443D01*
X256019563Y-53877834D01*
X256016144Y-53854779D01*
X256015000Y-53831500D01*
X256015000Y-53356500D01*
X256016144Y-53333221D01*
X256019563Y-53310166D01*
X256025227Y-53287557D01*
X256033079Y-53265613D01*
X256043044Y-53244543D01*
X256055026Y-53224552D01*
X256068910Y-53205832D01*
X256084562Y-53188562D01*
X256101832Y-53172910D01*
X256120552Y-53159026D01*
X256140543Y-53147044D01*
X256161613Y-53137079D01*
X256183557Y-53129227D01*
X256206166Y-53123563D01*
X256229221Y-53120144D01*
X256252500Y-53119000D01*
X256827500Y-53119000D01*
X256850779Y-53120144D01*
X256850779Y-53120144D01*
G37*
D11*
X256540000Y-53594000D03*
D10*
G36*
X258600779Y-51088144D02*
G01*
X258623834Y-51091563D01*
X258646443Y-51097227D01*
X258668387Y-51105079D01*
X258689457Y-51115044D01*
X258709448Y-51127026D01*
X258728168Y-51140910D01*
X258745438Y-51156562D01*
X258761090Y-51173832D01*
X258774974Y-51192552D01*
X258786956Y-51212543D01*
X258796921Y-51233613D01*
X258804773Y-51255557D01*
X258810437Y-51278166D01*
X258813856Y-51301221D01*
X258815000Y-51324500D01*
X258815000Y-51799500D01*
X258813856Y-51822779D01*
X258810437Y-51845834D01*
X258804773Y-51868443D01*
X258796921Y-51890387D01*
X258786956Y-51911457D01*
X258774974Y-51931448D01*
X258761090Y-51950168D01*
X258745438Y-51967438D01*
X258728168Y-51983090D01*
X258709448Y-51996974D01*
X258689457Y-52008956D01*
X258668387Y-52018921D01*
X258646443Y-52026773D01*
X258623834Y-52032437D01*
X258600779Y-52035856D01*
X258577500Y-52037000D01*
X258002500Y-52037000D01*
X257979221Y-52035856D01*
X257956166Y-52032437D01*
X257933557Y-52026773D01*
X257911613Y-52018921D01*
X257890543Y-52008956D01*
X257870552Y-51996974D01*
X257851832Y-51983090D01*
X257834562Y-51967438D01*
X257818910Y-51950168D01*
X257805026Y-51931448D01*
X257793044Y-51911457D01*
X257783079Y-51890387D01*
X257775227Y-51868443D01*
X257769563Y-51845834D01*
X257766144Y-51822779D01*
X257765000Y-51799500D01*
X257765000Y-51324500D01*
X257766144Y-51301221D01*
X257769563Y-51278166D01*
X257775227Y-51255557D01*
X257783079Y-51233613D01*
X257793044Y-51212543D01*
X257805026Y-51192552D01*
X257818910Y-51173832D01*
X257834562Y-51156562D01*
X257851832Y-51140910D01*
X257870552Y-51127026D01*
X257890543Y-51115044D01*
X257911613Y-51105079D01*
X257933557Y-51097227D01*
X257956166Y-51091563D01*
X257979221Y-51088144D01*
X258002500Y-51087000D01*
X258577500Y-51087000D01*
X258600779Y-51088144D01*
X258600779Y-51088144D01*
G37*
D11*
X258290000Y-51562000D03*
D10*
G36*
X256850779Y-51088144D02*
G01*
X256873834Y-51091563D01*
X256896443Y-51097227D01*
X256918387Y-51105079D01*
X256939457Y-51115044D01*
X256959448Y-51127026D01*
X256978168Y-51140910D01*
X256995438Y-51156562D01*
X257011090Y-51173832D01*
X257024974Y-51192552D01*
X257036956Y-51212543D01*
X257046921Y-51233613D01*
X257054773Y-51255557D01*
X257060437Y-51278166D01*
X257063856Y-51301221D01*
X257065000Y-51324500D01*
X257065000Y-51799500D01*
X257063856Y-51822779D01*
X257060437Y-51845834D01*
X257054773Y-51868443D01*
X257046921Y-51890387D01*
X257036956Y-51911457D01*
X257024974Y-51931448D01*
X257011090Y-51950168D01*
X256995438Y-51967438D01*
X256978168Y-51983090D01*
X256959448Y-51996974D01*
X256939457Y-52008956D01*
X256918387Y-52018921D01*
X256896443Y-52026773D01*
X256873834Y-52032437D01*
X256850779Y-52035856D01*
X256827500Y-52037000D01*
X256252500Y-52037000D01*
X256229221Y-52035856D01*
X256206166Y-52032437D01*
X256183557Y-52026773D01*
X256161613Y-52018921D01*
X256140543Y-52008956D01*
X256120552Y-51996974D01*
X256101832Y-51983090D01*
X256084562Y-51967438D01*
X256068910Y-51950168D01*
X256055026Y-51931448D01*
X256043044Y-51911457D01*
X256033079Y-51890387D01*
X256025227Y-51868443D01*
X256019563Y-51845834D01*
X256016144Y-51822779D01*
X256015000Y-51799500D01*
X256015000Y-51324500D01*
X256016144Y-51301221D01*
X256019563Y-51278166D01*
X256025227Y-51255557D01*
X256033079Y-51233613D01*
X256043044Y-51212543D01*
X256055026Y-51192552D01*
X256068910Y-51173832D01*
X256084562Y-51156562D01*
X256101832Y-51140910D01*
X256120552Y-51127026D01*
X256140543Y-51115044D01*
X256161613Y-51105079D01*
X256183557Y-51097227D01*
X256206166Y-51091563D01*
X256229221Y-51088144D01*
X256252500Y-51087000D01*
X256827500Y-51087000D01*
X256850779Y-51088144D01*
X256850779Y-51088144D01*
G37*
D11*
X256540000Y-51562000D03*
D10*
G36*
X275392779Y-47024144D02*
G01*
X275415834Y-47027563D01*
X275438443Y-47033227D01*
X275460387Y-47041079D01*
X275481457Y-47051044D01*
X275501448Y-47063026D01*
X275520168Y-47076910D01*
X275537438Y-47092562D01*
X275553090Y-47109832D01*
X275566974Y-47128552D01*
X275578956Y-47148543D01*
X275588921Y-47169613D01*
X275596773Y-47191557D01*
X275602437Y-47214166D01*
X275605856Y-47237221D01*
X275607000Y-47260500D01*
X275607000Y-47735500D01*
X275605856Y-47758779D01*
X275602437Y-47781834D01*
X275596773Y-47804443D01*
X275588921Y-47826387D01*
X275578956Y-47847457D01*
X275566974Y-47867448D01*
X275553090Y-47886168D01*
X275537438Y-47903438D01*
X275520168Y-47919090D01*
X275501448Y-47932974D01*
X275481457Y-47944956D01*
X275460387Y-47954921D01*
X275438443Y-47962773D01*
X275415834Y-47968437D01*
X275392779Y-47971856D01*
X275369500Y-47973000D01*
X274794500Y-47973000D01*
X274771221Y-47971856D01*
X274748166Y-47968437D01*
X274725557Y-47962773D01*
X274703613Y-47954921D01*
X274682543Y-47944956D01*
X274662552Y-47932974D01*
X274643832Y-47919090D01*
X274626562Y-47903438D01*
X274610910Y-47886168D01*
X274597026Y-47867448D01*
X274585044Y-47847457D01*
X274575079Y-47826387D01*
X274567227Y-47804443D01*
X274561563Y-47781834D01*
X274558144Y-47758779D01*
X274557000Y-47735500D01*
X274557000Y-47260500D01*
X274558144Y-47237221D01*
X274561563Y-47214166D01*
X274567227Y-47191557D01*
X274575079Y-47169613D01*
X274585044Y-47148543D01*
X274597026Y-47128552D01*
X274610910Y-47109832D01*
X274626562Y-47092562D01*
X274643832Y-47076910D01*
X274662552Y-47063026D01*
X274682543Y-47051044D01*
X274703613Y-47041079D01*
X274725557Y-47033227D01*
X274748166Y-47027563D01*
X274771221Y-47024144D01*
X274794500Y-47023000D01*
X275369500Y-47023000D01*
X275392779Y-47024144D01*
X275392779Y-47024144D01*
G37*
D11*
X275082000Y-47498000D03*
D10*
G36*
X273642779Y-47024144D02*
G01*
X273665834Y-47027563D01*
X273688443Y-47033227D01*
X273710387Y-47041079D01*
X273731457Y-47051044D01*
X273751448Y-47063026D01*
X273770168Y-47076910D01*
X273787438Y-47092562D01*
X273803090Y-47109832D01*
X273816974Y-47128552D01*
X273828956Y-47148543D01*
X273838921Y-47169613D01*
X273846773Y-47191557D01*
X273852437Y-47214166D01*
X273855856Y-47237221D01*
X273857000Y-47260500D01*
X273857000Y-47735500D01*
X273855856Y-47758779D01*
X273852437Y-47781834D01*
X273846773Y-47804443D01*
X273838921Y-47826387D01*
X273828956Y-47847457D01*
X273816974Y-47867448D01*
X273803090Y-47886168D01*
X273787438Y-47903438D01*
X273770168Y-47919090D01*
X273751448Y-47932974D01*
X273731457Y-47944956D01*
X273710387Y-47954921D01*
X273688443Y-47962773D01*
X273665834Y-47968437D01*
X273642779Y-47971856D01*
X273619500Y-47973000D01*
X273044500Y-47973000D01*
X273021221Y-47971856D01*
X272998166Y-47968437D01*
X272975557Y-47962773D01*
X272953613Y-47954921D01*
X272932543Y-47944956D01*
X272912552Y-47932974D01*
X272893832Y-47919090D01*
X272876562Y-47903438D01*
X272860910Y-47886168D01*
X272847026Y-47867448D01*
X272835044Y-47847457D01*
X272825079Y-47826387D01*
X272817227Y-47804443D01*
X272811563Y-47781834D01*
X272808144Y-47758779D01*
X272807000Y-47735500D01*
X272807000Y-47260500D01*
X272808144Y-47237221D01*
X272811563Y-47214166D01*
X272817227Y-47191557D01*
X272825079Y-47169613D01*
X272835044Y-47148543D01*
X272847026Y-47128552D01*
X272860910Y-47109832D01*
X272876562Y-47092562D01*
X272893832Y-47076910D01*
X272912552Y-47063026D01*
X272932543Y-47051044D01*
X272953613Y-47041079D01*
X272975557Y-47033227D01*
X272998166Y-47027563D01*
X273021221Y-47024144D01*
X273044500Y-47023000D01*
X273619500Y-47023000D01*
X273642779Y-47024144D01*
X273642779Y-47024144D01*
G37*
D11*
X273332000Y-47498000D03*
D10*
G36*
X258600779Y-55152144D02*
G01*
X258623834Y-55155563D01*
X258646443Y-55161227D01*
X258668387Y-55169079D01*
X258689457Y-55179044D01*
X258709448Y-55191026D01*
X258728168Y-55204910D01*
X258745438Y-55220562D01*
X258761090Y-55237832D01*
X258774974Y-55256552D01*
X258786956Y-55276543D01*
X258796921Y-55297613D01*
X258804773Y-55319557D01*
X258810437Y-55342166D01*
X258813856Y-55365221D01*
X258815000Y-55388500D01*
X258815000Y-55863500D01*
X258813856Y-55886779D01*
X258810437Y-55909834D01*
X258804773Y-55932443D01*
X258796921Y-55954387D01*
X258786956Y-55975457D01*
X258774974Y-55995448D01*
X258761090Y-56014168D01*
X258745438Y-56031438D01*
X258728168Y-56047090D01*
X258709448Y-56060974D01*
X258689457Y-56072956D01*
X258668387Y-56082921D01*
X258646443Y-56090773D01*
X258623834Y-56096437D01*
X258600779Y-56099856D01*
X258577500Y-56101000D01*
X258002500Y-56101000D01*
X257979221Y-56099856D01*
X257956166Y-56096437D01*
X257933557Y-56090773D01*
X257911613Y-56082921D01*
X257890543Y-56072956D01*
X257870552Y-56060974D01*
X257851832Y-56047090D01*
X257834562Y-56031438D01*
X257818910Y-56014168D01*
X257805026Y-55995448D01*
X257793044Y-55975457D01*
X257783079Y-55954387D01*
X257775227Y-55932443D01*
X257769563Y-55909834D01*
X257766144Y-55886779D01*
X257765000Y-55863500D01*
X257765000Y-55388500D01*
X257766144Y-55365221D01*
X257769563Y-55342166D01*
X257775227Y-55319557D01*
X257783079Y-55297613D01*
X257793044Y-55276543D01*
X257805026Y-55256552D01*
X257818910Y-55237832D01*
X257834562Y-55220562D01*
X257851832Y-55204910D01*
X257870552Y-55191026D01*
X257890543Y-55179044D01*
X257911613Y-55169079D01*
X257933557Y-55161227D01*
X257956166Y-55155563D01*
X257979221Y-55152144D01*
X258002500Y-55151000D01*
X258577500Y-55151000D01*
X258600779Y-55152144D01*
X258600779Y-55152144D01*
G37*
D11*
X258290000Y-55626000D03*
D10*
G36*
X256850779Y-55152144D02*
G01*
X256873834Y-55155563D01*
X256896443Y-55161227D01*
X256918387Y-55169079D01*
X256939457Y-55179044D01*
X256959448Y-55191026D01*
X256978168Y-55204910D01*
X256995438Y-55220562D01*
X257011090Y-55237832D01*
X257024974Y-55256552D01*
X257036956Y-55276543D01*
X257046921Y-55297613D01*
X257054773Y-55319557D01*
X257060437Y-55342166D01*
X257063856Y-55365221D01*
X257065000Y-55388500D01*
X257065000Y-55863500D01*
X257063856Y-55886779D01*
X257060437Y-55909834D01*
X257054773Y-55932443D01*
X257046921Y-55954387D01*
X257036956Y-55975457D01*
X257024974Y-55995448D01*
X257011090Y-56014168D01*
X256995438Y-56031438D01*
X256978168Y-56047090D01*
X256959448Y-56060974D01*
X256939457Y-56072956D01*
X256918387Y-56082921D01*
X256896443Y-56090773D01*
X256873834Y-56096437D01*
X256850779Y-56099856D01*
X256827500Y-56101000D01*
X256252500Y-56101000D01*
X256229221Y-56099856D01*
X256206166Y-56096437D01*
X256183557Y-56090773D01*
X256161613Y-56082921D01*
X256140543Y-56072956D01*
X256120552Y-56060974D01*
X256101832Y-56047090D01*
X256084562Y-56031438D01*
X256068910Y-56014168D01*
X256055026Y-55995448D01*
X256043044Y-55975457D01*
X256033079Y-55954387D01*
X256025227Y-55932443D01*
X256019563Y-55909834D01*
X256016144Y-55886779D01*
X256015000Y-55863500D01*
X256015000Y-55388500D01*
X256016144Y-55365221D01*
X256019563Y-55342166D01*
X256025227Y-55319557D01*
X256033079Y-55297613D01*
X256043044Y-55276543D01*
X256055026Y-55256552D01*
X256068910Y-55237832D01*
X256084562Y-55220562D01*
X256101832Y-55204910D01*
X256120552Y-55191026D01*
X256140543Y-55179044D01*
X256161613Y-55169079D01*
X256183557Y-55161227D01*
X256206166Y-55155563D01*
X256229221Y-55152144D01*
X256252500Y-55151000D01*
X256827500Y-55151000D01*
X256850779Y-55152144D01*
X256850779Y-55152144D01*
G37*
D11*
X256540000Y-55626000D03*
D10*
G36*
X273642779Y-68868144D02*
G01*
X273665834Y-68871563D01*
X273688443Y-68877227D01*
X273710387Y-68885079D01*
X273731457Y-68895044D01*
X273751448Y-68907026D01*
X273770168Y-68920910D01*
X273787438Y-68936562D01*
X273803090Y-68953832D01*
X273816974Y-68972552D01*
X273828956Y-68992543D01*
X273838921Y-69013613D01*
X273846773Y-69035557D01*
X273852437Y-69058166D01*
X273855856Y-69081221D01*
X273857000Y-69104500D01*
X273857000Y-69579500D01*
X273855856Y-69602779D01*
X273852437Y-69625834D01*
X273846773Y-69648443D01*
X273838921Y-69670387D01*
X273828956Y-69691457D01*
X273816974Y-69711448D01*
X273803090Y-69730168D01*
X273787438Y-69747438D01*
X273770168Y-69763090D01*
X273751448Y-69776974D01*
X273731457Y-69788956D01*
X273710387Y-69798921D01*
X273688443Y-69806773D01*
X273665834Y-69812437D01*
X273642779Y-69815856D01*
X273619500Y-69817000D01*
X273044500Y-69817000D01*
X273021221Y-69815856D01*
X272998166Y-69812437D01*
X272975557Y-69806773D01*
X272953613Y-69798921D01*
X272932543Y-69788956D01*
X272912552Y-69776974D01*
X272893832Y-69763090D01*
X272876562Y-69747438D01*
X272860910Y-69730168D01*
X272847026Y-69711448D01*
X272835044Y-69691457D01*
X272825079Y-69670387D01*
X272817227Y-69648443D01*
X272811563Y-69625834D01*
X272808144Y-69602779D01*
X272807000Y-69579500D01*
X272807000Y-69104500D01*
X272808144Y-69081221D01*
X272811563Y-69058166D01*
X272817227Y-69035557D01*
X272825079Y-69013613D01*
X272835044Y-68992543D01*
X272847026Y-68972552D01*
X272860910Y-68953832D01*
X272876562Y-68936562D01*
X272893832Y-68920910D01*
X272912552Y-68907026D01*
X272932543Y-68895044D01*
X272953613Y-68885079D01*
X272975557Y-68877227D01*
X272998166Y-68871563D01*
X273021221Y-68868144D01*
X273044500Y-68867000D01*
X273619500Y-68867000D01*
X273642779Y-68868144D01*
X273642779Y-68868144D01*
G37*
D11*
X273332000Y-69342000D03*
D10*
G36*
X275392779Y-68868144D02*
G01*
X275415834Y-68871563D01*
X275438443Y-68877227D01*
X275460387Y-68885079D01*
X275481457Y-68895044D01*
X275501448Y-68907026D01*
X275520168Y-68920910D01*
X275537438Y-68936562D01*
X275553090Y-68953832D01*
X275566974Y-68972552D01*
X275578956Y-68992543D01*
X275588921Y-69013613D01*
X275596773Y-69035557D01*
X275602437Y-69058166D01*
X275605856Y-69081221D01*
X275607000Y-69104500D01*
X275607000Y-69579500D01*
X275605856Y-69602779D01*
X275602437Y-69625834D01*
X275596773Y-69648443D01*
X275588921Y-69670387D01*
X275578956Y-69691457D01*
X275566974Y-69711448D01*
X275553090Y-69730168D01*
X275537438Y-69747438D01*
X275520168Y-69763090D01*
X275501448Y-69776974D01*
X275481457Y-69788956D01*
X275460387Y-69798921D01*
X275438443Y-69806773D01*
X275415834Y-69812437D01*
X275392779Y-69815856D01*
X275369500Y-69817000D01*
X274794500Y-69817000D01*
X274771221Y-69815856D01*
X274748166Y-69812437D01*
X274725557Y-69806773D01*
X274703613Y-69798921D01*
X274682543Y-69788956D01*
X274662552Y-69776974D01*
X274643832Y-69763090D01*
X274626562Y-69747438D01*
X274610910Y-69730168D01*
X274597026Y-69711448D01*
X274585044Y-69691457D01*
X274575079Y-69670387D01*
X274567227Y-69648443D01*
X274561563Y-69625834D01*
X274558144Y-69602779D01*
X274557000Y-69579500D01*
X274557000Y-69104500D01*
X274558144Y-69081221D01*
X274561563Y-69058166D01*
X274567227Y-69035557D01*
X274575079Y-69013613D01*
X274585044Y-68992543D01*
X274597026Y-68972552D01*
X274610910Y-68953832D01*
X274626562Y-68936562D01*
X274643832Y-68920910D01*
X274662552Y-68907026D01*
X274682543Y-68895044D01*
X274703613Y-68885079D01*
X274725557Y-68877227D01*
X274748166Y-68871563D01*
X274771221Y-68868144D01*
X274794500Y-68867000D01*
X275369500Y-68867000D01*
X275392779Y-68868144D01*
X275392779Y-68868144D01*
G37*
D11*
X275082000Y-69342000D03*
D10*
G36*
X273642779Y-64804144D02*
G01*
X273665834Y-64807563D01*
X273688443Y-64813227D01*
X273710387Y-64821079D01*
X273731457Y-64831044D01*
X273751448Y-64843026D01*
X273770168Y-64856910D01*
X273787438Y-64872562D01*
X273803090Y-64889832D01*
X273816974Y-64908552D01*
X273828956Y-64928543D01*
X273838921Y-64949613D01*
X273846773Y-64971557D01*
X273852437Y-64994166D01*
X273855856Y-65017221D01*
X273857000Y-65040500D01*
X273857000Y-65515500D01*
X273855856Y-65538779D01*
X273852437Y-65561834D01*
X273846773Y-65584443D01*
X273838921Y-65606387D01*
X273828956Y-65627457D01*
X273816974Y-65647448D01*
X273803090Y-65666168D01*
X273787438Y-65683438D01*
X273770168Y-65699090D01*
X273751448Y-65712974D01*
X273731457Y-65724956D01*
X273710387Y-65734921D01*
X273688443Y-65742773D01*
X273665834Y-65748437D01*
X273642779Y-65751856D01*
X273619500Y-65753000D01*
X273044500Y-65753000D01*
X273021221Y-65751856D01*
X272998166Y-65748437D01*
X272975557Y-65742773D01*
X272953613Y-65734921D01*
X272932543Y-65724956D01*
X272912552Y-65712974D01*
X272893832Y-65699090D01*
X272876562Y-65683438D01*
X272860910Y-65666168D01*
X272847026Y-65647448D01*
X272835044Y-65627457D01*
X272825079Y-65606387D01*
X272817227Y-65584443D01*
X272811563Y-65561834D01*
X272808144Y-65538779D01*
X272807000Y-65515500D01*
X272807000Y-65040500D01*
X272808144Y-65017221D01*
X272811563Y-64994166D01*
X272817227Y-64971557D01*
X272825079Y-64949613D01*
X272835044Y-64928543D01*
X272847026Y-64908552D01*
X272860910Y-64889832D01*
X272876562Y-64872562D01*
X272893832Y-64856910D01*
X272912552Y-64843026D01*
X272932543Y-64831044D01*
X272953613Y-64821079D01*
X272975557Y-64813227D01*
X272998166Y-64807563D01*
X273021221Y-64804144D01*
X273044500Y-64803000D01*
X273619500Y-64803000D01*
X273642779Y-64804144D01*
X273642779Y-64804144D01*
G37*
D11*
X273332000Y-65278000D03*
D10*
G36*
X275392779Y-64804144D02*
G01*
X275415834Y-64807563D01*
X275438443Y-64813227D01*
X275460387Y-64821079D01*
X275481457Y-64831044D01*
X275501448Y-64843026D01*
X275520168Y-64856910D01*
X275537438Y-64872562D01*
X275553090Y-64889832D01*
X275566974Y-64908552D01*
X275578956Y-64928543D01*
X275588921Y-64949613D01*
X275596773Y-64971557D01*
X275602437Y-64994166D01*
X275605856Y-65017221D01*
X275607000Y-65040500D01*
X275607000Y-65515500D01*
X275605856Y-65538779D01*
X275602437Y-65561834D01*
X275596773Y-65584443D01*
X275588921Y-65606387D01*
X275578956Y-65627457D01*
X275566974Y-65647448D01*
X275553090Y-65666168D01*
X275537438Y-65683438D01*
X275520168Y-65699090D01*
X275501448Y-65712974D01*
X275481457Y-65724956D01*
X275460387Y-65734921D01*
X275438443Y-65742773D01*
X275415834Y-65748437D01*
X275392779Y-65751856D01*
X275369500Y-65753000D01*
X274794500Y-65753000D01*
X274771221Y-65751856D01*
X274748166Y-65748437D01*
X274725557Y-65742773D01*
X274703613Y-65734921D01*
X274682543Y-65724956D01*
X274662552Y-65712974D01*
X274643832Y-65699090D01*
X274626562Y-65683438D01*
X274610910Y-65666168D01*
X274597026Y-65647448D01*
X274585044Y-65627457D01*
X274575079Y-65606387D01*
X274567227Y-65584443D01*
X274561563Y-65561834D01*
X274558144Y-65538779D01*
X274557000Y-65515500D01*
X274557000Y-65040500D01*
X274558144Y-65017221D01*
X274561563Y-64994166D01*
X274567227Y-64971557D01*
X274575079Y-64949613D01*
X274585044Y-64928543D01*
X274597026Y-64908552D01*
X274610910Y-64889832D01*
X274626562Y-64872562D01*
X274643832Y-64856910D01*
X274662552Y-64843026D01*
X274682543Y-64831044D01*
X274703613Y-64821079D01*
X274725557Y-64813227D01*
X274748166Y-64807563D01*
X274771221Y-64804144D01*
X274794500Y-64803000D01*
X275369500Y-64803000D01*
X275392779Y-64804144D01*
X275392779Y-64804144D01*
G37*
D11*
X275082000Y-65278000D03*
D10*
G36*
X275392779Y-70900144D02*
G01*
X275415834Y-70903563D01*
X275438443Y-70909227D01*
X275460387Y-70917079D01*
X275481457Y-70927044D01*
X275501448Y-70939026D01*
X275520168Y-70952910D01*
X275537438Y-70968562D01*
X275553090Y-70985832D01*
X275566974Y-71004552D01*
X275578956Y-71024543D01*
X275588921Y-71045613D01*
X275596773Y-71067557D01*
X275602437Y-71090166D01*
X275605856Y-71113221D01*
X275607000Y-71136500D01*
X275607000Y-71611500D01*
X275605856Y-71634779D01*
X275602437Y-71657834D01*
X275596773Y-71680443D01*
X275588921Y-71702387D01*
X275578956Y-71723457D01*
X275566974Y-71743448D01*
X275553090Y-71762168D01*
X275537438Y-71779438D01*
X275520168Y-71795090D01*
X275501448Y-71808974D01*
X275481457Y-71820956D01*
X275460387Y-71830921D01*
X275438443Y-71838773D01*
X275415834Y-71844437D01*
X275392779Y-71847856D01*
X275369500Y-71849000D01*
X274794500Y-71849000D01*
X274771221Y-71847856D01*
X274748166Y-71844437D01*
X274725557Y-71838773D01*
X274703613Y-71830921D01*
X274682543Y-71820956D01*
X274662552Y-71808974D01*
X274643832Y-71795090D01*
X274626562Y-71779438D01*
X274610910Y-71762168D01*
X274597026Y-71743448D01*
X274585044Y-71723457D01*
X274575079Y-71702387D01*
X274567227Y-71680443D01*
X274561563Y-71657834D01*
X274558144Y-71634779D01*
X274557000Y-71611500D01*
X274557000Y-71136500D01*
X274558144Y-71113221D01*
X274561563Y-71090166D01*
X274567227Y-71067557D01*
X274575079Y-71045613D01*
X274585044Y-71024543D01*
X274597026Y-71004552D01*
X274610910Y-70985832D01*
X274626562Y-70968562D01*
X274643832Y-70952910D01*
X274662552Y-70939026D01*
X274682543Y-70927044D01*
X274703613Y-70917079D01*
X274725557Y-70909227D01*
X274748166Y-70903563D01*
X274771221Y-70900144D01*
X274794500Y-70899000D01*
X275369500Y-70899000D01*
X275392779Y-70900144D01*
X275392779Y-70900144D01*
G37*
D11*
X275082000Y-71374000D03*
D10*
G36*
X273642779Y-70900144D02*
G01*
X273665834Y-70903563D01*
X273688443Y-70909227D01*
X273710387Y-70917079D01*
X273731457Y-70927044D01*
X273751448Y-70939026D01*
X273770168Y-70952910D01*
X273787438Y-70968562D01*
X273803090Y-70985832D01*
X273816974Y-71004552D01*
X273828956Y-71024543D01*
X273838921Y-71045613D01*
X273846773Y-71067557D01*
X273852437Y-71090166D01*
X273855856Y-71113221D01*
X273857000Y-71136500D01*
X273857000Y-71611500D01*
X273855856Y-71634779D01*
X273852437Y-71657834D01*
X273846773Y-71680443D01*
X273838921Y-71702387D01*
X273828956Y-71723457D01*
X273816974Y-71743448D01*
X273803090Y-71762168D01*
X273787438Y-71779438D01*
X273770168Y-71795090D01*
X273751448Y-71808974D01*
X273731457Y-71820956D01*
X273710387Y-71830921D01*
X273688443Y-71838773D01*
X273665834Y-71844437D01*
X273642779Y-71847856D01*
X273619500Y-71849000D01*
X273044500Y-71849000D01*
X273021221Y-71847856D01*
X272998166Y-71844437D01*
X272975557Y-71838773D01*
X272953613Y-71830921D01*
X272932543Y-71820956D01*
X272912552Y-71808974D01*
X272893832Y-71795090D01*
X272876562Y-71779438D01*
X272860910Y-71762168D01*
X272847026Y-71743448D01*
X272835044Y-71723457D01*
X272825079Y-71702387D01*
X272817227Y-71680443D01*
X272811563Y-71657834D01*
X272808144Y-71634779D01*
X272807000Y-71611500D01*
X272807000Y-71136500D01*
X272808144Y-71113221D01*
X272811563Y-71090166D01*
X272817227Y-71067557D01*
X272825079Y-71045613D01*
X272835044Y-71024543D01*
X272847026Y-71004552D01*
X272860910Y-70985832D01*
X272876562Y-70968562D01*
X272893832Y-70952910D01*
X272912552Y-70939026D01*
X272932543Y-70927044D01*
X272953613Y-70917079D01*
X272975557Y-70909227D01*
X272998166Y-70903563D01*
X273021221Y-70900144D01*
X273044500Y-70899000D01*
X273619500Y-70899000D01*
X273642779Y-70900144D01*
X273642779Y-70900144D01*
G37*
D11*
X273332000Y-71374000D03*
D10*
G36*
X262875703Y-65105722D02*
G01*
X262890264Y-65107882D01*
X262904543Y-65111459D01*
X262918403Y-65116418D01*
X262931710Y-65122712D01*
X262944336Y-65130280D01*
X262956159Y-65139048D01*
X262967066Y-65148934D01*
X262976952Y-65159841D01*
X262985720Y-65171664D01*
X262993288Y-65184290D01*
X262999582Y-65197597D01*
X263004541Y-65211457D01*
X263008118Y-65225736D01*
X263010278Y-65240297D01*
X263011000Y-65255000D01*
X263011000Y-65555000D01*
X263010278Y-65569703D01*
X263008118Y-65584264D01*
X263004541Y-65598543D01*
X262999582Y-65612403D01*
X262993288Y-65625710D01*
X262985720Y-65638336D01*
X262976952Y-65650159D01*
X262967066Y-65661066D01*
X262956159Y-65670952D01*
X262944336Y-65679720D01*
X262931710Y-65687288D01*
X262918403Y-65693582D01*
X262904543Y-65698541D01*
X262890264Y-65702118D01*
X262875703Y-65704278D01*
X262861000Y-65705000D01*
X261561000Y-65705000D01*
X261546297Y-65704278D01*
X261531736Y-65702118D01*
X261517457Y-65698541D01*
X261503597Y-65693582D01*
X261490290Y-65687288D01*
X261477664Y-65679720D01*
X261465841Y-65670952D01*
X261454934Y-65661066D01*
X261445048Y-65650159D01*
X261436280Y-65638336D01*
X261428712Y-65625710D01*
X261422418Y-65612403D01*
X261417459Y-65598543D01*
X261413882Y-65584264D01*
X261411722Y-65569703D01*
X261411000Y-65555000D01*
X261411000Y-65255000D01*
X261411722Y-65240297D01*
X261413882Y-65225736D01*
X261417459Y-65211457D01*
X261422418Y-65197597D01*
X261428712Y-65184290D01*
X261436280Y-65171664D01*
X261445048Y-65159841D01*
X261454934Y-65148934D01*
X261465841Y-65139048D01*
X261477664Y-65130280D01*
X261490290Y-65122712D01*
X261503597Y-65116418D01*
X261517457Y-65111459D01*
X261531736Y-65107882D01*
X261546297Y-65105722D01*
X261561000Y-65105000D01*
X262861000Y-65105000D01*
X262875703Y-65105722D01*
X262875703Y-65105722D01*
G37*
D14*
X262211000Y-65405000D03*
D10*
G36*
X262875703Y-66375722D02*
G01*
X262890264Y-66377882D01*
X262904543Y-66381459D01*
X262918403Y-66386418D01*
X262931710Y-66392712D01*
X262944336Y-66400280D01*
X262956159Y-66409048D01*
X262967066Y-66418934D01*
X262976952Y-66429841D01*
X262985720Y-66441664D01*
X262993288Y-66454290D01*
X262999582Y-66467597D01*
X263004541Y-66481457D01*
X263008118Y-66495736D01*
X263010278Y-66510297D01*
X263011000Y-66525000D01*
X263011000Y-66825000D01*
X263010278Y-66839703D01*
X263008118Y-66854264D01*
X263004541Y-66868543D01*
X262999582Y-66882403D01*
X262993288Y-66895710D01*
X262985720Y-66908336D01*
X262976952Y-66920159D01*
X262967066Y-66931066D01*
X262956159Y-66940952D01*
X262944336Y-66949720D01*
X262931710Y-66957288D01*
X262918403Y-66963582D01*
X262904543Y-66968541D01*
X262890264Y-66972118D01*
X262875703Y-66974278D01*
X262861000Y-66975000D01*
X261561000Y-66975000D01*
X261546297Y-66974278D01*
X261531736Y-66972118D01*
X261517457Y-66968541D01*
X261503597Y-66963582D01*
X261490290Y-66957288D01*
X261477664Y-66949720D01*
X261465841Y-66940952D01*
X261454934Y-66931066D01*
X261445048Y-66920159D01*
X261436280Y-66908336D01*
X261428712Y-66895710D01*
X261422418Y-66882403D01*
X261417459Y-66868543D01*
X261413882Y-66854264D01*
X261411722Y-66839703D01*
X261411000Y-66825000D01*
X261411000Y-66525000D01*
X261411722Y-66510297D01*
X261413882Y-66495736D01*
X261417459Y-66481457D01*
X261422418Y-66467597D01*
X261428712Y-66454290D01*
X261436280Y-66441664D01*
X261445048Y-66429841D01*
X261454934Y-66418934D01*
X261465841Y-66409048D01*
X261477664Y-66400280D01*
X261490290Y-66392712D01*
X261503597Y-66386418D01*
X261517457Y-66381459D01*
X261531736Y-66377882D01*
X261546297Y-66375722D01*
X261561000Y-66375000D01*
X262861000Y-66375000D01*
X262875703Y-66375722D01*
X262875703Y-66375722D01*
G37*
D14*
X262211000Y-66675000D03*
D10*
G36*
X262875703Y-67645722D02*
G01*
X262890264Y-67647882D01*
X262904543Y-67651459D01*
X262918403Y-67656418D01*
X262931710Y-67662712D01*
X262944336Y-67670280D01*
X262956159Y-67679048D01*
X262967066Y-67688934D01*
X262976952Y-67699841D01*
X262985720Y-67711664D01*
X262993288Y-67724290D01*
X262999582Y-67737597D01*
X263004541Y-67751457D01*
X263008118Y-67765736D01*
X263010278Y-67780297D01*
X263011000Y-67795000D01*
X263011000Y-68095000D01*
X263010278Y-68109703D01*
X263008118Y-68124264D01*
X263004541Y-68138543D01*
X262999582Y-68152403D01*
X262993288Y-68165710D01*
X262985720Y-68178336D01*
X262976952Y-68190159D01*
X262967066Y-68201066D01*
X262956159Y-68210952D01*
X262944336Y-68219720D01*
X262931710Y-68227288D01*
X262918403Y-68233582D01*
X262904543Y-68238541D01*
X262890264Y-68242118D01*
X262875703Y-68244278D01*
X262861000Y-68245000D01*
X261561000Y-68245000D01*
X261546297Y-68244278D01*
X261531736Y-68242118D01*
X261517457Y-68238541D01*
X261503597Y-68233582D01*
X261490290Y-68227288D01*
X261477664Y-68219720D01*
X261465841Y-68210952D01*
X261454934Y-68201066D01*
X261445048Y-68190159D01*
X261436280Y-68178336D01*
X261428712Y-68165710D01*
X261422418Y-68152403D01*
X261417459Y-68138543D01*
X261413882Y-68124264D01*
X261411722Y-68109703D01*
X261411000Y-68095000D01*
X261411000Y-67795000D01*
X261411722Y-67780297D01*
X261413882Y-67765736D01*
X261417459Y-67751457D01*
X261422418Y-67737597D01*
X261428712Y-67724290D01*
X261436280Y-67711664D01*
X261445048Y-67699841D01*
X261454934Y-67688934D01*
X261465841Y-67679048D01*
X261477664Y-67670280D01*
X261490290Y-67662712D01*
X261503597Y-67656418D01*
X261517457Y-67651459D01*
X261531736Y-67647882D01*
X261546297Y-67645722D01*
X261561000Y-67645000D01*
X262861000Y-67645000D01*
X262875703Y-67645722D01*
X262875703Y-67645722D01*
G37*
D14*
X262211000Y-67945000D03*
D10*
G36*
X262875703Y-68915722D02*
G01*
X262890264Y-68917882D01*
X262904543Y-68921459D01*
X262918403Y-68926418D01*
X262931710Y-68932712D01*
X262944336Y-68940280D01*
X262956159Y-68949048D01*
X262967066Y-68958934D01*
X262976952Y-68969841D01*
X262985720Y-68981664D01*
X262993288Y-68994290D01*
X262999582Y-69007597D01*
X263004541Y-69021457D01*
X263008118Y-69035736D01*
X263010278Y-69050297D01*
X263011000Y-69065000D01*
X263011000Y-69365000D01*
X263010278Y-69379703D01*
X263008118Y-69394264D01*
X263004541Y-69408543D01*
X262999582Y-69422403D01*
X262993288Y-69435710D01*
X262985720Y-69448336D01*
X262976952Y-69460159D01*
X262967066Y-69471066D01*
X262956159Y-69480952D01*
X262944336Y-69489720D01*
X262931710Y-69497288D01*
X262918403Y-69503582D01*
X262904543Y-69508541D01*
X262890264Y-69512118D01*
X262875703Y-69514278D01*
X262861000Y-69515000D01*
X261561000Y-69515000D01*
X261546297Y-69514278D01*
X261531736Y-69512118D01*
X261517457Y-69508541D01*
X261503597Y-69503582D01*
X261490290Y-69497288D01*
X261477664Y-69489720D01*
X261465841Y-69480952D01*
X261454934Y-69471066D01*
X261445048Y-69460159D01*
X261436280Y-69448336D01*
X261428712Y-69435710D01*
X261422418Y-69422403D01*
X261417459Y-69408543D01*
X261413882Y-69394264D01*
X261411722Y-69379703D01*
X261411000Y-69365000D01*
X261411000Y-69065000D01*
X261411722Y-69050297D01*
X261413882Y-69035736D01*
X261417459Y-69021457D01*
X261422418Y-69007597D01*
X261428712Y-68994290D01*
X261436280Y-68981664D01*
X261445048Y-68969841D01*
X261454934Y-68958934D01*
X261465841Y-68949048D01*
X261477664Y-68940280D01*
X261490290Y-68932712D01*
X261503597Y-68926418D01*
X261517457Y-68921459D01*
X261531736Y-68917882D01*
X261546297Y-68915722D01*
X261561000Y-68915000D01*
X262861000Y-68915000D01*
X262875703Y-68915722D01*
X262875703Y-68915722D01*
G37*
D14*
X262211000Y-69215000D03*
D10*
G36*
X270075703Y-68915722D02*
G01*
X270090264Y-68917882D01*
X270104543Y-68921459D01*
X270118403Y-68926418D01*
X270131710Y-68932712D01*
X270144336Y-68940280D01*
X270156159Y-68949048D01*
X270167066Y-68958934D01*
X270176952Y-68969841D01*
X270185720Y-68981664D01*
X270193288Y-68994290D01*
X270199582Y-69007597D01*
X270204541Y-69021457D01*
X270208118Y-69035736D01*
X270210278Y-69050297D01*
X270211000Y-69065000D01*
X270211000Y-69365000D01*
X270210278Y-69379703D01*
X270208118Y-69394264D01*
X270204541Y-69408543D01*
X270199582Y-69422403D01*
X270193288Y-69435710D01*
X270185720Y-69448336D01*
X270176952Y-69460159D01*
X270167066Y-69471066D01*
X270156159Y-69480952D01*
X270144336Y-69489720D01*
X270131710Y-69497288D01*
X270118403Y-69503582D01*
X270104543Y-69508541D01*
X270090264Y-69512118D01*
X270075703Y-69514278D01*
X270061000Y-69515000D01*
X268761000Y-69515000D01*
X268746297Y-69514278D01*
X268731736Y-69512118D01*
X268717457Y-69508541D01*
X268703597Y-69503582D01*
X268690290Y-69497288D01*
X268677664Y-69489720D01*
X268665841Y-69480952D01*
X268654934Y-69471066D01*
X268645048Y-69460159D01*
X268636280Y-69448336D01*
X268628712Y-69435710D01*
X268622418Y-69422403D01*
X268617459Y-69408543D01*
X268613882Y-69394264D01*
X268611722Y-69379703D01*
X268611000Y-69365000D01*
X268611000Y-69065000D01*
X268611722Y-69050297D01*
X268613882Y-69035736D01*
X268617459Y-69021457D01*
X268622418Y-69007597D01*
X268628712Y-68994290D01*
X268636280Y-68981664D01*
X268645048Y-68969841D01*
X268654934Y-68958934D01*
X268665841Y-68949048D01*
X268677664Y-68940280D01*
X268690290Y-68932712D01*
X268703597Y-68926418D01*
X268717457Y-68921459D01*
X268731736Y-68917882D01*
X268746297Y-68915722D01*
X268761000Y-68915000D01*
X270061000Y-68915000D01*
X270075703Y-68915722D01*
X270075703Y-68915722D01*
G37*
D14*
X269411000Y-69215000D03*
D10*
G36*
X270075703Y-67645722D02*
G01*
X270090264Y-67647882D01*
X270104543Y-67651459D01*
X270118403Y-67656418D01*
X270131710Y-67662712D01*
X270144336Y-67670280D01*
X270156159Y-67679048D01*
X270167066Y-67688934D01*
X270176952Y-67699841D01*
X270185720Y-67711664D01*
X270193288Y-67724290D01*
X270199582Y-67737597D01*
X270204541Y-67751457D01*
X270208118Y-67765736D01*
X270210278Y-67780297D01*
X270211000Y-67795000D01*
X270211000Y-68095000D01*
X270210278Y-68109703D01*
X270208118Y-68124264D01*
X270204541Y-68138543D01*
X270199582Y-68152403D01*
X270193288Y-68165710D01*
X270185720Y-68178336D01*
X270176952Y-68190159D01*
X270167066Y-68201066D01*
X270156159Y-68210952D01*
X270144336Y-68219720D01*
X270131710Y-68227288D01*
X270118403Y-68233582D01*
X270104543Y-68238541D01*
X270090264Y-68242118D01*
X270075703Y-68244278D01*
X270061000Y-68245000D01*
X268761000Y-68245000D01*
X268746297Y-68244278D01*
X268731736Y-68242118D01*
X268717457Y-68238541D01*
X268703597Y-68233582D01*
X268690290Y-68227288D01*
X268677664Y-68219720D01*
X268665841Y-68210952D01*
X268654934Y-68201066D01*
X268645048Y-68190159D01*
X268636280Y-68178336D01*
X268628712Y-68165710D01*
X268622418Y-68152403D01*
X268617459Y-68138543D01*
X268613882Y-68124264D01*
X268611722Y-68109703D01*
X268611000Y-68095000D01*
X268611000Y-67795000D01*
X268611722Y-67780297D01*
X268613882Y-67765736D01*
X268617459Y-67751457D01*
X268622418Y-67737597D01*
X268628712Y-67724290D01*
X268636280Y-67711664D01*
X268645048Y-67699841D01*
X268654934Y-67688934D01*
X268665841Y-67679048D01*
X268677664Y-67670280D01*
X268690290Y-67662712D01*
X268703597Y-67656418D01*
X268717457Y-67651459D01*
X268731736Y-67647882D01*
X268746297Y-67645722D01*
X268761000Y-67645000D01*
X270061000Y-67645000D01*
X270075703Y-67645722D01*
X270075703Y-67645722D01*
G37*
D14*
X269411000Y-67945000D03*
D10*
G36*
X270075703Y-66375722D02*
G01*
X270090264Y-66377882D01*
X270104543Y-66381459D01*
X270118403Y-66386418D01*
X270131710Y-66392712D01*
X270144336Y-66400280D01*
X270156159Y-66409048D01*
X270167066Y-66418934D01*
X270176952Y-66429841D01*
X270185720Y-66441664D01*
X270193288Y-66454290D01*
X270199582Y-66467597D01*
X270204541Y-66481457D01*
X270208118Y-66495736D01*
X270210278Y-66510297D01*
X270211000Y-66525000D01*
X270211000Y-66825000D01*
X270210278Y-66839703D01*
X270208118Y-66854264D01*
X270204541Y-66868543D01*
X270199582Y-66882403D01*
X270193288Y-66895710D01*
X270185720Y-66908336D01*
X270176952Y-66920159D01*
X270167066Y-66931066D01*
X270156159Y-66940952D01*
X270144336Y-66949720D01*
X270131710Y-66957288D01*
X270118403Y-66963582D01*
X270104543Y-66968541D01*
X270090264Y-66972118D01*
X270075703Y-66974278D01*
X270061000Y-66975000D01*
X268761000Y-66975000D01*
X268746297Y-66974278D01*
X268731736Y-66972118D01*
X268717457Y-66968541D01*
X268703597Y-66963582D01*
X268690290Y-66957288D01*
X268677664Y-66949720D01*
X268665841Y-66940952D01*
X268654934Y-66931066D01*
X268645048Y-66920159D01*
X268636280Y-66908336D01*
X268628712Y-66895710D01*
X268622418Y-66882403D01*
X268617459Y-66868543D01*
X268613882Y-66854264D01*
X268611722Y-66839703D01*
X268611000Y-66825000D01*
X268611000Y-66525000D01*
X268611722Y-66510297D01*
X268613882Y-66495736D01*
X268617459Y-66481457D01*
X268622418Y-66467597D01*
X268628712Y-66454290D01*
X268636280Y-66441664D01*
X268645048Y-66429841D01*
X268654934Y-66418934D01*
X268665841Y-66409048D01*
X268677664Y-66400280D01*
X268690290Y-66392712D01*
X268703597Y-66386418D01*
X268717457Y-66381459D01*
X268731736Y-66377882D01*
X268746297Y-66375722D01*
X268761000Y-66375000D01*
X270061000Y-66375000D01*
X270075703Y-66375722D01*
X270075703Y-66375722D01*
G37*
D14*
X269411000Y-66675000D03*
D10*
G36*
X270075703Y-65105722D02*
G01*
X270090264Y-65107882D01*
X270104543Y-65111459D01*
X270118403Y-65116418D01*
X270131710Y-65122712D01*
X270144336Y-65130280D01*
X270156159Y-65139048D01*
X270167066Y-65148934D01*
X270176952Y-65159841D01*
X270185720Y-65171664D01*
X270193288Y-65184290D01*
X270199582Y-65197597D01*
X270204541Y-65211457D01*
X270208118Y-65225736D01*
X270210278Y-65240297D01*
X270211000Y-65255000D01*
X270211000Y-65555000D01*
X270210278Y-65569703D01*
X270208118Y-65584264D01*
X270204541Y-65598543D01*
X270199582Y-65612403D01*
X270193288Y-65625710D01*
X270185720Y-65638336D01*
X270176952Y-65650159D01*
X270167066Y-65661066D01*
X270156159Y-65670952D01*
X270144336Y-65679720D01*
X270131710Y-65687288D01*
X270118403Y-65693582D01*
X270104543Y-65698541D01*
X270090264Y-65702118D01*
X270075703Y-65704278D01*
X270061000Y-65705000D01*
X268761000Y-65705000D01*
X268746297Y-65704278D01*
X268731736Y-65702118D01*
X268717457Y-65698541D01*
X268703597Y-65693582D01*
X268690290Y-65687288D01*
X268677664Y-65679720D01*
X268665841Y-65670952D01*
X268654934Y-65661066D01*
X268645048Y-65650159D01*
X268636280Y-65638336D01*
X268628712Y-65625710D01*
X268622418Y-65612403D01*
X268617459Y-65598543D01*
X268613882Y-65584264D01*
X268611722Y-65569703D01*
X268611000Y-65555000D01*
X268611000Y-65255000D01*
X268611722Y-65240297D01*
X268613882Y-65225736D01*
X268617459Y-65211457D01*
X268622418Y-65197597D01*
X268628712Y-65184290D01*
X268636280Y-65171664D01*
X268645048Y-65159841D01*
X268654934Y-65148934D01*
X268665841Y-65139048D01*
X268677664Y-65130280D01*
X268690290Y-65122712D01*
X268703597Y-65116418D01*
X268717457Y-65111459D01*
X268731736Y-65107882D01*
X268746297Y-65105722D01*
X268761000Y-65105000D01*
X270061000Y-65105000D01*
X270075703Y-65105722D01*
X270075703Y-65105722D01*
G37*
D14*
X269411000Y-65405000D03*
D10*
G36*
X262875703Y-47071722D02*
G01*
X262890264Y-47073882D01*
X262904543Y-47077459D01*
X262918403Y-47082418D01*
X262931710Y-47088712D01*
X262944336Y-47096280D01*
X262956159Y-47105048D01*
X262967066Y-47114934D01*
X262976952Y-47125841D01*
X262985720Y-47137664D01*
X262993288Y-47150290D01*
X262999582Y-47163597D01*
X263004541Y-47177457D01*
X263008118Y-47191736D01*
X263010278Y-47206297D01*
X263011000Y-47221000D01*
X263011000Y-47521000D01*
X263010278Y-47535703D01*
X263008118Y-47550264D01*
X263004541Y-47564543D01*
X262999582Y-47578403D01*
X262993288Y-47591710D01*
X262985720Y-47604336D01*
X262976952Y-47616159D01*
X262967066Y-47627066D01*
X262956159Y-47636952D01*
X262944336Y-47645720D01*
X262931710Y-47653288D01*
X262918403Y-47659582D01*
X262904543Y-47664541D01*
X262890264Y-47668118D01*
X262875703Y-47670278D01*
X262861000Y-47671000D01*
X261561000Y-47671000D01*
X261546297Y-47670278D01*
X261531736Y-47668118D01*
X261517457Y-47664541D01*
X261503597Y-47659582D01*
X261490290Y-47653288D01*
X261477664Y-47645720D01*
X261465841Y-47636952D01*
X261454934Y-47627066D01*
X261445048Y-47616159D01*
X261436280Y-47604336D01*
X261428712Y-47591710D01*
X261422418Y-47578403D01*
X261417459Y-47564543D01*
X261413882Y-47550264D01*
X261411722Y-47535703D01*
X261411000Y-47521000D01*
X261411000Y-47221000D01*
X261411722Y-47206297D01*
X261413882Y-47191736D01*
X261417459Y-47177457D01*
X261422418Y-47163597D01*
X261428712Y-47150290D01*
X261436280Y-47137664D01*
X261445048Y-47125841D01*
X261454934Y-47114934D01*
X261465841Y-47105048D01*
X261477664Y-47096280D01*
X261490290Y-47088712D01*
X261503597Y-47082418D01*
X261517457Y-47077459D01*
X261531736Y-47073882D01*
X261546297Y-47071722D01*
X261561000Y-47071000D01*
X262861000Y-47071000D01*
X262875703Y-47071722D01*
X262875703Y-47071722D01*
G37*
D14*
X262211000Y-47371000D03*
D10*
G36*
X262875703Y-48341722D02*
G01*
X262890264Y-48343882D01*
X262904543Y-48347459D01*
X262918403Y-48352418D01*
X262931710Y-48358712D01*
X262944336Y-48366280D01*
X262956159Y-48375048D01*
X262967066Y-48384934D01*
X262976952Y-48395841D01*
X262985720Y-48407664D01*
X262993288Y-48420290D01*
X262999582Y-48433597D01*
X263004541Y-48447457D01*
X263008118Y-48461736D01*
X263010278Y-48476297D01*
X263011000Y-48491000D01*
X263011000Y-48791000D01*
X263010278Y-48805703D01*
X263008118Y-48820264D01*
X263004541Y-48834543D01*
X262999582Y-48848403D01*
X262993288Y-48861710D01*
X262985720Y-48874336D01*
X262976952Y-48886159D01*
X262967066Y-48897066D01*
X262956159Y-48906952D01*
X262944336Y-48915720D01*
X262931710Y-48923288D01*
X262918403Y-48929582D01*
X262904543Y-48934541D01*
X262890264Y-48938118D01*
X262875703Y-48940278D01*
X262861000Y-48941000D01*
X261561000Y-48941000D01*
X261546297Y-48940278D01*
X261531736Y-48938118D01*
X261517457Y-48934541D01*
X261503597Y-48929582D01*
X261490290Y-48923288D01*
X261477664Y-48915720D01*
X261465841Y-48906952D01*
X261454934Y-48897066D01*
X261445048Y-48886159D01*
X261436280Y-48874336D01*
X261428712Y-48861710D01*
X261422418Y-48848403D01*
X261417459Y-48834543D01*
X261413882Y-48820264D01*
X261411722Y-48805703D01*
X261411000Y-48791000D01*
X261411000Y-48491000D01*
X261411722Y-48476297D01*
X261413882Y-48461736D01*
X261417459Y-48447457D01*
X261422418Y-48433597D01*
X261428712Y-48420290D01*
X261436280Y-48407664D01*
X261445048Y-48395841D01*
X261454934Y-48384934D01*
X261465841Y-48375048D01*
X261477664Y-48366280D01*
X261490290Y-48358712D01*
X261503597Y-48352418D01*
X261517457Y-48347459D01*
X261531736Y-48343882D01*
X261546297Y-48341722D01*
X261561000Y-48341000D01*
X262861000Y-48341000D01*
X262875703Y-48341722D01*
X262875703Y-48341722D01*
G37*
D14*
X262211000Y-48641000D03*
D10*
G36*
X262875703Y-49611722D02*
G01*
X262890264Y-49613882D01*
X262904543Y-49617459D01*
X262918403Y-49622418D01*
X262931710Y-49628712D01*
X262944336Y-49636280D01*
X262956159Y-49645048D01*
X262967066Y-49654934D01*
X262976952Y-49665841D01*
X262985720Y-49677664D01*
X262993288Y-49690290D01*
X262999582Y-49703597D01*
X263004541Y-49717457D01*
X263008118Y-49731736D01*
X263010278Y-49746297D01*
X263011000Y-49761000D01*
X263011000Y-50061000D01*
X263010278Y-50075703D01*
X263008118Y-50090264D01*
X263004541Y-50104543D01*
X262999582Y-50118403D01*
X262993288Y-50131710D01*
X262985720Y-50144336D01*
X262976952Y-50156159D01*
X262967066Y-50167066D01*
X262956159Y-50176952D01*
X262944336Y-50185720D01*
X262931710Y-50193288D01*
X262918403Y-50199582D01*
X262904543Y-50204541D01*
X262890264Y-50208118D01*
X262875703Y-50210278D01*
X262861000Y-50211000D01*
X261561000Y-50211000D01*
X261546297Y-50210278D01*
X261531736Y-50208118D01*
X261517457Y-50204541D01*
X261503597Y-50199582D01*
X261490290Y-50193288D01*
X261477664Y-50185720D01*
X261465841Y-50176952D01*
X261454934Y-50167066D01*
X261445048Y-50156159D01*
X261436280Y-50144336D01*
X261428712Y-50131710D01*
X261422418Y-50118403D01*
X261417459Y-50104543D01*
X261413882Y-50090264D01*
X261411722Y-50075703D01*
X261411000Y-50061000D01*
X261411000Y-49761000D01*
X261411722Y-49746297D01*
X261413882Y-49731736D01*
X261417459Y-49717457D01*
X261422418Y-49703597D01*
X261428712Y-49690290D01*
X261436280Y-49677664D01*
X261445048Y-49665841D01*
X261454934Y-49654934D01*
X261465841Y-49645048D01*
X261477664Y-49636280D01*
X261490290Y-49628712D01*
X261503597Y-49622418D01*
X261517457Y-49617459D01*
X261531736Y-49613882D01*
X261546297Y-49611722D01*
X261561000Y-49611000D01*
X262861000Y-49611000D01*
X262875703Y-49611722D01*
X262875703Y-49611722D01*
G37*
D14*
X262211000Y-49911000D03*
D10*
G36*
X262875703Y-50881722D02*
G01*
X262890264Y-50883882D01*
X262904543Y-50887459D01*
X262918403Y-50892418D01*
X262931710Y-50898712D01*
X262944336Y-50906280D01*
X262956159Y-50915048D01*
X262967066Y-50924934D01*
X262976952Y-50935841D01*
X262985720Y-50947664D01*
X262993288Y-50960290D01*
X262999582Y-50973597D01*
X263004541Y-50987457D01*
X263008118Y-51001736D01*
X263010278Y-51016297D01*
X263011000Y-51031000D01*
X263011000Y-51331000D01*
X263010278Y-51345703D01*
X263008118Y-51360264D01*
X263004541Y-51374543D01*
X262999582Y-51388403D01*
X262993288Y-51401710D01*
X262985720Y-51414336D01*
X262976952Y-51426159D01*
X262967066Y-51437066D01*
X262956159Y-51446952D01*
X262944336Y-51455720D01*
X262931710Y-51463288D01*
X262918403Y-51469582D01*
X262904543Y-51474541D01*
X262890264Y-51478118D01*
X262875703Y-51480278D01*
X262861000Y-51481000D01*
X261561000Y-51481000D01*
X261546297Y-51480278D01*
X261531736Y-51478118D01*
X261517457Y-51474541D01*
X261503597Y-51469582D01*
X261490290Y-51463288D01*
X261477664Y-51455720D01*
X261465841Y-51446952D01*
X261454934Y-51437066D01*
X261445048Y-51426159D01*
X261436280Y-51414336D01*
X261428712Y-51401710D01*
X261422418Y-51388403D01*
X261417459Y-51374543D01*
X261413882Y-51360264D01*
X261411722Y-51345703D01*
X261411000Y-51331000D01*
X261411000Y-51031000D01*
X261411722Y-51016297D01*
X261413882Y-51001736D01*
X261417459Y-50987457D01*
X261422418Y-50973597D01*
X261428712Y-50960290D01*
X261436280Y-50947664D01*
X261445048Y-50935841D01*
X261454934Y-50924934D01*
X261465841Y-50915048D01*
X261477664Y-50906280D01*
X261490290Y-50898712D01*
X261503597Y-50892418D01*
X261517457Y-50887459D01*
X261531736Y-50883882D01*
X261546297Y-50881722D01*
X261561000Y-50881000D01*
X262861000Y-50881000D01*
X262875703Y-50881722D01*
X262875703Y-50881722D01*
G37*
D14*
X262211000Y-51181000D03*
D10*
G36*
X270075703Y-50881722D02*
G01*
X270090264Y-50883882D01*
X270104543Y-50887459D01*
X270118403Y-50892418D01*
X270131710Y-50898712D01*
X270144336Y-50906280D01*
X270156159Y-50915048D01*
X270167066Y-50924934D01*
X270176952Y-50935841D01*
X270185720Y-50947664D01*
X270193288Y-50960290D01*
X270199582Y-50973597D01*
X270204541Y-50987457D01*
X270208118Y-51001736D01*
X270210278Y-51016297D01*
X270211000Y-51031000D01*
X270211000Y-51331000D01*
X270210278Y-51345703D01*
X270208118Y-51360264D01*
X270204541Y-51374543D01*
X270199582Y-51388403D01*
X270193288Y-51401710D01*
X270185720Y-51414336D01*
X270176952Y-51426159D01*
X270167066Y-51437066D01*
X270156159Y-51446952D01*
X270144336Y-51455720D01*
X270131710Y-51463288D01*
X270118403Y-51469582D01*
X270104543Y-51474541D01*
X270090264Y-51478118D01*
X270075703Y-51480278D01*
X270061000Y-51481000D01*
X268761000Y-51481000D01*
X268746297Y-51480278D01*
X268731736Y-51478118D01*
X268717457Y-51474541D01*
X268703597Y-51469582D01*
X268690290Y-51463288D01*
X268677664Y-51455720D01*
X268665841Y-51446952D01*
X268654934Y-51437066D01*
X268645048Y-51426159D01*
X268636280Y-51414336D01*
X268628712Y-51401710D01*
X268622418Y-51388403D01*
X268617459Y-51374543D01*
X268613882Y-51360264D01*
X268611722Y-51345703D01*
X268611000Y-51331000D01*
X268611000Y-51031000D01*
X268611722Y-51016297D01*
X268613882Y-51001736D01*
X268617459Y-50987457D01*
X268622418Y-50973597D01*
X268628712Y-50960290D01*
X268636280Y-50947664D01*
X268645048Y-50935841D01*
X268654934Y-50924934D01*
X268665841Y-50915048D01*
X268677664Y-50906280D01*
X268690290Y-50898712D01*
X268703597Y-50892418D01*
X268717457Y-50887459D01*
X268731736Y-50883882D01*
X268746297Y-50881722D01*
X268761000Y-50881000D01*
X270061000Y-50881000D01*
X270075703Y-50881722D01*
X270075703Y-50881722D01*
G37*
D14*
X269411000Y-51181000D03*
D10*
G36*
X270075703Y-49611722D02*
G01*
X270090264Y-49613882D01*
X270104543Y-49617459D01*
X270118403Y-49622418D01*
X270131710Y-49628712D01*
X270144336Y-49636280D01*
X270156159Y-49645048D01*
X270167066Y-49654934D01*
X270176952Y-49665841D01*
X270185720Y-49677664D01*
X270193288Y-49690290D01*
X270199582Y-49703597D01*
X270204541Y-49717457D01*
X270208118Y-49731736D01*
X270210278Y-49746297D01*
X270211000Y-49761000D01*
X270211000Y-50061000D01*
X270210278Y-50075703D01*
X270208118Y-50090264D01*
X270204541Y-50104543D01*
X270199582Y-50118403D01*
X270193288Y-50131710D01*
X270185720Y-50144336D01*
X270176952Y-50156159D01*
X270167066Y-50167066D01*
X270156159Y-50176952D01*
X270144336Y-50185720D01*
X270131710Y-50193288D01*
X270118403Y-50199582D01*
X270104543Y-50204541D01*
X270090264Y-50208118D01*
X270075703Y-50210278D01*
X270061000Y-50211000D01*
X268761000Y-50211000D01*
X268746297Y-50210278D01*
X268731736Y-50208118D01*
X268717457Y-50204541D01*
X268703597Y-50199582D01*
X268690290Y-50193288D01*
X268677664Y-50185720D01*
X268665841Y-50176952D01*
X268654934Y-50167066D01*
X268645048Y-50156159D01*
X268636280Y-50144336D01*
X268628712Y-50131710D01*
X268622418Y-50118403D01*
X268617459Y-50104543D01*
X268613882Y-50090264D01*
X268611722Y-50075703D01*
X268611000Y-50061000D01*
X268611000Y-49761000D01*
X268611722Y-49746297D01*
X268613882Y-49731736D01*
X268617459Y-49717457D01*
X268622418Y-49703597D01*
X268628712Y-49690290D01*
X268636280Y-49677664D01*
X268645048Y-49665841D01*
X268654934Y-49654934D01*
X268665841Y-49645048D01*
X268677664Y-49636280D01*
X268690290Y-49628712D01*
X268703597Y-49622418D01*
X268717457Y-49617459D01*
X268731736Y-49613882D01*
X268746297Y-49611722D01*
X268761000Y-49611000D01*
X270061000Y-49611000D01*
X270075703Y-49611722D01*
X270075703Y-49611722D01*
G37*
D14*
X269411000Y-49911000D03*
D10*
G36*
X270075703Y-48341722D02*
G01*
X270090264Y-48343882D01*
X270104543Y-48347459D01*
X270118403Y-48352418D01*
X270131710Y-48358712D01*
X270144336Y-48366280D01*
X270156159Y-48375048D01*
X270167066Y-48384934D01*
X270176952Y-48395841D01*
X270185720Y-48407664D01*
X270193288Y-48420290D01*
X270199582Y-48433597D01*
X270204541Y-48447457D01*
X270208118Y-48461736D01*
X270210278Y-48476297D01*
X270211000Y-48491000D01*
X270211000Y-48791000D01*
X270210278Y-48805703D01*
X270208118Y-48820264D01*
X270204541Y-48834543D01*
X270199582Y-48848403D01*
X270193288Y-48861710D01*
X270185720Y-48874336D01*
X270176952Y-48886159D01*
X270167066Y-48897066D01*
X270156159Y-48906952D01*
X270144336Y-48915720D01*
X270131710Y-48923288D01*
X270118403Y-48929582D01*
X270104543Y-48934541D01*
X270090264Y-48938118D01*
X270075703Y-48940278D01*
X270061000Y-48941000D01*
X268761000Y-48941000D01*
X268746297Y-48940278D01*
X268731736Y-48938118D01*
X268717457Y-48934541D01*
X268703597Y-48929582D01*
X268690290Y-48923288D01*
X268677664Y-48915720D01*
X268665841Y-48906952D01*
X268654934Y-48897066D01*
X268645048Y-48886159D01*
X268636280Y-48874336D01*
X268628712Y-48861710D01*
X268622418Y-48848403D01*
X268617459Y-48834543D01*
X268613882Y-48820264D01*
X268611722Y-48805703D01*
X268611000Y-48791000D01*
X268611000Y-48491000D01*
X268611722Y-48476297D01*
X268613882Y-48461736D01*
X268617459Y-48447457D01*
X268622418Y-48433597D01*
X268628712Y-48420290D01*
X268636280Y-48407664D01*
X268645048Y-48395841D01*
X268654934Y-48384934D01*
X268665841Y-48375048D01*
X268677664Y-48366280D01*
X268690290Y-48358712D01*
X268703597Y-48352418D01*
X268717457Y-48347459D01*
X268731736Y-48343882D01*
X268746297Y-48341722D01*
X268761000Y-48341000D01*
X270061000Y-48341000D01*
X270075703Y-48341722D01*
X270075703Y-48341722D01*
G37*
D14*
X269411000Y-48641000D03*
D10*
G36*
X270075703Y-47071722D02*
G01*
X270090264Y-47073882D01*
X270104543Y-47077459D01*
X270118403Y-47082418D01*
X270131710Y-47088712D01*
X270144336Y-47096280D01*
X270156159Y-47105048D01*
X270167066Y-47114934D01*
X270176952Y-47125841D01*
X270185720Y-47137664D01*
X270193288Y-47150290D01*
X270199582Y-47163597D01*
X270204541Y-47177457D01*
X270208118Y-47191736D01*
X270210278Y-47206297D01*
X270211000Y-47221000D01*
X270211000Y-47521000D01*
X270210278Y-47535703D01*
X270208118Y-47550264D01*
X270204541Y-47564543D01*
X270199582Y-47578403D01*
X270193288Y-47591710D01*
X270185720Y-47604336D01*
X270176952Y-47616159D01*
X270167066Y-47627066D01*
X270156159Y-47636952D01*
X270144336Y-47645720D01*
X270131710Y-47653288D01*
X270118403Y-47659582D01*
X270104543Y-47664541D01*
X270090264Y-47668118D01*
X270075703Y-47670278D01*
X270061000Y-47671000D01*
X268761000Y-47671000D01*
X268746297Y-47670278D01*
X268731736Y-47668118D01*
X268717457Y-47664541D01*
X268703597Y-47659582D01*
X268690290Y-47653288D01*
X268677664Y-47645720D01*
X268665841Y-47636952D01*
X268654934Y-47627066D01*
X268645048Y-47616159D01*
X268636280Y-47604336D01*
X268628712Y-47591710D01*
X268622418Y-47578403D01*
X268617459Y-47564543D01*
X268613882Y-47550264D01*
X268611722Y-47535703D01*
X268611000Y-47521000D01*
X268611000Y-47221000D01*
X268611722Y-47206297D01*
X268613882Y-47191736D01*
X268617459Y-47177457D01*
X268622418Y-47163597D01*
X268628712Y-47150290D01*
X268636280Y-47137664D01*
X268645048Y-47125841D01*
X268654934Y-47114934D01*
X268665841Y-47105048D01*
X268677664Y-47096280D01*
X268690290Y-47088712D01*
X268703597Y-47082418D01*
X268717457Y-47077459D01*
X268731736Y-47073882D01*
X268746297Y-47071722D01*
X268761000Y-47071000D01*
X270061000Y-47071000D01*
X270075703Y-47071722D01*
X270075703Y-47071722D01*
G37*
D14*
X269411000Y-47371000D03*
D10*
G36*
X270075703Y-78059722D02*
G01*
X270090264Y-78061882D01*
X270104543Y-78065459D01*
X270118403Y-78070418D01*
X270131710Y-78076712D01*
X270144336Y-78084280D01*
X270156159Y-78093048D01*
X270167066Y-78102934D01*
X270176952Y-78113841D01*
X270185720Y-78125664D01*
X270193288Y-78138290D01*
X270199582Y-78151597D01*
X270204541Y-78165457D01*
X270208118Y-78179736D01*
X270210278Y-78194297D01*
X270211000Y-78209000D01*
X270211000Y-78509000D01*
X270210278Y-78523703D01*
X270208118Y-78538264D01*
X270204541Y-78552543D01*
X270199582Y-78566403D01*
X270193288Y-78579710D01*
X270185720Y-78592336D01*
X270176952Y-78604159D01*
X270167066Y-78615066D01*
X270156159Y-78624952D01*
X270144336Y-78633720D01*
X270131710Y-78641288D01*
X270118403Y-78647582D01*
X270104543Y-78652541D01*
X270090264Y-78656118D01*
X270075703Y-78658278D01*
X270061000Y-78659000D01*
X268761000Y-78659000D01*
X268746297Y-78658278D01*
X268731736Y-78656118D01*
X268717457Y-78652541D01*
X268703597Y-78647582D01*
X268690290Y-78641288D01*
X268677664Y-78633720D01*
X268665841Y-78624952D01*
X268654934Y-78615066D01*
X268645048Y-78604159D01*
X268636280Y-78592336D01*
X268628712Y-78579710D01*
X268622418Y-78566403D01*
X268617459Y-78552543D01*
X268613882Y-78538264D01*
X268611722Y-78523703D01*
X268611000Y-78509000D01*
X268611000Y-78209000D01*
X268611722Y-78194297D01*
X268613882Y-78179736D01*
X268617459Y-78165457D01*
X268622418Y-78151597D01*
X268628712Y-78138290D01*
X268636280Y-78125664D01*
X268645048Y-78113841D01*
X268654934Y-78102934D01*
X268665841Y-78093048D01*
X268677664Y-78084280D01*
X268690290Y-78076712D01*
X268703597Y-78070418D01*
X268717457Y-78065459D01*
X268731736Y-78061882D01*
X268746297Y-78059722D01*
X268761000Y-78059000D01*
X270061000Y-78059000D01*
X270075703Y-78059722D01*
X270075703Y-78059722D01*
G37*
D14*
X269411000Y-78359000D03*
D10*
G36*
X270075703Y-79329722D02*
G01*
X270090264Y-79331882D01*
X270104543Y-79335459D01*
X270118403Y-79340418D01*
X270131710Y-79346712D01*
X270144336Y-79354280D01*
X270156159Y-79363048D01*
X270167066Y-79372934D01*
X270176952Y-79383841D01*
X270185720Y-79395664D01*
X270193288Y-79408290D01*
X270199582Y-79421597D01*
X270204541Y-79435457D01*
X270208118Y-79449736D01*
X270210278Y-79464297D01*
X270211000Y-79479000D01*
X270211000Y-79779000D01*
X270210278Y-79793703D01*
X270208118Y-79808264D01*
X270204541Y-79822543D01*
X270199582Y-79836403D01*
X270193288Y-79849710D01*
X270185720Y-79862336D01*
X270176952Y-79874159D01*
X270167066Y-79885066D01*
X270156159Y-79894952D01*
X270144336Y-79903720D01*
X270131710Y-79911288D01*
X270118403Y-79917582D01*
X270104543Y-79922541D01*
X270090264Y-79926118D01*
X270075703Y-79928278D01*
X270061000Y-79929000D01*
X268761000Y-79929000D01*
X268746297Y-79928278D01*
X268731736Y-79926118D01*
X268717457Y-79922541D01*
X268703597Y-79917582D01*
X268690290Y-79911288D01*
X268677664Y-79903720D01*
X268665841Y-79894952D01*
X268654934Y-79885066D01*
X268645048Y-79874159D01*
X268636280Y-79862336D01*
X268628712Y-79849710D01*
X268622418Y-79836403D01*
X268617459Y-79822543D01*
X268613882Y-79808264D01*
X268611722Y-79793703D01*
X268611000Y-79779000D01*
X268611000Y-79479000D01*
X268611722Y-79464297D01*
X268613882Y-79449736D01*
X268617459Y-79435457D01*
X268622418Y-79421597D01*
X268628712Y-79408290D01*
X268636280Y-79395664D01*
X268645048Y-79383841D01*
X268654934Y-79372934D01*
X268665841Y-79363048D01*
X268677664Y-79354280D01*
X268690290Y-79346712D01*
X268703597Y-79340418D01*
X268717457Y-79335459D01*
X268731736Y-79331882D01*
X268746297Y-79329722D01*
X268761000Y-79329000D01*
X270061000Y-79329000D01*
X270075703Y-79329722D01*
X270075703Y-79329722D01*
G37*
D14*
X269411000Y-79629000D03*
D10*
G36*
X270075703Y-80599722D02*
G01*
X270090264Y-80601882D01*
X270104543Y-80605459D01*
X270118403Y-80610418D01*
X270131710Y-80616712D01*
X270144336Y-80624280D01*
X270156159Y-80633048D01*
X270167066Y-80642934D01*
X270176952Y-80653841D01*
X270185720Y-80665664D01*
X270193288Y-80678290D01*
X270199582Y-80691597D01*
X270204541Y-80705457D01*
X270208118Y-80719736D01*
X270210278Y-80734297D01*
X270211000Y-80749000D01*
X270211000Y-81049000D01*
X270210278Y-81063703D01*
X270208118Y-81078264D01*
X270204541Y-81092543D01*
X270199582Y-81106403D01*
X270193288Y-81119710D01*
X270185720Y-81132336D01*
X270176952Y-81144159D01*
X270167066Y-81155066D01*
X270156159Y-81164952D01*
X270144336Y-81173720D01*
X270131710Y-81181288D01*
X270118403Y-81187582D01*
X270104543Y-81192541D01*
X270090264Y-81196118D01*
X270075703Y-81198278D01*
X270061000Y-81199000D01*
X268761000Y-81199000D01*
X268746297Y-81198278D01*
X268731736Y-81196118D01*
X268717457Y-81192541D01*
X268703597Y-81187582D01*
X268690290Y-81181288D01*
X268677664Y-81173720D01*
X268665841Y-81164952D01*
X268654934Y-81155066D01*
X268645048Y-81144159D01*
X268636280Y-81132336D01*
X268628712Y-81119710D01*
X268622418Y-81106403D01*
X268617459Y-81092543D01*
X268613882Y-81078264D01*
X268611722Y-81063703D01*
X268611000Y-81049000D01*
X268611000Y-80749000D01*
X268611722Y-80734297D01*
X268613882Y-80719736D01*
X268617459Y-80705457D01*
X268622418Y-80691597D01*
X268628712Y-80678290D01*
X268636280Y-80665664D01*
X268645048Y-80653841D01*
X268654934Y-80642934D01*
X268665841Y-80633048D01*
X268677664Y-80624280D01*
X268690290Y-80616712D01*
X268703597Y-80610418D01*
X268717457Y-80605459D01*
X268731736Y-80601882D01*
X268746297Y-80599722D01*
X268761000Y-80599000D01*
X270061000Y-80599000D01*
X270075703Y-80599722D01*
X270075703Y-80599722D01*
G37*
D14*
X269411000Y-80899000D03*
D10*
G36*
X270075703Y-81869722D02*
G01*
X270090264Y-81871882D01*
X270104543Y-81875459D01*
X270118403Y-81880418D01*
X270131710Y-81886712D01*
X270144336Y-81894280D01*
X270156159Y-81903048D01*
X270167066Y-81912934D01*
X270176952Y-81923841D01*
X270185720Y-81935664D01*
X270193288Y-81948290D01*
X270199582Y-81961597D01*
X270204541Y-81975457D01*
X270208118Y-81989736D01*
X270210278Y-82004297D01*
X270211000Y-82019000D01*
X270211000Y-82319000D01*
X270210278Y-82333703D01*
X270208118Y-82348264D01*
X270204541Y-82362543D01*
X270199582Y-82376403D01*
X270193288Y-82389710D01*
X270185720Y-82402336D01*
X270176952Y-82414159D01*
X270167066Y-82425066D01*
X270156159Y-82434952D01*
X270144336Y-82443720D01*
X270131710Y-82451288D01*
X270118403Y-82457582D01*
X270104543Y-82462541D01*
X270090264Y-82466118D01*
X270075703Y-82468278D01*
X270061000Y-82469000D01*
X268761000Y-82469000D01*
X268746297Y-82468278D01*
X268731736Y-82466118D01*
X268717457Y-82462541D01*
X268703597Y-82457582D01*
X268690290Y-82451288D01*
X268677664Y-82443720D01*
X268665841Y-82434952D01*
X268654934Y-82425066D01*
X268645048Y-82414159D01*
X268636280Y-82402336D01*
X268628712Y-82389710D01*
X268622418Y-82376403D01*
X268617459Y-82362543D01*
X268613882Y-82348264D01*
X268611722Y-82333703D01*
X268611000Y-82319000D01*
X268611000Y-82019000D01*
X268611722Y-82004297D01*
X268613882Y-81989736D01*
X268617459Y-81975457D01*
X268622418Y-81961597D01*
X268628712Y-81948290D01*
X268636280Y-81935664D01*
X268645048Y-81923841D01*
X268654934Y-81912934D01*
X268665841Y-81903048D01*
X268677664Y-81894280D01*
X268690290Y-81886712D01*
X268703597Y-81880418D01*
X268717457Y-81875459D01*
X268731736Y-81871882D01*
X268746297Y-81869722D01*
X268761000Y-81869000D01*
X270061000Y-81869000D01*
X270075703Y-81869722D01*
X270075703Y-81869722D01*
G37*
D14*
X269411000Y-82169000D03*
D10*
G36*
X262875703Y-81869722D02*
G01*
X262890264Y-81871882D01*
X262904543Y-81875459D01*
X262918403Y-81880418D01*
X262931710Y-81886712D01*
X262944336Y-81894280D01*
X262956159Y-81903048D01*
X262967066Y-81912934D01*
X262976952Y-81923841D01*
X262985720Y-81935664D01*
X262993288Y-81948290D01*
X262999582Y-81961597D01*
X263004541Y-81975457D01*
X263008118Y-81989736D01*
X263010278Y-82004297D01*
X263011000Y-82019000D01*
X263011000Y-82319000D01*
X263010278Y-82333703D01*
X263008118Y-82348264D01*
X263004541Y-82362543D01*
X262999582Y-82376403D01*
X262993288Y-82389710D01*
X262985720Y-82402336D01*
X262976952Y-82414159D01*
X262967066Y-82425066D01*
X262956159Y-82434952D01*
X262944336Y-82443720D01*
X262931710Y-82451288D01*
X262918403Y-82457582D01*
X262904543Y-82462541D01*
X262890264Y-82466118D01*
X262875703Y-82468278D01*
X262861000Y-82469000D01*
X261561000Y-82469000D01*
X261546297Y-82468278D01*
X261531736Y-82466118D01*
X261517457Y-82462541D01*
X261503597Y-82457582D01*
X261490290Y-82451288D01*
X261477664Y-82443720D01*
X261465841Y-82434952D01*
X261454934Y-82425066D01*
X261445048Y-82414159D01*
X261436280Y-82402336D01*
X261428712Y-82389710D01*
X261422418Y-82376403D01*
X261417459Y-82362543D01*
X261413882Y-82348264D01*
X261411722Y-82333703D01*
X261411000Y-82319000D01*
X261411000Y-82019000D01*
X261411722Y-82004297D01*
X261413882Y-81989736D01*
X261417459Y-81975457D01*
X261422418Y-81961597D01*
X261428712Y-81948290D01*
X261436280Y-81935664D01*
X261445048Y-81923841D01*
X261454934Y-81912934D01*
X261465841Y-81903048D01*
X261477664Y-81894280D01*
X261490290Y-81886712D01*
X261503597Y-81880418D01*
X261517457Y-81875459D01*
X261531736Y-81871882D01*
X261546297Y-81869722D01*
X261561000Y-81869000D01*
X262861000Y-81869000D01*
X262875703Y-81869722D01*
X262875703Y-81869722D01*
G37*
D14*
X262211000Y-82169000D03*
D10*
G36*
X262875703Y-80599722D02*
G01*
X262890264Y-80601882D01*
X262904543Y-80605459D01*
X262918403Y-80610418D01*
X262931710Y-80616712D01*
X262944336Y-80624280D01*
X262956159Y-80633048D01*
X262967066Y-80642934D01*
X262976952Y-80653841D01*
X262985720Y-80665664D01*
X262993288Y-80678290D01*
X262999582Y-80691597D01*
X263004541Y-80705457D01*
X263008118Y-80719736D01*
X263010278Y-80734297D01*
X263011000Y-80749000D01*
X263011000Y-81049000D01*
X263010278Y-81063703D01*
X263008118Y-81078264D01*
X263004541Y-81092543D01*
X262999582Y-81106403D01*
X262993288Y-81119710D01*
X262985720Y-81132336D01*
X262976952Y-81144159D01*
X262967066Y-81155066D01*
X262956159Y-81164952D01*
X262944336Y-81173720D01*
X262931710Y-81181288D01*
X262918403Y-81187582D01*
X262904543Y-81192541D01*
X262890264Y-81196118D01*
X262875703Y-81198278D01*
X262861000Y-81199000D01*
X261561000Y-81199000D01*
X261546297Y-81198278D01*
X261531736Y-81196118D01*
X261517457Y-81192541D01*
X261503597Y-81187582D01*
X261490290Y-81181288D01*
X261477664Y-81173720D01*
X261465841Y-81164952D01*
X261454934Y-81155066D01*
X261445048Y-81144159D01*
X261436280Y-81132336D01*
X261428712Y-81119710D01*
X261422418Y-81106403D01*
X261417459Y-81092543D01*
X261413882Y-81078264D01*
X261411722Y-81063703D01*
X261411000Y-81049000D01*
X261411000Y-80749000D01*
X261411722Y-80734297D01*
X261413882Y-80719736D01*
X261417459Y-80705457D01*
X261422418Y-80691597D01*
X261428712Y-80678290D01*
X261436280Y-80665664D01*
X261445048Y-80653841D01*
X261454934Y-80642934D01*
X261465841Y-80633048D01*
X261477664Y-80624280D01*
X261490290Y-80616712D01*
X261503597Y-80610418D01*
X261517457Y-80605459D01*
X261531736Y-80601882D01*
X261546297Y-80599722D01*
X261561000Y-80599000D01*
X262861000Y-80599000D01*
X262875703Y-80599722D01*
X262875703Y-80599722D01*
G37*
D14*
X262211000Y-80899000D03*
D10*
G36*
X262875703Y-79329722D02*
G01*
X262890264Y-79331882D01*
X262904543Y-79335459D01*
X262918403Y-79340418D01*
X262931710Y-79346712D01*
X262944336Y-79354280D01*
X262956159Y-79363048D01*
X262967066Y-79372934D01*
X262976952Y-79383841D01*
X262985720Y-79395664D01*
X262993288Y-79408290D01*
X262999582Y-79421597D01*
X263004541Y-79435457D01*
X263008118Y-79449736D01*
X263010278Y-79464297D01*
X263011000Y-79479000D01*
X263011000Y-79779000D01*
X263010278Y-79793703D01*
X263008118Y-79808264D01*
X263004541Y-79822543D01*
X262999582Y-79836403D01*
X262993288Y-79849710D01*
X262985720Y-79862336D01*
X262976952Y-79874159D01*
X262967066Y-79885066D01*
X262956159Y-79894952D01*
X262944336Y-79903720D01*
X262931710Y-79911288D01*
X262918403Y-79917582D01*
X262904543Y-79922541D01*
X262890264Y-79926118D01*
X262875703Y-79928278D01*
X262861000Y-79929000D01*
X261561000Y-79929000D01*
X261546297Y-79928278D01*
X261531736Y-79926118D01*
X261517457Y-79922541D01*
X261503597Y-79917582D01*
X261490290Y-79911288D01*
X261477664Y-79903720D01*
X261465841Y-79894952D01*
X261454934Y-79885066D01*
X261445048Y-79874159D01*
X261436280Y-79862336D01*
X261428712Y-79849710D01*
X261422418Y-79836403D01*
X261417459Y-79822543D01*
X261413882Y-79808264D01*
X261411722Y-79793703D01*
X261411000Y-79779000D01*
X261411000Y-79479000D01*
X261411722Y-79464297D01*
X261413882Y-79449736D01*
X261417459Y-79435457D01*
X261422418Y-79421597D01*
X261428712Y-79408290D01*
X261436280Y-79395664D01*
X261445048Y-79383841D01*
X261454934Y-79372934D01*
X261465841Y-79363048D01*
X261477664Y-79354280D01*
X261490290Y-79346712D01*
X261503597Y-79340418D01*
X261517457Y-79335459D01*
X261531736Y-79331882D01*
X261546297Y-79329722D01*
X261561000Y-79329000D01*
X262861000Y-79329000D01*
X262875703Y-79329722D01*
X262875703Y-79329722D01*
G37*
D14*
X262211000Y-79629000D03*
D10*
G36*
X262875703Y-78059722D02*
G01*
X262890264Y-78061882D01*
X262904543Y-78065459D01*
X262918403Y-78070418D01*
X262931710Y-78076712D01*
X262944336Y-78084280D01*
X262956159Y-78093048D01*
X262967066Y-78102934D01*
X262976952Y-78113841D01*
X262985720Y-78125664D01*
X262993288Y-78138290D01*
X262999582Y-78151597D01*
X263004541Y-78165457D01*
X263008118Y-78179736D01*
X263010278Y-78194297D01*
X263011000Y-78209000D01*
X263011000Y-78509000D01*
X263010278Y-78523703D01*
X263008118Y-78538264D01*
X263004541Y-78552543D01*
X262999582Y-78566403D01*
X262993288Y-78579710D01*
X262985720Y-78592336D01*
X262976952Y-78604159D01*
X262967066Y-78615066D01*
X262956159Y-78624952D01*
X262944336Y-78633720D01*
X262931710Y-78641288D01*
X262918403Y-78647582D01*
X262904543Y-78652541D01*
X262890264Y-78656118D01*
X262875703Y-78658278D01*
X262861000Y-78659000D01*
X261561000Y-78659000D01*
X261546297Y-78658278D01*
X261531736Y-78656118D01*
X261517457Y-78652541D01*
X261503597Y-78647582D01*
X261490290Y-78641288D01*
X261477664Y-78633720D01*
X261465841Y-78624952D01*
X261454934Y-78615066D01*
X261445048Y-78604159D01*
X261436280Y-78592336D01*
X261428712Y-78579710D01*
X261422418Y-78566403D01*
X261417459Y-78552543D01*
X261413882Y-78538264D01*
X261411722Y-78523703D01*
X261411000Y-78509000D01*
X261411000Y-78209000D01*
X261411722Y-78194297D01*
X261413882Y-78179736D01*
X261417459Y-78165457D01*
X261422418Y-78151597D01*
X261428712Y-78138290D01*
X261436280Y-78125664D01*
X261445048Y-78113841D01*
X261454934Y-78102934D01*
X261465841Y-78093048D01*
X261477664Y-78084280D01*
X261490290Y-78076712D01*
X261503597Y-78070418D01*
X261517457Y-78065459D01*
X261531736Y-78061882D01*
X261546297Y-78059722D01*
X261561000Y-78059000D01*
X262861000Y-78059000D01*
X262875703Y-78059722D01*
X262875703Y-78059722D01*
G37*
D14*
X262211000Y-78359000D03*
D15*
X253620000Y-32766000D03*
X256920000Y-32766000D03*
X277748000Y-32766000D03*
X274448000Y-32766000D03*
M02*
