G04 #@! TF.GenerationSoftware,KiCad,Pcbnew,5.1.4*
G04 #@! TF.CreationDate,2019-09-20T20:02:23+02:00*
G04 #@! TF.ProjectId,PolivoksVCF,506f6c69-766f-46b7-9356-43462e6b6963,rev?*
G04 #@! TF.SameCoordinates,Original*
G04 #@! TF.FileFunction,Soldermask,Top*
G04 #@! TF.FilePolarity,Negative*
%FSLAX46Y46*%
G04 Gerber Fmt 4.6, Leading zero omitted, Abs format (unit mm)*
G04 Created by KiCad (PCBNEW 5.1.4) date 2019-09-20 20:02:23*
%MOMM*%
%LPD*%
G04 APERTURE LIST*
%ADD10C,0.100000*%
G04 APERTURE END LIST*
D10*
G36*
X273806083Y-118366581D02*
G01*
X273876420Y-118380572D01*
X274075188Y-118462905D01*
X274254074Y-118582433D01*
X274406204Y-118734563D01*
X274525732Y-118913449D01*
X274608065Y-119112217D01*
X274650037Y-119323228D01*
X274650037Y-119538372D01*
X274608065Y-119749383D01*
X274525732Y-119948151D01*
X274406204Y-120127037D01*
X274254074Y-120279167D01*
X274075188Y-120398695D01*
X273876420Y-120481028D01*
X273807906Y-120494656D01*
X273707123Y-120514703D01*
X273683674Y-120521816D01*
X273662063Y-120533367D01*
X273643121Y-120548912D01*
X273627576Y-120567854D01*
X273616025Y-120589465D01*
X273608912Y-120612914D01*
X273606510Y-120637300D01*
X273608912Y-120661686D01*
X273616025Y-120685135D01*
X273627576Y-120706746D01*
X273643121Y-120725688D01*
X273662063Y-120741233D01*
X273683674Y-120752784D01*
X273707123Y-120759897D01*
X273807906Y-120779944D01*
X273876420Y-120793572D01*
X274075188Y-120875905D01*
X274254074Y-120995433D01*
X274406204Y-121147563D01*
X274525732Y-121326449D01*
X274608065Y-121525217D01*
X274650037Y-121736228D01*
X274650037Y-121951372D01*
X274608065Y-122162383D01*
X274525732Y-122361151D01*
X274406204Y-122540037D01*
X274254074Y-122692167D01*
X274075188Y-122811695D01*
X273876420Y-122894028D01*
X273806083Y-122908019D01*
X273665411Y-122936000D01*
X273450263Y-122936000D01*
X273309591Y-122908019D01*
X273239254Y-122894028D01*
X273040486Y-122811695D01*
X272861600Y-122692167D01*
X272709470Y-122540037D01*
X272589942Y-122361151D01*
X272507609Y-122162383D01*
X272465637Y-121951372D01*
X272465637Y-121736228D01*
X272507609Y-121525217D01*
X272589942Y-121326449D01*
X272709470Y-121147563D01*
X272861600Y-120995433D01*
X273040486Y-120875905D01*
X273239254Y-120793572D01*
X273307768Y-120779944D01*
X273408551Y-120759897D01*
X273432000Y-120752784D01*
X273453611Y-120741233D01*
X273472553Y-120725688D01*
X273488098Y-120706746D01*
X273499649Y-120685135D01*
X273506762Y-120661686D01*
X273509164Y-120637300D01*
X273506762Y-120612914D01*
X273499649Y-120589465D01*
X273488098Y-120567854D01*
X273472553Y-120548912D01*
X273453611Y-120533367D01*
X273432000Y-120521816D01*
X273408551Y-120514703D01*
X273307768Y-120494656D01*
X273239254Y-120481028D01*
X273040486Y-120398695D01*
X272861600Y-120279167D01*
X272709470Y-120127037D01*
X272589942Y-119948151D01*
X272507609Y-119749383D01*
X272465637Y-119538372D01*
X272465637Y-119323228D01*
X272507609Y-119112217D01*
X272589942Y-118913449D01*
X272709470Y-118734563D01*
X272861600Y-118582433D01*
X273040486Y-118462905D01*
X273239254Y-118380572D01*
X273309591Y-118366581D01*
X273450263Y-118338600D01*
X273665411Y-118338600D01*
X273806083Y-118366581D01*
X273806083Y-118366581D01*
G37*
G36*
X258058083Y-118366581D02*
G01*
X258128420Y-118380572D01*
X258327188Y-118462905D01*
X258506074Y-118582433D01*
X258658204Y-118734563D01*
X258777732Y-118913449D01*
X258860065Y-119112217D01*
X258902037Y-119323228D01*
X258902037Y-119538372D01*
X258860065Y-119749383D01*
X258777732Y-119948151D01*
X258658204Y-120127037D01*
X258506074Y-120279167D01*
X258327188Y-120398695D01*
X258128420Y-120481028D01*
X258059906Y-120494656D01*
X257959123Y-120514703D01*
X257935674Y-120521816D01*
X257914063Y-120533367D01*
X257895121Y-120548912D01*
X257879576Y-120567854D01*
X257868025Y-120589465D01*
X257860912Y-120612914D01*
X257858510Y-120637300D01*
X257860912Y-120661686D01*
X257868025Y-120685135D01*
X257879576Y-120706746D01*
X257895121Y-120725688D01*
X257914063Y-120741233D01*
X257935674Y-120752784D01*
X257959123Y-120759897D01*
X258059906Y-120779944D01*
X258128420Y-120793572D01*
X258327188Y-120875905D01*
X258506074Y-120995433D01*
X258658204Y-121147563D01*
X258777732Y-121326449D01*
X258860065Y-121525217D01*
X258902037Y-121736228D01*
X258902037Y-121951372D01*
X258860065Y-122162383D01*
X258777732Y-122361151D01*
X258658204Y-122540037D01*
X258506074Y-122692167D01*
X258327188Y-122811695D01*
X258128420Y-122894028D01*
X258058083Y-122908019D01*
X257917411Y-122936000D01*
X257702263Y-122936000D01*
X257561591Y-122908019D01*
X257491254Y-122894028D01*
X257292486Y-122811695D01*
X257113600Y-122692167D01*
X256961470Y-122540037D01*
X256841942Y-122361151D01*
X256759609Y-122162383D01*
X256717637Y-121951372D01*
X256717637Y-121736228D01*
X256759609Y-121525217D01*
X256841942Y-121326449D01*
X256961470Y-121147563D01*
X257113600Y-120995433D01*
X257292486Y-120875905D01*
X257491254Y-120793572D01*
X257559768Y-120779944D01*
X257660551Y-120759897D01*
X257684000Y-120752784D01*
X257705611Y-120741233D01*
X257724553Y-120725688D01*
X257740098Y-120706746D01*
X257751649Y-120685135D01*
X257758762Y-120661686D01*
X257761164Y-120637300D01*
X257758762Y-120612914D01*
X257751649Y-120589465D01*
X257740098Y-120567854D01*
X257724553Y-120548912D01*
X257705611Y-120533367D01*
X257684000Y-120521816D01*
X257660551Y-120514703D01*
X257559768Y-120494656D01*
X257491254Y-120481028D01*
X257292486Y-120398695D01*
X257113600Y-120279167D01*
X256961470Y-120127037D01*
X256841942Y-119948151D01*
X256759609Y-119749383D01*
X256717637Y-119538372D01*
X256717637Y-119323228D01*
X256759609Y-119112217D01*
X256841942Y-118913449D01*
X256961470Y-118734563D01*
X257113600Y-118582433D01*
X257292486Y-118462905D01*
X257491254Y-118380572D01*
X257561591Y-118366581D01*
X257702263Y-118338600D01*
X257917411Y-118338600D01*
X258058083Y-118366581D01*
X258058083Y-118366581D01*
G37*
G36*
X273981078Y-114682760D02*
G01*
X274245142Y-114792139D01*
X274482795Y-114950934D01*
X274684903Y-115153042D01*
X274843698Y-115390695D01*
X274953077Y-115654759D01*
X275008837Y-115935088D01*
X275008837Y-116220912D01*
X274953077Y-116501241D01*
X274843698Y-116765305D01*
X274684903Y-117002958D01*
X274482795Y-117205066D01*
X274245142Y-117363861D01*
X273981078Y-117473240D01*
X273700749Y-117529000D01*
X273414925Y-117529000D01*
X273134596Y-117473240D01*
X272870532Y-117363861D01*
X272632879Y-117205066D01*
X272430771Y-117002958D01*
X272271976Y-116765305D01*
X272162597Y-116501241D01*
X272106837Y-116220912D01*
X272106837Y-115935088D01*
X272162597Y-115654759D01*
X272271976Y-115390695D01*
X272430771Y-115153042D01*
X272632879Y-114950934D01*
X272870532Y-114792139D01*
X273134596Y-114682760D01*
X273414925Y-114627000D01*
X273700749Y-114627000D01*
X273981078Y-114682760D01*
X273981078Y-114682760D01*
G37*
G36*
X258233078Y-114682760D02*
G01*
X258497142Y-114792139D01*
X258734795Y-114950934D01*
X258936903Y-115153042D01*
X259095698Y-115390695D01*
X259205077Y-115654759D01*
X259260837Y-115935088D01*
X259260837Y-116220912D01*
X259205077Y-116501241D01*
X259095698Y-116765305D01*
X258936903Y-117002958D01*
X258734795Y-117205066D01*
X258497142Y-117363861D01*
X258233078Y-117473240D01*
X257952749Y-117529000D01*
X257666925Y-117529000D01*
X257386596Y-117473240D01*
X257122532Y-117363861D01*
X256884879Y-117205066D01*
X256682771Y-117002958D01*
X256523976Y-116765305D01*
X256414597Y-116501241D01*
X256358837Y-116220912D01*
X256358837Y-115935088D01*
X256414597Y-115654759D01*
X256523976Y-115390695D01*
X256682771Y-115153042D01*
X256884879Y-114950934D01*
X257122532Y-114792139D01*
X257386596Y-114682760D01*
X257666925Y-114627000D01*
X257952749Y-114627000D01*
X258233078Y-114682760D01*
X258233078Y-114682760D01*
G37*
G36*
X258058083Y-109806781D02*
G01*
X258128420Y-109820772D01*
X258327188Y-109903105D01*
X258506074Y-110022633D01*
X258658204Y-110174763D01*
X258777732Y-110353649D01*
X258860065Y-110552417D01*
X258902037Y-110763428D01*
X258902037Y-110978572D01*
X258860065Y-111189583D01*
X258777732Y-111388351D01*
X258658204Y-111567237D01*
X258506074Y-111719367D01*
X258327188Y-111838895D01*
X258128420Y-111921228D01*
X258058083Y-111935219D01*
X257917411Y-111963200D01*
X257702263Y-111963200D01*
X257561591Y-111935219D01*
X257491254Y-111921228D01*
X257292486Y-111838895D01*
X257113600Y-111719367D01*
X256961470Y-111567237D01*
X256841942Y-111388351D01*
X256759609Y-111189583D01*
X256717637Y-110978572D01*
X256717637Y-110763428D01*
X256759609Y-110552417D01*
X256841942Y-110353649D01*
X256961470Y-110174763D01*
X257113600Y-110022633D01*
X257292486Y-109903105D01*
X257491254Y-109820772D01*
X257561591Y-109806781D01*
X257702263Y-109778800D01*
X257917411Y-109778800D01*
X258058083Y-109806781D01*
X258058083Y-109806781D01*
G37*
G36*
X273806083Y-109806781D02*
G01*
X273876420Y-109820772D01*
X274075188Y-109903105D01*
X274254074Y-110022633D01*
X274406204Y-110174763D01*
X274525732Y-110353649D01*
X274608065Y-110552417D01*
X274650037Y-110763428D01*
X274650037Y-110978572D01*
X274608065Y-111189583D01*
X274525732Y-111388351D01*
X274406204Y-111567237D01*
X274254074Y-111719367D01*
X274075188Y-111838895D01*
X273876420Y-111921228D01*
X273806083Y-111935219D01*
X273665411Y-111963200D01*
X273450263Y-111963200D01*
X273309591Y-111935219D01*
X273239254Y-111921228D01*
X273040486Y-111838895D01*
X272861600Y-111719367D01*
X272709470Y-111567237D01*
X272589942Y-111388351D01*
X272507609Y-111189583D01*
X272465637Y-110978572D01*
X272465637Y-110763428D01*
X272507609Y-110552417D01*
X272589942Y-110353649D01*
X272709470Y-110174763D01*
X272861600Y-110022633D01*
X273040486Y-109903105D01*
X273239254Y-109820772D01*
X273309591Y-109806781D01*
X273450263Y-109778800D01*
X273665411Y-109778800D01*
X273806083Y-109806781D01*
X273806083Y-109806781D01*
G37*
G36*
X273806083Y-104396581D02*
G01*
X273876420Y-104410572D01*
X274075188Y-104492905D01*
X274254074Y-104612433D01*
X274406204Y-104764563D01*
X274525732Y-104943449D01*
X274608065Y-105142217D01*
X274650037Y-105353228D01*
X274650037Y-105568372D01*
X274608065Y-105779383D01*
X274525732Y-105978151D01*
X274406204Y-106157037D01*
X274254074Y-106309167D01*
X274075188Y-106428695D01*
X273876420Y-106511028D01*
X273807906Y-106524656D01*
X273707123Y-106544703D01*
X273683674Y-106551816D01*
X273662063Y-106563367D01*
X273643121Y-106578912D01*
X273627576Y-106597854D01*
X273616025Y-106619465D01*
X273608912Y-106642914D01*
X273606510Y-106667300D01*
X273608912Y-106691686D01*
X273616025Y-106715135D01*
X273627576Y-106736746D01*
X273643121Y-106755688D01*
X273662063Y-106771233D01*
X273683674Y-106782784D01*
X273707123Y-106789897D01*
X273807906Y-106809944D01*
X273876420Y-106823572D01*
X274075188Y-106905905D01*
X274254074Y-107025433D01*
X274406204Y-107177563D01*
X274525732Y-107356449D01*
X274608065Y-107555217D01*
X274650037Y-107766228D01*
X274650037Y-107981372D01*
X274608065Y-108192383D01*
X274525732Y-108391151D01*
X274406204Y-108570037D01*
X274254074Y-108722167D01*
X274075188Y-108841695D01*
X273876420Y-108924028D01*
X273806083Y-108938019D01*
X273665411Y-108966000D01*
X273450263Y-108966000D01*
X273309591Y-108938019D01*
X273239254Y-108924028D01*
X273040486Y-108841695D01*
X272861600Y-108722167D01*
X272709470Y-108570037D01*
X272589942Y-108391151D01*
X272507609Y-108192383D01*
X272465637Y-107981372D01*
X272465637Y-107766228D01*
X272507609Y-107555217D01*
X272589942Y-107356449D01*
X272709470Y-107177563D01*
X272861600Y-107025433D01*
X273040486Y-106905905D01*
X273239254Y-106823572D01*
X273307768Y-106809944D01*
X273408551Y-106789897D01*
X273432000Y-106782784D01*
X273453611Y-106771233D01*
X273472553Y-106755688D01*
X273488098Y-106736746D01*
X273499649Y-106715135D01*
X273506762Y-106691686D01*
X273509164Y-106667300D01*
X273506762Y-106642914D01*
X273499649Y-106619465D01*
X273488098Y-106597854D01*
X273472553Y-106578912D01*
X273453611Y-106563367D01*
X273432000Y-106551816D01*
X273408551Y-106544703D01*
X273307768Y-106524656D01*
X273239254Y-106511028D01*
X273040486Y-106428695D01*
X272861600Y-106309167D01*
X272709470Y-106157037D01*
X272589942Y-105978151D01*
X272507609Y-105779383D01*
X272465637Y-105568372D01*
X272465637Y-105353228D01*
X272507609Y-105142217D01*
X272589942Y-104943449D01*
X272709470Y-104764563D01*
X272861600Y-104612433D01*
X273040486Y-104492905D01*
X273239254Y-104410572D01*
X273309591Y-104396581D01*
X273450263Y-104368600D01*
X273665411Y-104368600D01*
X273806083Y-104396581D01*
X273806083Y-104396581D01*
G37*
G36*
X258058083Y-104396581D02*
G01*
X258128420Y-104410572D01*
X258327188Y-104492905D01*
X258506074Y-104612433D01*
X258658204Y-104764563D01*
X258777732Y-104943449D01*
X258860065Y-105142217D01*
X258902037Y-105353228D01*
X258902037Y-105568372D01*
X258860065Y-105779383D01*
X258777732Y-105978151D01*
X258658204Y-106157037D01*
X258506074Y-106309167D01*
X258327188Y-106428695D01*
X258128420Y-106511028D01*
X258059906Y-106524656D01*
X257959123Y-106544703D01*
X257935674Y-106551816D01*
X257914063Y-106563367D01*
X257895121Y-106578912D01*
X257879576Y-106597854D01*
X257868025Y-106619465D01*
X257860912Y-106642914D01*
X257858510Y-106667300D01*
X257860912Y-106691686D01*
X257868025Y-106715135D01*
X257879576Y-106736746D01*
X257895121Y-106755688D01*
X257914063Y-106771233D01*
X257935674Y-106782784D01*
X257959123Y-106789897D01*
X258059906Y-106809944D01*
X258128420Y-106823572D01*
X258327188Y-106905905D01*
X258506074Y-107025433D01*
X258658204Y-107177563D01*
X258777732Y-107356449D01*
X258860065Y-107555217D01*
X258902037Y-107766228D01*
X258902037Y-107981372D01*
X258860065Y-108192383D01*
X258777732Y-108391151D01*
X258658204Y-108570037D01*
X258506074Y-108722167D01*
X258327188Y-108841695D01*
X258128420Y-108924028D01*
X258058083Y-108938019D01*
X257917411Y-108966000D01*
X257702263Y-108966000D01*
X257561591Y-108938019D01*
X257491254Y-108924028D01*
X257292486Y-108841695D01*
X257113600Y-108722167D01*
X256961470Y-108570037D01*
X256841942Y-108391151D01*
X256759609Y-108192383D01*
X256717637Y-107981372D01*
X256717637Y-107766228D01*
X256759609Y-107555217D01*
X256841942Y-107356449D01*
X256961470Y-107177563D01*
X257113600Y-107025433D01*
X257292486Y-106905905D01*
X257491254Y-106823572D01*
X257559768Y-106809944D01*
X257660551Y-106789897D01*
X257684000Y-106782784D01*
X257705611Y-106771233D01*
X257724553Y-106755688D01*
X257740098Y-106736746D01*
X257751649Y-106715135D01*
X257758762Y-106691686D01*
X257761164Y-106667300D01*
X257758762Y-106642914D01*
X257751649Y-106619465D01*
X257740098Y-106597854D01*
X257724553Y-106578912D01*
X257705611Y-106563367D01*
X257684000Y-106551816D01*
X257660551Y-106544703D01*
X257559768Y-106524656D01*
X257491254Y-106511028D01*
X257292486Y-106428695D01*
X257113600Y-106309167D01*
X256961470Y-106157037D01*
X256841942Y-105978151D01*
X256759609Y-105779383D01*
X256717637Y-105568372D01*
X256717637Y-105353228D01*
X256759609Y-105142217D01*
X256841942Y-104943449D01*
X256961470Y-104764563D01*
X257113600Y-104612433D01*
X257292486Y-104492905D01*
X257491254Y-104410572D01*
X257561591Y-104396581D01*
X257702263Y-104368600D01*
X257917411Y-104368600D01*
X258058083Y-104396581D01*
X258058083Y-104396581D01*
G37*
G36*
X258233078Y-100712760D02*
G01*
X258497142Y-100822139D01*
X258734795Y-100980934D01*
X258936903Y-101183042D01*
X259095698Y-101420695D01*
X259205077Y-101684759D01*
X259260837Y-101965088D01*
X259260837Y-102250912D01*
X259205077Y-102531241D01*
X259095698Y-102795305D01*
X258936903Y-103032958D01*
X258734795Y-103235066D01*
X258497142Y-103393861D01*
X258233078Y-103503240D01*
X257952749Y-103559000D01*
X257666925Y-103559000D01*
X257386596Y-103503240D01*
X257122532Y-103393861D01*
X256884879Y-103235066D01*
X256682771Y-103032958D01*
X256523976Y-102795305D01*
X256414597Y-102531241D01*
X256358837Y-102250912D01*
X256358837Y-101965088D01*
X256414597Y-101684759D01*
X256523976Y-101420695D01*
X256682771Y-101183042D01*
X256884879Y-100980934D01*
X257122532Y-100822139D01*
X257386596Y-100712760D01*
X257666925Y-100657000D01*
X257952749Y-100657000D01*
X258233078Y-100712760D01*
X258233078Y-100712760D01*
G37*
G36*
X273981078Y-100712760D02*
G01*
X274245142Y-100822139D01*
X274482795Y-100980934D01*
X274684903Y-101183042D01*
X274843698Y-101420695D01*
X274953077Y-101684759D01*
X275008837Y-101965088D01*
X275008837Y-102250912D01*
X274953077Y-102531241D01*
X274843698Y-102795305D01*
X274684903Y-103032958D01*
X274482795Y-103235066D01*
X274245142Y-103393861D01*
X273981078Y-103503240D01*
X273700749Y-103559000D01*
X273414925Y-103559000D01*
X273134596Y-103503240D01*
X272870532Y-103393861D01*
X272632879Y-103235066D01*
X272430771Y-103032958D01*
X272271976Y-102795305D01*
X272162597Y-102531241D01*
X272106837Y-102250912D01*
X272106837Y-101965088D01*
X272162597Y-101684759D01*
X272271976Y-101420695D01*
X272430771Y-101183042D01*
X272632879Y-100980934D01*
X272870532Y-100822139D01*
X273134596Y-100712760D01*
X273414925Y-100657000D01*
X273700749Y-100657000D01*
X273981078Y-100712760D01*
X273981078Y-100712760D01*
G37*
G36*
X258058083Y-95836781D02*
G01*
X258128420Y-95850772D01*
X258327188Y-95933105D01*
X258506074Y-96052633D01*
X258658204Y-96204763D01*
X258777732Y-96383649D01*
X258860065Y-96582417D01*
X258902037Y-96793428D01*
X258902037Y-97008572D01*
X258860065Y-97219583D01*
X258777732Y-97418351D01*
X258658204Y-97597237D01*
X258506074Y-97749367D01*
X258327188Y-97868895D01*
X258128420Y-97951228D01*
X258058083Y-97965219D01*
X257917411Y-97993200D01*
X257702263Y-97993200D01*
X257561591Y-97965219D01*
X257491254Y-97951228D01*
X257292486Y-97868895D01*
X257113600Y-97749367D01*
X256961470Y-97597237D01*
X256841942Y-97418351D01*
X256759609Y-97219583D01*
X256717637Y-97008572D01*
X256717637Y-96793428D01*
X256759609Y-96582417D01*
X256841942Y-96383649D01*
X256961470Y-96204763D01*
X257113600Y-96052633D01*
X257292486Y-95933105D01*
X257491254Y-95850772D01*
X257561591Y-95836781D01*
X257702263Y-95808800D01*
X257917411Y-95808800D01*
X258058083Y-95836781D01*
X258058083Y-95836781D01*
G37*
G36*
X273806083Y-95836781D02*
G01*
X273876420Y-95850772D01*
X274075188Y-95933105D01*
X274254074Y-96052633D01*
X274406204Y-96204763D01*
X274525732Y-96383649D01*
X274608065Y-96582417D01*
X274650037Y-96793428D01*
X274650037Y-97008572D01*
X274608065Y-97219583D01*
X274525732Y-97418351D01*
X274406204Y-97597237D01*
X274254074Y-97749367D01*
X274075188Y-97868895D01*
X273876420Y-97951228D01*
X273806083Y-97965219D01*
X273665411Y-97993200D01*
X273450263Y-97993200D01*
X273309591Y-97965219D01*
X273239254Y-97951228D01*
X273040486Y-97868895D01*
X272861600Y-97749367D01*
X272709470Y-97597237D01*
X272589942Y-97418351D01*
X272507609Y-97219583D01*
X272465637Y-97008572D01*
X272465637Y-96793428D01*
X272507609Y-96582417D01*
X272589942Y-96383649D01*
X272709470Y-96204763D01*
X272861600Y-96052633D01*
X273040486Y-95933105D01*
X273239254Y-95850772D01*
X273309591Y-95836781D01*
X273450263Y-95808800D01*
X273665411Y-95808800D01*
X273806083Y-95836781D01*
X273806083Y-95836781D01*
G37*
G36*
X260627729Y-91694154D02*
G01*
X260801110Y-91765971D01*
X260957148Y-91870232D01*
X261089848Y-92002932D01*
X261194109Y-92158970D01*
X261265926Y-92332351D01*
X261302537Y-92516410D01*
X261302537Y-92704076D01*
X261265926Y-92888135D01*
X261194109Y-93061516D01*
X261089848Y-93217554D01*
X260957148Y-93350254D01*
X260801110Y-93454515D01*
X260801109Y-93454516D01*
X260801108Y-93454516D01*
X260627729Y-93526332D01*
X260443671Y-93562943D01*
X260256003Y-93562943D01*
X260071945Y-93526332D01*
X259898566Y-93454516D01*
X259898565Y-93454516D01*
X259898564Y-93454515D01*
X259742526Y-93350254D01*
X259609826Y-93217554D01*
X259505565Y-93061516D01*
X259433748Y-92888135D01*
X259397137Y-92704076D01*
X259397137Y-92516410D01*
X259433748Y-92332351D01*
X259505565Y-92158970D01*
X259609826Y-92002932D01*
X259742526Y-91870232D01*
X259898564Y-91765971D01*
X260071945Y-91694154D01*
X260256003Y-91657543D01*
X260443671Y-91657543D01*
X260627729Y-91694154D01*
X260627729Y-91694154D01*
G37*
G36*
X276375729Y-91694154D02*
G01*
X276549110Y-91765971D01*
X276705148Y-91870232D01*
X276837848Y-92002932D01*
X276942109Y-92158970D01*
X277013926Y-92332351D01*
X277050537Y-92516410D01*
X277050537Y-92704076D01*
X277013926Y-92888135D01*
X276942109Y-93061516D01*
X276837848Y-93217554D01*
X276705148Y-93350254D01*
X276549110Y-93454515D01*
X276549109Y-93454516D01*
X276549108Y-93454516D01*
X276375729Y-93526332D01*
X276191671Y-93562943D01*
X276004003Y-93562943D01*
X275819945Y-93526332D01*
X275646566Y-93454516D01*
X275646565Y-93454516D01*
X275646564Y-93454515D01*
X275490526Y-93350254D01*
X275357826Y-93217554D01*
X275253565Y-93061516D01*
X275181748Y-92888135D01*
X275145137Y-92704076D01*
X275145137Y-92516410D01*
X275181748Y-92332351D01*
X275253565Y-92158970D01*
X275357826Y-92002932D01*
X275490526Y-91870232D01*
X275646564Y-91765971D01*
X275819945Y-91694154D01*
X276004003Y-91657543D01*
X276191671Y-91657543D01*
X276375729Y-91694154D01*
X276375729Y-91694154D01*
G37*
G36*
X273835729Y-91694154D02*
G01*
X274009110Y-91765971D01*
X274165148Y-91870232D01*
X274297848Y-92002932D01*
X274402109Y-92158970D01*
X274473926Y-92332351D01*
X274510537Y-92516410D01*
X274510537Y-92704076D01*
X274473926Y-92888135D01*
X274402109Y-93061516D01*
X274297848Y-93217554D01*
X274165148Y-93350254D01*
X274009110Y-93454515D01*
X274009109Y-93454516D01*
X274009108Y-93454516D01*
X273835729Y-93526332D01*
X273651671Y-93562943D01*
X273464003Y-93562943D01*
X273279945Y-93526332D01*
X273106566Y-93454516D01*
X273106565Y-93454516D01*
X273106564Y-93454515D01*
X272950526Y-93350254D01*
X272817826Y-93217554D01*
X272713565Y-93061516D01*
X272641748Y-92888135D01*
X272605137Y-92704076D01*
X272605137Y-92516410D01*
X272641748Y-92332351D01*
X272713565Y-92158970D01*
X272817826Y-92002932D01*
X272950526Y-91870232D01*
X273106564Y-91765971D01*
X273279945Y-91694154D01*
X273464003Y-91657543D01*
X273651671Y-91657543D01*
X273835729Y-91694154D01*
X273835729Y-91694154D01*
G37*
G36*
X258087729Y-91694154D02*
G01*
X258261110Y-91765971D01*
X258417148Y-91870232D01*
X258549848Y-92002932D01*
X258654109Y-92158970D01*
X258725926Y-92332351D01*
X258762537Y-92516410D01*
X258762537Y-92704076D01*
X258725926Y-92888135D01*
X258654109Y-93061516D01*
X258549848Y-93217554D01*
X258417148Y-93350254D01*
X258261110Y-93454515D01*
X258261109Y-93454516D01*
X258261108Y-93454516D01*
X258087729Y-93526332D01*
X257903671Y-93562943D01*
X257716003Y-93562943D01*
X257531945Y-93526332D01*
X257358566Y-93454516D01*
X257358565Y-93454516D01*
X257358564Y-93454515D01*
X257202526Y-93350254D01*
X257069826Y-93217554D01*
X256965565Y-93061516D01*
X256893748Y-92888135D01*
X256857137Y-92704076D01*
X256857137Y-92516410D01*
X256893748Y-92332351D01*
X256965565Y-92158970D01*
X257069826Y-92002932D01*
X257202526Y-91870232D01*
X257358564Y-91765971D01*
X257531945Y-91694154D01*
X257716003Y-91657543D01*
X257903671Y-91657543D01*
X258087729Y-91694154D01*
X258087729Y-91694154D01*
G37*
G36*
X255547729Y-91694154D02*
G01*
X255721110Y-91765971D01*
X255877148Y-91870232D01*
X256009848Y-92002932D01*
X256114109Y-92158970D01*
X256185926Y-92332351D01*
X256222537Y-92516410D01*
X256222537Y-92704076D01*
X256185926Y-92888135D01*
X256114109Y-93061516D01*
X256009848Y-93217554D01*
X255877148Y-93350254D01*
X255721110Y-93454515D01*
X255721109Y-93454516D01*
X255721108Y-93454516D01*
X255547729Y-93526332D01*
X255363671Y-93562943D01*
X255176003Y-93562943D01*
X254991945Y-93526332D01*
X254818566Y-93454516D01*
X254818565Y-93454516D01*
X254818564Y-93454515D01*
X254662526Y-93350254D01*
X254529826Y-93217554D01*
X254425565Y-93061516D01*
X254353748Y-92888135D01*
X254317137Y-92704076D01*
X254317137Y-92516410D01*
X254353748Y-92332351D01*
X254425565Y-92158970D01*
X254529826Y-92002932D01*
X254662526Y-91870232D01*
X254818564Y-91765971D01*
X254991945Y-91694154D01*
X255176003Y-91657543D01*
X255363671Y-91657543D01*
X255547729Y-91694154D01*
X255547729Y-91694154D01*
G37*
G36*
X271295729Y-91694154D02*
G01*
X271469110Y-91765971D01*
X271625148Y-91870232D01*
X271757848Y-92002932D01*
X271862109Y-92158970D01*
X271933926Y-92332351D01*
X271970537Y-92516410D01*
X271970537Y-92704076D01*
X271933926Y-92888135D01*
X271862109Y-93061516D01*
X271757848Y-93217554D01*
X271625148Y-93350254D01*
X271469110Y-93454515D01*
X271469109Y-93454516D01*
X271469108Y-93454516D01*
X271295729Y-93526332D01*
X271111671Y-93562943D01*
X270924003Y-93562943D01*
X270739945Y-93526332D01*
X270566566Y-93454516D01*
X270566565Y-93454516D01*
X270566564Y-93454515D01*
X270410526Y-93350254D01*
X270277826Y-93217554D01*
X270173565Y-93061516D01*
X270101748Y-92888135D01*
X270065137Y-92704076D01*
X270065137Y-92516410D01*
X270101748Y-92332351D01*
X270173565Y-92158970D01*
X270277826Y-92002932D01*
X270410526Y-91870232D01*
X270566564Y-91765971D01*
X270739945Y-91694154D01*
X270924003Y-91657543D01*
X271111671Y-91657543D01*
X271295729Y-91694154D01*
X271295729Y-91694154D01*
G37*
G36*
X269567480Y-84268548D02*
G01*
X269750342Y-84344292D01*
X269819444Y-84372915D01*
X269840570Y-84387031D01*
X270046204Y-84524431D01*
X270239049Y-84717276D01*
X270390566Y-84944038D01*
X270494932Y-85196000D01*
X270548137Y-85463480D01*
X270548137Y-85736206D01*
X270494932Y-86003686D01*
X270390566Y-86255648D01*
X270239049Y-86482410D01*
X270046204Y-86675255D01*
X269876518Y-86788635D01*
X269819444Y-86826771D01*
X269819443Y-86826772D01*
X269819442Y-86826772D01*
X269567480Y-86931138D01*
X269300000Y-86984343D01*
X269027274Y-86984343D01*
X268759794Y-86931138D01*
X268507832Y-86826772D01*
X268507831Y-86826772D01*
X268507830Y-86826771D01*
X268450756Y-86788635D01*
X268281070Y-86675255D01*
X268088225Y-86482410D01*
X267936708Y-86255648D01*
X267832342Y-86003686D01*
X267779137Y-85736206D01*
X267779137Y-85463480D01*
X267832342Y-85196000D01*
X267936708Y-84944038D01*
X268088225Y-84717276D01*
X268281070Y-84524431D01*
X268486704Y-84387031D01*
X268507830Y-84372915D01*
X268576932Y-84344292D01*
X268759794Y-84268548D01*
X269027274Y-84215343D01*
X269300000Y-84215343D01*
X269567480Y-84268548D01*
X269567480Y-84268548D01*
G37*
G36*
X262607880Y-84268548D02*
G01*
X262790742Y-84344292D01*
X262859844Y-84372915D01*
X262880970Y-84387031D01*
X263086604Y-84524431D01*
X263279449Y-84717276D01*
X263430966Y-84944038D01*
X263535332Y-85196000D01*
X263588537Y-85463480D01*
X263588537Y-85736206D01*
X263535332Y-86003686D01*
X263430966Y-86255648D01*
X263279449Y-86482410D01*
X263086604Y-86675255D01*
X262916918Y-86788635D01*
X262859844Y-86826771D01*
X262859843Y-86826772D01*
X262859842Y-86826772D01*
X262607880Y-86931138D01*
X262340400Y-86984343D01*
X262067674Y-86984343D01*
X261800194Y-86931138D01*
X261548232Y-86826772D01*
X261548231Y-86826772D01*
X261548230Y-86826771D01*
X261491156Y-86788635D01*
X261321470Y-86675255D01*
X261128625Y-86482410D01*
X260977108Y-86255648D01*
X260872742Y-86003686D01*
X260819537Y-85736206D01*
X260819537Y-85463480D01*
X260872742Y-85196000D01*
X260977108Y-84944038D01*
X261128625Y-84717276D01*
X261321470Y-84524431D01*
X261527104Y-84387031D01*
X261548230Y-84372915D01*
X261617332Y-84344292D01*
X261800194Y-84268548D01*
X262067674Y-84215343D01*
X262340400Y-84215343D01*
X262607880Y-84268548D01*
X262607880Y-84268548D01*
G37*
G36*
X253819480Y-84268548D02*
G01*
X254002342Y-84344292D01*
X254071444Y-84372915D01*
X254092570Y-84387031D01*
X254298204Y-84524431D01*
X254491049Y-84717276D01*
X254642566Y-84944038D01*
X254746932Y-85196000D01*
X254800137Y-85463480D01*
X254800137Y-85736206D01*
X254746932Y-86003686D01*
X254642566Y-86255648D01*
X254491049Y-86482410D01*
X254298204Y-86675255D01*
X254128518Y-86788635D01*
X254071444Y-86826771D01*
X254071443Y-86826772D01*
X254071442Y-86826772D01*
X253819480Y-86931138D01*
X253552000Y-86984343D01*
X253279274Y-86984343D01*
X253011794Y-86931138D01*
X252759832Y-86826772D01*
X252759831Y-86826772D01*
X252759830Y-86826771D01*
X252702756Y-86788635D01*
X252533070Y-86675255D01*
X252340225Y-86482410D01*
X252188708Y-86255648D01*
X252084342Y-86003686D01*
X252031137Y-85736206D01*
X252031137Y-85463480D01*
X252084342Y-85196000D01*
X252188708Y-84944038D01*
X252340225Y-84717276D01*
X252533070Y-84524431D01*
X252738704Y-84387031D01*
X252759830Y-84372915D01*
X252828932Y-84344292D01*
X253011794Y-84268548D01*
X253279274Y-84215343D01*
X253552000Y-84215343D01*
X253819480Y-84268548D01*
X253819480Y-84268548D01*
G37*
G36*
X278355880Y-84268548D02*
G01*
X278538742Y-84344292D01*
X278607844Y-84372915D01*
X278628970Y-84387031D01*
X278834604Y-84524431D01*
X279027449Y-84717276D01*
X279178966Y-84944038D01*
X279283332Y-85196000D01*
X279336537Y-85463480D01*
X279336537Y-85736206D01*
X279283332Y-86003686D01*
X279178966Y-86255648D01*
X279027449Y-86482410D01*
X278834604Y-86675255D01*
X278664918Y-86788635D01*
X278607844Y-86826771D01*
X278607843Y-86826772D01*
X278607842Y-86826772D01*
X278355880Y-86931138D01*
X278088400Y-86984343D01*
X277815674Y-86984343D01*
X277548194Y-86931138D01*
X277296232Y-86826772D01*
X277296231Y-86826772D01*
X277296230Y-86826771D01*
X277239156Y-86788635D01*
X277069470Y-86675255D01*
X276876625Y-86482410D01*
X276725108Y-86255648D01*
X276620742Y-86003686D01*
X276567537Y-85736206D01*
X276567537Y-85463480D01*
X276620742Y-85196000D01*
X276725108Y-84944038D01*
X276876625Y-84717276D01*
X277069470Y-84524431D01*
X277275104Y-84387031D01*
X277296230Y-84372915D01*
X277365332Y-84344292D01*
X277548194Y-84268548D01*
X277815674Y-84215343D01*
X278088400Y-84215343D01*
X278355880Y-84268548D01*
X278355880Y-84268548D01*
G37*
G36*
X256700499Y-84314445D02*
G01*
X256737995Y-84325820D01*
X256772554Y-84344292D01*
X256802847Y-84369153D01*
X256827708Y-84399446D01*
X256846180Y-84434005D01*
X256857555Y-84471501D01*
X256862000Y-84516638D01*
X256862000Y-85155362D01*
X256857555Y-85200499D01*
X256846180Y-85237995D01*
X256827708Y-85272554D01*
X256802847Y-85302847D01*
X256772554Y-85327708D01*
X256737995Y-85346180D01*
X256700499Y-85357555D01*
X256655362Y-85362000D01*
X255916638Y-85362000D01*
X255871501Y-85357555D01*
X255834005Y-85346180D01*
X255799446Y-85327708D01*
X255769153Y-85302847D01*
X255744292Y-85272554D01*
X255725820Y-85237995D01*
X255714445Y-85200499D01*
X255710000Y-85155362D01*
X255710000Y-84516638D01*
X255714445Y-84471501D01*
X255725820Y-84434005D01*
X255744292Y-84399446D01*
X255769153Y-84369153D01*
X255799446Y-84344292D01*
X255834005Y-84325820D01*
X255871501Y-84314445D01*
X255916638Y-84310000D01*
X256655362Y-84310000D01*
X256700499Y-84314445D01*
X256700499Y-84314445D01*
G37*
G36*
X258450499Y-84314445D02*
G01*
X258487995Y-84325820D01*
X258522554Y-84344292D01*
X258552847Y-84369153D01*
X258577708Y-84399446D01*
X258596180Y-84434005D01*
X258607555Y-84471501D01*
X258612000Y-84516638D01*
X258612000Y-85155362D01*
X258607555Y-85200499D01*
X258596180Y-85237995D01*
X258577708Y-85272554D01*
X258552847Y-85302847D01*
X258522554Y-85327708D01*
X258487995Y-85346180D01*
X258450499Y-85357555D01*
X258405362Y-85362000D01*
X257666638Y-85362000D01*
X257621501Y-85357555D01*
X257584005Y-85346180D01*
X257549446Y-85327708D01*
X257519153Y-85302847D01*
X257494292Y-85272554D01*
X257475820Y-85237995D01*
X257464445Y-85200499D01*
X257460000Y-85155362D01*
X257460000Y-84516638D01*
X257464445Y-84471501D01*
X257475820Y-84434005D01*
X257494292Y-84399446D01*
X257519153Y-84369153D01*
X257549446Y-84344292D01*
X257584005Y-84325820D01*
X257621501Y-84314445D01*
X257666638Y-84310000D01*
X258405362Y-84310000D01*
X258450499Y-84314445D01*
X258450499Y-84314445D01*
G37*
G36*
X258450499Y-82282445D02*
G01*
X258487995Y-82293820D01*
X258522554Y-82312292D01*
X258552847Y-82337153D01*
X258577708Y-82367446D01*
X258596180Y-82402005D01*
X258607555Y-82439501D01*
X258612000Y-82484638D01*
X258612000Y-83123362D01*
X258607555Y-83168499D01*
X258596180Y-83205995D01*
X258577708Y-83240554D01*
X258552847Y-83270847D01*
X258522554Y-83295708D01*
X258487995Y-83314180D01*
X258450499Y-83325555D01*
X258405362Y-83330000D01*
X257666638Y-83330000D01*
X257621501Y-83325555D01*
X257584005Y-83314180D01*
X257549446Y-83295708D01*
X257519153Y-83270847D01*
X257494292Y-83240554D01*
X257475820Y-83205995D01*
X257464445Y-83168499D01*
X257460000Y-83123362D01*
X257460000Y-82484638D01*
X257464445Y-82439501D01*
X257475820Y-82402005D01*
X257494292Y-82367446D01*
X257519153Y-82337153D01*
X257549446Y-82312292D01*
X257584005Y-82293820D01*
X257621501Y-82282445D01*
X257666638Y-82278000D01*
X258405362Y-82278000D01*
X258450499Y-82282445D01*
X258450499Y-82282445D01*
G37*
G36*
X256700499Y-82282445D02*
G01*
X256737995Y-82293820D01*
X256772554Y-82312292D01*
X256802847Y-82337153D01*
X256827708Y-82367446D01*
X256846180Y-82402005D01*
X256857555Y-82439501D01*
X256862000Y-82484638D01*
X256862000Y-83123362D01*
X256857555Y-83168499D01*
X256846180Y-83205995D01*
X256827708Y-83240554D01*
X256802847Y-83270847D01*
X256772554Y-83295708D01*
X256737995Y-83314180D01*
X256700499Y-83325555D01*
X256655362Y-83330000D01*
X255916638Y-83330000D01*
X255871501Y-83325555D01*
X255834005Y-83314180D01*
X255799446Y-83295708D01*
X255769153Y-83270847D01*
X255744292Y-83240554D01*
X255725820Y-83205995D01*
X255714445Y-83168499D01*
X255710000Y-83123362D01*
X255710000Y-82484638D01*
X255714445Y-82439501D01*
X255725820Y-82402005D01*
X255744292Y-82367446D01*
X255769153Y-82337153D01*
X255799446Y-82312292D01*
X255834005Y-82293820D01*
X255871501Y-82282445D01*
X255916638Y-82278000D01*
X256655362Y-82278000D01*
X256700499Y-82282445D01*
X256700499Y-82282445D01*
G37*
G36*
X270170928Y-81820764D02*
G01*
X270192009Y-81827160D01*
X270211445Y-81837548D01*
X270228476Y-81851524D01*
X270242452Y-81868555D01*
X270252840Y-81887991D01*
X270259236Y-81909072D01*
X270262000Y-81937140D01*
X270262000Y-82400860D01*
X270259236Y-82428928D01*
X270252840Y-82450009D01*
X270242452Y-82469445D01*
X270228476Y-82486476D01*
X270211445Y-82500452D01*
X270192009Y-82510840D01*
X270170928Y-82517236D01*
X270142860Y-82520000D01*
X268679140Y-82520000D01*
X268651072Y-82517236D01*
X268629991Y-82510840D01*
X268610555Y-82500452D01*
X268593524Y-82486476D01*
X268579548Y-82469445D01*
X268569160Y-82450009D01*
X268562764Y-82428928D01*
X268560000Y-82400860D01*
X268560000Y-81937140D01*
X268562764Y-81909072D01*
X268569160Y-81887991D01*
X268579548Y-81868555D01*
X268593524Y-81851524D01*
X268610555Y-81837548D01*
X268629991Y-81827160D01*
X268651072Y-81820764D01*
X268679140Y-81818000D01*
X270142860Y-81818000D01*
X270170928Y-81820764D01*
X270170928Y-81820764D01*
G37*
G36*
X262970928Y-81820764D02*
G01*
X262992009Y-81827160D01*
X263011445Y-81837548D01*
X263028476Y-81851524D01*
X263042452Y-81868555D01*
X263052840Y-81887991D01*
X263059236Y-81909072D01*
X263062000Y-81937140D01*
X263062000Y-82400860D01*
X263059236Y-82428928D01*
X263052840Y-82450009D01*
X263042452Y-82469445D01*
X263028476Y-82486476D01*
X263011445Y-82500452D01*
X262992009Y-82510840D01*
X262970928Y-82517236D01*
X262942860Y-82520000D01*
X261479140Y-82520000D01*
X261451072Y-82517236D01*
X261429991Y-82510840D01*
X261410555Y-82500452D01*
X261393524Y-82486476D01*
X261379548Y-82469445D01*
X261369160Y-82450009D01*
X261362764Y-82428928D01*
X261360000Y-82400860D01*
X261360000Y-81937140D01*
X261362764Y-81909072D01*
X261369160Y-81887991D01*
X261379548Y-81868555D01*
X261393524Y-81851524D01*
X261410555Y-81837548D01*
X261429991Y-81827160D01*
X261451072Y-81820764D01*
X261479140Y-81818000D01*
X262942860Y-81818000D01*
X262970928Y-81820764D01*
X262970928Y-81820764D01*
G37*
G36*
X256700499Y-80250445D02*
G01*
X256737995Y-80261820D01*
X256772554Y-80280292D01*
X256802847Y-80305153D01*
X256827708Y-80335446D01*
X256846180Y-80370005D01*
X256857555Y-80407501D01*
X256862000Y-80452638D01*
X256862000Y-81091362D01*
X256857555Y-81136499D01*
X256846180Y-81173995D01*
X256827708Y-81208554D01*
X256802847Y-81238847D01*
X256772554Y-81263708D01*
X256737995Y-81282180D01*
X256700499Y-81293555D01*
X256655362Y-81298000D01*
X255916638Y-81298000D01*
X255871501Y-81293555D01*
X255834005Y-81282180D01*
X255799446Y-81263708D01*
X255769153Y-81238847D01*
X255744292Y-81208554D01*
X255725820Y-81173995D01*
X255714445Y-81136499D01*
X255710000Y-81091362D01*
X255710000Y-80452638D01*
X255714445Y-80407501D01*
X255725820Y-80370005D01*
X255744292Y-80335446D01*
X255769153Y-80305153D01*
X255799446Y-80280292D01*
X255834005Y-80261820D01*
X255871501Y-80250445D01*
X255916638Y-80246000D01*
X256655362Y-80246000D01*
X256700499Y-80250445D01*
X256700499Y-80250445D01*
G37*
G36*
X258450499Y-80250445D02*
G01*
X258487995Y-80261820D01*
X258522554Y-80280292D01*
X258552847Y-80305153D01*
X258577708Y-80335446D01*
X258596180Y-80370005D01*
X258607555Y-80407501D01*
X258612000Y-80452638D01*
X258612000Y-81091362D01*
X258607555Y-81136499D01*
X258596180Y-81173995D01*
X258577708Y-81208554D01*
X258552847Y-81238847D01*
X258522554Y-81263708D01*
X258487995Y-81282180D01*
X258450499Y-81293555D01*
X258405362Y-81298000D01*
X257666638Y-81298000D01*
X257621501Y-81293555D01*
X257584005Y-81282180D01*
X257549446Y-81263708D01*
X257519153Y-81238847D01*
X257494292Y-81208554D01*
X257475820Y-81173995D01*
X257464445Y-81136499D01*
X257460000Y-81091362D01*
X257460000Y-80452638D01*
X257464445Y-80407501D01*
X257475820Y-80370005D01*
X257494292Y-80335446D01*
X257519153Y-80305153D01*
X257549446Y-80280292D01*
X257584005Y-80261820D01*
X257621501Y-80250445D01*
X257666638Y-80246000D01*
X258405362Y-80246000D01*
X258450499Y-80250445D01*
X258450499Y-80250445D01*
G37*
G36*
X270170928Y-80550764D02*
G01*
X270192009Y-80557160D01*
X270211445Y-80567548D01*
X270228476Y-80581524D01*
X270242452Y-80598555D01*
X270252840Y-80617991D01*
X270259236Y-80639072D01*
X270262000Y-80667140D01*
X270262000Y-81130860D01*
X270259236Y-81158928D01*
X270252840Y-81180009D01*
X270242452Y-81199445D01*
X270228476Y-81216476D01*
X270211445Y-81230452D01*
X270192009Y-81240840D01*
X270170928Y-81247236D01*
X270142860Y-81250000D01*
X268679140Y-81250000D01*
X268651072Y-81247236D01*
X268629991Y-81240840D01*
X268610555Y-81230452D01*
X268593524Y-81216476D01*
X268579548Y-81199445D01*
X268569160Y-81180009D01*
X268562764Y-81158928D01*
X268560000Y-81130860D01*
X268560000Y-80667140D01*
X268562764Y-80639072D01*
X268569160Y-80617991D01*
X268579548Y-80598555D01*
X268593524Y-80581524D01*
X268610555Y-80567548D01*
X268629991Y-80557160D01*
X268651072Y-80550764D01*
X268679140Y-80548000D01*
X270142860Y-80548000D01*
X270170928Y-80550764D01*
X270170928Y-80550764D01*
G37*
G36*
X262970928Y-80550764D02*
G01*
X262992009Y-80557160D01*
X263011445Y-80567548D01*
X263028476Y-80581524D01*
X263042452Y-80598555D01*
X263052840Y-80617991D01*
X263059236Y-80639072D01*
X263062000Y-80667140D01*
X263062000Y-81130860D01*
X263059236Y-81158928D01*
X263052840Y-81180009D01*
X263042452Y-81199445D01*
X263028476Y-81216476D01*
X263011445Y-81230452D01*
X262992009Y-81240840D01*
X262970928Y-81247236D01*
X262942860Y-81250000D01*
X261479140Y-81250000D01*
X261451072Y-81247236D01*
X261429991Y-81240840D01*
X261410555Y-81230452D01*
X261393524Y-81216476D01*
X261379548Y-81199445D01*
X261369160Y-81180009D01*
X261362764Y-81158928D01*
X261360000Y-81130860D01*
X261360000Y-80667140D01*
X261362764Y-80639072D01*
X261369160Y-80617991D01*
X261379548Y-80598555D01*
X261393524Y-80581524D01*
X261410555Y-80567548D01*
X261429991Y-80557160D01*
X261451072Y-80550764D01*
X261479140Y-80548000D01*
X262942860Y-80548000D01*
X262970928Y-80550764D01*
X262970928Y-80550764D01*
G37*
G36*
X273746499Y-79996445D02*
G01*
X273783995Y-80007820D01*
X273818554Y-80026292D01*
X273848847Y-80051153D01*
X273873708Y-80081446D01*
X273892180Y-80116005D01*
X273903555Y-80153501D01*
X273908000Y-80198638D01*
X273908000Y-80837362D01*
X273903555Y-80882499D01*
X273892180Y-80919995D01*
X273873708Y-80954554D01*
X273848847Y-80984847D01*
X273818554Y-81009708D01*
X273783995Y-81028180D01*
X273746499Y-81039555D01*
X273701362Y-81044000D01*
X272962638Y-81044000D01*
X272917501Y-81039555D01*
X272880005Y-81028180D01*
X272845446Y-81009708D01*
X272815153Y-80984847D01*
X272790292Y-80954554D01*
X272771820Y-80919995D01*
X272760445Y-80882499D01*
X272756000Y-80837362D01*
X272756000Y-80198638D01*
X272760445Y-80153501D01*
X272771820Y-80116005D01*
X272790292Y-80081446D01*
X272815153Y-80051153D01*
X272845446Y-80026292D01*
X272880005Y-80007820D01*
X272917501Y-79996445D01*
X272962638Y-79992000D01*
X273701362Y-79992000D01*
X273746499Y-79996445D01*
X273746499Y-79996445D01*
G37*
G36*
X275496499Y-79996445D02*
G01*
X275533995Y-80007820D01*
X275568554Y-80026292D01*
X275598847Y-80051153D01*
X275623708Y-80081446D01*
X275642180Y-80116005D01*
X275653555Y-80153501D01*
X275658000Y-80198638D01*
X275658000Y-80837362D01*
X275653555Y-80882499D01*
X275642180Y-80919995D01*
X275623708Y-80954554D01*
X275598847Y-80984847D01*
X275568554Y-81009708D01*
X275533995Y-81028180D01*
X275496499Y-81039555D01*
X275451362Y-81044000D01*
X274712638Y-81044000D01*
X274667501Y-81039555D01*
X274630005Y-81028180D01*
X274595446Y-81009708D01*
X274565153Y-80984847D01*
X274540292Y-80954554D01*
X274521820Y-80919995D01*
X274510445Y-80882499D01*
X274506000Y-80837362D01*
X274506000Y-80198638D01*
X274510445Y-80153501D01*
X274521820Y-80116005D01*
X274540292Y-80081446D01*
X274565153Y-80051153D01*
X274595446Y-80026292D01*
X274630005Y-80007820D01*
X274667501Y-79996445D01*
X274712638Y-79992000D01*
X275451362Y-79992000D01*
X275496499Y-79996445D01*
X275496499Y-79996445D01*
G37*
G36*
X270170928Y-79280764D02*
G01*
X270192009Y-79287160D01*
X270211445Y-79297548D01*
X270228476Y-79311524D01*
X270242452Y-79328555D01*
X270252840Y-79347991D01*
X270259236Y-79369072D01*
X270262000Y-79397140D01*
X270262000Y-79860860D01*
X270259236Y-79888928D01*
X270252840Y-79910009D01*
X270242452Y-79929445D01*
X270228476Y-79946476D01*
X270211445Y-79960452D01*
X270192009Y-79970840D01*
X270170928Y-79977236D01*
X270142860Y-79980000D01*
X268679140Y-79980000D01*
X268651072Y-79977236D01*
X268629991Y-79970840D01*
X268610555Y-79960452D01*
X268593524Y-79946476D01*
X268579548Y-79929445D01*
X268569160Y-79910009D01*
X268562764Y-79888928D01*
X268560000Y-79860860D01*
X268560000Y-79397140D01*
X268562764Y-79369072D01*
X268569160Y-79347991D01*
X268579548Y-79328555D01*
X268593524Y-79311524D01*
X268610555Y-79297548D01*
X268629991Y-79287160D01*
X268651072Y-79280764D01*
X268679140Y-79278000D01*
X270142860Y-79278000D01*
X270170928Y-79280764D01*
X270170928Y-79280764D01*
G37*
G36*
X262970928Y-79280764D02*
G01*
X262992009Y-79287160D01*
X263011445Y-79297548D01*
X263028476Y-79311524D01*
X263042452Y-79328555D01*
X263052840Y-79347991D01*
X263059236Y-79369072D01*
X263062000Y-79397140D01*
X263062000Y-79860860D01*
X263059236Y-79888928D01*
X263052840Y-79910009D01*
X263042452Y-79929445D01*
X263028476Y-79946476D01*
X263011445Y-79960452D01*
X262992009Y-79970840D01*
X262970928Y-79977236D01*
X262942860Y-79980000D01*
X261479140Y-79980000D01*
X261451072Y-79977236D01*
X261429991Y-79970840D01*
X261410555Y-79960452D01*
X261393524Y-79946476D01*
X261379548Y-79929445D01*
X261369160Y-79910009D01*
X261362764Y-79888928D01*
X261360000Y-79860860D01*
X261360000Y-79397140D01*
X261362764Y-79369072D01*
X261369160Y-79347991D01*
X261379548Y-79328555D01*
X261393524Y-79311524D01*
X261410555Y-79297548D01*
X261429991Y-79287160D01*
X261451072Y-79280764D01*
X261479140Y-79278000D01*
X262942860Y-79278000D01*
X262970928Y-79280764D01*
X262970928Y-79280764D01*
G37*
G36*
X256700499Y-78218445D02*
G01*
X256737995Y-78229820D01*
X256772554Y-78248292D01*
X256802847Y-78273153D01*
X256827708Y-78303446D01*
X256846180Y-78338005D01*
X256857555Y-78375501D01*
X256862000Y-78420638D01*
X256862000Y-79059362D01*
X256857555Y-79104499D01*
X256846180Y-79141995D01*
X256827708Y-79176554D01*
X256802847Y-79206847D01*
X256772554Y-79231708D01*
X256737995Y-79250180D01*
X256700499Y-79261555D01*
X256655362Y-79266000D01*
X255916638Y-79266000D01*
X255871501Y-79261555D01*
X255834005Y-79250180D01*
X255799446Y-79231708D01*
X255769153Y-79206847D01*
X255744292Y-79176554D01*
X255725820Y-79141995D01*
X255714445Y-79104499D01*
X255710000Y-79059362D01*
X255710000Y-78420638D01*
X255714445Y-78375501D01*
X255725820Y-78338005D01*
X255744292Y-78303446D01*
X255769153Y-78273153D01*
X255799446Y-78248292D01*
X255834005Y-78229820D01*
X255871501Y-78218445D01*
X255916638Y-78214000D01*
X256655362Y-78214000D01*
X256700499Y-78218445D01*
X256700499Y-78218445D01*
G37*
G36*
X258450499Y-78218445D02*
G01*
X258487995Y-78229820D01*
X258522554Y-78248292D01*
X258552847Y-78273153D01*
X258577708Y-78303446D01*
X258596180Y-78338005D01*
X258607555Y-78375501D01*
X258612000Y-78420638D01*
X258612000Y-79059362D01*
X258607555Y-79104499D01*
X258596180Y-79141995D01*
X258577708Y-79176554D01*
X258552847Y-79206847D01*
X258522554Y-79231708D01*
X258487995Y-79250180D01*
X258450499Y-79261555D01*
X258405362Y-79266000D01*
X257666638Y-79266000D01*
X257621501Y-79261555D01*
X257584005Y-79250180D01*
X257549446Y-79231708D01*
X257519153Y-79206847D01*
X257494292Y-79176554D01*
X257475820Y-79141995D01*
X257464445Y-79104499D01*
X257460000Y-79059362D01*
X257460000Y-78420638D01*
X257464445Y-78375501D01*
X257475820Y-78338005D01*
X257494292Y-78303446D01*
X257519153Y-78273153D01*
X257549446Y-78248292D01*
X257584005Y-78229820D01*
X257621501Y-78218445D01*
X257666638Y-78214000D01*
X258405362Y-78214000D01*
X258450499Y-78218445D01*
X258450499Y-78218445D01*
G37*
G36*
X270170928Y-78010764D02*
G01*
X270192009Y-78017160D01*
X270211445Y-78027548D01*
X270228476Y-78041524D01*
X270242452Y-78058555D01*
X270252840Y-78077991D01*
X270259236Y-78099072D01*
X270262000Y-78127140D01*
X270262000Y-78590860D01*
X270259236Y-78618928D01*
X270252840Y-78640009D01*
X270242452Y-78659445D01*
X270228476Y-78676476D01*
X270211445Y-78690452D01*
X270192009Y-78700840D01*
X270170928Y-78707236D01*
X270142860Y-78710000D01*
X268679140Y-78710000D01*
X268651072Y-78707236D01*
X268629991Y-78700840D01*
X268610555Y-78690452D01*
X268593524Y-78676476D01*
X268579548Y-78659445D01*
X268569160Y-78640009D01*
X268562764Y-78618928D01*
X268560000Y-78590860D01*
X268560000Y-78127140D01*
X268562764Y-78099072D01*
X268569160Y-78077991D01*
X268579548Y-78058555D01*
X268593524Y-78041524D01*
X268610555Y-78027548D01*
X268629991Y-78017160D01*
X268651072Y-78010764D01*
X268679140Y-78008000D01*
X270142860Y-78008000D01*
X270170928Y-78010764D01*
X270170928Y-78010764D01*
G37*
G36*
X262970928Y-78010764D02*
G01*
X262992009Y-78017160D01*
X263011445Y-78027548D01*
X263028476Y-78041524D01*
X263042452Y-78058555D01*
X263052840Y-78077991D01*
X263059236Y-78099072D01*
X263062000Y-78127140D01*
X263062000Y-78590860D01*
X263059236Y-78618928D01*
X263052840Y-78640009D01*
X263042452Y-78659445D01*
X263028476Y-78676476D01*
X263011445Y-78690452D01*
X262992009Y-78700840D01*
X262970928Y-78707236D01*
X262942860Y-78710000D01*
X261479140Y-78710000D01*
X261451072Y-78707236D01*
X261429991Y-78700840D01*
X261410555Y-78690452D01*
X261393524Y-78676476D01*
X261379548Y-78659445D01*
X261369160Y-78640009D01*
X261362764Y-78618928D01*
X261360000Y-78590860D01*
X261360000Y-78127140D01*
X261362764Y-78099072D01*
X261369160Y-78077991D01*
X261379548Y-78058555D01*
X261393524Y-78041524D01*
X261410555Y-78027548D01*
X261429991Y-78017160D01*
X261451072Y-78010764D01*
X261479140Y-78008000D01*
X262942860Y-78008000D01*
X262970928Y-78010764D01*
X262970928Y-78010764D01*
G37*
G36*
X273124228Y-76905703D02*
G01*
X273279100Y-76969853D01*
X273418481Y-77062985D01*
X273537015Y-77181519D01*
X273630147Y-77320900D01*
X273694297Y-77475772D01*
X273727000Y-77640184D01*
X273727000Y-77807816D01*
X273694297Y-77972228D01*
X273630147Y-78127100D01*
X273537015Y-78266481D01*
X273418481Y-78385015D01*
X273279100Y-78478147D01*
X273124228Y-78542297D01*
X272959816Y-78575000D01*
X272792184Y-78575000D01*
X272627772Y-78542297D01*
X272472900Y-78478147D01*
X272333519Y-78385015D01*
X272214985Y-78266481D01*
X272121853Y-78127100D01*
X272057703Y-77972228D01*
X272025000Y-77807816D01*
X272025000Y-77640184D01*
X272057703Y-77475772D01*
X272121853Y-77320900D01*
X272214985Y-77181519D01*
X272333519Y-77062985D01*
X272472900Y-76969853D01*
X272627772Y-76905703D01*
X272792184Y-76873000D01*
X272959816Y-76873000D01*
X273124228Y-76905703D01*
X273124228Y-76905703D01*
G37*
G36*
X278124228Y-76905703D02*
G01*
X278279100Y-76969853D01*
X278418481Y-77062985D01*
X278537015Y-77181519D01*
X278630147Y-77320900D01*
X278694297Y-77475772D01*
X278727000Y-77640184D01*
X278727000Y-77807816D01*
X278694297Y-77972228D01*
X278630147Y-78127100D01*
X278537015Y-78266481D01*
X278418481Y-78385015D01*
X278279100Y-78478147D01*
X278124228Y-78542297D01*
X277959816Y-78575000D01*
X277792184Y-78575000D01*
X277627772Y-78542297D01*
X277472900Y-78478147D01*
X277333519Y-78385015D01*
X277214985Y-78266481D01*
X277121853Y-78127100D01*
X277057703Y-77972228D01*
X277025000Y-77807816D01*
X277025000Y-77640184D01*
X277057703Y-77475772D01*
X277121853Y-77320900D01*
X277214985Y-77181519D01*
X277333519Y-77062985D01*
X277472900Y-76969853D01*
X277627772Y-76905703D01*
X277792184Y-76873000D01*
X277959816Y-76873000D01*
X278124228Y-76905703D01*
X278124228Y-76905703D01*
G37*
G36*
X256700499Y-76186445D02*
G01*
X256737995Y-76197820D01*
X256772554Y-76216292D01*
X256802847Y-76241153D01*
X256827708Y-76271446D01*
X256846180Y-76306005D01*
X256857555Y-76343501D01*
X256862000Y-76388638D01*
X256862000Y-77027362D01*
X256857555Y-77072499D01*
X256846180Y-77109995D01*
X256827708Y-77144554D01*
X256802847Y-77174847D01*
X256772554Y-77199708D01*
X256737995Y-77218180D01*
X256700499Y-77229555D01*
X256655362Y-77234000D01*
X255916638Y-77234000D01*
X255871501Y-77229555D01*
X255834005Y-77218180D01*
X255799446Y-77199708D01*
X255769153Y-77174847D01*
X255744292Y-77144554D01*
X255725820Y-77109995D01*
X255714445Y-77072499D01*
X255710000Y-77027362D01*
X255710000Y-76388638D01*
X255714445Y-76343501D01*
X255725820Y-76306005D01*
X255744292Y-76271446D01*
X255769153Y-76241153D01*
X255799446Y-76216292D01*
X255834005Y-76197820D01*
X255871501Y-76186445D01*
X255916638Y-76182000D01*
X256655362Y-76182000D01*
X256700499Y-76186445D01*
X256700499Y-76186445D01*
G37*
G36*
X258450499Y-76186445D02*
G01*
X258487995Y-76197820D01*
X258522554Y-76216292D01*
X258552847Y-76241153D01*
X258577708Y-76271446D01*
X258596180Y-76306005D01*
X258607555Y-76343501D01*
X258612000Y-76388638D01*
X258612000Y-77027362D01*
X258607555Y-77072499D01*
X258596180Y-77109995D01*
X258577708Y-77144554D01*
X258552847Y-77174847D01*
X258522554Y-77199708D01*
X258487995Y-77218180D01*
X258450499Y-77229555D01*
X258405362Y-77234000D01*
X257666638Y-77234000D01*
X257621501Y-77229555D01*
X257584005Y-77218180D01*
X257549446Y-77199708D01*
X257519153Y-77174847D01*
X257494292Y-77144554D01*
X257475820Y-77109995D01*
X257464445Y-77072499D01*
X257460000Y-77027362D01*
X257460000Y-76388638D01*
X257464445Y-76343501D01*
X257475820Y-76306005D01*
X257494292Y-76271446D01*
X257519153Y-76241153D01*
X257549446Y-76216292D01*
X257584005Y-76197820D01*
X257621501Y-76186445D01*
X257666638Y-76182000D01*
X258405362Y-76182000D01*
X258450499Y-76186445D01*
X258450499Y-76186445D01*
G37*
G36*
X278124228Y-73349703D02*
G01*
X278279100Y-73413853D01*
X278418481Y-73506985D01*
X278537015Y-73625519D01*
X278630147Y-73764900D01*
X278694297Y-73919772D01*
X278727000Y-74084184D01*
X278727000Y-74251816D01*
X278694297Y-74416228D01*
X278630147Y-74571100D01*
X278537015Y-74710481D01*
X278418481Y-74829015D01*
X278279100Y-74922147D01*
X278124228Y-74986297D01*
X277959816Y-75019000D01*
X277792184Y-75019000D01*
X277627772Y-74986297D01*
X277472900Y-74922147D01*
X277333519Y-74829015D01*
X277214985Y-74710481D01*
X277121853Y-74571100D01*
X277057703Y-74416228D01*
X277025000Y-74251816D01*
X277025000Y-74084184D01*
X277057703Y-73919772D01*
X277121853Y-73764900D01*
X277214985Y-73625519D01*
X277333519Y-73506985D01*
X277472900Y-73413853D01*
X277627772Y-73349703D01*
X277792184Y-73317000D01*
X277959816Y-73317000D01*
X278124228Y-73349703D01*
X278124228Y-73349703D01*
G37*
G36*
X273124228Y-73349703D02*
G01*
X273279100Y-73413853D01*
X273418481Y-73506985D01*
X273537015Y-73625519D01*
X273630147Y-73764900D01*
X273694297Y-73919772D01*
X273727000Y-74084184D01*
X273727000Y-74251816D01*
X273694297Y-74416228D01*
X273630147Y-74571100D01*
X273537015Y-74710481D01*
X273418481Y-74829015D01*
X273279100Y-74922147D01*
X273124228Y-74986297D01*
X272959816Y-75019000D01*
X272792184Y-75019000D01*
X272627772Y-74986297D01*
X272472900Y-74922147D01*
X272333519Y-74829015D01*
X272214985Y-74710481D01*
X272121853Y-74571100D01*
X272057703Y-74416228D01*
X272025000Y-74251816D01*
X272025000Y-74084184D01*
X272057703Y-73919772D01*
X272121853Y-73764900D01*
X272214985Y-73625519D01*
X272333519Y-73506985D01*
X272472900Y-73413853D01*
X272627772Y-73349703D01*
X272792184Y-73317000D01*
X272959816Y-73317000D01*
X273124228Y-73349703D01*
X273124228Y-73349703D01*
G37*
G36*
X258450499Y-73900445D02*
G01*
X258487995Y-73911820D01*
X258522554Y-73930292D01*
X258552847Y-73955153D01*
X258577708Y-73985446D01*
X258596180Y-74020005D01*
X258607555Y-74057501D01*
X258612000Y-74102638D01*
X258612000Y-74741362D01*
X258607555Y-74786499D01*
X258596180Y-74823995D01*
X258577708Y-74858554D01*
X258552847Y-74888847D01*
X258522554Y-74913708D01*
X258487995Y-74932180D01*
X258450499Y-74943555D01*
X258405362Y-74948000D01*
X257666638Y-74948000D01*
X257621501Y-74943555D01*
X257584005Y-74932180D01*
X257549446Y-74913708D01*
X257519153Y-74888847D01*
X257494292Y-74858554D01*
X257475820Y-74823995D01*
X257464445Y-74786499D01*
X257460000Y-74741362D01*
X257460000Y-74102638D01*
X257464445Y-74057501D01*
X257475820Y-74020005D01*
X257494292Y-73985446D01*
X257519153Y-73955153D01*
X257549446Y-73930292D01*
X257584005Y-73911820D01*
X257621501Y-73900445D01*
X257666638Y-73896000D01*
X258405362Y-73896000D01*
X258450499Y-73900445D01*
X258450499Y-73900445D01*
G37*
G36*
X256700499Y-73900445D02*
G01*
X256737995Y-73911820D01*
X256772554Y-73930292D01*
X256802847Y-73955153D01*
X256827708Y-73985446D01*
X256846180Y-74020005D01*
X256857555Y-74057501D01*
X256862000Y-74102638D01*
X256862000Y-74741362D01*
X256857555Y-74786499D01*
X256846180Y-74823995D01*
X256827708Y-74858554D01*
X256802847Y-74888847D01*
X256772554Y-74913708D01*
X256737995Y-74932180D01*
X256700499Y-74943555D01*
X256655362Y-74948000D01*
X255916638Y-74948000D01*
X255871501Y-74943555D01*
X255834005Y-74932180D01*
X255799446Y-74913708D01*
X255769153Y-74888847D01*
X255744292Y-74858554D01*
X255725820Y-74823995D01*
X255714445Y-74786499D01*
X255710000Y-74741362D01*
X255710000Y-74102638D01*
X255714445Y-74057501D01*
X255725820Y-74020005D01*
X255744292Y-73985446D01*
X255769153Y-73955153D01*
X255799446Y-73930292D01*
X255834005Y-73911820D01*
X255871501Y-73900445D01*
X255916638Y-73896000D01*
X256655362Y-73896000D01*
X256700499Y-73900445D01*
X256700499Y-73900445D01*
G37*
G36*
X266088395Y-72999546D02*
G01*
X266261466Y-73071234D01*
X266261467Y-73071235D01*
X266417227Y-73175310D01*
X266549690Y-73307773D01*
X266577708Y-73349705D01*
X266653766Y-73463534D01*
X266725454Y-73636605D01*
X266762000Y-73820333D01*
X266762000Y-74007667D01*
X266725454Y-74191395D01*
X266653766Y-74364466D01*
X266653765Y-74364467D01*
X266549690Y-74520227D01*
X266417227Y-74652690D01*
X266368871Y-74685000D01*
X266261466Y-74756766D01*
X266088395Y-74828454D01*
X265904667Y-74865000D01*
X265717333Y-74865000D01*
X265533605Y-74828454D01*
X265360534Y-74756766D01*
X265253129Y-74685000D01*
X265204773Y-74652690D01*
X265072310Y-74520227D01*
X264968235Y-74364467D01*
X264968234Y-74364466D01*
X264896546Y-74191395D01*
X264860000Y-74007667D01*
X264860000Y-73820333D01*
X264896546Y-73636605D01*
X264968234Y-73463534D01*
X265044292Y-73349705D01*
X265072310Y-73307773D01*
X265204773Y-73175310D01*
X265360533Y-73071235D01*
X265360534Y-73071234D01*
X265533605Y-72999546D01*
X265717333Y-72963000D01*
X265904667Y-72963000D01*
X266088395Y-72999546D01*
X266088395Y-72999546D01*
G37*
G36*
X263548395Y-72999546D02*
G01*
X263721466Y-73071234D01*
X263721467Y-73071235D01*
X263877227Y-73175310D01*
X264009690Y-73307773D01*
X264037708Y-73349705D01*
X264113766Y-73463534D01*
X264185454Y-73636605D01*
X264222000Y-73820333D01*
X264222000Y-74007667D01*
X264185454Y-74191395D01*
X264113766Y-74364466D01*
X264113765Y-74364467D01*
X264009690Y-74520227D01*
X263877227Y-74652690D01*
X263828871Y-74685000D01*
X263721466Y-74756766D01*
X263548395Y-74828454D01*
X263364667Y-74865000D01*
X263177333Y-74865000D01*
X262993605Y-74828454D01*
X262820534Y-74756766D01*
X262713129Y-74685000D01*
X262664773Y-74652690D01*
X262532310Y-74520227D01*
X262428235Y-74364467D01*
X262428234Y-74364466D01*
X262356546Y-74191395D01*
X262320000Y-74007667D01*
X262320000Y-73820333D01*
X262356546Y-73636605D01*
X262428234Y-73463534D01*
X262504292Y-73349705D01*
X262532310Y-73307773D01*
X262664773Y-73175310D01*
X262820533Y-73071235D01*
X262820534Y-73071234D01*
X262993605Y-72999546D01*
X263177333Y-72963000D01*
X263364667Y-72963000D01*
X263548395Y-72999546D01*
X263548395Y-72999546D01*
G37*
G36*
X268628395Y-72999546D02*
G01*
X268801466Y-73071234D01*
X268801467Y-73071235D01*
X268957227Y-73175310D01*
X269089690Y-73307773D01*
X269117708Y-73349705D01*
X269193766Y-73463534D01*
X269265454Y-73636605D01*
X269302000Y-73820333D01*
X269302000Y-74007667D01*
X269265454Y-74191395D01*
X269193766Y-74364466D01*
X269193765Y-74364467D01*
X269089690Y-74520227D01*
X268957227Y-74652690D01*
X268908871Y-74685000D01*
X268801466Y-74756766D01*
X268628395Y-74828454D01*
X268444667Y-74865000D01*
X268257333Y-74865000D01*
X268073605Y-74828454D01*
X267900534Y-74756766D01*
X267793129Y-74685000D01*
X267744773Y-74652690D01*
X267612310Y-74520227D01*
X267508235Y-74364467D01*
X267508234Y-74364466D01*
X267436546Y-74191395D01*
X267400000Y-74007667D01*
X267400000Y-73820333D01*
X267436546Y-73636605D01*
X267508234Y-73463534D01*
X267584292Y-73349705D01*
X267612310Y-73307773D01*
X267744773Y-73175310D01*
X267900533Y-73071235D01*
X267900534Y-73071234D01*
X268073605Y-72999546D01*
X268257333Y-72963000D01*
X268444667Y-72963000D01*
X268628395Y-72999546D01*
X268628395Y-72999546D01*
G37*
G36*
X273746499Y-70852445D02*
G01*
X273783995Y-70863820D01*
X273818554Y-70882292D01*
X273848847Y-70907153D01*
X273873708Y-70937446D01*
X273892180Y-70972005D01*
X273903555Y-71009501D01*
X273908000Y-71054638D01*
X273908000Y-71693362D01*
X273903555Y-71738499D01*
X273892180Y-71775995D01*
X273873708Y-71810554D01*
X273848847Y-71840847D01*
X273818554Y-71865708D01*
X273783995Y-71884180D01*
X273746499Y-71895555D01*
X273701362Y-71900000D01*
X272962638Y-71900000D01*
X272917501Y-71895555D01*
X272880005Y-71884180D01*
X272845446Y-71865708D01*
X272815153Y-71840847D01*
X272790292Y-71810554D01*
X272771820Y-71775995D01*
X272760445Y-71738499D01*
X272756000Y-71693362D01*
X272756000Y-71054638D01*
X272760445Y-71009501D01*
X272771820Y-70972005D01*
X272790292Y-70937446D01*
X272815153Y-70907153D01*
X272845446Y-70882292D01*
X272880005Y-70863820D01*
X272917501Y-70852445D01*
X272962638Y-70848000D01*
X273701362Y-70848000D01*
X273746499Y-70852445D01*
X273746499Y-70852445D01*
G37*
G36*
X275496499Y-70852445D02*
G01*
X275533995Y-70863820D01*
X275568554Y-70882292D01*
X275598847Y-70907153D01*
X275623708Y-70937446D01*
X275642180Y-70972005D01*
X275653555Y-71009501D01*
X275658000Y-71054638D01*
X275658000Y-71693362D01*
X275653555Y-71738499D01*
X275642180Y-71775995D01*
X275623708Y-71810554D01*
X275598847Y-71840847D01*
X275568554Y-71865708D01*
X275533995Y-71884180D01*
X275496499Y-71895555D01*
X275451362Y-71900000D01*
X274712638Y-71900000D01*
X274667501Y-71895555D01*
X274630005Y-71884180D01*
X274595446Y-71865708D01*
X274565153Y-71840847D01*
X274540292Y-71810554D01*
X274521820Y-71775995D01*
X274510445Y-71738499D01*
X274506000Y-71693362D01*
X274506000Y-71054638D01*
X274510445Y-71009501D01*
X274521820Y-70972005D01*
X274540292Y-70937446D01*
X274565153Y-70907153D01*
X274595446Y-70882292D01*
X274630005Y-70863820D01*
X274667501Y-70852445D01*
X274712638Y-70848000D01*
X275451362Y-70848000D01*
X275496499Y-70852445D01*
X275496499Y-70852445D01*
G37*
G36*
X258704499Y-68820445D02*
G01*
X258741995Y-68831820D01*
X258776554Y-68850292D01*
X258806847Y-68875153D01*
X258831708Y-68905446D01*
X258850180Y-68940005D01*
X258861555Y-68977501D01*
X258866000Y-69022638D01*
X258866000Y-69661362D01*
X258861555Y-69706499D01*
X258850180Y-69743995D01*
X258831708Y-69778554D01*
X258806847Y-69808847D01*
X258776554Y-69833708D01*
X258741995Y-69852180D01*
X258704499Y-69863555D01*
X258659362Y-69868000D01*
X257920638Y-69868000D01*
X257875501Y-69863555D01*
X257838005Y-69852180D01*
X257803446Y-69833708D01*
X257773153Y-69808847D01*
X257748292Y-69778554D01*
X257729820Y-69743995D01*
X257718445Y-69706499D01*
X257714000Y-69661362D01*
X257714000Y-69022638D01*
X257718445Y-68977501D01*
X257729820Y-68940005D01*
X257748292Y-68905446D01*
X257773153Y-68875153D01*
X257803446Y-68850292D01*
X257838005Y-68831820D01*
X257875501Y-68820445D01*
X257920638Y-68816000D01*
X258659362Y-68816000D01*
X258704499Y-68820445D01*
X258704499Y-68820445D01*
G37*
G36*
X256954499Y-68820445D02*
G01*
X256991995Y-68831820D01*
X257026554Y-68850292D01*
X257056847Y-68875153D01*
X257081708Y-68905446D01*
X257100180Y-68940005D01*
X257111555Y-68977501D01*
X257116000Y-69022638D01*
X257116000Y-69661362D01*
X257111555Y-69706499D01*
X257100180Y-69743995D01*
X257081708Y-69778554D01*
X257056847Y-69808847D01*
X257026554Y-69833708D01*
X256991995Y-69852180D01*
X256954499Y-69863555D01*
X256909362Y-69868000D01*
X256170638Y-69868000D01*
X256125501Y-69863555D01*
X256088005Y-69852180D01*
X256053446Y-69833708D01*
X256023153Y-69808847D01*
X255998292Y-69778554D01*
X255979820Y-69743995D01*
X255968445Y-69706499D01*
X255964000Y-69661362D01*
X255964000Y-69022638D01*
X255968445Y-68977501D01*
X255979820Y-68940005D01*
X255998292Y-68905446D01*
X256023153Y-68875153D01*
X256053446Y-68850292D01*
X256088005Y-68831820D01*
X256125501Y-68820445D01*
X256170638Y-68816000D01*
X256909362Y-68816000D01*
X256954499Y-68820445D01*
X256954499Y-68820445D01*
G37*
G36*
X275496499Y-68820445D02*
G01*
X275533995Y-68831820D01*
X275568554Y-68850292D01*
X275598847Y-68875153D01*
X275623708Y-68905446D01*
X275642180Y-68940005D01*
X275653555Y-68977501D01*
X275658000Y-69022638D01*
X275658000Y-69661362D01*
X275653555Y-69706499D01*
X275642180Y-69743995D01*
X275623708Y-69778554D01*
X275598847Y-69808847D01*
X275568554Y-69833708D01*
X275533995Y-69852180D01*
X275496499Y-69863555D01*
X275451362Y-69868000D01*
X274712638Y-69868000D01*
X274667501Y-69863555D01*
X274630005Y-69852180D01*
X274595446Y-69833708D01*
X274565153Y-69808847D01*
X274540292Y-69778554D01*
X274521820Y-69743995D01*
X274510445Y-69706499D01*
X274506000Y-69661362D01*
X274506000Y-69022638D01*
X274510445Y-68977501D01*
X274521820Y-68940005D01*
X274540292Y-68905446D01*
X274565153Y-68875153D01*
X274595446Y-68850292D01*
X274630005Y-68831820D01*
X274667501Y-68820445D01*
X274712638Y-68816000D01*
X275451362Y-68816000D01*
X275496499Y-68820445D01*
X275496499Y-68820445D01*
G37*
G36*
X273746499Y-68820445D02*
G01*
X273783995Y-68831820D01*
X273818554Y-68850292D01*
X273848847Y-68875153D01*
X273873708Y-68905446D01*
X273892180Y-68940005D01*
X273903555Y-68977501D01*
X273908000Y-69022638D01*
X273908000Y-69661362D01*
X273903555Y-69706499D01*
X273892180Y-69743995D01*
X273873708Y-69778554D01*
X273848847Y-69808847D01*
X273818554Y-69833708D01*
X273783995Y-69852180D01*
X273746499Y-69863555D01*
X273701362Y-69868000D01*
X272962638Y-69868000D01*
X272917501Y-69863555D01*
X272880005Y-69852180D01*
X272845446Y-69833708D01*
X272815153Y-69808847D01*
X272790292Y-69778554D01*
X272771820Y-69743995D01*
X272760445Y-69706499D01*
X272756000Y-69661362D01*
X272756000Y-69022638D01*
X272760445Y-68977501D01*
X272771820Y-68940005D01*
X272790292Y-68905446D01*
X272815153Y-68875153D01*
X272845446Y-68850292D01*
X272880005Y-68831820D01*
X272917501Y-68820445D01*
X272962638Y-68816000D01*
X273701362Y-68816000D01*
X273746499Y-68820445D01*
X273746499Y-68820445D01*
G37*
G36*
X262970928Y-68866764D02*
G01*
X262992009Y-68873160D01*
X263011445Y-68883548D01*
X263028476Y-68897524D01*
X263042452Y-68914555D01*
X263052840Y-68933991D01*
X263059236Y-68955072D01*
X263062000Y-68983140D01*
X263062000Y-69446860D01*
X263059236Y-69474928D01*
X263052840Y-69496009D01*
X263042452Y-69515445D01*
X263028476Y-69532476D01*
X263011445Y-69546452D01*
X262992009Y-69556840D01*
X262970928Y-69563236D01*
X262942860Y-69566000D01*
X261479140Y-69566000D01*
X261451072Y-69563236D01*
X261429991Y-69556840D01*
X261410555Y-69546452D01*
X261393524Y-69532476D01*
X261379548Y-69515445D01*
X261369160Y-69496009D01*
X261362764Y-69474928D01*
X261360000Y-69446860D01*
X261360000Y-68983140D01*
X261362764Y-68955072D01*
X261369160Y-68933991D01*
X261379548Y-68914555D01*
X261393524Y-68897524D01*
X261410555Y-68883548D01*
X261429991Y-68873160D01*
X261451072Y-68866764D01*
X261479140Y-68864000D01*
X262942860Y-68864000D01*
X262970928Y-68866764D01*
X262970928Y-68866764D01*
G37*
G36*
X270170928Y-68866764D02*
G01*
X270192009Y-68873160D01*
X270211445Y-68883548D01*
X270228476Y-68897524D01*
X270242452Y-68914555D01*
X270252840Y-68933991D01*
X270259236Y-68955072D01*
X270262000Y-68983140D01*
X270262000Y-69446860D01*
X270259236Y-69474928D01*
X270252840Y-69496009D01*
X270242452Y-69515445D01*
X270228476Y-69532476D01*
X270211445Y-69546452D01*
X270192009Y-69556840D01*
X270170928Y-69563236D01*
X270142860Y-69566000D01*
X268679140Y-69566000D01*
X268651072Y-69563236D01*
X268629991Y-69556840D01*
X268610555Y-69546452D01*
X268593524Y-69532476D01*
X268579548Y-69515445D01*
X268569160Y-69496009D01*
X268562764Y-69474928D01*
X268560000Y-69446860D01*
X268560000Y-68983140D01*
X268562764Y-68955072D01*
X268569160Y-68933991D01*
X268579548Y-68914555D01*
X268593524Y-68897524D01*
X268610555Y-68883548D01*
X268629991Y-68873160D01*
X268651072Y-68866764D01*
X268679140Y-68864000D01*
X270142860Y-68864000D01*
X270170928Y-68866764D01*
X270170928Y-68866764D01*
G37*
G36*
X270170928Y-67596764D02*
G01*
X270192009Y-67603160D01*
X270211445Y-67613548D01*
X270228476Y-67627524D01*
X270242452Y-67644555D01*
X270252840Y-67663991D01*
X270259236Y-67685072D01*
X270262000Y-67713140D01*
X270262000Y-68176860D01*
X270259236Y-68204928D01*
X270252840Y-68226009D01*
X270242452Y-68245445D01*
X270228476Y-68262476D01*
X270211445Y-68276452D01*
X270192009Y-68286840D01*
X270170928Y-68293236D01*
X270142860Y-68296000D01*
X268679140Y-68296000D01*
X268651072Y-68293236D01*
X268629991Y-68286840D01*
X268610555Y-68276452D01*
X268593524Y-68262476D01*
X268579548Y-68245445D01*
X268569160Y-68226009D01*
X268562764Y-68204928D01*
X268560000Y-68176860D01*
X268560000Y-67713140D01*
X268562764Y-67685072D01*
X268569160Y-67663991D01*
X268579548Y-67644555D01*
X268593524Y-67627524D01*
X268610555Y-67613548D01*
X268629991Y-67603160D01*
X268651072Y-67596764D01*
X268679140Y-67594000D01*
X270142860Y-67594000D01*
X270170928Y-67596764D01*
X270170928Y-67596764D01*
G37*
G36*
X262970928Y-67596764D02*
G01*
X262992009Y-67603160D01*
X263011445Y-67613548D01*
X263028476Y-67627524D01*
X263042452Y-67644555D01*
X263052840Y-67663991D01*
X263059236Y-67685072D01*
X263062000Y-67713140D01*
X263062000Y-68176860D01*
X263059236Y-68204928D01*
X263052840Y-68226009D01*
X263042452Y-68245445D01*
X263028476Y-68262476D01*
X263011445Y-68276452D01*
X262992009Y-68286840D01*
X262970928Y-68293236D01*
X262942860Y-68296000D01*
X261479140Y-68296000D01*
X261451072Y-68293236D01*
X261429991Y-68286840D01*
X261410555Y-68276452D01*
X261393524Y-68262476D01*
X261379548Y-68245445D01*
X261369160Y-68226009D01*
X261362764Y-68204928D01*
X261360000Y-68176860D01*
X261360000Y-67713140D01*
X261362764Y-67685072D01*
X261369160Y-67663991D01*
X261379548Y-67644555D01*
X261393524Y-67627524D01*
X261410555Y-67613548D01*
X261429991Y-67603160D01*
X261451072Y-67596764D01*
X261479140Y-67594000D01*
X262942860Y-67594000D01*
X262970928Y-67596764D01*
X262970928Y-67596764D01*
G37*
G36*
X256954499Y-66788445D02*
G01*
X256991995Y-66799820D01*
X257026554Y-66818292D01*
X257056847Y-66843153D01*
X257081708Y-66873446D01*
X257100180Y-66908005D01*
X257111555Y-66945501D01*
X257116000Y-66990638D01*
X257116000Y-67629362D01*
X257111555Y-67674499D01*
X257100180Y-67711995D01*
X257081708Y-67746554D01*
X257056847Y-67776847D01*
X257026554Y-67801708D01*
X256991995Y-67820180D01*
X256954499Y-67831555D01*
X256909362Y-67836000D01*
X256170638Y-67836000D01*
X256125501Y-67831555D01*
X256088005Y-67820180D01*
X256053446Y-67801708D01*
X256023153Y-67776847D01*
X255998292Y-67746554D01*
X255979820Y-67711995D01*
X255968445Y-67674499D01*
X255964000Y-67629362D01*
X255964000Y-66990638D01*
X255968445Y-66945501D01*
X255979820Y-66908005D01*
X255998292Y-66873446D01*
X256023153Y-66843153D01*
X256053446Y-66818292D01*
X256088005Y-66799820D01*
X256125501Y-66788445D01*
X256170638Y-66784000D01*
X256909362Y-66784000D01*
X256954499Y-66788445D01*
X256954499Y-66788445D01*
G37*
G36*
X258704499Y-66788445D02*
G01*
X258741995Y-66799820D01*
X258776554Y-66818292D01*
X258806847Y-66843153D01*
X258831708Y-66873446D01*
X258850180Y-66908005D01*
X258861555Y-66945501D01*
X258866000Y-66990638D01*
X258866000Y-67629362D01*
X258861555Y-67674499D01*
X258850180Y-67711995D01*
X258831708Y-67746554D01*
X258806847Y-67776847D01*
X258776554Y-67801708D01*
X258741995Y-67820180D01*
X258704499Y-67831555D01*
X258659362Y-67836000D01*
X257920638Y-67836000D01*
X257875501Y-67831555D01*
X257838005Y-67820180D01*
X257803446Y-67801708D01*
X257773153Y-67776847D01*
X257748292Y-67746554D01*
X257729820Y-67711995D01*
X257718445Y-67674499D01*
X257714000Y-67629362D01*
X257714000Y-66990638D01*
X257718445Y-66945501D01*
X257729820Y-66908005D01*
X257748292Y-66873446D01*
X257773153Y-66843153D01*
X257803446Y-66818292D01*
X257838005Y-66799820D01*
X257875501Y-66788445D01*
X257920638Y-66784000D01*
X258659362Y-66784000D01*
X258704499Y-66788445D01*
X258704499Y-66788445D01*
G37*
G36*
X273746499Y-66788445D02*
G01*
X273783995Y-66799820D01*
X273818554Y-66818292D01*
X273848847Y-66843153D01*
X273873708Y-66873446D01*
X273892180Y-66908005D01*
X273903555Y-66945501D01*
X273908000Y-66990638D01*
X273908000Y-67629362D01*
X273903555Y-67674499D01*
X273892180Y-67711995D01*
X273873708Y-67746554D01*
X273848847Y-67776847D01*
X273818554Y-67801708D01*
X273783995Y-67820180D01*
X273746499Y-67831555D01*
X273701362Y-67836000D01*
X272962638Y-67836000D01*
X272917501Y-67831555D01*
X272880005Y-67820180D01*
X272845446Y-67801708D01*
X272815153Y-67776847D01*
X272790292Y-67746554D01*
X272771820Y-67711995D01*
X272760445Y-67674499D01*
X272756000Y-67629362D01*
X272756000Y-66990638D01*
X272760445Y-66945501D01*
X272771820Y-66908005D01*
X272790292Y-66873446D01*
X272815153Y-66843153D01*
X272845446Y-66818292D01*
X272880005Y-66799820D01*
X272917501Y-66788445D01*
X272962638Y-66784000D01*
X273701362Y-66784000D01*
X273746499Y-66788445D01*
X273746499Y-66788445D01*
G37*
G36*
X275496499Y-66788445D02*
G01*
X275533995Y-66799820D01*
X275568554Y-66818292D01*
X275598847Y-66843153D01*
X275623708Y-66873446D01*
X275642180Y-66908005D01*
X275653555Y-66945501D01*
X275658000Y-66990638D01*
X275658000Y-67629362D01*
X275653555Y-67674499D01*
X275642180Y-67711995D01*
X275623708Y-67746554D01*
X275598847Y-67776847D01*
X275568554Y-67801708D01*
X275533995Y-67820180D01*
X275496499Y-67831555D01*
X275451362Y-67836000D01*
X274712638Y-67836000D01*
X274667501Y-67831555D01*
X274630005Y-67820180D01*
X274595446Y-67801708D01*
X274565153Y-67776847D01*
X274540292Y-67746554D01*
X274521820Y-67711995D01*
X274510445Y-67674499D01*
X274506000Y-67629362D01*
X274506000Y-66990638D01*
X274510445Y-66945501D01*
X274521820Y-66908005D01*
X274540292Y-66873446D01*
X274565153Y-66843153D01*
X274595446Y-66818292D01*
X274630005Y-66799820D01*
X274667501Y-66788445D01*
X274712638Y-66784000D01*
X275451362Y-66784000D01*
X275496499Y-66788445D01*
X275496499Y-66788445D01*
G37*
G36*
X262970928Y-66326764D02*
G01*
X262992009Y-66333160D01*
X263011445Y-66343548D01*
X263028476Y-66357524D01*
X263042452Y-66374555D01*
X263052840Y-66393991D01*
X263059236Y-66415072D01*
X263062000Y-66443140D01*
X263062000Y-66906860D01*
X263059236Y-66934928D01*
X263052840Y-66956009D01*
X263042452Y-66975445D01*
X263028476Y-66992476D01*
X263011445Y-67006452D01*
X262992009Y-67016840D01*
X262970928Y-67023236D01*
X262942860Y-67026000D01*
X261479140Y-67026000D01*
X261451072Y-67023236D01*
X261429991Y-67016840D01*
X261410555Y-67006452D01*
X261393524Y-66992476D01*
X261379548Y-66975445D01*
X261369160Y-66956009D01*
X261362764Y-66934928D01*
X261360000Y-66906860D01*
X261360000Y-66443140D01*
X261362764Y-66415072D01*
X261369160Y-66393991D01*
X261379548Y-66374555D01*
X261393524Y-66357524D01*
X261410555Y-66343548D01*
X261429991Y-66333160D01*
X261451072Y-66326764D01*
X261479140Y-66324000D01*
X262942860Y-66324000D01*
X262970928Y-66326764D01*
X262970928Y-66326764D01*
G37*
G36*
X270170928Y-66326764D02*
G01*
X270192009Y-66333160D01*
X270211445Y-66343548D01*
X270228476Y-66357524D01*
X270242452Y-66374555D01*
X270252840Y-66393991D01*
X270259236Y-66415072D01*
X270262000Y-66443140D01*
X270262000Y-66906860D01*
X270259236Y-66934928D01*
X270252840Y-66956009D01*
X270242452Y-66975445D01*
X270228476Y-66992476D01*
X270211445Y-67006452D01*
X270192009Y-67016840D01*
X270170928Y-67023236D01*
X270142860Y-67026000D01*
X268679140Y-67026000D01*
X268651072Y-67023236D01*
X268629991Y-67016840D01*
X268610555Y-67006452D01*
X268593524Y-66992476D01*
X268579548Y-66975445D01*
X268569160Y-66956009D01*
X268562764Y-66934928D01*
X268560000Y-66906860D01*
X268560000Y-66443140D01*
X268562764Y-66415072D01*
X268569160Y-66393991D01*
X268579548Y-66374555D01*
X268593524Y-66357524D01*
X268610555Y-66343548D01*
X268629991Y-66333160D01*
X268651072Y-66326764D01*
X268679140Y-66324000D01*
X270142860Y-66324000D01*
X270170928Y-66326764D01*
X270170928Y-66326764D01*
G37*
G36*
X273746499Y-64756445D02*
G01*
X273783995Y-64767820D01*
X273818554Y-64786292D01*
X273848847Y-64811153D01*
X273873708Y-64841446D01*
X273892180Y-64876005D01*
X273903555Y-64913501D01*
X273908000Y-64958638D01*
X273908000Y-65597362D01*
X273903555Y-65642499D01*
X273892180Y-65679995D01*
X273873708Y-65714554D01*
X273848847Y-65744847D01*
X273818554Y-65769708D01*
X273783995Y-65788180D01*
X273746499Y-65799555D01*
X273701362Y-65804000D01*
X272962638Y-65804000D01*
X272917501Y-65799555D01*
X272880005Y-65788180D01*
X272845446Y-65769708D01*
X272815153Y-65744847D01*
X272790292Y-65714554D01*
X272771820Y-65679995D01*
X272760445Y-65642499D01*
X272756000Y-65597362D01*
X272756000Y-64958638D01*
X272760445Y-64913501D01*
X272771820Y-64876005D01*
X272790292Y-64841446D01*
X272815153Y-64811153D01*
X272845446Y-64786292D01*
X272880005Y-64767820D01*
X272917501Y-64756445D01*
X272962638Y-64752000D01*
X273701362Y-64752000D01*
X273746499Y-64756445D01*
X273746499Y-64756445D01*
G37*
G36*
X256954499Y-64756445D02*
G01*
X256991995Y-64767820D01*
X257026554Y-64786292D01*
X257056847Y-64811153D01*
X257081708Y-64841446D01*
X257100180Y-64876005D01*
X257111555Y-64913501D01*
X257116000Y-64958638D01*
X257116000Y-65597362D01*
X257111555Y-65642499D01*
X257100180Y-65679995D01*
X257081708Y-65714554D01*
X257056847Y-65744847D01*
X257026554Y-65769708D01*
X256991995Y-65788180D01*
X256954499Y-65799555D01*
X256909362Y-65804000D01*
X256170638Y-65804000D01*
X256125501Y-65799555D01*
X256088005Y-65788180D01*
X256053446Y-65769708D01*
X256023153Y-65744847D01*
X255998292Y-65714554D01*
X255979820Y-65679995D01*
X255968445Y-65642499D01*
X255964000Y-65597362D01*
X255964000Y-64958638D01*
X255968445Y-64913501D01*
X255979820Y-64876005D01*
X255998292Y-64841446D01*
X256023153Y-64811153D01*
X256053446Y-64786292D01*
X256088005Y-64767820D01*
X256125501Y-64756445D01*
X256170638Y-64752000D01*
X256909362Y-64752000D01*
X256954499Y-64756445D01*
X256954499Y-64756445D01*
G37*
G36*
X258704499Y-64756445D02*
G01*
X258741995Y-64767820D01*
X258776554Y-64786292D01*
X258806847Y-64811153D01*
X258831708Y-64841446D01*
X258850180Y-64876005D01*
X258861555Y-64913501D01*
X258866000Y-64958638D01*
X258866000Y-65597362D01*
X258861555Y-65642499D01*
X258850180Y-65679995D01*
X258831708Y-65714554D01*
X258806847Y-65744847D01*
X258776554Y-65769708D01*
X258741995Y-65788180D01*
X258704499Y-65799555D01*
X258659362Y-65804000D01*
X257920638Y-65804000D01*
X257875501Y-65799555D01*
X257838005Y-65788180D01*
X257803446Y-65769708D01*
X257773153Y-65744847D01*
X257748292Y-65714554D01*
X257729820Y-65679995D01*
X257718445Y-65642499D01*
X257714000Y-65597362D01*
X257714000Y-64958638D01*
X257718445Y-64913501D01*
X257729820Y-64876005D01*
X257748292Y-64841446D01*
X257773153Y-64811153D01*
X257803446Y-64786292D01*
X257838005Y-64767820D01*
X257875501Y-64756445D01*
X257920638Y-64752000D01*
X258659362Y-64752000D01*
X258704499Y-64756445D01*
X258704499Y-64756445D01*
G37*
G36*
X275496499Y-64756445D02*
G01*
X275533995Y-64767820D01*
X275568554Y-64786292D01*
X275598847Y-64811153D01*
X275623708Y-64841446D01*
X275642180Y-64876005D01*
X275653555Y-64913501D01*
X275658000Y-64958638D01*
X275658000Y-65597362D01*
X275653555Y-65642499D01*
X275642180Y-65679995D01*
X275623708Y-65714554D01*
X275598847Y-65744847D01*
X275568554Y-65769708D01*
X275533995Y-65788180D01*
X275496499Y-65799555D01*
X275451362Y-65804000D01*
X274712638Y-65804000D01*
X274667501Y-65799555D01*
X274630005Y-65788180D01*
X274595446Y-65769708D01*
X274565153Y-65744847D01*
X274540292Y-65714554D01*
X274521820Y-65679995D01*
X274510445Y-65642499D01*
X274506000Y-65597362D01*
X274506000Y-64958638D01*
X274510445Y-64913501D01*
X274521820Y-64876005D01*
X274540292Y-64841446D01*
X274565153Y-64811153D01*
X274595446Y-64786292D01*
X274630005Y-64767820D01*
X274667501Y-64756445D01*
X274712638Y-64752000D01*
X275451362Y-64752000D01*
X275496499Y-64756445D01*
X275496499Y-64756445D01*
G37*
G36*
X270170928Y-65056764D02*
G01*
X270192009Y-65063160D01*
X270211445Y-65073548D01*
X270228476Y-65087524D01*
X270242452Y-65104555D01*
X270252840Y-65123991D01*
X270259236Y-65145072D01*
X270262000Y-65173140D01*
X270262000Y-65636860D01*
X270259236Y-65664928D01*
X270252840Y-65686009D01*
X270242452Y-65705445D01*
X270228476Y-65722476D01*
X270211445Y-65736452D01*
X270192009Y-65746840D01*
X270170928Y-65753236D01*
X270142860Y-65756000D01*
X268679140Y-65756000D01*
X268651072Y-65753236D01*
X268629991Y-65746840D01*
X268610555Y-65736452D01*
X268593524Y-65722476D01*
X268579548Y-65705445D01*
X268569160Y-65686009D01*
X268562764Y-65664928D01*
X268560000Y-65636860D01*
X268560000Y-65173140D01*
X268562764Y-65145072D01*
X268569160Y-65123991D01*
X268579548Y-65104555D01*
X268593524Y-65087524D01*
X268610555Y-65073548D01*
X268629991Y-65063160D01*
X268651072Y-65056764D01*
X268679140Y-65054000D01*
X270142860Y-65054000D01*
X270170928Y-65056764D01*
X270170928Y-65056764D01*
G37*
G36*
X262970928Y-65056764D02*
G01*
X262992009Y-65063160D01*
X263011445Y-65073548D01*
X263028476Y-65087524D01*
X263042452Y-65104555D01*
X263052840Y-65123991D01*
X263059236Y-65145072D01*
X263062000Y-65173140D01*
X263062000Y-65636860D01*
X263059236Y-65664928D01*
X263052840Y-65686009D01*
X263042452Y-65705445D01*
X263028476Y-65722476D01*
X263011445Y-65736452D01*
X262992009Y-65746840D01*
X262970928Y-65753236D01*
X262942860Y-65756000D01*
X261479140Y-65756000D01*
X261451072Y-65753236D01*
X261429991Y-65746840D01*
X261410555Y-65736452D01*
X261393524Y-65722476D01*
X261379548Y-65705445D01*
X261369160Y-65686009D01*
X261362764Y-65664928D01*
X261360000Y-65636860D01*
X261360000Y-65173140D01*
X261362764Y-65145072D01*
X261369160Y-65123991D01*
X261379548Y-65104555D01*
X261393524Y-65087524D01*
X261410555Y-65073548D01*
X261429991Y-65063160D01*
X261451072Y-65056764D01*
X261479140Y-65054000D01*
X262942860Y-65054000D01*
X262970928Y-65056764D01*
X262970928Y-65056764D01*
G37*
G36*
X273746499Y-62724445D02*
G01*
X273783995Y-62735820D01*
X273818554Y-62754292D01*
X273848847Y-62779153D01*
X273873708Y-62809446D01*
X273892180Y-62844005D01*
X273903555Y-62881501D01*
X273908000Y-62926638D01*
X273908000Y-63565362D01*
X273903555Y-63610499D01*
X273892180Y-63647995D01*
X273873708Y-63682554D01*
X273848847Y-63712847D01*
X273818554Y-63737708D01*
X273783995Y-63756180D01*
X273746499Y-63767555D01*
X273701362Y-63772000D01*
X272962638Y-63772000D01*
X272917501Y-63767555D01*
X272880005Y-63756180D01*
X272845446Y-63737708D01*
X272815153Y-63712847D01*
X272790292Y-63682554D01*
X272771820Y-63647995D01*
X272760445Y-63610499D01*
X272756000Y-63565362D01*
X272756000Y-62926638D01*
X272760445Y-62881501D01*
X272771820Y-62844005D01*
X272790292Y-62809446D01*
X272815153Y-62779153D01*
X272845446Y-62754292D01*
X272880005Y-62735820D01*
X272917501Y-62724445D01*
X272962638Y-62720000D01*
X273701362Y-62720000D01*
X273746499Y-62724445D01*
X273746499Y-62724445D01*
G37*
G36*
X258704499Y-62724445D02*
G01*
X258741995Y-62735820D01*
X258776554Y-62754292D01*
X258806847Y-62779153D01*
X258831708Y-62809446D01*
X258850180Y-62844005D01*
X258861555Y-62881501D01*
X258866000Y-62926638D01*
X258866000Y-63565362D01*
X258861555Y-63610499D01*
X258850180Y-63647995D01*
X258831708Y-63682554D01*
X258806847Y-63712847D01*
X258776554Y-63737708D01*
X258741995Y-63756180D01*
X258704499Y-63767555D01*
X258659362Y-63772000D01*
X257920638Y-63772000D01*
X257875501Y-63767555D01*
X257838005Y-63756180D01*
X257803446Y-63737708D01*
X257773153Y-63712847D01*
X257748292Y-63682554D01*
X257729820Y-63647995D01*
X257718445Y-63610499D01*
X257714000Y-63565362D01*
X257714000Y-62926638D01*
X257718445Y-62881501D01*
X257729820Y-62844005D01*
X257748292Y-62809446D01*
X257773153Y-62779153D01*
X257803446Y-62754292D01*
X257838005Y-62735820D01*
X257875501Y-62724445D01*
X257920638Y-62720000D01*
X258659362Y-62720000D01*
X258704499Y-62724445D01*
X258704499Y-62724445D01*
G37*
G36*
X256954499Y-62724445D02*
G01*
X256991995Y-62735820D01*
X257026554Y-62754292D01*
X257056847Y-62779153D01*
X257081708Y-62809446D01*
X257100180Y-62844005D01*
X257111555Y-62881501D01*
X257116000Y-62926638D01*
X257116000Y-63565362D01*
X257111555Y-63610499D01*
X257100180Y-63647995D01*
X257081708Y-63682554D01*
X257056847Y-63712847D01*
X257026554Y-63737708D01*
X256991995Y-63756180D01*
X256954499Y-63767555D01*
X256909362Y-63772000D01*
X256170638Y-63772000D01*
X256125501Y-63767555D01*
X256088005Y-63756180D01*
X256053446Y-63737708D01*
X256023153Y-63712847D01*
X255998292Y-63682554D01*
X255979820Y-63647995D01*
X255968445Y-63610499D01*
X255964000Y-63565362D01*
X255964000Y-62926638D01*
X255968445Y-62881501D01*
X255979820Y-62844005D01*
X255998292Y-62809446D01*
X256023153Y-62779153D01*
X256053446Y-62754292D01*
X256088005Y-62735820D01*
X256125501Y-62724445D01*
X256170638Y-62720000D01*
X256909362Y-62720000D01*
X256954499Y-62724445D01*
X256954499Y-62724445D01*
G37*
G36*
X275496499Y-62724445D02*
G01*
X275533995Y-62735820D01*
X275568554Y-62754292D01*
X275598847Y-62779153D01*
X275623708Y-62809446D01*
X275642180Y-62844005D01*
X275653555Y-62881501D01*
X275658000Y-62926638D01*
X275658000Y-63565362D01*
X275653555Y-63610499D01*
X275642180Y-63647995D01*
X275623708Y-63682554D01*
X275598847Y-63712847D01*
X275568554Y-63737708D01*
X275533995Y-63756180D01*
X275496499Y-63767555D01*
X275451362Y-63772000D01*
X274712638Y-63772000D01*
X274667501Y-63767555D01*
X274630005Y-63756180D01*
X274595446Y-63737708D01*
X274565153Y-63712847D01*
X274540292Y-63682554D01*
X274521820Y-63647995D01*
X274510445Y-63610499D01*
X274506000Y-63565362D01*
X274506000Y-62926638D01*
X274510445Y-62881501D01*
X274521820Y-62844005D01*
X274540292Y-62809446D01*
X274565153Y-62779153D01*
X274595446Y-62754292D01*
X274630005Y-62735820D01*
X274667501Y-62724445D01*
X274712638Y-62720000D01*
X275451362Y-62720000D01*
X275496499Y-62724445D01*
X275496499Y-62724445D01*
G37*
G36*
X268628892Y-61214154D02*
G01*
X268802273Y-61285971D01*
X268958311Y-61390232D01*
X269091011Y-61522932D01*
X269195272Y-61678970D01*
X269267089Y-61852351D01*
X269303700Y-62036410D01*
X269303700Y-62224076D01*
X269267089Y-62408135D01*
X269195272Y-62581516D01*
X269091011Y-62737554D01*
X268958311Y-62870254D01*
X268802273Y-62974515D01*
X268802272Y-62974516D01*
X268802271Y-62974516D01*
X268628892Y-63046332D01*
X268444834Y-63082943D01*
X268257166Y-63082943D01*
X268073108Y-63046332D01*
X267899729Y-62974516D01*
X267899728Y-62974516D01*
X267899727Y-62974515D01*
X267743689Y-62870254D01*
X267610989Y-62737554D01*
X267506728Y-62581516D01*
X267434911Y-62408135D01*
X267398300Y-62224076D01*
X267398300Y-62036410D01*
X267434911Y-61852351D01*
X267506728Y-61678970D01*
X267610989Y-61522932D01*
X267743689Y-61390232D01*
X267899727Y-61285971D01*
X268073108Y-61214154D01*
X268257166Y-61177543D01*
X268444834Y-61177543D01*
X268628892Y-61214154D01*
X268628892Y-61214154D01*
G37*
G36*
X266088892Y-61214154D02*
G01*
X266262273Y-61285971D01*
X266418311Y-61390232D01*
X266551011Y-61522932D01*
X266655272Y-61678970D01*
X266727089Y-61852351D01*
X266763700Y-62036410D01*
X266763700Y-62224076D01*
X266727089Y-62408135D01*
X266655272Y-62581516D01*
X266551011Y-62737554D01*
X266418311Y-62870254D01*
X266262273Y-62974515D01*
X266262272Y-62974516D01*
X266262271Y-62974516D01*
X266088892Y-63046332D01*
X265904834Y-63082943D01*
X265717166Y-63082943D01*
X265533108Y-63046332D01*
X265359729Y-62974516D01*
X265359728Y-62974516D01*
X265359727Y-62974515D01*
X265203689Y-62870254D01*
X265070989Y-62737554D01*
X264966728Y-62581516D01*
X264894911Y-62408135D01*
X264858300Y-62224076D01*
X264858300Y-62036410D01*
X264894911Y-61852351D01*
X264966728Y-61678970D01*
X265070989Y-61522932D01*
X265203689Y-61390232D01*
X265359727Y-61285971D01*
X265533108Y-61214154D01*
X265717166Y-61177543D01*
X265904834Y-61177543D01*
X266088892Y-61214154D01*
X266088892Y-61214154D01*
G37*
G36*
X263548892Y-61214154D02*
G01*
X263722273Y-61285971D01*
X263878311Y-61390232D01*
X264011011Y-61522932D01*
X264115272Y-61678970D01*
X264187089Y-61852351D01*
X264223700Y-62036410D01*
X264223700Y-62224076D01*
X264187089Y-62408135D01*
X264115272Y-62581516D01*
X264011011Y-62737554D01*
X263878311Y-62870254D01*
X263722273Y-62974515D01*
X263722272Y-62974516D01*
X263722271Y-62974516D01*
X263548892Y-63046332D01*
X263364834Y-63082943D01*
X263177166Y-63082943D01*
X262993108Y-63046332D01*
X262819729Y-62974516D01*
X262819728Y-62974516D01*
X262819727Y-62974515D01*
X262663689Y-62870254D01*
X262530989Y-62737554D01*
X262426728Y-62581516D01*
X262354911Y-62408135D01*
X262318300Y-62224076D01*
X262318300Y-62036410D01*
X262354911Y-61852351D01*
X262426728Y-61678970D01*
X262530989Y-61522932D01*
X262663689Y-61390232D01*
X262819727Y-61285971D01*
X262993108Y-61214154D01*
X263177166Y-61177543D01*
X263364834Y-61177543D01*
X263548892Y-61214154D01*
X263548892Y-61214154D01*
G37*
G36*
X257179000Y-60683000D02*
G01*
X256277000Y-60683000D01*
X256277000Y-59681000D01*
X257179000Y-59681000D01*
X257179000Y-60683000D01*
X257179000Y-60683000D01*
G37*
G36*
X255279000Y-60683000D02*
G01*
X254377000Y-60683000D01*
X254377000Y-59681000D01*
X255279000Y-59681000D01*
X255279000Y-60683000D01*
X255279000Y-60683000D01*
G37*
G36*
X256229000Y-58683000D02*
G01*
X255327000Y-58683000D01*
X255327000Y-57681000D01*
X256229000Y-57681000D01*
X256229000Y-58683000D01*
X256229000Y-58683000D01*
G37*
G36*
X261820643Y-53788548D02*
G01*
X262072605Y-53892914D01*
X262072607Y-53892915D01*
X262103208Y-53913362D01*
X262299367Y-54044431D01*
X262492212Y-54237276D01*
X262643729Y-54464038D01*
X262748095Y-54716000D01*
X262801300Y-54983480D01*
X262801300Y-55256206D01*
X262748095Y-55523686D01*
X262643729Y-55775648D01*
X262492212Y-56002410D01*
X262299367Y-56195255D01*
X262129681Y-56308635D01*
X262072607Y-56346771D01*
X262072606Y-56346772D01*
X262072605Y-56346772D01*
X261820643Y-56451138D01*
X261553163Y-56504343D01*
X261280437Y-56504343D01*
X261012957Y-56451138D01*
X260760995Y-56346772D01*
X260760994Y-56346772D01*
X260760993Y-56346771D01*
X260703919Y-56308635D01*
X260534233Y-56195255D01*
X260341388Y-56002410D01*
X260189871Y-55775648D01*
X260085505Y-55523686D01*
X260032300Y-55256206D01*
X260032300Y-54983480D01*
X260085505Y-54716000D01*
X260189871Y-54464038D01*
X260341388Y-54237276D01*
X260534233Y-54044431D01*
X260730392Y-53913362D01*
X260760993Y-53892915D01*
X260760995Y-53892914D01*
X261012957Y-53788548D01*
X261280437Y-53735343D01*
X261553163Y-53735343D01*
X261820643Y-53788548D01*
X261820643Y-53788548D01*
G37*
G36*
X270609043Y-53788548D02*
G01*
X270861005Y-53892914D01*
X270861007Y-53892915D01*
X270891608Y-53913362D01*
X271087767Y-54044431D01*
X271280612Y-54237276D01*
X271432129Y-54464038D01*
X271536495Y-54716000D01*
X271589700Y-54983480D01*
X271589700Y-55256206D01*
X271536495Y-55523686D01*
X271432129Y-55775648D01*
X271280612Y-56002410D01*
X271087767Y-56195255D01*
X270918081Y-56308635D01*
X270861007Y-56346771D01*
X270861006Y-56346772D01*
X270861005Y-56346772D01*
X270609043Y-56451138D01*
X270341563Y-56504343D01*
X270068837Y-56504343D01*
X269801357Y-56451138D01*
X269549395Y-56346772D01*
X269549394Y-56346772D01*
X269549393Y-56346771D01*
X269492319Y-56308635D01*
X269322633Y-56195255D01*
X269129788Y-56002410D01*
X268978271Y-55775648D01*
X268873905Y-55523686D01*
X268820700Y-55256206D01*
X268820700Y-54983480D01*
X268873905Y-54716000D01*
X268978271Y-54464038D01*
X269129788Y-54237276D01*
X269322633Y-54044431D01*
X269518792Y-53913362D01*
X269549393Y-53892915D01*
X269549395Y-53892914D01*
X269801357Y-53788548D01*
X270068837Y-53735343D01*
X270341563Y-53735343D01*
X270609043Y-53788548D01*
X270609043Y-53788548D01*
G37*
G36*
X256954499Y-55104445D02*
G01*
X256991995Y-55115820D01*
X257026554Y-55134292D01*
X257056847Y-55159153D01*
X257081708Y-55189446D01*
X257100180Y-55224005D01*
X257111555Y-55261501D01*
X257116000Y-55306638D01*
X257116000Y-55945362D01*
X257111555Y-55990499D01*
X257100180Y-56027995D01*
X257081708Y-56062554D01*
X257056847Y-56092847D01*
X257026554Y-56117708D01*
X256991995Y-56136180D01*
X256954499Y-56147555D01*
X256909362Y-56152000D01*
X256170638Y-56152000D01*
X256125501Y-56147555D01*
X256088005Y-56136180D01*
X256053446Y-56117708D01*
X256023153Y-56092847D01*
X255998292Y-56062554D01*
X255979820Y-56027995D01*
X255968445Y-55990499D01*
X255964000Y-55945362D01*
X255964000Y-55306638D01*
X255968445Y-55261501D01*
X255979820Y-55224005D01*
X255998292Y-55189446D01*
X256023153Y-55159153D01*
X256053446Y-55134292D01*
X256088005Y-55115820D01*
X256125501Y-55104445D01*
X256170638Y-55100000D01*
X256909362Y-55100000D01*
X256954499Y-55104445D01*
X256954499Y-55104445D01*
G37*
G36*
X258704499Y-55104445D02*
G01*
X258741995Y-55115820D01*
X258776554Y-55134292D01*
X258806847Y-55159153D01*
X258831708Y-55189446D01*
X258850180Y-55224005D01*
X258861555Y-55261501D01*
X258866000Y-55306638D01*
X258866000Y-55945362D01*
X258861555Y-55990499D01*
X258850180Y-56027995D01*
X258831708Y-56062554D01*
X258806847Y-56092847D01*
X258776554Y-56117708D01*
X258741995Y-56136180D01*
X258704499Y-56147555D01*
X258659362Y-56152000D01*
X257920638Y-56152000D01*
X257875501Y-56147555D01*
X257838005Y-56136180D01*
X257803446Y-56117708D01*
X257773153Y-56092847D01*
X257748292Y-56062554D01*
X257729820Y-56027995D01*
X257718445Y-55990499D01*
X257714000Y-55945362D01*
X257714000Y-55306638D01*
X257718445Y-55261501D01*
X257729820Y-55224005D01*
X257748292Y-55189446D01*
X257773153Y-55159153D01*
X257803446Y-55134292D01*
X257838005Y-55115820D01*
X257875501Y-55104445D01*
X257920638Y-55100000D01*
X258659362Y-55100000D01*
X258704499Y-55104445D01*
X258704499Y-55104445D01*
G37*
G36*
X267227499Y-53072445D02*
G01*
X267264995Y-53083820D01*
X267299554Y-53102292D01*
X267329847Y-53127153D01*
X267354708Y-53157446D01*
X267373180Y-53192005D01*
X267384555Y-53229501D01*
X267389000Y-53274638D01*
X267389000Y-53913362D01*
X267384555Y-53958499D01*
X267373180Y-53995995D01*
X267354708Y-54030554D01*
X267329847Y-54060847D01*
X267299554Y-54085708D01*
X267264995Y-54104180D01*
X267227499Y-54115555D01*
X267182362Y-54120000D01*
X266443638Y-54120000D01*
X266398501Y-54115555D01*
X266361005Y-54104180D01*
X266326446Y-54085708D01*
X266296153Y-54060847D01*
X266271292Y-54030554D01*
X266252820Y-53995995D01*
X266241445Y-53958499D01*
X266237000Y-53913362D01*
X266237000Y-53274638D01*
X266241445Y-53229501D01*
X266252820Y-53192005D01*
X266271292Y-53157446D01*
X266296153Y-53127153D01*
X266326446Y-53102292D01*
X266361005Y-53083820D01*
X266398501Y-53072445D01*
X266443638Y-53068000D01*
X267182362Y-53068000D01*
X267227499Y-53072445D01*
X267227499Y-53072445D01*
G37*
G36*
X256954499Y-53072445D02*
G01*
X256991995Y-53083820D01*
X257026554Y-53102292D01*
X257056847Y-53127153D01*
X257081708Y-53157446D01*
X257100180Y-53192005D01*
X257111555Y-53229501D01*
X257116000Y-53274638D01*
X257116000Y-53913362D01*
X257111555Y-53958499D01*
X257100180Y-53995995D01*
X257081708Y-54030554D01*
X257056847Y-54060847D01*
X257026554Y-54085708D01*
X256991995Y-54104180D01*
X256954499Y-54115555D01*
X256909362Y-54120000D01*
X256170638Y-54120000D01*
X256125501Y-54115555D01*
X256088005Y-54104180D01*
X256053446Y-54085708D01*
X256023153Y-54060847D01*
X255998292Y-54030554D01*
X255979820Y-53995995D01*
X255968445Y-53958499D01*
X255964000Y-53913362D01*
X255964000Y-53274638D01*
X255968445Y-53229501D01*
X255979820Y-53192005D01*
X255998292Y-53157446D01*
X256023153Y-53127153D01*
X256053446Y-53102292D01*
X256088005Y-53083820D01*
X256125501Y-53072445D01*
X256170638Y-53068000D01*
X256909362Y-53068000D01*
X256954499Y-53072445D01*
X256954499Y-53072445D01*
G37*
G36*
X265477499Y-53072445D02*
G01*
X265514995Y-53083820D01*
X265549554Y-53102292D01*
X265579847Y-53127153D01*
X265604708Y-53157446D01*
X265623180Y-53192005D01*
X265634555Y-53229501D01*
X265639000Y-53274638D01*
X265639000Y-53913362D01*
X265634555Y-53958499D01*
X265623180Y-53995995D01*
X265604708Y-54030554D01*
X265579847Y-54060847D01*
X265549554Y-54085708D01*
X265514995Y-54104180D01*
X265477499Y-54115555D01*
X265432362Y-54120000D01*
X264693638Y-54120000D01*
X264648501Y-54115555D01*
X264611005Y-54104180D01*
X264576446Y-54085708D01*
X264546153Y-54060847D01*
X264521292Y-54030554D01*
X264502820Y-53995995D01*
X264491445Y-53958499D01*
X264487000Y-53913362D01*
X264487000Y-53274638D01*
X264491445Y-53229501D01*
X264502820Y-53192005D01*
X264521292Y-53157446D01*
X264546153Y-53127153D01*
X264576446Y-53102292D01*
X264611005Y-53083820D01*
X264648501Y-53072445D01*
X264693638Y-53068000D01*
X265432362Y-53068000D01*
X265477499Y-53072445D01*
X265477499Y-53072445D01*
G37*
G36*
X258704499Y-53072445D02*
G01*
X258741995Y-53083820D01*
X258776554Y-53102292D01*
X258806847Y-53127153D01*
X258831708Y-53157446D01*
X258850180Y-53192005D01*
X258861555Y-53229501D01*
X258866000Y-53274638D01*
X258866000Y-53913362D01*
X258861555Y-53958499D01*
X258850180Y-53995995D01*
X258831708Y-54030554D01*
X258806847Y-54060847D01*
X258776554Y-54085708D01*
X258741995Y-54104180D01*
X258704499Y-54115555D01*
X258659362Y-54120000D01*
X257920638Y-54120000D01*
X257875501Y-54115555D01*
X257838005Y-54104180D01*
X257803446Y-54085708D01*
X257773153Y-54060847D01*
X257748292Y-54030554D01*
X257729820Y-53995995D01*
X257718445Y-53958499D01*
X257714000Y-53913362D01*
X257714000Y-53274638D01*
X257718445Y-53229501D01*
X257729820Y-53192005D01*
X257748292Y-53157446D01*
X257773153Y-53127153D01*
X257803446Y-53102292D01*
X257838005Y-53083820D01*
X257875501Y-53072445D01*
X257920638Y-53068000D01*
X258659362Y-53068000D01*
X258704499Y-53072445D01*
X258704499Y-53072445D01*
G37*
G36*
X258704499Y-51040445D02*
G01*
X258741995Y-51051820D01*
X258776554Y-51070292D01*
X258806847Y-51095153D01*
X258831708Y-51125446D01*
X258850180Y-51160005D01*
X258861555Y-51197501D01*
X258866000Y-51242638D01*
X258866000Y-51881362D01*
X258861555Y-51926499D01*
X258850180Y-51963995D01*
X258831708Y-51998554D01*
X258806847Y-52028847D01*
X258776554Y-52053708D01*
X258741995Y-52072180D01*
X258704499Y-52083555D01*
X258659362Y-52088000D01*
X257920638Y-52088000D01*
X257875501Y-52083555D01*
X257838005Y-52072180D01*
X257803446Y-52053708D01*
X257773153Y-52028847D01*
X257748292Y-51998554D01*
X257729820Y-51963995D01*
X257718445Y-51926499D01*
X257714000Y-51881362D01*
X257714000Y-51242638D01*
X257718445Y-51197501D01*
X257729820Y-51160005D01*
X257748292Y-51125446D01*
X257773153Y-51095153D01*
X257803446Y-51070292D01*
X257838005Y-51051820D01*
X257875501Y-51040445D01*
X257920638Y-51036000D01*
X258659362Y-51036000D01*
X258704499Y-51040445D01*
X258704499Y-51040445D01*
G37*
G36*
X256954499Y-51040445D02*
G01*
X256991995Y-51051820D01*
X257026554Y-51070292D01*
X257056847Y-51095153D01*
X257081708Y-51125446D01*
X257100180Y-51160005D01*
X257111555Y-51197501D01*
X257116000Y-51242638D01*
X257116000Y-51881362D01*
X257111555Y-51926499D01*
X257100180Y-51963995D01*
X257081708Y-51998554D01*
X257056847Y-52028847D01*
X257026554Y-52053708D01*
X256991995Y-52072180D01*
X256954499Y-52083555D01*
X256909362Y-52088000D01*
X256170638Y-52088000D01*
X256125501Y-52083555D01*
X256088005Y-52072180D01*
X256053446Y-52053708D01*
X256023153Y-52028847D01*
X255998292Y-51998554D01*
X255979820Y-51963995D01*
X255968445Y-51926499D01*
X255964000Y-51881362D01*
X255964000Y-51242638D01*
X255968445Y-51197501D01*
X255979820Y-51160005D01*
X255998292Y-51125446D01*
X256023153Y-51095153D01*
X256053446Y-51070292D01*
X256088005Y-51051820D01*
X256125501Y-51040445D01*
X256170638Y-51036000D01*
X256909362Y-51036000D01*
X256954499Y-51040445D01*
X256954499Y-51040445D01*
G37*
G36*
X270170928Y-50832764D02*
G01*
X270192009Y-50839160D01*
X270211445Y-50849548D01*
X270228476Y-50863524D01*
X270242452Y-50880555D01*
X270252840Y-50899991D01*
X270259236Y-50921072D01*
X270262000Y-50949140D01*
X270262000Y-51412860D01*
X270259236Y-51440928D01*
X270252840Y-51462009D01*
X270242452Y-51481445D01*
X270228476Y-51498476D01*
X270211445Y-51512452D01*
X270192009Y-51522840D01*
X270170928Y-51529236D01*
X270142860Y-51532000D01*
X268679140Y-51532000D01*
X268651072Y-51529236D01*
X268629991Y-51522840D01*
X268610555Y-51512452D01*
X268593524Y-51498476D01*
X268579548Y-51481445D01*
X268569160Y-51462009D01*
X268562764Y-51440928D01*
X268560000Y-51412860D01*
X268560000Y-50949140D01*
X268562764Y-50921072D01*
X268569160Y-50899991D01*
X268579548Y-50880555D01*
X268593524Y-50863524D01*
X268610555Y-50849548D01*
X268629991Y-50839160D01*
X268651072Y-50832764D01*
X268679140Y-50830000D01*
X270142860Y-50830000D01*
X270170928Y-50832764D01*
X270170928Y-50832764D01*
G37*
G36*
X262970928Y-50832764D02*
G01*
X262992009Y-50839160D01*
X263011445Y-50849548D01*
X263028476Y-50863524D01*
X263042452Y-50880555D01*
X263052840Y-50899991D01*
X263059236Y-50921072D01*
X263062000Y-50949140D01*
X263062000Y-51412860D01*
X263059236Y-51440928D01*
X263052840Y-51462009D01*
X263042452Y-51481445D01*
X263028476Y-51498476D01*
X263011445Y-51512452D01*
X262992009Y-51522840D01*
X262970928Y-51529236D01*
X262942860Y-51532000D01*
X261479140Y-51532000D01*
X261451072Y-51529236D01*
X261429991Y-51522840D01*
X261410555Y-51512452D01*
X261393524Y-51498476D01*
X261379548Y-51481445D01*
X261369160Y-51462009D01*
X261362764Y-51440928D01*
X261360000Y-51412860D01*
X261360000Y-50949140D01*
X261362764Y-50921072D01*
X261369160Y-50899991D01*
X261379548Y-50880555D01*
X261393524Y-50863524D01*
X261410555Y-50849548D01*
X261429991Y-50839160D01*
X261451072Y-50832764D01*
X261479140Y-50830000D01*
X262942860Y-50830000D01*
X262970928Y-50832764D01*
X262970928Y-50832764D01*
G37*
G36*
X270170928Y-49562764D02*
G01*
X270192009Y-49569160D01*
X270211445Y-49579548D01*
X270228476Y-49593524D01*
X270242452Y-49610555D01*
X270252840Y-49629991D01*
X270259236Y-49651072D01*
X270262000Y-49679140D01*
X270262000Y-50142860D01*
X270259236Y-50170928D01*
X270252840Y-50192009D01*
X270242452Y-50211445D01*
X270228476Y-50228476D01*
X270211445Y-50242452D01*
X270192009Y-50252840D01*
X270170928Y-50259236D01*
X270142860Y-50262000D01*
X268679140Y-50262000D01*
X268651072Y-50259236D01*
X268629991Y-50252840D01*
X268610555Y-50242452D01*
X268593524Y-50228476D01*
X268579548Y-50211445D01*
X268569160Y-50192009D01*
X268562764Y-50170928D01*
X268560000Y-50142860D01*
X268560000Y-49679140D01*
X268562764Y-49651072D01*
X268569160Y-49629991D01*
X268579548Y-49610555D01*
X268593524Y-49593524D01*
X268610555Y-49579548D01*
X268629991Y-49569160D01*
X268651072Y-49562764D01*
X268679140Y-49560000D01*
X270142860Y-49560000D01*
X270170928Y-49562764D01*
X270170928Y-49562764D01*
G37*
G36*
X262970928Y-49562764D02*
G01*
X262992009Y-49569160D01*
X263011445Y-49579548D01*
X263028476Y-49593524D01*
X263042452Y-49610555D01*
X263052840Y-49629991D01*
X263059236Y-49651072D01*
X263062000Y-49679140D01*
X263062000Y-50142860D01*
X263059236Y-50170928D01*
X263052840Y-50192009D01*
X263042452Y-50211445D01*
X263028476Y-50228476D01*
X263011445Y-50242452D01*
X262992009Y-50252840D01*
X262970928Y-50259236D01*
X262942860Y-50262000D01*
X261479140Y-50262000D01*
X261451072Y-50259236D01*
X261429991Y-50252840D01*
X261410555Y-50242452D01*
X261393524Y-50228476D01*
X261379548Y-50211445D01*
X261369160Y-50192009D01*
X261362764Y-50170928D01*
X261360000Y-50142860D01*
X261360000Y-49679140D01*
X261362764Y-49651072D01*
X261369160Y-49629991D01*
X261379548Y-49610555D01*
X261393524Y-49593524D01*
X261410555Y-49579548D01*
X261429991Y-49569160D01*
X261451072Y-49562764D01*
X261479140Y-49560000D01*
X262942860Y-49560000D01*
X262970928Y-49562764D01*
X262970928Y-49562764D01*
G37*
G36*
X256954499Y-49008445D02*
G01*
X256991995Y-49019820D01*
X257026554Y-49038292D01*
X257056847Y-49063153D01*
X257081708Y-49093446D01*
X257100180Y-49128005D01*
X257111555Y-49165501D01*
X257116000Y-49210638D01*
X257116000Y-49849362D01*
X257111555Y-49894499D01*
X257100180Y-49931995D01*
X257081708Y-49966554D01*
X257056847Y-49996847D01*
X257026554Y-50021708D01*
X256991995Y-50040180D01*
X256954499Y-50051555D01*
X256909362Y-50056000D01*
X256170638Y-50056000D01*
X256125501Y-50051555D01*
X256088005Y-50040180D01*
X256053446Y-50021708D01*
X256023153Y-49996847D01*
X255998292Y-49966554D01*
X255979820Y-49931995D01*
X255968445Y-49894499D01*
X255964000Y-49849362D01*
X255964000Y-49210638D01*
X255968445Y-49165501D01*
X255979820Y-49128005D01*
X255998292Y-49093446D01*
X256023153Y-49063153D01*
X256053446Y-49038292D01*
X256088005Y-49019820D01*
X256125501Y-49008445D01*
X256170638Y-49004000D01*
X256909362Y-49004000D01*
X256954499Y-49008445D01*
X256954499Y-49008445D01*
G37*
G36*
X273746499Y-49008445D02*
G01*
X273783995Y-49019820D01*
X273818554Y-49038292D01*
X273848847Y-49063153D01*
X273873708Y-49093446D01*
X273892180Y-49128005D01*
X273903555Y-49165501D01*
X273908000Y-49210638D01*
X273908000Y-49849362D01*
X273903555Y-49894499D01*
X273892180Y-49931995D01*
X273873708Y-49966554D01*
X273848847Y-49996847D01*
X273818554Y-50021708D01*
X273783995Y-50040180D01*
X273746499Y-50051555D01*
X273701362Y-50056000D01*
X272962638Y-50056000D01*
X272917501Y-50051555D01*
X272880005Y-50040180D01*
X272845446Y-50021708D01*
X272815153Y-49996847D01*
X272790292Y-49966554D01*
X272771820Y-49931995D01*
X272760445Y-49894499D01*
X272756000Y-49849362D01*
X272756000Y-49210638D01*
X272760445Y-49165501D01*
X272771820Y-49128005D01*
X272790292Y-49093446D01*
X272815153Y-49063153D01*
X272845446Y-49038292D01*
X272880005Y-49019820D01*
X272917501Y-49008445D01*
X272962638Y-49004000D01*
X273701362Y-49004000D01*
X273746499Y-49008445D01*
X273746499Y-49008445D01*
G37*
G36*
X275496499Y-49008445D02*
G01*
X275533995Y-49019820D01*
X275568554Y-49038292D01*
X275598847Y-49063153D01*
X275623708Y-49093446D01*
X275642180Y-49128005D01*
X275653555Y-49165501D01*
X275658000Y-49210638D01*
X275658000Y-49849362D01*
X275653555Y-49894499D01*
X275642180Y-49931995D01*
X275623708Y-49966554D01*
X275598847Y-49996847D01*
X275568554Y-50021708D01*
X275533995Y-50040180D01*
X275496499Y-50051555D01*
X275451362Y-50056000D01*
X274712638Y-50056000D01*
X274667501Y-50051555D01*
X274630005Y-50040180D01*
X274595446Y-50021708D01*
X274565153Y-49996847D01*
X274540292Y-49966554D01*
X274521820Y-49931995D01*
X274510445Y-49894499D01*
X274506000Y-49849362D01*
X274506000Y-49210638D01*
X274510445Y-49165501D01*
X274521820Y-49128005D01*
X274540292Y-49093446D01*
X274565153Y-49063153D01*
X274595446Y-49038292D01*
X274630005Y-49019820D01*
X274667501Y-49008445D01*
X274712638Y-49004000D01*
X275451362Y-49004000D01*
X275496499Y-49008445D01*
X275496499Y-49008445D01*
G37*
G36*
X258704499Y-49008445D02*
G01*
X258741995Y-49019820D01*
X258776554Y-49038292D01*
X258806847Y-49063153D01*
X258831708Y-49093446D01*
X258850180Y-49128005D01*
X258861555Y-49165501D01*
X258866000Y-49210638D01*
X258866000Y-49849362D01*
X258861555Y-49894499D01*
X258850180Y-49931995D01*
X258831708Y-49966554D01*
X258806847Y-49996847D01*
X258776554Y-50021708D01*
X258741995Y-50040180D01*
X258704499Y-50051555D01*
X258659362Y-50056000D01*
X257920638Y-50056000D01*
X257875501Y-50051555D01*
X257838005Y-50040180D01*
X257803446Y-50021708D01*
X257773153Y-49996847D01*
X257748292Y-49966554D01*
X257729820Y-49931995D01*
X257718445Y-49894499D01*
X257714000Y-49849362D01*
X257714000Y-49210638D01*
X257718445Y-49165501D01*
X257729820Y-49128005D01*
X257748292Y-49093446D01*
X257773153Y-49063153D01*
X257803446Y-49038292D01*
X257838005Y-49019820D01*
X257875501Y-49008445D01*
X257920638Y-49004000D01*
X258659362Y-49004000D01*
X258704499Y-49008445D01*
X258704499Y-49008445D01*
G37*
G36*
X270170928Y-48292764D02*
G01*
X270192009Y-48299160D01*
X270211445Y-48309548D01*
X270228476Y-48323524D01*
X270242452Y-48340555D01*
X270252840Y-48359991D01*
X270259236Y-48381072D01*
X270262000Y-48409140D01*
X270262000Y-48872860D01*
X270259236Y-48900928D01*
X270252840Y-48922009D01*
X270242452Y-48941445D01*
X270228476Y-48958476D01*
X270211445Y-48972452D01*
X270192009Y-48982840D01*
X270170928Y-48989236D01*
X270142860Y-48992000D01*
X268679140Y-48992000D01*
X268651072Y-48989236D01*
X268629991Y-48982840D01*
X268610555Y-48972452D01*
X268593524Y-48958476D01*
X268579548Y-48941445D01*
X268569160Y-48922009D01*
X268562764Y-48900928D01*
X268560000Y-48872860D01*
X268560000Y-48409140D01*
X268562764Y-48381072D01*
X268569160Y-48359991D01*
X268579548Y-48340555D01*
X268593524Y-48323524D01*
X268610555Y-48309548D01*
X268629991Y-48299160D01*
X268651072Y-48292764D01*
X268679140Y-48290000D01*
X270142860Y-48290000D01*
X270170928Y-48292764D01*
X270170928Y-48292764D01*
G37*
G36*
X262970928Y-48292764D02*
G01*
X262992009Y-48299160D01*
X263011445Y-48309548D01*
X263028476Y-48323524D01*
X263042452Y-48340555D01*
X263052840Y-48359991D01*
X263059236Y-48381072D01*
X263062000Y-48409140D01*
X263062000Y-48872860D01*
X263059236Y-48900928D01*
X263052840Y-48922009D01*
X263042452Y-48941445D01*
X263028476Y-48958476D01*
X263011445Y-48972452D01*
X262992009Y-48982840D01*
X262970928Y-48989236D01*
X262942860Y-48992000D01*
X261479140Y-48992000D01*
X261451072Y-48989236D01*
X261429991Y-48982840D01*
X261410555Y-48972452D01*
X261393524Y-48958476D01*
X261379548Y-48941445D01*
X261369160Y-48922009D01*
X261362764Y-48900928D01*
X261360000Y-48872860D01*
X261360000Y-48409140D01*
X261362764Y-48381072D01*
X261369160Y-48359991D01*
X261379548Y-48340555D01*
X261393524Y-48323524D01*
X261410555Y-48309548D01*
X261429991Y-48299160D01*
X261451072Y-48292764D01*
X261479140Y-48290000D01*
X262942860Y-48290000D01*
X262970928Y-48292764D01*
X262970928Y-48292764D01*
G37*
G36*
X275496499Y-46976445D02*
G01*
X275533995Y-46987820D01*
X275568554Y-47006292D01*
X275598847Y-47031153D01*
X275623708Y-47061446D01*
X275642180Y-47096005D01*
X275653555Y-47133501D01*
X275658000Y-47178638D01*
X275658000Y-47817362D01*
X275653555Y-47862499D01*
X275642180Y-47899995D01*
X275623708Y-47934554D01*
X275598847Y-47964847D01*
X275568554Y-47989708D01*
X275533995Y-48008180D01*
X275496499Y-48019555D01*
X275451362Y-48024000D01*
X274712638Y-48024000D01*
X274667501Y-48019555D01*
X274630005Y-48008180D01*
X274595446Y-47989708D01*
X274565153Y-47964847D01*
X274540292Y-47934554D01*
X274521820Y-47899995D01*
X274510445Y-47862499D01*
X274506000Y-47817362D01*
X274506000Y-47178638D01*
X274510445Y-47133501D01*
X274521820Y-47096005D01*
X274540292Y-47061446D01*
X274565153Y-47031153D01*
X274595446Y-47006292D01*
X274630005Y-46987820D01*
X274667501Y-46976445D01*
X274712638Y-46972000D01*
X275451362Y-46972000D01*
X275496499Y-46976445D01*
X275496499Y-46976445D01*
G37*
G36*
X256954499Y-46976445D02*
G01*
X256991995Y-46987820D01*
X257026554Y-47006292D01*
X257056847Y-47031153D01*
X257081708Y-47061446D01*
X257100180Y-47096005D01*
X257111555Y-47133501D01*
X257116000Y-47178638D01*
X257116000Y-47817362D01*
X257111555Y-47862499D01*
X257100180Y-47899995D01*
X257081708Y-47934554D01*
X257056847Y-47964847D01*
X257026554Y-47989708D01*
X256991995Y-48008180D01*
X256954499Y-48019555D01*
X256909362Y-48024000D01*
X256170638Y-48024000D01*
X256125501Y-48019555D01*
X256088005Y-48008180D01*
X256053446Y-47989708D01*
X256023153Y-47964847D01*
X255998292Y-47934554D01*
X255979820Y-47899995D01*
X255968445Y-47862499D01*
X255964000Y-47817362D01*
X255964000Y-47178638D01*
X255968445Y-47133501D01*
X255979820Y-47096005D01*
X255998292Y-47061446D01*
X256023153Y-47031153D01*
X256053446Y-47006292D01*
X256088005Y-46987820D01*
X256125501Y-46976445D01*
X256170638Y-46972000D01*
X256909362Y-46972000D01*
X256954499Y-46976445D01*
X256954499Y-46976445D01*
G37*
G36*
X273746499Y-46976445D02*
G01*
X273783995Y-46987820D01*
X273818554Y-47006292D01*
X273848847Y-47031153D01*
X273873708Y-47061446D01*
X273892180Y-47096005D01*
X273903555Y-47133501D01*
X273908000Y-47178638D01*
X273908000Y-47817362D01*
X273903555Y-47862499D01*
X273892180Y-47899995D01*
X273873708Y-47934554D01*
X273848847Y-47964847D01*
X273818554Y-47989708D01*
X273783995Y-48008180D01*
X273746499Y-48019555D01*
X273701362Y-48024000D01*
X272962638Y-48024000D01*
X272917501Y-48019555D01*
X272880005Y-48008180D01*
X272845446Y-47989708D01*
X272815153Y-47964847D01*
X272790292Y-47934554D01*
X272771820Y-47899995D01*
X272760445Y-47862499D01*
X272756000Y-47817362D01*
X272756000Y-47178638D01*
X272760445Y-47133501D01*
X272771820Y-47096005D01*
X272790292Y-47061446D01*
X272815153Y-47031153D01*
X272845446Y-47006292D01*
X272880005Y-46987820D01*
X272917501Y-46976445D01*
X272962638Y-46972000D01*
X273701362Y-46972000D01*
X273746499Y-46976445D01*
X273746499Y-46976445D01*
G37*
G36*
X258704499Y-46976445D02*
G01*
X258741995Y-46987820D01*
X258776554Y-47006292D01*
X258806847Y-47031153D01*
X258831708Y-47061446D01*
X258850180Y-47096005D01*
X258861555Y-47133501D01*
X258866000Y-47178638D01*
X258866000Y-47817362D01*
X258861555Y-47862499D01*
X258850180Y-47899995D01*
X258831708Y-47934554D01*
X258806847Y-47964847D01*
X258776554Y-47989708D01*
X258741995Y-48008180D01*
X258704499Y-48019555D01*
X258659362Y-48024000D01*
X257920638Y-48024000D01*
X257875501Y-48019555D01*
X257838005Y-48008180D01*
X257803446Y-47989708D01*
X257773153Y-47964847D01*
X257748292Y-47934554D01*
X257729820Y-47899995D01*
X257718445Y-47862499D01*
X257714000Y-47817362D01*
X257714000Y-47178638D01*
X257718445Y-47133501D01*
X257729820Y-47096005D01*
X257748292Y-47061446D01*
X257773153Y-47031153D01*
X257803446Y-47006292D01*
X257838005Y-46987820D01*
X257875501Y-46976445D01*
X257920638Y-46972000D01*
X258659362Y-46972000D01*
X258704499Y-46976445D01*
X258704499Y-46976445D01*
G37*
G36*
X270170928Y-47022764D02*
G01*
X270192009Y-47029160D01*
X270211445Y-47039548D01*
X270228476Y-47053524D01*
X270242452Y-47070555D01*
X270252840Y-47089991D01*
X270259236Y-47111072D01*
X270262000Y-47139140D01*
X270262000Y-47602860D01*
X270259236Y-47630928D01*
X270252840Y-47652009D01*
X270242452Y-47671445D01*
X270228476Y-47688476D01*
X270211445Y-47702452D01*
X270192009Y-47712840D01*
X270170928Y-47719236D01*
X270142860Y-47722000D01*
X268679140Y-47722000D01*
X268651072Y-47719236D01*
X268629991Y-47712840D01*
X268610555Y-47702452D01*
X268593524Y-47688476D01*
X268579548Y-47671445D01*
X268569160Y-47652009D01*
X268562764Y-47630928D01*
X268560000Y-47602860D01*
X268560000Y-47139140D01*
X268562764Y-47111072D01*
X268569160Y-47089991D01*
X268579548Y-47070555D01*
X268593524Y-47053524D01*
X268610555Y-47039548D01*
X268629991Y-47029160D01*
X268651072Y-47022764D01*
X268679140Y-47020000D01*
X270142860Y-47020000D01*
X270170928Y-47022764D01*
X270170928Y-47022764D01*
G37*
G36*
X262970928Y-47022764D02*
G01*
X262992009Y-47029160D01*
X263011445Y-47039548D01*
X263028476Y-47053524D01*
X263042452Y-47070555D01*
X263052840Y-47089991D01*
X263059236Y-47111072D01*
X263062000Y-47139140D01*
X263062000Y-47602860D01*
X263059236Y-47630928D01*
X263052840Y-47652009D01*
X263042452Y-47671445D01*
X263028476Y-47688476D01*
X263011445Y-47702452D01*
X262992009Y-47712840D01*
X262970928Y-47719236D01*
X262942860Y-47722000D01*
X261479140Y-47722000D01*
X261451072Y-47719236D01*
X261429991Y-47712840D01*
X261410555Y-47702452D01*
X261393524Y-47688476D01*
X261379548Y-47671445D01*
X261369160Y-47652009D01*
X261362764Y-47630928D01*
X261360000Y-47602860D01*
X261360000Y-47139140D01*
X261362764Y-47111072D01*
X261369160Y-47089991D01*
X261379548Y-47070555D01*
X261393524Y-47053524D01*
X261410555Y-47039548D01*
X261429991Y-47029160D01*
X261451072Y-47022764D01*
X261479140Y-47020000D01*
X262942860Y-47020000D01*
X262970928Y-47022764D01*
X262970928Y-47022764D01*
G37*
G36*
X263799643Y-42144242D02*
G01*
X263947602Y-42205529D01*
X264080756Y-42294499D01*
X264194002Y-42407745D01*
X264282972Y-42540899D01*
X264344259Y-42688858D01*
X264375501Y-42845925D01*
X264375501Y-43006075D01*
X264344259Y-43163142D01*
X264282972Y-43311101D01*
X264194002Y-43444255D01*
X264080756Y-43557501D01*
X263947602Y-43646471D01*
X263799643Y-43707758D01*
X263642576Y-43739000D01*
X263482426Y-43739000D01*
X263325359Y-43707758D01*
X263177400Y-43646471D01*
X263044246Y-43557501D01*
X262931000Y-43444255D01*
X262842030Y-43311101D01*
X262780743Y-43163142D01*
X262749501Y-43006075D01*
X262749501Y-42845925D01*
X262780743Y-42688858D01*
X262842030Y-42540899D01*
X262931000Y-42407745D01*
X263044246Y-42294499D01*
X263177400Y-42205529D01*
X263325359Y-42144242D01*
X263482426Y-42113000D01*
X263642576Y-42113000D01*
X263799643Y-42144242D01*
X263799643Y-42144242D01*
G37*
G36*
X261835501Y-43739000D02*
G01*
X260209501Y-43739000D01*
X260209501Y-42113000D01*
X261835501Y-42113000D01*
X261835501Y-43739000D01*
X261835501Y-43739000D01*
G37*
G36*
X268879643Y-42144242D02*
G01*
X269027602Y-42205529D01*
X269160756Y-42294499D01*
X269274002Y-42407745D01*
X269362972Y-42540899D01*
X269424259Y-42688858D01*
X269455501Y-42845925D01*
X269455501Y-43006075D01*
X269424259Y-43163142D01*
X269362972Y-43311101D01*
X269274002Y-43444255D01*
X269160756Y-43557501D01*
X269027602Y-43646471D01*
X268879643Y-43707758D01*
X268722576Y-43739000D01*
X268562426Y-43739000D01*
X268405359Y-43707758D01*
X268257400Y-43646471D01*
X268124246Y-43557501D01*
X268011000Y-43444255D01*
X267922030Y-43311101D01*
X267860743Y-43163142D01*
X267829501Y-43006075D01*
X267829501Y-42845925D01*
X267860743Y-42688858D01*
X267922030Y-42540899D01*
X268011000Y-42407745D01*
X268124246Y-42294499D01*
X268257400Y-42205529D01*
X268405359Y-42144242D01*
X268562426Y-42113000D01*
X268722576Y-42113000D01*
X268879643Y-42144242D01*
X268879643Y-42144242D01*
G37*
G36*
X266339643Y-42144242D02*
G01*
X266487602Y-42205529D01*
X266620756Y-42294499D01*
X266734002Y-42407745D01*
X266822972Y-42540899D01*
X266884259Y-42688858D01*
X266915501Y-42845925D01*
X266915501Y-43006075D01*
X266884259Y-43163142D01*
X266822972Y-43311101D01*
X266734002Y-43444255D01*
X266620756Y-43557501D01*
X266487602Y-43646471D01*
X266339643Y-43707758D01*
X266182576Y-43739000D01*
X266022426Y-43739000D01*
X265865359Y-43707758D01*
X265717400Y-43646471D01*
X265584246Y-43557501D01*
X265471000Y-43444255D01*
X265382030Y-43311101D01*
X265320743Y-43163142D01*
X265289501Y-43006075D01*
X265289501Y-42845925D01*
X265320743Y-42688858D01*
X265382030Y-42540899D01*
X265471000Y-42407745D01*
X265584246Y-42294499D01*
X265717400Y-42205529D01*
X265865359Y-42144242D01*
X266022426Y-42113000D01*
X266182576Y-42113000D01*
X266339643Y-42144242D01*
X266339643Y-42144242D01*
G37*
G36*
X271419643Y-42144242D02*
G01*
X271567602Y-42205529D01*
X271700756Y-42294499D01*
X271814002Y-42407745D01*
X271902972Y-42540899D01*
X271964259Y-42688858D01*
X271995501Y-42845925D01*
X271995501Y-43006075D01*
X271964259Y-43163142D01*
X271902972Y-43311101D01*
X271814002Y-43444255D01*
X271700756Y-43557501D01*
X271567602Y-43646471D01*
X271419643Y-43707758D01*
X271262576Y-43739000D01*
X271102426Y-43739000D01*
X270945359Y-43707758D01*
X270797400Y-43646471D01*
X270664246Y-43557501D01*
X270551000Y-43444255D01*
X270462030Y-43311101D01*
X270400743Y-43163142D01*
X270369501Y-43006075D01*
X270369501Y-42845925D01*
X270400743Y-42688858D01*
X270462030Y-42540899D01*
X270551000Y-42407745D01*
X270664246Y-42294499D01*
X270797400Y-42205529D01*
X270945359Y-42144242D01*
X271102426Y-42113000D01*
X271262576Y-42113000D01*
X271419643Y-42144242D01*
X271419643Y-42144242D01*
G37*
G36*
X263799643Y-39604242D02*
G01*
X263947602Y-39665529D01*
X264080756Y-39754499D01*
X264194002Y-39867745D01*
X264282972Y-40000899D01*
X264344259Y-40148858D01*
X264375501Y-40305925D01*
X264375501Y-40466075D01*
X264344259Y-40623142D01*
X264282972Y-40771101D01*
X264194002Y-40904255D01*
X264080756Y-41017501D01*
X263947602Y-41106471D01*
X263799643Y-41167758D01*
X263642576Y-41199000D01*
X263482426Y-41199000D01*
X263325359Y-41167758D01*
X263177400Y-41106471D01*
X263044246Y-41017501D01*
X262931000Y-40904255D01*
X262842030Y-40771101D01*
X262780743Y-40623142D01*
X262749501Y-40466075D01*
X262749501Y-40305925D01*
X262780743Y-40148858D01*
X262842030Y-40000899D01*
X262931000Y-39867745D01*
X263044246Y-39754499D01*
X263177400Y-39665529D01*
X263325359Y-39604242D01*
X263482426Y-39573000D01*
X263642576Y-39573000D01*
X263799643Y-39604242D01*
X263799643Y-39604242D01*
G37*
G36*
X261259643Y-39604242D02*
G01*
X261407602Y-39665529D01*
X261540756Y-39754499D01*
X261654002Y-39867745D01*
X261742972Y-40000899D01*
X261804259Y-40148858D01*
X261835501Y-40305925D01*
X261835501Y-40466075D01*
X261804259Y-40623142D01*
X261742972Y-40771101D01*
X261654002Y-40904255D01*
X261540756Y-41017501D01*
X261407602Y-41106471D01*
X261259643Y-41167758D01*
X261102576Y-41199000D01*
X260942426Y-41199000D01*
X260785359Y-41167758D01*
X260637400Y-41106471D01*
X260504246Y-41017501D01*
X260391000Y-40904255D01*
X260302030Y-40771101D01*
X260240743Y-40623142D01*
X260209501Y-40466075D01*
X260209501Y-40305925D01*
X260240743Y-40148858D01*
X260302030Y-40000899D01*
X260391000Y-39867745D01*
X260504246Y-39754499D01*
X260637400Y-39665529D01*
X260785359Y-39604242D01*
X260942426Y-39573000D01*
X261102576Y-39573000D01*
X261259643Y-39604242D01*
X261259643Y-39604242D01*
G37*
G36*
X271419643Y-39604242D02*
G01*
X271567602Y-39665529D01*
X271700756Y-39754499D01*
X271814002Y-39867745D01*
X271902972Y-40000899D01*
X271964259Y-40148858D01*
X271995501Y-40305925D01*
X271995501Y-40466075D01*
X271964259Y-40623142D01*
X271902972Y-40771101D01*
X271814002Y-40904255D01*
X271700756Y-41017501D01*
X271567602Y-41106471D01*
X271419643Y-41167758D01*
X271262576Y-41199000D01*
X271102426Y-41199000D01*
X270945359Y-41167758D01*
X270797400Y-41106471D01*
X270664246Y-41017501D01*
X270551000Y-40904255D01*
X270462030Y-40771101D01*
X270400743Y-40623142D01*
X270369501Y-40466075D01*
X270369501Y-40305925D01*
X270400743Y-40148858D01*
X270462030Y-40000899D01*
X270551000Y-39867745D01*
X270664246Y-39754499D01*
X270797400Y-39665529D01*
X270945359Y-39604242D01*
X271102426Y-39573000D01*
X271262576Y-39573000D01*
X271419643Y-39604242D01*
X271419643Y-39604242D01*
G37*
G36*
X266339643Y-39604242D02*
G01*
X266487602Y-39665529D01*
X266620756Y-39754499D01*
X266734002Y-39867745D01*
X266822972Y-40000899D01*
X266884259Y-40148858D01*
X266915501Y-40305925D01*
X266915501Y-40466075D01*
X266884259Y-40623142D01*
X266822972Y-40771101D01*
X266734002Y-40904255D01*
X266620756Y-41017501D01*
X266487602Y-41106471D01*
X266339643Y-41167758D01*
X266182576Y-41199000D01*
X266022426Y-41199000D01*
X265865359Y-41167758D01*
X265717400Y-41106471D01*
X265584246Y-41017501D01*
X265471000Y-40904255D01*
X265382030Y-40771101D01*
X265320743Y-40623142D01*
X265289501Y-40466075D01*
X265289501Y-40305925D01*
X265320743Y-40148858D01*
X265382030Y-40000899D01*
X265471000Y-39867745D01*
X265584246Y-39754499D01*
X265717400Y-39665529D01*
X265865359Y-39604242D01*
X266022426Y-39573000D01*
X266182576Y-39573000D01*
X266339643Y-39604242D01*
X266339643Y-39604242D01*
G37*
G36*
X268879643Y-39604242D02*
G01*
X269027602Y-39665529D01*
X269160756Y-39754499D01*
X269274002Y-39867745D01*
X269362972Y-40000899D01*
X269424259Y-40148858D01*
X269455501Y-40305925D01*
X269455501Y-40466075D01*
X269424259Y-40623142D01*
X269362972Y-40771101D01*
X269274002Y-40904255D01*
X269160756Y-41017501D01*
X269027602Y-41106471D01*
X268879643Y-41167758D01*
X268722576Y-41199000D01*
X268562426Y-41199000D01*
X268405359Y-41167758D01*
X268257400Y-41106471D01*
X268124246Y-41017501D01*
X268011000Y-40904255D01*
X267922030Y-40771101D01*
X267860743Y-40623142D01*
X267829501Y-40466075D01*
X267829501Y-40305925D01*
X267860743Y-40148858D01*
X267922030Y-40000899D01*
X268011000Y-39867745D01*
X268124246Y-39754499D01*
X268257400Y-39665529D01*
X268405359Y-39604242D01*
X268562426Y-39573000D01*
X268722576Y-39573000D01*
X268879643Y-39604242D01*
X268879643Y-39604242D01*
G37*
G36*
X268628892Y-34544154D02*
G01*
X268802273Y-34615971D01*
X268958311Y-34720232D01*
X269091011Y-34852932D01*
X269195272Y-35008970D01*
X269195273Y-35008972D01*
X269267089Y-35182351D01*
X269303700Y-35366409D01*
X269303700Y-35554077D01*
X269290526Y-35620309D01*
X269267089Y-35738135D01*
X269195272Y-35911516D01*
X269091011Y-36067554D01*
X268958311Y-36200254D01*
X268802273Y-36304515D01*
X268802272Y-36304516D01*
X268802271Y-36304516D01*
X268628892Y-36376332D01*
X268444834Y-36412943D01*
X268257166Y-36412943D01*
X268073108Y-36376332D01*
X267899729Y-36304516D01*
X267899728Y-36304516D01*
X267899727Y-36304515D01*
X267743689Y-36200254D01*
X267610989Y-36067554D01*
X267506728Y-35911516D01*
X267434911Y-35738135D01*
X267411474Y-35620309D01*
X267398300Y-35554077D01*
X267398300Y-35366409D01*
X267434911Y-35182351D01*
X267506727Y-35008972D01*
X267506728Y-35008970D01*
X267610989Y-34852932D01*
X267743689Y-34720232D01*
X267899727Y-34615971D01*
X268073108Y-34544154D01*
X268257166Y-34507543D01*
X268444834Y-34507543D01*
X268628892Y-34544154D01*
X268628892Y-34544154D01*
G37*
G36*
X263548892Y-34544154D02*
G01*
X263722273Y-34615971D01*
X263878311Y-34720232D01*
X264011011Y-34852932D01*
X264115272Y-35008970D01*
X264115273Y-35008972D01*
X264187089Y-35182351D01*
X264223700Y-35366409D01*
X264223700Y-35554077D01*
X264210526Y-35620309D01*
X264187089Y-35738135D01*
X264115272Y-35911516D01*
X264011011Y-36067554D01*
X263878311Y-36200254D01*
X263722273Y-36304515D01*
X263722272Y-36304516D01*
X263722271Y-36304516D01*
X263548892Y-36376332D01*
X263364834Y-36412943D01*
X263177166Y-36412943D01*
X262993108Y-36376332D01*
X262819729Y-36304516D01*
X262819728Y-36304516D01*
X262819727Y-36304515D01*
X262663689Y-36200254D01*
X262530989Y-36067554D01*
X262426728Y-35911516D01*
X262354911Y-35738135D01*
X262331474Y-35620309D01*
X262318300Y-35554077D01*
X262318300Y-35366409D01*
X262354911Y-35182351D01*
X262426727Y-35008972D01*
X262426728Y-35008970D01*
X262530989Y-34852932D01*
X262663689Y-34720232D01*
X262819727Y-34615971D01*
X262993108Y-34544154D01*
X263177166Y-34507543D01*
X263364834Y-34507543D01*
X263548892Y-34544154D01*
X263548892Y-34544154D01*
G37*
G36*
X266088892Y-34544154D02*
G01*
X266262273Y-34615971D01*
X266418311Y-34720232D01*
X266551011Y-34852932D01*
X266655272Y-35008970D01*
X266655273Y-35008972D01*
X266727089Y-35182351D01*
X266763700Y-35366409D01*
X266763700Y-35554077D01*
X266750526Y-35620309D01*
X266727089Y-35738135D01*
X266655272Y-35911516D01*
X266551011Y-36067554D01*
X266418311Y-36200254D01*
X266262273Y-36304515D01*
X266262272Y-36304516D01*
X266262271Y-36304516D01*
X266088892Y-36376332D01*
X265904834Y-36412943D01*
X265717166Y-36412943D01*
X265533108Y-36376332D01*
X265359729Y-36304516D01*
X265359728Y-36304516D01*
X265359727Y-36304515D01*
X265203689Y-36200254D01*
X265070989Y-36067554D01*
X264966728Y-35911516D01*
X264894911Y-35738135D01*
X264871474Y-35620309D01*
X264858300Y-35554077D01*
X264858300Y-35366409D01*
X264894911Y-35182351D01*
X264966727Y-35008972D01*
X264966728Y-35008970D01*
X265070989Y-34852932D01*
X265203689Y-34720232D01*
X265359727Y-34615971D01*
X265533108Y-34544154D01*
X265717166Y-34507543D01*
X265904834Y-34507543D01*
X266088892Y-34544154D01*
X266088892Y-34544154D01*
G37*
G36*
X255797499Y-34784445D02*
G01*
X255834995Y-34795820D01*
X255869554Y-34814292D01*
X255899847Y-34839153D01*
X255924708Y-34869446D01*
X255943180Y-34904005D01*
X255954555Y-34941501D01*
X255959000Y-34986638D01*
X255959000Y-35625362D01*
X255954555Y-35670499D01*
X255943180Y-35707995D01*
X255924708Y-35742554D01*
X255899847Y-35772847D01*
X255869554Y-35797708D01*
X255834995Y-35816180D01*
X255797499Y-35827555D01*
X255752362Y-35832000D01*
X255013638Y-35832000D01*
X254968501Y-35827555D01*
X254931005Y-35816180D01*
X254896446Y-35797708D01*
X254866153Y-35772847D01*
X254841292Y-35742554D01*
X254822820Y-35707995D01*
X254811445Y-35670499D01*
X254807000Y-35625362D01*
X254807000Y-34986638D01*
X254811445Y-34941501D01*
X254822820Y-34904005D01*
X254841292Y-34869446D01*
X254866153Y-34839153D01*
X254896446Y-34814292D01*
X254931005Y-34795820D01*
X254968501Y-34784445D01*
X255013638Y-34780000D01*
X255752362Y-34780000D01*
X255797499Y-34784445D01*
X255797499Y-34784445D01*
G37*
G36*
X254047499Y-34784445D02*
G01*
X254084995Y-34795820D01*
X254119554Y-34814292D01*
X254149847Y-34839153D01*
X254174708Y-34869446D01*
X254193180Y-34904005D01*
X254204555Y-34941501D01*
X254209000Y-34986638D01*
X254209000Y-35625362D01*
X254204555Y-35670499D01*
X254193180Y-35707995D01*
X254174708Y-35742554D01*
X254149847Y-35772847D01*
X254119554Y-35797708D01*
X254084995Y-35816180D01*
X254047499Y-35827555D01*
X254002362Y-35832000D01*
X253263638Y-35832000D01*
X253218501Y-35827555D01*
X253181005Y-35816180D01*
X253146446Y-35797708D01*
X253116153Y-35772847D01*
X253091292Y-35742554D01*
X253072820Y-35707995D01*
X253061445Y-35670499D01*
X253057000Y-35625362D01*
X253057000Y-34986638D01*
X253061445Y-34941501D01*
X253072820Y-34904005D01*
X253091292Y-34869446D01*
X253116153Y-34839153D01*
X253146446Y-34814292D01*
X253181005Y-34795820D01*
X253218501Y-34784445D01*
X253263638Y-34780000D01*
X254002362Y-34780000D01*
X254047499Y-34784445D01*
X254047499Y-34784445D01*
G37*
G36*
X276258499Y-34784445D02*
G01*
X276295995Y-34795820D01*
X276330554Y-34814292D01*
X276360847Y-34839153D01*
X276385708Y-34869446D01*
X276404180Y-34904005D01*
X276415555Y-34941501D01*
X276420000Y-34986638D01*
X276420000Y-35625362D01*
X276415555Y-35670499D01*
X276404180Y-35707995D01*
X276385708Y-35742554D01*
X276360847Y-35772847D01*
X276330554Y-35797708D01*
X276295995Y-35816180D01*
X276258499Y-35827555D01*
X276213362Y-35832000D01*
X275474638Y-35832000D01*
X275429501Y-35827555D01*
X275392005Y-35816180D01*
X275357446Y-35797708D01*
X275327153Y-35772847D01*
X275302292Y-35742554D01*
X275283820Y-35707995D01*
X275272445Y-35670499D01*
X275268000Y-35625362D01*
X275268000Y-34986638D01*
X275272445Y-34941501D01*
X275283820Y-34904005D01*
X275302292Y-34869446D01*
X275327153Y-34839153D01*
X275357446Y-34814292D01*
X275392005Y-34795820D01*
X275429501Y-34784445D01*
X275474638Y-34780000D01*
X276213362Y-34780000D01*
X276258499Y-34784445D01*
X276258499Y-34784445D01*
G37*
G36*
X278008499Y-34784445D02*
G01*
X278045995Y-34795820D01*
X278080554Y-34814292D01*
X278110847Y-34839153D01*
X278135708Y-34869446D01*
X278154180Y-34904005D01*
X278165555Y-34941501D01*
X278170000Y-34986638D01*
X278170000Y-35625362D01*
X278165555Y-35670499D01*
X278154180Y-35707995D01*
X278135708Y-35742554D01*
X278110847Y-35772847D01*
X278080554Y-35797708D01*
X278045995Y-35816180D01*
X278008499Y-35827555D01*
X277963362Y-35832000D01*
X277224638Y-35832000D01*
X277179501Y-35827555D01*
X277142005Y-35816180D01*
X277107446Y-35797708D01*
X277077153Y-35772847D01*
X277052292Y-35742554D01*
X277033820Y-35707995D01*
X277022445Y-35670499D01*
X277018000Y-35625362D01*
X277018000Y-34986638D01*
X277022445Y-34941501D01*
X277033820Y-34904005D01*
X277052292Y-34869446D01*
X277077153Y-34839153D01*
X277107446Y-34814292D01*
X277142005Y-34795820D01*
X277179501Y-34784445D01*
X277224638Y-34780000D01*
X277963362Y-34780000D01*
X278008499Y-34784445D01*
X278008499Y-34784445D01*
G37*
G36*
X278249000Y-33417000D02*
G01*
X277247000Y-33417000D01*
X277247000Y-32115000D01*
X278249000Y-32115000D01*
X278249000Y-33417000D01*
X278249000Y-33417000D01*
G37*
G36*
X274949000Y-33417000D02*
G01*
X273947000Y-33417000D01*
X273947000Y-32115000D01*
X274949000Y-32115000D01*
X274949000Y-33417000D01*
X274949000Y-33417000D01*
G37*
G36*
X257421000Y-33417000D02*
G01*
X256419000Y-33417000D01*
X256419000Y-32115000D01*
X257421000Y-32115000D01*
X257421000Y-33417000D01*
X257421000Y-33417000D01*
G37*
G36*
X254121000Y-33417000D02*
G01*
X253119000Y-33417000D01*
X253119000Y-32115000D01*
X254121000Y-32115000D01*
X254121000Y-33417000D01*
X254121000Y-33417000D01*
G37*
G36*
X263530499Y-30466445D02*
G01*
X263567995Y-30477820D01*
X263602554Y-30496292D01*
X263632847Y-30521153D01*
X263657708Y-30551446D01*
X263676180Y-30586005D01*
X263687555Y-30623501D01*
X263692000Y-30668638D01*
X263692000Y-31307362D01*
X263687555Y-31352499D01*
X263676180Y-31389995D01*
X263657708Y-31424554D01*
X263632847Y-31454847D01*
X263602554Y-31479708D01*
X263567995Y-31498180D01*
X263530499Y-31509555D01*
X263485362Y-31514000D01*
X262746638Y-31514000D01*
X262701501Y-31509555D01*
X262664005Y-31498180D01*
X262629446Y-31479708D01*
X262599153Y-31454847D01*
X262574292Y-31424554D01*
X262555820Y-31389995D01*
X262544445Y-31352499D01*
X262540000Y-31307362D01*
X262540000Y-30668638D01*
X262544445Y-30623501D01*
X262555820Y-30586005D01*
X262574292Y-30551446D01*
X262599153Y-30521153D01*
X262629446Y-30496292D01*
X262664005Y-30477820D01*
X262701501Y-30466445D01*
X262746638Y-30462000D01*
X263485362Y-30462000D01*
X263530499Y-30466445D01*
X263530499Y-30466445D01*
G37*
G36*
X268892499Y-30466445D02*
G01*
X268929995Y-30477820D01*
X268964554Y-30496292D01*
X268994847Y-30521153D01*
X269019708Y-30551446D01*
X269038180Y-30586005D01*
X269049555Y-30623501D01*
X269054000Y-30668638D01*
X269054000Y-31307362D01*
X269049555Y-31352499D01*
X269038180Y-31389995D01*
X269019708Y-31424554D01*
X268994847Y-31454847D01*
X268964554Y-31479708D01*
X268929995Y-31498180D01*
X268892499Y-31509555D01*
X268847362Y-31514000D01*
X268108638Y-31514000D01*
X268063501Y-31509555D01*
X268026005Y-31498180D01*
X267991446Y-31479708D01*
X267961153Y-31454847D01*
X267936292Y-31424554D01*
X267917820Y-31389995D01*
X267906445Y-31352499D01*
X267902000Y-31307362D01*
X267902000Y-30668638D01*
X267906445Y-30623501D01*
X267917820Y-30586005D01*
X267936292Y-30551446D01*
X267961153Y-30521153D01*
X267991446Y-30496292D01*
X268026005Y-30477820D01*
X268063501Y-30466445D01*
X268108638Y-30462000D01*
X268847362Y-30462000D01*
X268892499Y-30466445D01*
X268892499Y-30466445D01*
G37*
G36*
X261780499Y-30466445D02*
G01*
X261817995Y-30477820D01*
X261852554Y-30496292D01*
X261882847Y-30521153D01*
X261907708Y-30551446D01*
X261926180Y-30586005D01*
X261937555Y-30623501D01*
X261942000Y-30668638D01*
X261942000Y-31307362D01*
X261937555Y-31352499D01*
X261926180Y-31389995D01*
X261907708Y-31424554D01*
X261882847Y-31454847D01*
X261852554Y-31479708D01*
X261817995Y-31498180D01*
X261780499Y-31509555D01*
X261735362Y-31514000D01*
X260996638Y-31514000D01*
X260951501Y-31509555D01*
X260914005Y-31498180D01*
X260879446Y-31479708D01*
X260849153Y-31454847D01*
X260824292Y-31424554D01*
X260805820Y-31389995D01*
X260794445Y-31352499D01*
X260790000Y-31307362D01*
X260790000Y-30668638D01*
X260794445Y-30623501D01*
X260805820Y-30586005D01*
X260824292Y-30551446D01*
X260849153Y-30521153D01*
X260879446Y-30496292D01*
X260914005Y-30477820D01*
X260951501Y-30466445D01*
X260996638Y-30462000D01*
X261735362Y-30462000D01*
X261780499Y-30466445D01*
X261780499Y-30466445D01*
G37*
G36*
X270642499Y-30466445D02*
G01*
X270679995Y-30477820D01*
X270714554Y-30496292D01*
X270744847Y-30521153D01*
X270769708Y-30551446D01*
X270788180Y-30586005D01*
X270799555Y-30623501D01*
X270804000Y-30668638D01*
X270804000Y-31307362D01*
X270799555Y-31352499D01*
X270788180Y-31389995D01*
X270769708Y-31424554D01*
X270744847Y-31454847D01*
X270714554Y-31479708D01*
X270679995Y-31498180D01*
X270642499Y-31509555D01*
X270597362Y-31514000D01*
X269858638Y-31514000D01*
X269813501Y-31509555D01*
X269776005Y-31498180D01*
X269741446Y-31479708D01*
X269711153Y-31454847D01*
X269686292Y-31424554D01*
X269667820Y-31389995D01*
X269656445Y-31352499D01*
X269652000Y-31307362D01*
X269652000Y-30668638D01*
X269656445Y-30623501D01*
X269667820Y-30586005D01*
X269686292Y-30551446D01*
X269711153Y-30521153D01*
X269741446Y-30496292D01*
X269776005Y-30477820D01*
X269813501Y-30466445D01*
X269858638Y-30462000D01*
X270597362Y-30462000D01*
X270642499Y-30466445D01*
X270642499Y-30466445D01*
G37*
G36*
X270609043Y-27118548D02*
G01*
X270861005Y-27222914D01*
X270861007Y-27222915D01*
X270918081Y-27261051D01*
X271087767Y-27374431D01*
X271280612Y-27567276D01*
X271432129Y-27794038D01*
X271536495Y-28046000D01*
X271589700Y-28313480D01*
X271589700Y-28586206D01*
X271536495Y-28853686D01*
X271432129Y-29105648D01*
X271280612Y-29332410D01*
X271087767Y-29525255D01*
X270918081Y-29638635D01*
X270861007Y-29676771D01*
X270861006Y-29676772D01*
X270861005Y-29676772D01*
X270609043Y-29781138D01*
X270341563Y-29834343D01*
X270068837Y-29834343D01*
X269801357Y-29781138D01*
X269549395Y-29676772D01*
X269549394Y-29676772D01*
X269549393Y-29676771D01*
X269492319Y-29638635D01*
X269322633Y-29525255D01*
X269129788Y-29332410D01*
X268978271Y-29105648D01*
X268873905Y-28853686D01*
X268820700Y-28586206D01*
X268820700Y-28313480D01*
X268873905Y-28046000D01*
X268978271Y-27794038D01*
X269129788Y-27567276D01*
X269322633Y-27374431D01*
X269492319Y-27261051D01*
X269549393Y-27222915D01*
X269549395Y-27222914D01*
X269801357Y-27118548D01*
X270068837Y-27065343D01*
X270341563Y-27065343D01*
X270609043Y-27118548D01*
X270609043Y-27118548D01*
G37*
G36*
X261820643Y-27118548D02*
G01*
X262072605Y-27222914D01*
X262072607Y-27222915D01*
X262129681Y-27261051D01*
X262299367Y-27374431D01*
X262492212Y-27567276D01*
X262643729Y-27794038D01*
X262748095Y-28046000D01*
X262801300Y-28313480D01*
X262801300Y-28586206D01*
X262748095Y-28853686D01*
X262643729Y-29105648D01*
X262492212Y-29332410D01*
X262299367Y-29525255D01*
X262129681Y-29638635D01*
X262072607Y-29676771D01*
X262072606Y-29676772D01*
X262072605Y-29676772D01*
X261820643Y-29781138D01*
X261553163Y-29834343D01*
X261280437Y-29834343D01*
X261012957Y-29781138D01*
X260760995Y-29676772D01*
X260760994Y-29676772D01*
X260760993Y-29676771D01*
X260703919Y-29638635D01*
X260534233Y-29525255D01*
X260341388Y-29332410D01*
X260189871Y-29105648D01*
X260085505Y-28853686D01*
X260032300Y-28586206D01*
X260032300Y-28313480D01*
X260085505Y-28046000D01*
X260189871Y-27794038D01*
X260341388Y-27567276D01*
X260534233Y-27374431D01*
X260703919Y-27261051D01*
X260760993Y-27222915D01*
X260760995Y-27222914D01*
X261012957Y-27118548D01*
X261280437Y-27065343D01*
X261553163Y-27065343D01*
X261820643Y-27118548D01*
X261820643Y-27118548D01*
G37*
G36*
X276452986Y-24974885D02*
G01*
X276485014Y-24984601D01*
X276514524Y-25000374D01*
X276540394Y-25021606D01*
X276561626Y-25047476D01*
X276577399Y-25076986D01*
X276587115Y-25109014D01*
X276591000Y-25148457D01*
X276591000Y-29045543D01*
X276587115Y-29084986D01*
X276577399Y-29117014D01*
X276561626Y-29146524D01*
X276540394Y-29172394D01*
X276514524Y-29193626D01*
X276485014Y-29209399D01*
X276452986Y-29219115D01*
X276413543Y-29223000D01*
X274766457Y-29223000D01*
X274727014Y-29219115D01*
X274694986Y-29209399D01*
X274665476Y-29193626D01*
X274639606Y-29172394D01*
X274618374Y-29146524D01*
X274602601Y-29117014D01*
X274592885Y-29084986D01*
X274589000Y-29045543D01*
X274589000Y-25148457D01*
X274592885Y-25109014D01*
X274602601Y-25076986D01*
X274618374Y-25047476D01*
X274639606Y-25021606D01*
X274665476Y-25000374D01*
X274694986Y-24984601D01*
X274727014Y-24974885D01*
X274766457Y-24971000D01*
X276413543Y-24971000D01*
X276452986Y-24974885D01*
X276452986Y-24974885D01*
G37*
G36*
X256894986Y-24974885D02*
G01*
X256927014Y-24984601D01*
X256956524Y-25000374D01*
X256982394Y-25021606D01*
X257003626Y-25047476D01*
X257019399Y-25076986D01*
X257029115Y-25109014D01*
X257033000Y-25148457D01*
X257033000Y-29045543D01*
X257029115Y-29084986D01*
X257019399Y-29117014D01*
X257003626Y-29146524D01*
X256982394Y-29172394D01*
X256956524Y-29193626D01*
X256927014Y-29209399D01*
X256894986Y-29219115D01*
X256855543Y-29223000D01*
X255208457Y-29223000D01*
X255169014Y-29219115D01*
X255136986Y-29209399D01*
X255107476Y-29193626D01*
X255081606Y-29172394D01*
X255060374Y-29146524D01*
X255044601Y-29117014D01*
X255034885Y-29084986D01*
X255031000Y-29045543D01*
X255031000Y-25148457D01*
X255034885Y-25109014D01*
X255044601Y-25076986D01*
X255060374Y-25047476D01*
X255081606Y-25021606D01*
X255107476Y-25000374D01*
X255136986Y-24984601D01*
X255169014Y-24974885D01*
X255208457Y-24971000D01*
X256855543Y-24971000D01*
X256894986Y-24974885D01*
X256894986Y-24974885D01*
G37*
G36*
X276452986Y-18024885D02*
G01*
X276485014Y-18034601D01*
X276514524Y-18050374D01*
X276540394Y-18071606D01*
X276561626Y-18097476D01*
X276577399Y-18126986D01*
X276587115Y-18159014D01*
X276591000Y-18198457D01*
X276591000Y-22095543D01*
X276587115Y-22134986D01*
X276577399Y-22167014D01*
X276561626Y-22196524D01*
X276540394Y-22222394D01*
X276514524Y-22243626D01*
X276485014Y-22259399D01*
X276452986Y-22269115D01*
X276413543Y-22273000D01*
X274766457Y-22273000D01*
X274727014Y-22269115D01*
X274694986Y-22259399D01*
X274665476Y-22243626D01*
X274639606Y-22222394D01*
X274618374Y-22196524D01*
X274602601Y-22167014D01*
X274592885Y-22134986D01*
X274589000Y-22095543D01*
X274589000Y-18198457D01*
X274592885Y-18159014D01*
X274602601Y-18126986D01*
X274618374Y-18097476D01*
X274639606Y-18071606D01*
X274665476Y-18050374D01*
X274694986Y-18034601D01*
X274727014Y-18024885D01*
X274766457Y-18021000D01*
X276413543Y-18021000D01*
X276452986Y-18024885D01*
X276452986Y-18024885D01*
G37*
G36*
X256894986Y-18024885D02*
G01*
X256927014Y-18034601D01*
X256956524Y-18050374D01*
X256982394Y-18071606D01*
X257003626Y-18097476D01*
X257019399Y-18126986D01*
X257029115Y-18159014D01*
X257033000Y-18198457D01*
X257033000Y-22095543D01*
X257029115Y-22134986D01*
X257019399Y-22167014D01*
X257003626Y-22196524D01*
X256982394Y-22222394D01*
X256956524Y-22243626D01*
X256927014Y-22259399D01*
X256894986Y-22269115D01*
X256855543Y-22273000D01*
X255208457Y-22273000D01*
X255169014Y-22269115D01*
X255136986Y-22259399D01*
X255107476Y-22243626D01*
X255081606Y-22222394D01*
X255060374Y-22196524D01*
X255044601Y-22167014D01*
X255034885Y-22134986D01*
X255031000Y-22095543D01*
X255031000Y-18198457D01*
X255034885Y-18159014D01*
X255044601Y-18126986D01*
X255060374Y-18097476D01*
X255081606Y-18071606D01*
X255107476Y-18050374D01*
X255136986Y-18034601D01*
X255169014Y-18024885D01*
X255208457Y-18021000D01*
X256855543Y-18021000D01*
X256894986Y-18024885D01*
X256894986Y-18024885D01*
G37*
M02*
