M48
; DRILL file {KiCad 5.1.4} date Fri 20 Sep 2019 08:02:38 PM CEST
; FORMAT={-:-/ absolute / metric / decimal}
; #@! TF.CreationDate,2019-09-20T20:02:38+02:00
; #@! TF.GenerationSoftware,Kicad,Pcbnew,5.1.4
; #@! TF.FileFunction,Plated,1,2,PTH
FMAT,2
METRIC
T1C0.400
T2C0.762
T3C0.800
T4C0.889
T5C1.090
T6C1.143
T7C2.057
%
G90
G05
T1
X253.492Y-58.166
X254.254Y-76.708
X255.27Y-67.31
X255.27Y-73.152
X255.27Y-84.074
X257.302Y-62.193
X257.302Y-68.326
X257.556Y-64.516
X257.81Y-86.106
X258.318Y-60.198
X259.334Y-30.988
X259.334Y-36.068
X260.096Y-73.914
X260.604Y-51.562
X260.731Y-69.215
X260.858Y-32.766
X260.858Y-82.804
X261.62Y-61.468
X261.874Y-64.516
X263.906Y-50.546
X264.414Y-54.61
X264.414Y-77.978
X265.684Y-56.896
X265.811Y-30.861
X267.716Y-80.772
X267.97Y-50.038
X268.986Y-110.744
X271.008Y-80.0
X271.272Y-32.766
X271.78Y-65.278
X271.78Y-67.4
X271.78Y-71.374
X272.278Y-49.012
X272.542Y-62.23
X273.05Y-37.084
X273.812Y-78.994
X274.066Y-64.516
X275.082Y-72.644
X275.336Y-57.912
X275.336Y-74.168
X276.352Y-47.498
X276.352Y-67.564
X276.606Y-69.342
X277.876Y-45.72
T2
X261.023Y-40.386
X261.023Y-42.926
X263.563Y-40.386
X263.563Y-42.926
X266.103Y-40.386
X266.103Y-42.926
X268.643Y-40.386
X268.643Y-42.926
X271.183Y-40.386
X271.183Y-42.926
T3
X272.876Y-77.724
X277.876Y-77.724
X272.876Y-74.168
X277.876Y-74.168
T4
X263.271Y-35.46
X265.811Y-35.46
X268.351Y-35.46
X255.27Y-92.61
X257.81Y-92.61
X260.35Y-92.61
X257.81Y-107.874
X273.558Y-107.874
X257.81Y-121.844
X271.018Y-92.61
X273.558Y-92.61
X276.098Y-92.61
X273.558Y-121.844
X263.271Y-62.13
X265.811Y-62.13
X268.351Y-62.13
T5
X263.271Y-73.914
X265.811Y-73.914
X268.351Y-73.914
T6
X257.81Y-96.901
X257.81Y-105.461
X273.558Y-96.901
X273.558Y-105.461
X257.81Y-110.871
X257.81Y-119.431
X273.558Y-110.871
X273.558Y-119.431
T7
X261.417Y-55.12
X270.205Y-55.12
X261.417Y-28.45
X270.205Y-28.45
X253.416Y-85.6
X262.204Y-85.6
X269.164Y-85.6
X277.952Y-85.6
T0
M30
