G04 #@! TF.GenerationSoftware,KiCad,Pcbnew,(5.1.4)-1*
G04 #@! TF.CreationDate,2019-09-21T23:51:01+02:00*
G04 #@! TF.ProjectId,PolivoksVCF_panel,506f6c69-766f-46b7-9356-43465f70616e,rev?*
G04 #@! TF.SameCoordinates,Original*
G04 #@! TF.FileFunction,Soldermask,Bot*
G04 #@! TF.FilePolarity,Negative*
%FSLAX46Y46*%
G04 Gerber Fmt 4.6, Leading zero omitted, Abs format (unit mm)*
G04 Created by KiCad (PCBNEW (5.1.4)-1) date 2019-09-21 23:51:01*
%MOMM*%
%LPD*%
G04 APERTURE LIST*
%ADD10C,0.100000*%
G04 APERTURE END LIST*
D10*
G36*
X27017184Y-143099937D02*
G01*
X27514494Y-143250794D01*
X27972817Y-143495773D01*
X28374540Y-143825459D01*
X28704226Y-144227182D01*
X28949205Y-144685505D01*
X29100062Y-145182815D01*
X29151000Y-145699999D01*
X29151000Y-145700001D01*
X29100062Y-146217185D01*
X28949205Y-146714495D01*
X28704226Y-147172818D01*
X28374540Y-147574541D01*
X27972817Y-147904227D01*
X27514494Y-148149206D01*
X27017184Y-148300063D01*
X26500000Y-148351001D01*
X24500000Y-148351001D01*
X23982816Y-148300063D01*
X23485506Y-148149206D01*
X23027183Y-147904227D01*
X22625460Y-147574541D01*
X22295774Y-147172818D01*
X22050795Y-146714495D01*
X21899938Y-146217185D01*
X21849000Y-145700001D01*
X21849000Y-145699999D01*
X21899938Y-145182815D01*
X22050795Y-144685505D01*
X22295774Y-144227182D01*
X22625460Y-143825459D01*
X23027183Y-143495773D01*
X23485506Y-143250794D01*
X23982816Y-143099937D01*
X24500000Y-143048999D01*
X26500000Y-143048999D01*
X27017184Y-143099937D01*
X27017184Y-143099937D01*
G37*
G36*
X41380273Y-126143793D02*
G01*
X42101257Y-126287205D01*
X42893089Y-126615192D01*
X43605718Y-127091356D01*
X44211760Y-127697398D01*
X44687924Y-128410027D01*
X45015911Y-129201859D01*
X45183117Y-130042463D01*
X45183117Y-130899535D01*
X45015911Y-131740139D01*
X44687924Y-132531971D01*
X44211760Y-133244600D01*
X43605718Y-133850642D01*
X42893089Y-134326806D01*
X42101257Y-134654793D01*
X41380273Y-134798205D01*
X41260654Y-134821999D01*
X40403580Y-134821999D01*
X40283961Y-134798205D01*
X39562977Y-134654793D01*
X38771145Y-134326806D01*
X38058516Y-133850642D01*
X37452474Y-133244600D01*
X36976310Y-132531971D01*
X36648323Y-131740139D01*
X36481117Y-130899535D01*
X36481117Y-130042463D01*
X36648323Y-129201859D01*
X36976310Y-128410027D01*
X37452474Y-127697398D01*
X38058516Y-127091356D01*
X38771145Y-126615192D01*
X39562977Y-126287205D01*
X40283961Y-126143793D01*
X40403580Y-126119999D01*
X41260654Y-126119999D01*
X41380273Y-126143793D01*
X41380273Y-126143793D01*
G37*
G36*
X25632273Y-126143793D02*
G01*
X26353257Y-126287205D01*
X27145089Y-126615192D01*
X27857718Y-127091356D01*
X28463760Y-127697398D01*
X28939924Y-128410027D01*
X29267911Y-129201859D01*
X29435117Y-130042463D01*
X29435117Y-130899535D01*
X29267911Y-131740139D01*
X28939924Y-132531971D01*
X28463760Y-133244600D01*
X27857718Y-133850642D01*
X27145089Y-134326806D01*
X26353257Y-134654793D01*
X25632273Y-134798205D01*
X25512654Y-134821999D01*
X24655580Y-134821999D01*
X24535961Y-134798205D01*
X23814977Y-134654793D01*
X23023145Y-134326806D01*
X22310516Y-133850642D01*
X21704474Y-133244600D01*
X21228310Y-132531971D01*
X20900323Y-131740139D01*
X20733117Y-130899535D01*
X20733117Y-130042463D01*
X20900323Y-129201859D01*
X21228310Y-128410027D01*
X21704474Y-127697398D01*
X22310516Y-127091356D01*
X23023145Y-126615192D01*
X23814977Y-126287205D01*
X24535961Y-126143793D01*
X24655580Y-126119999D01*
X25512654Y-126119999D01*
X25632273Y-126143793D01*
X25632273Y-126143793D01*
G37*
G36*
X25632273Y-112173793D02*
G01*
X26353257Y-112317205D01*
X27145089Y-112645192D01*
X27857718Y-113121356D01*
X28463760Y-113727398D01*
X28939924Y-114440027D01*
X29267911Y-115231859D01*
X29435117Y-116072463D01*
X29435117Y-116929535D01*
X29267911Y-117770139D01*
X28939924Y-118561971D01*
X28463760Y-119274600D01*
X27857718Y-119880642D01*
X27145089Y-120356806D01*
X26353257Y-120684793D01*
X25632273Y-120828205D01*
X25512654Y-120851999D01*
X24655580Y-120851999D01*
X24535961Y-120828205D01*
X23814977Y-120684793D01*
X23023145Y-120356806D01*
X22310516Y-119880642D01*
X21704474Y-119274600D01*
X21228310Y-118561971D01*
X20900323Y-117770139D01*
X20733117Y-116929535D01*
X20733117Y-116072463D01*
X20900323Y-115231859D01*
X21228310Y-114440027D01*
X21704474Y-113727398D01*
X22310516Y-113121356D01*
X23023145Y-112645192D01*
X23814977Y-112317205D01*
X24535961Y-112173793D01*
X24655580Y-112149999D01*
X25512654Y-112149999D01*
X25632273Y-112173793D01*
X25632273Y-112173793D01*
G37*
G36*
X41380273Y-112173793D02*
G01*
X42101257Y-112317205D01*
X42893089Y-112645192D01*
X43605718Y-113121356D01*
X44211760Y-113727398D01*
X44687924Y-114440027D01*
X45015911Y-115231859D01*
X45183117Y-116072463D01*
X45183117Y-116929535D01*
X45015911Y-117770139D01*
X44687924Y-118561971D01*
X44211760Y-119274600D01*
X43605718Y-119880642D01*
X42893089Y-120356806D01*
X42101257Y-120684793D01*
X41380273Y-120828205D01*
X41260654Y-120851999D01*
X40403580Y-120851999D01*
X40283961Y-120828205D01*
X39562977Y-120684793D01*
X38771145Y-120356806D01*
X38058516Y-119880642D01*
X37452474Y-119274600D01*
X36976310Y-118561971D01*
X36648323Y-117770139D01*
X36481117Y-116929535D01*
X36481117Y-116072463D01*
X36648323Y-115231859D01*
X36976310Y-114440027D01*
X37452474Y-113727398D01*
X38058516Y-113121356D01*
X38771145Y-112645192D01*
X39562977Y-112317205D01*
X40283961Y-112173793D01*
X40403580Y-112149999D01*
X41260654Y-112149999D01*
X41380273Y-112173793D01*
X41380273Y-112173793D01*
G37*
G36*
X26455510Y-95254756D02*
G01*
X27311037Y-95609127D01*
X27311038Y-95609128D01*
X28080993Y-96123595D01*
X28735785Y-96778387D01*
X29079541Y-97292855D01*
X29250253Y-97548343D01*
X29604624Y-98403870D01*
X29785280Y-99312091D01*
X29785280Y-100238109D01*
X29604624Y-101146330D01*
X29250253Y-102001857D01*
X29250252Y-102001858D01*
X28735785Y-102771813D01*
X28080993Y-103426605D01*
X27566525Y-103770361D01*
X27311037Y-103941073D01*
X26455510Y-104295444D01*
X25547289Y-104476100D01*
X24621271Y-104476100D01*
X23713050Y-104295444D01*
X22857523Y-103941073D01*
X22602035Y-103770361D01*
X22087567Y-103426605D01*
X21432775Y-102771813D01*
X20918308Y-102001858D01*
X20918307Y-102001857D01*
X20563936Y-101146330D01*
X20383280Y-100238109D01*
X20383280Y-99312091D01*
X20563936Y-98403870D01*
X20918307Y-97548343D01*
X21089019Y-97292855D01*
X21432775Y-96778387D01*
X22087567Y-96123595D01*
X22857522Y-95609128D01*
X22857523Y-95609127D01*
X23713050Y-95254756D01*
X24621271Y-95074100D01*
X25547289Y-95074100D01*
X26455510Y-95254756D01*
X26455510Y-95254756D01*
G37*
G36*
X42203510Y-95254756D02*
G01*
X43059037Y-95609127D01*
X43059038Y-95609128D01*
X43828993Y-96123595D01*
X44483785Y-96778387D01*
X44827541Y-97292855D01*
X44998253Y-97548343D01*
X45352624Y-98403870D01*
X45533280Y-99312091D01*
X45533280Y-100238109D01*
X45352624Y-101146330D01*
X44998253Y-102001857D01*
X44998252Y-102001858D01*
X44483785Y-102771813D01*
X43828993Y-103426605D01*
X43314525Y-103770361D01*
X43059037Y-103941073D01*
X42203510Y-104295444D01*
X41295289Y-104476100D01*
X40369271Y-104476100D01*
X39461050Y-104295444D01*
X38605523Y-103941073D01*
X38350035Y-103770361D01*
X37835567Y-103426605D01*
X37180775Y-102771813D01*
X36666308Y-102001858D01*
X36666307Y-102001857D01*
X36311936Y-101146330D01*
X36131280Y-100238109D01*
X36131280Y-99312091D01*
X36311936Y-98403870D01*
X36666307Y-97548343D01*
X36837019Y-97292855D01*
X37180775Y-96778387D01*
X37835567Y-96123595D01*
X38605522Y-95609128D01*
X38605523Y-95609127D01*
X39461050Y-95254756D01*
X40369271Y-95074100D01*
X41295289Y-95074100D01*
X42203510Y-95254756D01*
X42203510Y-95254756D01*
G37*
G36*
X34193990Y-84441250D02*
G01*
X34885727Y-84727777D01*
X34885728Y-84727778D01*
X35508276Y-85143751D01*
X36037709Y-85673184D01*
X36315654Y-86089158D01*
X36453683Y-86295733D01*
X36740210Y-86987470D01*
X36886280Y-87721813D01*
X36886280Y-88470547D01*
X36740210Y-89204890D01*
X36453683Y-89896627D01*
X36453682Y-89896628D01*
X36037709Y-90519176D01*
X35508276Y-91048609D01*
X35092302Y-91326554D01*
X34885727Y-91464583D01*
X34193990Y-91751110D01*
X33459647Y-91897180D01*
X32710913Y-91897180D01*
X31976570Y-91751110D01*
X31284833Y-91464583D01*
X31078258Y-91326554D01*
X30662284Y-91048609D01*
X30132851Y-90519176D01*
X29716878Y-89896628D01*
X29716877Y-89896627D01*
X29430350Y-89204890D01*
X29284280Y-88470547D01*
X29284280Y-87721813D01*
X29430350Y-86987470D01*
X29716877Y-86295733D01*
X29854906Y-86089158D01*
X30132851Y-85673184D01*
X30662284Y-85143751D01*
X31284832Y-84727778D01*
X31284833Y-84727777D01*
X31976570Y-84441250D01*
X32710913Y-84295180D01*
X33459647Y-84295180D01*
X34193990Y-84441250D01*
X34193990Y-84441250D01*
G37*
G36*
X34514848Y-64582442D02*
G01*
X35406772Y-64951889D01*
X35406774Y-64951890D01*
X35608813Y-65086889D01*
X36209485Y-65488244D01*
X36892136Y-66170895D01*
X37428491Y-66973608D01*
X37797938Y-67865532D01*
X37986280Y-68812392D01*
X37986280Y-69777808D01*
X37797938Y-70724668D01*
X37428491Y-71616592D01*
X36892136Y-72419305D01*
X36209485Y-73101956D01*
X35608813Y-73503311D01*
X35406774Y-73638310D01*
X35406773Y-73638311D01*
X35406772Y-73638311D01*
X34514848Y-74007758D01*
X33567988Y-74196100D01*
X32602572Y-74196100D01*
X31655712Y-74007758D01*
X30763788Y-73638311D01*
X30763787Y-73638311D01*
X30763786Y-73638310D01*
X30561747Y-73503311D01*
X29961075Y-73101956D01*
X29278424Y-72419305D01*
X28742069Y-71616592D01*
X28372622Y-70724668D01*
X28184280Y-69777808D01*
X28184280Y-68812392D01*
X28372622Y-67865532D01*
X28742069Y-66973608D01*
X29278424Y-66170895D01*
X29961075Y-65488244D01*
X30561747Y-65086889D01*
X30763786Y-64951890D01*
X30763788Y-64951889D01*
X31655712Y-64582442D01*
X32602572Y-64394100D01*
X33567988Y-64394100D01*
X34514848Y-64582442D01*
X34514848Y-64582442D01*
G37*
G36*
X34514848Y-37912442D02*
G01*
X35406772Y-38281889D01*
X35406774Y-38281890D01*
X35608813Y-38416889D01*
X36209485Y-38818244D01*
X36892136Y-39500895D01*
X37428491Y-40303608D01*
X37797938Y-41195532D01*
X37986280Y-42142392D01*
X37986280Y-43107808D01*
X37797938Y-44054668D01*
X37428491Y-44946592D01*
X36892136Y-45749305D01*
X36209485Y-46431956D01*
X35608813Y-46833312D01*
X35406774Y-46968310D01*
X35406773Y-46968311D01*
X35406772Y-46968311D01*
X34514848Y-47337758D01*
X33567988Y-47526100D01*
X32602572Y-47526100D01*
X31655712Y-47337758D01*
X30763788Y-46968311D01*
X30763787Y-46968311D01*
X30763786Y-46968310D01*
X30561747Y-46833312D01*
X29961075Y-46431956D01*
X29278424Y-45749305D01*
X28742069Y-44946592D01*
X28372622Y-44054668D01*
X28184280Y-43107808D01*
X28184280Y-42142392D01*
X28372622Y-41195532D01*
X28742069Y-40303608D01*
X29278424Y-39500895D01*
X29961075Y-38818244D01*
X30561747Y-38416889D01*
X30763786Y-38281890D01*
X30763788Y-38281889D01*
X31655712Y-37912442D01*
X32602572Y-37724100D01*
X33567988Y-37724100D01*
X34514848Y-37912442D01*
X34514848Y-37912442D01*
G37*
G36*
X27017184Y-20599937D02*
G01*
X27514494Y-20750794D01*
X27972817Y-20995773D01*
X28374540Y-21325459D01*
X28704226Y-21727182D01*
X28949205Y-22185505D01*
X29100062Y-22682815D01*
X29151000Y-23199999D01*
X29151000Y-23200001D01*
X29100062Y-23717185D01*
X28949205Y-24214495D01*
X28704226Y-24672818D01*
X28374540Y-25074541D01*
X27972817Y-25404227D01*
X27514494Y-25649206D01*
X27017184Y-25800063D01*
X26500000Y-25851001D01*
X24500000Y-25851001D01*
X23982816Y-25800063D01*
X23485506Y-25649206D01*
X23027183Y-25404227D01*
X22625460Y-25074541D01*
X22295774Y-24672818D01*
X22050795Y-24214495D01*
X21899938Y-23717185D01*
X21849000Y-23200001D01*
X21849000Y-23199999D01*
X21899938Y-22682815D01*
X22050795Y-22185505D01*
X22295774Y-21727182D01*
X22625460Y-21325459D01*
X23027183Y-20995773D01*
X23485506Y-20750794D01*
X23982816Y-20599937D01*
X24500000Y-20548999D01*
X26500000Y-20548999D01*
X27017184Y-20599937D01*
X27017184Y-20599937D01*
G37*
M02*
