G04 #@! TF.GenerationSoftware,KiCad,Pcbnew,(5.1.4)-1*
G04 #@! TF.CreationDate,2019-09-21T23:51:01+02:00*
G04 #@! TF.ProjectId,PolivoksVCF_panel,506f6c69-766f-46b7-9356-43465f70616e,rev?*
G04 #@! TF.SameCoordinates,Original*
G04 #@! TF.FileFunction,Copper,L2,Bot*
G04 #@! TF.FilePolarity,Positive*
%FSLAX46Y46*%
G04 Gerber Fmt 4.6, Leading zero omitted, Abs format (unit mm)*
G04 Created by KiCad (PCBNEW (5.1.4)-1) date 2019-09-21 23:51:01*
%MOMM*%
%LPD*%
G04 APERTURE LIST*
%ADD10C,0.100000*%
%ADD11C,5.200000*%
%ADD12C,9.300000*%
%ADD13C,8.600000*%
%ADD14C,7.500000*%
%ADD15C,9.700000*%
G04 APERTURE END LIST*
D10*
G36*
X26754845Y-143112519D02*
G01*
X27007235Y-143149957D01*
X27254740Y-143211954D01*
X27494977Y-143297912D01*
X27725632Y-143407004D01*
X27944483Y-143538178D01*
X28149423Y-143690172D01*
X28338478Y-143861521D01*
X28509827Y-144050576D01*
X28661821Y-144255516D01*
X28792995Y-144474367D01*
X28902087Y-144705022D01*
X28988045Y-144945259D01*
X29050042Y-145192764D01*
X29087480Y-145445154D01*
X29100000Y-145699999D01*
X29100000Y-145700001D01*
X29087480Y-145954846D01*
X29050042Y-146207236D01*
X28988045Y-146454741D01*
X28902087Y-146694978D01*
X28792995Y-146925633D01*
X28661821Y-147144484D01*
X28509827Y-147349424D01*
X28338478Y-147538479D01*
X28149423Y-147709828D01*
X27944483Y-147861822D01*
X27725632Y-147992996D01*
X27494977Y-148102088D01*
X27254740Y-148188046D01*
X27007235Y-148250043D01*
X26754845Y-148287481D01*
X26500000Y-148300001D01*
X24500000Y-148300001D01*
X24245155Y-148287481D01*
X23992765Y-148250043D01*
X23745260Y-148188046D01*
X23505023Y-148102088D01*
X23274368Y-147992996D01*
X23055517Y-147861822D01*
X22850577Y-147709828D01*
X22661522Y-147538479D01*
X22490173Y-147349424D01*
X22338179Y-147144484D01*
X22207005Y-146925633D01*
X22097913Y-146694978D01*
X22011955Y-146454741D01*
X21949958Y-146207236D01*
X21912520Y-145954846D01*
X21900000Y-145700001D01*
X21900000Y-145699999D01*
X21912520Y-145445154D01*
X21949958Y-145192764D01*
X22011955Y-144945259D01*
X22097913Y-144705022D01*
X22207005Y-144474367D01*
X22338179Y-144255516D01*
X22490173Y-144050576D01*
X22661522Y-143861521D01*
X22850577Y-143690172D01*
X23055517Y-143538178D01*
X23274368Y-143407004D01*
X23505023Y-143297912D01*
X23745260Y-143211954D01*
X23992765Y-143149957D01*
X24245155Y-143112519D01*
X24500000Y-143099999D01*
X26500000Y-143099999D01*
X26754845Y-143112519D01*
X26754845Y-143112519D01*
G37*
D11*
X25500000Y-145700000D03*
D10*
G36*
X26754845Y-20612519D02*
G01*
X27007235Y-20649957D01*
X27254740Y-20711954D01*
X27494977Y-20797912D01*
X27725632Y-20907004D01*
X27944483Y-21038178D01*
X28149423Y-21190172D01*
X28338478Y-21361521D01*
X28509827Y-21550576D01*
X28661821Y-21755516D01*
X28792995Y-21974367D01*
X28902087Y-22205022D01*
X28988045Y-22445259D01*
X29050042Y-22692764D01*
X29087480Y-22945154D01*
X29100000Y-23199999D01*
X29100000Y-23200001D01*
X29087480Y-23454846D01*
X29050042Y-23707236D01*
X28988045Y-23954741D01*
X28902087Y-24194978D01*
X28792995Y-24425633D01*
X28661821Y-24644484D01*
X28509827Y-24849424D01*
X28338478Y-25038479D01*
X28149423Y-25209828D01*
X27944483Y-25361822D01*
X27725632Y-25492996D01*
X27494977Y-25602088D01*
X27254740Y-25688046D01*
X27007235Y-25750043D01*
X26754845Y-25787481D01*
X26500000Y-25800001D01*
X24500000Y-25800001D01*
X24245155Y-25787481D01*
X23992765Y-25750043D01*
X23745260Y-25688046D01*
X23505023Y-25602088D01*
X23274368Y-25492996D01*
X23055517Y-25361822D01*
X22850577Y-25209828D01*
X22661522Y-25038479D01*
X22490173Y-24849424D01*
X22338179Y-24644484D01*
X22207005Y-24425633D01*
X22097913Y-24194978D01*
X22011955Y-23954741D01*
X21949958Y-23707236D01*
X21912520Y-23454846D01*
X21900000Y-23200001D01*
X21900000Y-23199999D01*
X21912520Y-22945154D01*
X21949958Y-22692764D01*
X22011955Y-22445259D01*
X22097913Y-22205022D01*
X22207005Y-21974367D01*
X22338179Y-21755516D01*
X22490173Y-21550576D01*
X22661522Y-21361521D01*
X22850577Y-21190172D01*
X23055517Y-21038178D01*
X23274368Y-20907004D01*
X23505023Y-20797912D01*
X23745260Y-20711954D01*
X23992765Y-20649957D01*
X24245155Y-20612519D01*
X24500000Y-20599999D01*
X26500000Y-20599999D01*
X26754845Y-20612519D01*
X26754845Y-20612519D01*
G37*
D11*
X25500000Y-23200000D03*
D12*
X40832280Y-99775100D03*
D13*
X25084117Y-130470999D03*
X40832117Y-130470999D03*
X40832117Y-116500999D03*
X25084117Y-116500999D03*
D12*
X25084280Y-99775100D03*
D14*
X33085280Y-88096180D03*
D15*
X33085280Y-69295100D03*
X33085280Y-42625100D03*
M02*
