G04 #@! TF.GenerationSoftware,KiCad,Pcbnew,5.1.4*
G04 #@! TF.CreationDate,2019-09-20T20:02:23+02:00*
G04 #@! TF.ProjectId,PolivoksVCF,506f6c69-766f-46b7-9356-43462e6b6963,rev?*
G04 #@! TF.SameCoordinates,Original*
G04 #@! TF.FileFunction,Legend,Bot*
G04 #@! TF.FilePolarity,Positive*
%FSLAX46Y46*%
G04 Gerber Fmt 4.6, Leading zero omitted, Abs format (unit mm)*
G04 Created by KiCad (PCBNEW 5.1.4) date 2019-09-20 20:02:23*
%MOMM*%
%LPD*%
G04 APERTURE LIST*
%ADD10C,0.120000*%
%ADD11C,0.127000*%
%ADD12C,0.254000*%
%ADD13C,0.150000*%
%ADD14C,0.152400*%
G04 APERTURE END LIST*
D10*
X269094714Y-66264785D02*
X269094714Y-65514785D01*
X268666142Y-66264785D02*
X268987571Y-65836214D01*
X268666142Y-65514785D02*
X269094714Y-65943357D01*
X268344714Y-66264785D02*
X268344714Y-65764785D01*
X268344714Y-65907642D02*
X268309000Y-65836214D01*
X268273285Y-65800500D01*
X268201857Y-65764785D01*
X268130428Y-65764785D01*
X267559000Y-66264785D02*
X267559000Y-65871928D01*
X267594714Y-65800500D01*
X267666142Y-65764785D01*
X267809000Y-65764785D01*
X267880428Y-65800500D01*
X267559000Y-66229071D02*
X267630428Y-66264785D01*
X267809000Y-66264785D01*
X267880428Y-66229071D01*
X267916142Y-66157642D01*
X267916142Y-66086214D01*
X267880428Y-66014785D01*
X267809000Y-65979071D01*
X267630428Y-65979071D01*
X267559000Y-65943357D01*
X266880428Y-66264785D02*
X266880428Y-65871928D01*
X266916142Y-65800500D01*
X266987571Y-65764785D01*
X267130428Y-65764785D01*
X267201857Y-65800500D01*
X266880428Y-66229071D02*
X266951857Y-66264785D01*
X267130428Y-66264785D01*
X267201857Y-66229071D01*
X267237571Y-66157642D01*
X267237571Y-66086214D01*
X267201857Y-66014785D01*
X267130428Y-65979071D01*
X266951857Y-65979071D01*
X266880428Y-65943357D01*
X266523285Y-66264785D02*
X266523285Y-65514785D01*
X266451857Y-65979071D02*
X266237571Y-66264785D01*
X266237571Y-65764785D02*
X266523285Y-66050500D01*
X265630428Y-66229071D02*
X265701857Y-66264785D01*
X265844714Y-66264785D01*
X265916142Y-66229071D01*
X265951857Y-66157642D01*
X265951857Y-65871928D01*
X265916142Y-65800500D01*
X265844714Y-65764785D01*
X265701857Y-65764785D01*
X265630428Y-65800500D01*
X265594714Y-65871928D01*
X265594714Y-65943357D01*
X265951857Y-66014785D01*
X265273285Y-65764785D02*
X265273285Y-66264785D01*
X265273285Y-65836214D02*
X265237571Y-65800500D01*
X265166142Y-65764785D01*
X265059000Y-65764785D01*
X264987571Y-65800500D01*
X264951857Y-65871928D01*
X264951857Y-66264785D01*
X264630428Y-66229071D02*
X264523285Y-66264785D01*
X264344714Y-66264785D01*
X264273285Y-66229071D01*
X264237571Y-66193357D01*
X264201857Y-66121928D01*
X264201857Y-66050500D01*
X264237571Y-65979071D01*
X264273285Y-65943357D01*
X264344714Y-65907642D01*
X264487571Y-65871928D01*
X264559000Y-65836214D01*
X264594714Y-65800500D01*
X264630428Y-65729071D01*
X264630428Y-65657642D01*
X264594714Y-65586214D01*
X264559000Y-65550500D01*
X264487571Y-65514785D01*
X264309000Y-65514785D01*
X264201857Y-65550500D01*
X263987571Y-65764785D02*
X263701857Y-65764785D01*
X263880428Y-65514785D02*
X263880428Y-66157642D01*
X263844714Y-66229071D01*
X263773285Y-66264785D01*
X263701857Y-66264785D01*
X263130428Y-65764785D02*
X263130428Y-66264785D01*
X263451857Y-65764785D02*
X263451857Y-66157642D01*
X263416142Y-66229071D01*
X263344714Y-66264785D01*
X263237571Y-66264785D01*
X263166142Y-66229071D01*
X263130428Y-66193357D01*
X262880428Y-65764785D02*
X262594714Y-65764785D01*
X262773285Y-66264785D02*
X262773285Y-65621928D01*
X262737571Y-65550500D01*
X262666142Y-65514785D01*
X262594714Y-65514785D01*
X262451857Y-65764785D02*
X262166142Y-65764785D01*
X262344714Y-66264785D02*
X262344714Y-65621928D01*
X262309000Y-65550500D01*
X262237571Y-65514785D01*
X262166142Y-65514785D01*
X270309000Y-67509785D02*
X270309000Y-66759785D01*
X270023285Y-66759785D01*
X269951857Y-66795500D01*
X269916142Y-66831214D01*
X269880428Y-66902642D01*
X269880428Y-67009785D01*
X269916142Y-67081214D01*
X269951857Y-67116928D01*
X270023285Y-67152642D01*
X270309000Y-67152642D01*
X269451857Y-67509785D02*
X269523285Y-67474071D01*
X269559000Y-67438357D01*
X269594714Y-67366928D01*
X269594714Y-67152642D01*
X269559000Y-67081214D01*
X269523285Y-67045500D01*
X269451857Y-67009785D01*
X269344714Y-67009785D01*
X269273285Y-67045500D01*
X269237571Y-67081214D01*
X269201857Y-67152642D01*
X269201857Y-67366928D01*
X269237571Y-67438357D01*
X269273285Y-67474071D01*
X269344714Y-67509785D01*
X269451857Y-67509785D01*
X268773285Y-67509785D02*
X268844714Y-67474071D01*
X268880428Y-67402642D01*
X268880428Y-66759785D01*
X268487571Y-67509785D02*
X268487571Y-67009785D01*
X268487571Y-66759785D02*
X268523285Y-66795500D01*
X268487571Y-66831214D01*
X268451857Y-66795500D01*
X268487571Y-66759785D01*
X268487571Y-66831214D01*
X268201857Y-67009785D02*
X268023285Y-67509785D01*
X267844714Y-67009785D01*
X267451857Y-67509785D02*
X267523285Y-67474071D01*
X267559000Y-67438357D01*
X267594714Y-67366928D01*
X267594714Y-67152642D01*
X267559000Y-67081214D01*
X267523285Y-67045500D01*
X267451857Y-67009785D01*
X267344714Y-67009785D01*
X267273285Y-67045500D01*
X267237571Y-67081214D01*
X267201857Y-67152642D01*
X267201857Y-67366928D01*
X267237571Y-67438357D01*
X267273285Y-67474071D01*
X267344714Y-67509785D01*
X267451857Y-67509785D01*
X266880428Y-67509785D02*
X266880428Y-66759785D01*
X266809000Y-67224071D02*
X266594714Y-67509785D01*
X266594714Y-67009785D02*
X266880428Y-67295500D01*
X266309000Y-67474071D02*
X266237571Y-67509785D01*
X266094714Y-67509785D01*
X266023285Y-67474071D01*
X265987571Y-67402642D01*
X265987571Y-67366928D01*
X266023285Y-67295500D01*
X266094714Y-67259785D01*
X266201857Y-67259785D01*
X266273285Y-67224071D01*
X266309000Y-67152642D01*
X266309000Y-67116928D01*
X266273285Y-67045500D01*
X266201857Y-67009785D01*
X266094714Y-67009785D01*
X266023285Y-67045500D01*
X265201857Y-66759785D02*
X264951857Y-67509785D01*
X264701857Y-66759785D01*
X264023285Y-67438357D02*
X264059000Y-67474071D01*
X264166142Y-67509785D01*
X264237571Y-67509785D01*
X264344714Y-67474071D01*
X264416142Y-67402642D01*
X264451857Y-67331214D01*
X264487571Y-67188357D01*
X264487571Y-67081214D01*
X264451857Y-66938357D01*
X264416142Y-66866928D01*
X264344714Y-66795500D01*
X264237571Y-66759785D01*
X264166142Y-66759785D01*
X264059000Y-66795500D01*
X264023285Y-66831214D01*
X263451857Y-67116928D02*
X263701857Y-67116928D01*
X263701857Y-67509785D02*
X263701857Y-66759785D01*
X263344714Y-66759785D01*
X262344714Y-66759785D02*
X262273285Y-66759785D01*
X262201857Y-66795500D01*
X262166142Y-66831214D01*
X262130428Y-66902642D01*
X262094714Y-67045500D01*
X262094714Y-67224071D01*
X262130428Y-67366928D01*
X262166142Y-67438357D01*
X262201857Y-67474071D01*
X262273285Y-67509785D01*
X262344714Y-67509785D01*
X262416142Y-67474071D01*
X262451857Y-67438357D01*
X262487571Y-67366928D01*
X262523285Y-67224071D01*
X262523285Y-67045500D01*
X262487571Y-66902642D01*
X262451857Y-66831214D01*
X262416142Y-66795500D01*
X262344714Y-66759785D01*
X261773285Y-67438357D02*
X261737571Y-67474071D01*
X261773285Y-67509785D01*
X261809000Y-67474071D01*
X261773285Y-67438357D01*
X261773285Y-67509785D01*
X261023285Y-67509785D02*
X261451857Y-67509785D01*
X261237571Y-67509785D02*
X261237571Y-66759785D01*
X261309000Y-66866928D01*
X261380428Y-66938357D01*
X261451857Y-66974071D01*
X262478714Y-79373000D02*
X262121571Y-79373000D01*
X262550142Y-79587285D02*
X262300142Y-78837285D01*
X262050142Y-79587285D01*
X261907285Y-78837285D02*
X261478714Y-78837285D01*
X261693000Y-79587285D02*
X261693000Y-78837285D01*
X261335857Y-78837285D02*
X260907285Y-78837285D01*
X261121571Y-79587285D02*
X261121571Y-78837285D01*
X260657285Y-79194428D02*
X260407285Y-79194428D01*
X260300142Y-79587285D02*
X260657285Y-79587285D01*
X260657285Y-78837285D01*
X260300142Y-78837285D01*
X259978714Y-79587285D02*
X259978714Y-78837285D01*
X259550142Y-79587285D01*
X259550142Y-78837285D01*
X259193000Y-78837285D02*
X259193000Y-79444428D01*
X259157285Y-79515857D01*
X259121571Y-79551571D01*
X259050142Y-79587285D01*
X258907285Y-79587285D01*
X258835857Y-79551571D01*
X258800142Y-79515857D01*
X258764428Y-79444428D01*
X258764428Y-78837285D01*
X258443000Y-79373000D02*
X258085857Y-79373000D01*
X258514428Y-79587285D02*
X258264428Y-78837285D01*
X258014428Y-79587285D01*
X257871571Y-78837285D02*
X257443000Y-78837285D01*
X257657285Y-79587285D02*
X257657285Y-78837285D01*
X257193000Y-79194428D02*
X256943000Y-79194428D01*
X256835857Y-79587285D02*
X257193000Y-79587285D01*
X257193000Y-78837285D01*
X256835857Y-78837285D01*
X255514428Y-79515857D02*
X255550142Y-79551571D01*
X255657285Y-79587285D01*
X255728714Y-79587285D01*
X255835857Y-79551571D01*
X255907285Y-79480142D01*
X255943000Y-79408714D01*
X255978714Y-79265857D01*
X255978714Y-79158714D01*
X255943000Y-79015857D01*
X255907285Y-78944428D01*
X255835857Y-78873000D01*
X255728714Y-78837285D01*
X255657285Y-78837285D01*
X255550142Y-78873000D01*
X255514428Y-78908714D01*
X255300142Y-78837285D02*
X255050142Y-79587285D01*
X254800142Y-78837285D01*
X254585857Y-78908714D02*
X254550142Y-78873000D01*
X254478714Y-78837285D01*
X254300142Y-78837285D01*
X254228714Y-78873000D01*
X254193000Y-78908714D01*
X254157285Y-78980142D01*
X254157285Y-79051571D01*
X254193000Y-79158714D01*
X254621571Y-79587285D01*
X254157285Y-79587285D01*
X278226714Y-79373000D02*
X277869571Y-79373000D01*
X278298142Y-79587285D02*
X278048142Y-78837285D01*
X277798142Y-79587285D01*
X277655285Y-78837285D02*
X277226714Y-78837285D01*
X277441000Y-79587285D02*
X277441000Y-78837285D01*
X277083857Y-78837285D02*
X276655285Y-78837285D01*
X276869571Y-79587285D02*
X276869571Y-78837285D01*
X276405285Y-79194428D02*
X276155285Y-79194428D01*
X276048142Y-79587285D02*
X276405285Y-79587285D01*
X276405285Y-78837285D01*
X276048142Y-78837285D01*
X275726714Y-79587285D02*
X275726714Y-78837285D01*
X275298142Y-79587285D01*
X275298142Y-78837285D01*
X274941000Y-78837285D02*
X274941000Y-79444428D01*
X274905285Y-79515857D01*
X274869571Y-79551571D01*
X274798142Y-79587285D01*
X274655285Y-79587285D01*
X274583857Y-79551571D01*
X274548142Y-79515857D01*
X274512428Y-79444428D01*
X274512428Y-78837285D01*
X274191000Y-79373000D02*
X273833857Y-79373000D01*
X274262428Y-79587285D02*
X274012428Y-78837285D01*
X273762428Y-79587285D01*
X273619571Y-78837285D02*
X273191000Y-78837285D01*
X273405285Y-79587285D02*
X273405285Y-78837285D01*
X272941000Y-79194428D02*
X272691000Y-79194428D01*
X272583857Y-79587285D02*
X272941000Y-79587285D01*
X272941000Y-78837285D01*
X272583857Y-78837285D01*
X271262428Y-79515857D02*
X271298142Y-79551571D01*
X271405285Y-79587285D01*
X271476714Y-79587285D01*
X271583857Y-79551571D01*
X271655285Y-79480142D01*
X271691000Y-79408714D01*
X271726714Y-79265857D01*
X271726714Y-79158714D01*
X271691000Y-79015857D01*
X271655285Y-78944428D01*
X271583857Y-78873000D01*
X271476714Y-78837285D01*
X271405285Y-78837285D01*
X271298142Y-78873000D01*
X271262428Y-78908714D01*
X271048142Y-78837285D02*
X270798142Y-79587285D01*
X270548142Y-78837285D01*
X269905285Y-79587285D02*
X270333857Y-79587285D01*
X270119571Y-79587285D02*
X270119571Y-78837285D01*
X270191000Y-78944428D01*
X270262428Y-79015857D01*
X270333857Y-79051571D01*
X269509714Y-70951285D02*
X269866857Y-70951285D01*
X269866857Y-70201285D01*
X269259714Y-70951285D02*
X269259714Y-70201285D01*
X268974000Y-70201285D01*
X268902571Y-70237000D01*
X268866857Y-70272714D01*
X268831142Y-70344142D01*
X268831142Y-70451285D01*
X268866857Y-70522714D01*
X268902571Y-70558428D01*
X268974000Y-70594142D01*
X269259714Y-70594142D01*
X267974000Y-70165571D02*
X268616857Y-71129857D01*
X267474000Y-70558428D02*
X267366857Y-70594142D01*
X267331142Y-70629857D01*
X267295428Y-70701285D01*
X267295428Y-70808428D01*
X267331142Y-70879857D01*
X267366857Y-70915571D01*
X267438285Y-70951285D01*
X267724000Y-70951285D01*
X267724000Y-70201285D01*
X267474000Y-70201285D01*
X267402571Y-70237000D01*
X267366857Y-70272714D01*
X267331142Y-70344142D01*
X267331142Y-70415571D01*
X267366857Y-70487000D01*
X267402571Y-70522714D01*
X267474000Y-70558428D01*
X267724000Y-70558428D01*
X266974000Y-70951285D02*
X266974000Y-70201285D01*
X266688285Y-70201285D01*
X266616857Y-70237000D01*
X266581142Y-70272714D01*
X266545428Y-70344142D01*
X266545428Y-70451285D01*
X266581142Y-70522714D01*
X266616857Y-70558428D01*
X266688285Y-70594142D01*
X266974000Y-70594142D01*
X270140571Y-49107285D02*
X270390571Y-48750142D01*
X270569142Y-49107285D02*
X270569142Y-48357285D01*
X270283428Y-48357285D01*
X270212000Y-48393000D01*
X270176285Y-48428714D01*
X270140571Y-48500142D01*
X270140571Y-48607285D01*
X270176285Y-48678714D01*
X270212000Y-48714428D01*
X270283428Y-48750142D01*
X270569142Y-48750142D01*
X269819142Y-48714428D02*
X269569142Y-48714428D01*
X269462000Y-49107285D02*
X269819142Y-49107285D01*
X269819142Y-48357285D01*
X269462000Y-48357285D01*
X269176285Y-49071571D02*
X269069142Y-49107285D01*
X268890571Y-49107285D01*
X268819142Y-49071571D01*
X268783428Y-49035857D01*
X268747714Y-48964428D01*
X268747714Y-48893000D01*
X268783428Y-48821571D01*
X268819142Y-48785857D01*
X268890571Y-48750142D01*
X269033428Y-48714428D01*
X269104857Y-48678714D01*
X269140571Y-48643000D01*
X269176285Y-48571571D01*
X269176285Y-48500142D01*
X269140571Y-48428714D01*
X269104857Y-48393000D01*
X269033428Y-48357285D01*
X268854857Y-48357285D01*
X268747714Y-48393000D01*
X268283428Y-48357285D02*
X268140571Y-48357285D01*
X268069142Y-48393000D01*
X267997714Y-48464428D01*
X267962000Y-48607285D01*
X267962000Y-48857285D01*
X267997714Y-49000142D01*
X268069142Y-49071571D01*
X268140571Y-49107285D01*
X268283428Y-49107285D01*
X268354857Y-49071571D01*
X268426285Y-49000142D01*
X268462000Y-48857285D01*
X268462000Y-48607285D01*
X268426285Y-48464428D01*
X268354857Y-48393000D01*
X268283428Y-48357285D01*
X267640571Y-49107285D02*
X267640571Y-48357285D01*
X267212000Y-49107285D01*
X267212000Y-48357285D01*
X266890571Y-48893000D02*
X266533428Y-48893000D01*
X266962000Y-49107285D02*
X266712000Y-48357285D01*
X266462000Y-49107285D01*
X266212000Y-49107285D02*
X266212000Y-48357285D01*
X265783428Y-49107285D01*
X265783428Y-48357285D01*
X264997714Y-49035857D02*
X265033428Y-49071571D01*
X265140571Y-49107285D01*
X265212000Y-49107285D01*
X265319142Y-49071571D01*
X265390571Y-49000142D01*
X265426285Y-48928714D01*
X265462000Y-48785857D01*
X265462000Y-48678714D01*
X265426285Y-48535857D01*
X265390571Y-48464428D01*
X265319142Y-48393000D01*
X265212000Y-48357285D01*
X265140571Y-48357285D01*
X265033428Y-48393000D01*
X264997714Y-48428714D01*
X264676285Y-48714428D02*
X264426285Y-48714428D01*
X264319142Y-49107285D02*
X264676285Y-49107285D01*
X264676285Y-48357285D01*
X264319142Y-48357285D01*
X270214142Y-22365857D02*
X270249857Y-22401571D01*
X270357000Y-22437285D01*
X270428428Y-22437285D01*
X270535571Y-22401571D01*
X270607000Y-22330142D01*
X270642714Y-22258714D01*
X270678428Y-22115857D01*
X270678428Y-22008714D01*
X270642714Y-21865857D01*
X270607000Y-21794428D01*
X270535571Y-21723000D01*
X270428428Y-21687285D01*
X270357000Y-21687285D01*
X270249857Y-21723000D01*
X270214142Y-21758714D01*
X269892714Y-21687285D02*
X269892714Y-22294428D01*
X269857000Y-22365857D01*
X269821285Y-22401571D01*
X269749857Y-22437285D01*
X269607000Y-22437285D01*
X269535571Y-22401571D01*
X269499857Y-22365857D01*
X269464142Y-22294428D01*
X269464142Y-21687285D01*
X269214142Y-21687285D02*
X268785571Y-21687285D01*
X268999857Y-22437285D02*
X268999857Y-21687285D01*
X268392714Y-21687285D02*
X268249857Y-21687285D01*
X268178428Y-21723000D01*
X268107000Y-21794428D01*
X268071285Y-21937285D01*
X268071285Y-22187285D01*
X268107000Y-22330142D01*
X268178428Y-22401571D01*
X268249857Y-22437285D01*
X268392714Y-22437285D01*
X268464142Y-22401571D01*
X268535571Y-22330142D01*
X268571285Y-22187285D01*
X268571285Y-21937285D01*
X268535571Y-21794428D01*
X268464142Y-21723000D01*
X268392714Y-21687285D01*
X267499857Y-22044428D02*
X267749857Y-22044428D01*
X267749857Y-22437285D02*
X267749857Y-21687285D01*
X267392714Y-21687285D01*
X266857000Y-22044428D02*
X267107000Y-22044428D01*
X267107000Y-22437285D02*
X267107000Y-21687285D01*
X266749857Y-21687285D01*
D11*
X275843837Y-102095300D02*
G75*
G03X275843837Y-102095300I-2286000J0D01*
G01*
X275132637Y-102095300D02*
G75*
G03X275132637Y-102095300I-1574800J0D01*
G01*
D12*
X278002837Y-106603800D02*
X269112837Y-106603800D01*
X278002837Y-95935800D02*
X278002837Y-106603800D01*
X269112837Y-95935800D02*
X278002837Y-95935800D01*
X269112837Y-106603800D02*
X269112837Y-95935800D01*
D11*
X260095837Y-102095300D02*
G75*
G03X260095837Y-102095300I-2286000J0D01*
G01*
X259384637Y-102095300D02*
G75*
G03X259384637Y-102095300I-1574800J0D01*
G01*
D12*
X262254837Y-106603800D02*
X253364837Y-106603800D01*
X262254837Y-95935800D02*
X262254837Y-106603800D01*
X253364837Y-95935800D02*
X262254837Y-95935800D01*
X253364837Y-106603800D02*
X253364837Y-95935800D01*
X269112837Y-120573800D02*
X269112837Y-109905800D01*
X269112837Y-109905800D02*
X278002837Y-109905800D01*
X278002837Y-109905800D02*
X278002837Y-120573800D01*
X278002837Y-120573800D02*
X269112837Y-120573800D01*
D11*
X275132637Y-116065300D02*
G75*
G03X275132637Y-116065300I-1574800J0D01*
G01*
X275843837Y-116065300D02*
G75*
G03X275843837Y-116065300I-2286000J0D01*
G01*
D12*
X253364837Y-120573800D02*
X253364837Y-109905800D01*
X253364837Y-109905800D02*
X262254837Y-109905800D01*
X262254837Y-109905800D02*
X262254837Y-120573800D01*
X262254837Y-120573800D02*
X253364837Y-120573800D01*
D11*
X259384637Y-116065300D02*
G75*
G03X259384637Y-116065300I-1574800J0D01*
G01*
X260095837Y-116065300D02*
G75*
G03X260095837Y-116065300I-2286000J0D01*
G01*
X277057837Y-85599843D02*
G75*
G03X277057837Y-85599843I-3500000J0D01*
G01*
X268703837Y-90589943D02*
G75*
G03X269467737Y-91099843I636900J127000D01*
G01*
X277647937Y-91099843D02*
X269467737Y-91099843D01*
X277647937Y-91099843D02*
G75*
G03X278411837Y-90589943I127000J636900D01*
G01*
X278411837Y-80609743D02*
X278411837Y-90589943D01*
X278411837Y-80609743D02*
G75*
G03X277647937Y-80099843I-636900J-127000D01*
G01*
X269467737Y-80099843D02*
X277647937Y-80099843D01*
X269467737Y-80099843D02*
G75*
G03X268703837Y-80609743I-127000J-636900D01*
G01*
X268703837Y-90589943D02*
X268703837Y-80609743D01*
D13*
X271907000Y-87757000D02*
G75*
G02X275209000Y-87757000I1651000J2159000D01*
G01*
X275209000Y-87757000D02*
X271907000Y-87757000D01*
X259461000Y-87757000D02*
X256159000Y-87757000D01*
X256159000Y-87757000D02*
G75*
G02X259461000Y-87757000I1651000J2159000D01*
G01*
D11*
X252955837Y-90589943D02*
X252955837Y-80609743D01*
X253719737Y-80099843D02*
G75*
G03X252955837Y-80609743I-127000J-636900D01*
G01*
X253719737Y-80099843D02*
X261899937Y-80099843D01*
X262663837Y-80609743D02*
G75*
G03X261899937Y-80099843I-636900J-127000D01*
G01*
X262663837Y-80609743D02*
X262663837Y-90589943D01*
X261899937Y-91099843D02*
G75*
G03X262663837Y-90589943I127000J636900D01*
G01*
X261899937Y-91099843D02*
X253719737Y-91099843D01*
X252955837Y-90589943D02*
G75*
G03X253719737Y-91099843I636900J127000D01*
G01*
X261309837Y-85599843D02*
G75*
G03X261309837Y-85599843I-3500000J0D01*
G01*
X269311000Y-28449843D02*
G75*
G03X269311000Y-28449843I-3500000J0D01*
G01*
X260957000Y-33439943D02*
G75*
G03X261720900Y-33949843I636900J127000D01*
G01*
X269901100Y-33949843D02*
X261720900Y-33949843D01*
X269901100Y-33949843D02*
G75*
G03X270665000Y-33439943I127000J636900D01*
G01*
X270665000Y-23459743D02*
X270665000Y-33439943D01*
X270665000Y-23459743D02*
G75*
G03X269901100Y-22949843I-636900J-127000D01*
G01*
X261720900Y-22949843D02*
X269901100Y-22949843D01*
X261720900Y-22949843D02*
G75*
G03X260957000Y-23459743I-127000J-636900D01*
G01*
X260957000Y-33439943D02*
X260957000Y-23459743D01*
D13*
X264160163Y-30607000D02*
G75*
G02X267462163Y-30607000I1651000J2159000D01*
G01*
X267462163Y-30607000D02*
X264160163Y-30607000D01*
X267462163Y-57277000D02*
X264160163Y-57277000D01*
X264160163Y-57277000D02*
G75*
G02X267462163Y-57277000I1651000J2159000D01*
G01*
D11*
X260957000Y-60109943D02*
X260957000Y-50129743D01*
X261720900Y-49619843D02*
G75*
G03X260957000Y-50129743I-127000J-636900D01*
G01*
X261720900Y-49619843D02*
X269901100Y-49619843D01*
X270665000Y-50129743D02*
G75*
G03X269901100Y-49619843I-636900J-127000D01*
G01*
X270665000Y-50129743D02*
X270665000Y-60109943D01*
X269901100Y-60619843D02*
G75*
G03X270665000Y-60109943I127000J636900D01*
G01*
X269901100Y-60619843D02*
X261720900Y-60619843D01*
X260957000Y-60109943D02*
G75*
G03X261720900Y-60619843I636900J127000D01*
G01*
X269311000Y-55119843D02*
G75*
G03X269311000Y-55119843I-3500000J0D01*
G01*
D13*
X261746000Y-71374000D02*
X261746000Y-76454000D01*
X269876000Y-71374000D02*
X269876000Y-76454000D01*
X269876000Y-71374000D02*
X261746000Y-71374000D01*
X269876000Y-76454000D02*
X261746000Y-76454000D01*
X268811000Y-73914000D02*
G75*
G03X268811000Y-73914000I-3000000J0D01*
G01*
D14*
X276890963Y-104654047D02*
X276890963Y-105515833D01*
X276948416Y-105688190D01*
X277063320Y-105803095D01*
X277235678Y-105860547D01*
X277350582Y-105860547D01*
X275684463Y-105860547D02*
X276373892Y-105860547D01*
X276029178Y-105860547D02*
X276029178Y-104654047D01*
X276144082Y-104826404D01*
X276258987Y-104941309D01*
X276373892Y-104998761D01*
D10*
X277444857Y-95142857D02*
X277480571Y-95178571D01*
X277587714Y-95214285D01*
X277659142Y-95214285D01*
X277766285Y-95178571D01*
X277837714Y-95107142D01*
X277873428Y-95035714D01*
X277909142Y-94892857D01*
X277909142Y-94785714D01*
X277873428Y-94642857D01*
X277837714Y-94571428D01*
X277766285Y-94500000D01*
X277659142Y-94464285D01*
X277587714Y-94464285D01*
X277480571Y-94500000D01*
X277444857Y-94535714D01*
X277230571Y-94464285D02*
X276980571Y-95214285D01*
X276730571Y-94464285D01*
X276087714Y-95214285D02*
X276516285Y-95214285D01*
X276302000Y-95214285D02*
X276302000Y-94464285D01*
X276373428Y-94571428D01*
X276444857Y-94642857D01*
X276516285Y-94678571D01*
D14*
X261142963Y-104679447D02*
X261142963Y-105541233D01*
X261200416Y-105713590D01*
X261315320Y-105828495D01*
X261487678Y-105885947D01*
X261602582Y-105885947D01*
X260625892Y-104794352D02*
X260568440Y-104736900D01*
X260453535Y-104679447D01*
X260166273Y-104679447D01*
X260051368Y-104736900D01*
X259993916Y-104794352D01*
X259936463Y-104909257D01*
X259936463Y-105024161D01*
X259993916Y-105196519D01*
X260683344Y-105885947D01*
X259936463Y-105885947D01*
D10*
X261442857Y-95142857D02*
X261478571Y-95178571D01*
X261585714Y-95214285D01*
X261657142Y-95214285D01*
X261764285Y-95178571D01*
X261835714Y-95107142D01*
X261871428Y-95035714D01*
X261907142Y-94892857D01*
X261907142Y-94785714D01*
X261871428Y-94642857D01*
X261835714Y-94571428D01*
X261764285Y-94500000D01*
X261657142Y-94464285D01*
X261585714Y-94464285D01*
X261478571Y-94500000D01*
X261442857Y-94535714D01*
X261228571Y-94464285D02*
X260978571Y-95214285D01*
X260728571Y-94464285D01*
X260514285Y-94535714D02*
X260478571Y-94500000D01*
X260407142Y-94464285D01*
X260228571Y-94464285D01*
X260157142Y-94500000D01*
X260121428Y-94535714D01*
X260085714Y-94607142D01*
X260085714Y-94678571D01*
X260121428Y-94785714D01*
X260550000Y-95214285D01*
X260085714Y-95214285D01*
D14*
X276890963Y-118624047D02*
X276890963Y-119485833D01*
X276948416Y-119658190D01*
X277063320Y-119773095D01*
X277235678Y-119830547D01*
X277350582Y-119830547D01*
X276431344Y-118624047D02*
X275684463Y-118624047D01*
X276086630Y-119083666D01*
X275914273Y-119083666D01*
X275799368Y-119141119D01*
X275741916Y-119198571D01*
X275684463Y-119313476D01*
X275684463Y-119600738D01*
X275741916Y-119715642D01*
X275799368Y-119773095D01*
X275914273Y-119830547D01*
X276258987Y-119830547D01*
X276373892Y-119773095D01*
X276431344Y-119715642D01*
D10*
X277619428Y-109184285D02*
X277619428Y-108434285D01*
X277262285Y-109184285D02*
X277262285Y-108434285D01*
X276833714Y-109184285D01*
X276833714Y-108434285D01*
D14*
X261142963Y-118624047D02*
X261142963Y-119485833D01*
X261200416Y-119658190D01*
X261315320Y-119773095D01*
X261487678Y-119830547D01*
X261602582Y-119830547D01*
X259993916Y-118624047D02*
X260568440Y-118624047D01*
X260625892Y-119198571D01*
X260568440Y-119141119D01*
X260453535Y-119083666D01*
X260166273Y-119083666D01*
X260051368Y-119141119D01*
X259993916Y-119198571D01*
X259936463Y-119313476D01*
X259936463Y-119600738D01*
X259993916Y-119715642D01*
X260051368Y-119773095D01*
X260166273Y-119830547D01*
X260453535Y-119830547D01*
X260568440Y-119773095D01*
X260625892Y-119715642D01*
D10*
X261728571Y-108434285D02*
X261585714Y-108434285D01*
X261514285Y-108470000D01*
X261442857Y-108541428D01*
X261407142Y-108684285D01*
X261407142Y-108934285D01*
X261442857Y-109077142D01*
X261514285Y-109148571D01*
X261585714Y-109184285D01*
X261728571Y-109184285D01*
X261800000Y-109148571D01*
X261871428Y-109077142D01*
X261907142Y-108934285D01*
X261907142Y-108684285D01*
X261871428Y-108541428D01*
X261800000Y-108470000D01*
X261728571Y-108434285D01*
X261085714Y-108434285D02*
X261085714Y-109041428D01*
X261050000Y-109112857D01*
X261014285Y-109148571D01*
X260942857Y-109184285D01*
X260800000Y-109184285D01*
X260728571Y-109148571D01*
X260692857Y-109112857D01*
X260657142Y-109041428D01*
X260657142Y-108434285D01*
X260407142Y-108434285D02*
X259978571Y-108434285D01*
X260192857Y-109184285D02*
X260192857Y-108434285D01*
D14*
X277340060Y-90620547D02*
X277742226Y-90046023D01*
X278029488Y-90620547D02*
X278029488Y-89414047D01*
X277569869Y-89414047D01*
X277454964Y-89471500D01*
X277397512Y-89528952D01*
X277340060Y-89643857D01*
X277340060Y-89816214D01*
X277397512Y-89931119D01*
X277454964Y-89988571D01*
X277569869Y-90046023D01*
X278029488Y-90046023D01*
X276995345Y-89414047D02*
X276593179Y-90620547D01*
X276191012Y-89414047D01*
X275156869Y-90620547D02*
X275846298Y-90620547D01*
X275501583Y-90620547D02*
X275501583Y-89414047D01*
X275616488Y-89586404D01*
X275731393Y-89701309D01*
X275846298Y-89758761D01*
D10*
X268049428Y-80876857D02*
X268085142Y-80984000D01*
X268120857Y-81019714D01*
X268192285Y-81055428D01*
X268299428Y-81055428D01*
X268370857Y-81019714D01*
X268406571Y-80984000D01*
X268442285Y-80912571D01*
X268442285Y-80626857D01*
X267692285Y-80626857D01*
X267692285Y-80876857D01*
X267728000Y-80948285D01*
X267763714Y-80984000D01*
X267835142Y-81019714D01*
X267906571Y-81019714D01*
X267978000Y-80984000D01*
X268013714Y-80948285D01*
X268049428Y-80876857D01*
X268049428Y-80626857D01*
X268442285Y-81769714D02*
X268442285Y-81341142D01*
X268442285Y-81555428D02*
X267692285Y-81555428D01*
X267799428Y-81484000D01*
X267870857Y-81412571D01*
X267906571Y-81341142D01*
X267692285Y-82234000D02*
X267692285Y-82305428D01*
X267728000Y-82376857D01*
X267763714Y-82412571D01*
X267835142Y-82448285D01*
X267978000Y-82484000D01*
X268156571Y-82484000D01*
X268299428Y-82448285D01*
X268370857Y-82412571D01*
X268406571Y-82376857D01*
X268442285Y-82305428D01*
X268442285Y-82234000D01*
X268406571Y-82162571D01*
X268370857Y-82126857D01*
X268299428Y-82091142D01*
X268156571Y-82055428D01*
X267978000Y-82055428D01*
X267835142Y-82091142D01*
X267763714Y-82126857D01*
X267728000Y-82162571D01*
X267692285Y-82234000D01*
X268442285Y-82805428D02*
X267692285Y-82805428D01*
X268156571Y-82876857D02*
X268442285Y-83091142D01*
X267942285Y-83091142D02*
X268228000Y-82805428D01*
D14*
X261592060Y-90620547D02*
X261994226Y-90046023D01*
X262281488Y-90620547D02*
X262281488Y-89414047D01*
X261821869Y-89414047D01*
X261706964Y-89471500D01*
X261649512Y-89528952D01*
X261592060Y-89643857D01*
X261592060Y-89816214D01*
X261649512Y-89931119D01*
X261706964Y-89988571D01*
X261821869Y-90046023D01*
X262281488Y-90046023D01*
X261247345Y-89414047D02*
X260845179Y-90620547D01*
X260443012Y-89414047D01*
X260098298Y-89528952D02*
X260040845Y-89471500D01*
X259925940Y-89414047D01*
X259638679Y-89414047D01*
X259523774Y-89471500D01*
X259466321Y-89528952D01*
X259408869Y-89643857D01*
X259408869Y-89758761D01*
X259466321Y-89931119D01*
X260155750Y-90620547D01*
X259408869Y-90620547D01*
D10*
X252301428Y-80876857D02*
X252337142Y-80984000D01*
X252372857Y-81019714D01*
X252444285Y-81055428D01*
X252551428Y-81055428D01*
X252622857Y-81019714D01*
X252658571Y-80984000D01*
X252694285Y-80912571D01*
X252694285Y-80626857D01*
X251944285Y-80626857D01*
X251944285Y-80876857D01*
X251980000Y-80948285D01*
X252015714Y-80984000D01*
X252087142Y-81019714D01*
X252158571Y-81019714D01*
X252230000Y-80984000D01*
X252265714Y-80948285D01*
X252301428Y-80876857D01*
X252301428Y-80626857D01*
X252694285Y-81769714D02*
X252694285Y-81341142D01*
X252694285Y-81555428D02*
X251944285Y-81555428D01*
X252051428Y-81484000D01*
X252122857Y-81412571D01*
X252158571Y-81341142D01*
X251944285Y-82234000D02*
X251944285Y-82305428D01*
X251980000Y-82376857D01*
X252015714Y-82412571D01*
X252087142Y-82448285D01*
X252230000Y-82484000D01*
X252408571Y-82484000D01*
X252551428Y-82448285D01*
X252622857Y-82412571D01*
X252658571Y-82376857D01*
X252694285Y-82305428D01*
X252694285Y-82234000D01*
X252658571Y-82162571D01*
X252622857Y-82126857D01*
X252551428Y-82091142D01*
X252408571Y-82055428D01*
X252230000Y-82055428D01*
X252087142Y-82091142D01*
X252015714Y-82126857D01*
X251980000Y-82162571D01*
X251944285Y-82234000D01*
X252694285Y-82805428D02*
X251944285Y-82805428D01*
X252408571Y-82876857D02*
X252694285Y-83091142D01*
X252194285Y-83091142D02*
X252480000Y-82805428D01*
D14*
X269466060Y-33470547D02*
X269868226Y-32896023D01*
X270155488Y-33470547D02*
X270155488Y-32264047D01*
X269695869Y-32264047D01*
X269580964Y-32321500D01*
X269523512Y-32378952D01*
X269466060Y-32493857D01*
X269466060Y-32666214D01*
X269523512Y-32781119D01*
X269580964Y-32838571D01*
X269695869Y-32896023D01*
X270155488Y-32896023D01*
X269121345Y-32264047D02*
X268719179Y-33470547D01*
X268317012Y-32264047D01*
X268029750Y-32264047D02*
X267282869Y-32264047D01*
X267685036Y-32723666D01*
X267512679Y-32723666D01*
X267397774Y-32781119D01*
X267340321Y-32838571D01*
X267282869Y-32953476D01*
X267282869Y-33240738D01*
X267340321Y-33355642D01*
X267397774Y-33413095D01*
X267512679Y-33470547D01*
X267857393Y-33470547D01*
X267972298Y-33413095D01*
X268029750Y-33355642D01*
D10*
X260175428Y-23472857D02*
X260211142Y-23580000D01*
X260246857Y-23615714D01*
X260318285Y-23651428D01*
X260425428Y-23651428D01*
X260496857Y-23615714D01*
X260532571Y-23580000D01*
X260568285Y-23508571D01*
X260568285Y-23222857D01*
X259818285Y-23222857D01*
X259818285Y-23472857D01*
X259854000Y-23544285D01*
X259889714Y-23580000D01*
X259961142Y-23615714D01*
X260032571Y-23615714D01*
X260104000Y-23580000D01*
X260139714Y-23544285D01*
X260175428Y-23472857D01*
X260175428Y-23222857D01*
X260568285Y-24365714D02*
X260568285Y-23937142D01*
X260568285Y-24151428D02*
X259818285Y-24151428D01*
X259925428Y-24080000D01*
X259996857Y-24008571D01*
X260032571Y-23937142D01*
X259818285Y-24830000D02*
X259818285Y-24901428D01*
X259854000Y-24972857D01*
X259889714Y-25008571D01*
X259961142Y-25044285D01*
X260104000Y-25080000D01*
X260282571Y-25080000D01*
X260425428Y-25044285D01*
X260496857Y-25008571D01*
X260532571Y-24972857D01*
X260568285Y-24901428D01*
X260568285Y-24830000D01*
X260532571Y-24758571D01*
X260496857Y-24722857D01*
X260425428Y-24687142D01*
X260282571Y-24651428D01*
X260104000Y-24651428D01*
X259961142Y-24687142D01*
X259889714Y-24722857D01*
X259854000Y-24758571D01*
X259818285Y-24830000D01*
X260568285Y-25401428D02*
X259818285Y-25401428D01*
X260282571Y-25472857D02*
X260568285Y-25687142D01*
X260068285Y-25687142D02*
X260354000Y-25401428D01*
D14*
X269466060Y-60140547D02*
X269868226Y-59566023D01*
X270155488Y-60140547D02*
X270155488Y-58934047D01*
X269695869Y-58934047D01*
X269580964Y-58991500D01*
X269523512Y-59048952D01*
X269466060Y-59163857D01*
X269466060Y-59336214D01*
X269523512Y-59451119D01*
X269580964Y-59508571D01*
X269695869Y-59566023D01*
X270155488Y-59566023D01*
X269121345Y-58934047D02*
X268719179Y-60140547D01*
X268317012Y-58934047D01*
X267397774Y-59336214D02*
X267397774Y-60140547D01*
X267685036Y-58876595D02*
X267972298Y-59738380D01*
X267225417Y-59738380D01*
D10*
X260175428Y-50190571D02*
X260211142Y-50297714D01*
X260246857Y-50333428D01*
X260318285Y-50369142D01*
X260425428Y-50369142D01*
X260496857Y-50333428D01*
X260532571Y-50297714D01*
X260568285Y-50226285D01*
X260568285Y-49940571D01*
X259818285Y-49940571D01*
X259818285Y-50190571D01*
X259854000Y-50262000D01*
X259889714Y-50297714D01*
X259961142Y-50333428D01*
X260032571Y-50333428D01*
X260104000Y-50297714D01*
X260139714Y-50262000D01*
X260175428Y-50190571D01*
X260175428Y-49940571D01*
X260568285Y-51083428D02*
X260568285Y-50654857D01*
X260568285Y-50869142D02*
X259818285Y-50869142D01*
X259925428Y-50797714D01*
X259996857Y-50726285D01*
X260032571Y-50654857D01*
X259818285Y-51547714D02*
X259818285Y-51619142D01*
X259854000Y-51690571D01*
X259889714Y-51726285D01*
X259961142Y-51762000D01*
X260104000Y-51797714D01*
X260282571Y-51797714D01*
X260425428Y-51762000D01*
X260496857Y-51726285D01*
X260532571Y-51690571D01*
X260568285Y-51619142D01*
X260568285Y-51547714D01*
X260532571Y-51476285D01*
X260496857Y-51440571D01*
X260425428Y-51404857D01*
X260282571Y-51369142D01*
X260104000Y-51369142D01*
X259961142Y-51404857D01*
X259889714Y-51440571D01*
X259854000Y-51476285D01*
X259818285Y-51547714D01*
X259818285Y-52262000D02*
X259818285Y-52333428D01*
X259854000Y-52404857D01*
X259889714Y-52440571D01*
X259961142Y-52476285D01*
X260104000Y-52512000D01*
X260282571Y-52512000D01*
X260425428Y-52476285D01*
X260496857Y-52440571D01*
X260532571Y-52404857D01*
X260568285Y-52333428D01*
X260568285Y-52262000D01*
X260532571Y-52190571D01*
X260496857Y-52154857D01*
X260425428Y-52119142D01*
X260282571Y-52083428D01*
X260104000Y-52083428D01*
X259961142Y-52119142D01*
X259889714Y-52154857D01*
X259854000Y-52190571D01*
X259818285Y-52262000D01*
X260568285Y-52833428D02*
X259818285Y-52833428D01*
X260282571Y-52904857D02*
X260568285Y-53119142D01*
X260068285Y-53119142D02*
X260354000Y-52833428D01*
X270813571Y-74184000D02*
X270849285Y-74291142D01*
X270849285Y-74469714D01*
X270813571Y-74541142D01*
X270777857Y-74576857D01*
X270706428Y-74612571D01*
X270635000Y-74612571D01*
X270563571Y-74576857D01*
X270527857Y-74541142D01*
X270492142Y-74469714D01*
X270456428Y-74326857D01*
X270420714Y-74255428D01*
X270385000Y-74219714D01*
X270313571Y-74184000D01*
X270242142Y-74184000D01*
X270170714Y-74219714D01*
X270135000Y-74255428D01*
X270099285Y-74326857D01*
X270099285Y-74505428D01*
X270135000Y-74612571D01*
X270099285Y-74862571D02*
X270849285Y-75041142D01*
X270313571Y-75184000D01*
X270849285Y-75326857D01*
X270099285Y-75505428D01*
X270849285Y-76184000D02*
X270849285Y-75755428D01*
X270849285Y-75969714D02*
X270099285Y-75969714D01*
X270206428Y-75898285D01*
X270277857Y-75826857D01*
X270313571Y-75755428D01*
M02*
